<?xml version="1.0" encoding="UTF-8"?>
<svg id="Layer_2" data-name="Layer 2" xmlns="http://www.w3.org/2000/svg" viewBox="0 0 930.26 271.2">
  <defs>
    <style>
      .cls-1 {
        fill: #787979;
      }

      .cls-1, .cls-2, .cls-3 {
        stroke-width: 0px;
      }

      .cls-2 {
        fill: #fff;
      }

      .cls-3 {
        fill: #ff7bac;
        opacity: 0;
      }
    </style>
  </defs>
  <g id="Layer_1-2" data-name="Layer 1">
    <g>
      <g>
        <path class="cls-2" d="M451.46,3.16c7.61-1.62,15.28-2.8,23.09-2.76-.36,8.02-5.31,14.48-10.57,20.09.32-2.38.67-4.75,1.03-7.14-1.47-2.35-2.99-4.67-4.64-6.86-.27-.23-.76-.67-1-.89-1.55.19-3.07.41-4.58.65-.96,1.56-1.93,3.14-2.87,4.72-.8-1.23-2.42-3.71-3.22-4.96.68-.71,2.07-2.14,2.76-2.84h0Z"/>
        <path class="cls-2" d="M242.45,94.14c2.42-.16,4.7.29,6.86,1.37,5.2,2.48,11.22,2.6,16.34,5.38-7.99,2.48-17.42-.99-23.2-6.74h0Z"/>
      </g>
      <path class="cls-2" d="M474.55.4c11.64-1.56,22.98,1.91,34.55,2.23,5.39,1.27,10.93,1.56,16.39,2.52,11.8,2.08,23.1,6.45,34.99,8.06-1,3.16-1.91,6.35-2.9,9.52-.44.28-1.36.84-1.8,1.12-7.81-1.24-15.5-3.55-23.48-3.26-15.85-1.24-34.94,1.86-42.91,17.47,1.43,3.96,2.83,7.94,4.26,11.89.68.2,2.03.63,2.7.84.56-16.23,15.72-31.68,32.5-28.27.63.79,1.9,2.35,2.51,3.11,8.57-.11,17.1.61,25.6,1.65,1.9,1.24,3.75,2.56,5.62,3.88-2.8,4.12-6.38,7.86-11.56,8.68-6.55-2.1-13.04-4.67-19.9-5.58-10.6.41-19.54,7.34-26,15.26,10.66-7.01,24.57-10.81,36.88-6.03,11.6,4.23,23.44,8.41,33.73,15.35,3.78,2.46,4.87,7.15,7.15,10.78-2.52-6.81-6.22-13.31-12.21-17.66.84-.75,2.52-2.23,3.36-2.98,3.6-.67,7.11-1.71,10.57-2.99-.95,1.65-1.88,3.32-2.79,4.99,1.27,1.03,2.59,1.99,3.84,3.03,4.42-1.75,8.85-3.44,13.31-5.07-1.6-2.67-3.18-5.38-4.74-8.05,3.07-.52,6.14-1.03,9.22-1.52v-4.03c-4.23-1.03-8.46-2.08-12.64-3.26,3.11-1.09,6.22-2.18,9.37-3.22-4.35-1.48-8.89-3.08-11.6-7.06,36.8.71,73.76,2.73,110.41-1.71-7.19-1.75-14.53-2.84-21.87-3.68-2.27-2.1-4.54-4.18-6.78-6.29,9.5,6.1,21.07,4.42,31.63,6.83,2.18,1.06,4.3,2.21,6.45,3.35-2.7,7.82-12.85,5.78-19.31,7.58,17.39.27,34.58,3.54,51.96,4.16,19.23,2.35,38.41,5.38,57.31,9.7,6.26,1.28,12.58,2.48,18.98,2.94,18.46.87,36.07,7.02,53.65,12.2,11.64,3.84,23.29,8.13,33.63,14.81,7.33,4.61,15.61,7.7,22.36,13.24,2.66,2.7,4.7,7.61,1.99,10.93-4.2,4.68-10.84,5.7-16.52,7.5,3.07,2.43,6.17,4.87,9.1,7.5-4.82,6.5-14.98,3.36-19.1,10.26-.11-.96-.33-2.94-.44-3.9-6.3,2.19-12.92,3.26-19.26,5.34-8.05,2.75-13.55,9.57-20.27,14.36-7.26,5.13-14.98,9.61-22.93,13.53-29.87,6.43-60.31,11.5-88.77,23.14-10.61,4.4-22.13,5.78-32.8,9.98-10.66,4.18-22.12,5.48-33.11,8.47-5.5,1.32-11.08,2.18-16.67,2.94-45.12,4.79-90.41,8.75-134.94,17.86-21.84,3.92-45.82,2.8-65.05,15.55-8.41,5.27-6.14,17.28-13.45,23.62-1.48-4.61,1.36-8.79,2.27-13.17-.33-2.6-1.06-5.1-1.71-7.62-3.47,2.32-7.14,4.58-11.45,4.72,3.68-6.31,7.57-13.11,14.57-16.23,11.57-7.11,25.63-5.15,38.25-8.79,27.33-5.5,55.03-9.66,82.87-11.08,17.87-1.06,35.59-3.84,53.4-5.69,10.45-.11,19.87-4.94,29.99-6.77-8.02.52-16.04.95-24.05,1.56-9.46.82-18.83-2.46-28.27-.75-13.96,2.4-28.16,2.62-42.28,2.66-13.32,2.18-26.88,3.88-40.4,2.94-8.41-.95-16.34,3.27-24.73,2.66-6.82-.52-13.63.05-20.23,1.76-15.02,1.58-30.16-.68-45.19.52,2.08-3.64,4.2-7.26,6.38-10.88-2.14-.24-4.26-.48-6.35-.75,3.7-4.64,9.76-3.12,14.63-1.62,4.16-1,8.27-2.24,12.36-3.51-1.34-.29-4.03-.89-5.38-1.19l3.4-3.74c-5.76-1.95-12.53,1.31-17.62-2.66-9.7-7.33-23.21-5.3-33.99-1.67-5.82,2.84-10.98,6.82-16.19,10.61-1.19-1.32-2.38-2.66-3.55-3.98,3.11-.99,6.22-1.96,9.34-2.95-2.62-2.76-5.34-5.45-8.1-8.02.63-2.23,1.31-4.44,1.95-6.63-1.8-1.17-3.6-2.32-5.39-3.47-.89.51-1.76,1-2.64,1.51-7.42-1.8-15.48-2.66-21.39-7.99-9.05-.57-18.12-.39-27.19-.56.35-3.04.72-6.1,1.08-9.14-9.56-2.79-19.74-1.09-29.27-3.94,2.84-1.09,5.7-2.14,8.62-3.07,12.55,1.37,25.33,2.62,37.96,1.37-13.96-.63-27.75-3.26-41.29-6.5.87-.76,2.64-2.28,3.51-3.04,3.82.32,7.33-.71,9.84-3.7-4.23-2.19-8.14-4.98-11.21-8.66,3.07.79,6.11,1.64,9.17,2.51,4.82-1.52,9.61-3.07,14.48-4.37,18.18,1.32,36.45.63,54.64,1.93,5.39.44,10.8-.09,16.06-1.31.08-5.41-.16-10.81-.2-16.23-4.26-3.94-8.73-7.64-12.77-11.8-5.17-5.69-12.83-8.05-18.22-13.48,2.62-1.76,5.18-3.63,7.62-5.67-3.42-3.12-5.98-7.01-4.92-11.88,1.32,1.91,2.6,3.84,3.84,5.82,1.19-1.13,2.38-2.24,3.56-3.36l.08,3.98c3.04-.87,6.1-3.6,9.44-2.6,3.4,2.24,5.93,5.54,8.65,8.53-3.11-2.36-6.07-4.89-9.05-7.39-2.56,1.2-5.17,2.36-7.64,3.74,5.79,10.33,17.39,15.8,24.1,25.46,4.61,7.19,2.84,15.96,3.16,24,6.71-.24,13.32-1.48,19.85-2.99.63.39,1.9,1.15,2.52,1.52-6.59,2.76-12.92,6.11-19.07,9.74,5.24.8,10.52,1.08,15.82.8,2.14-5.35,7.1-7.34,12.64-6.83-2.73,1.08-5.43,2.18-8.14,3.28,4.06.96,8.16,1.99,12.36,2.08,9.05,1.23,15.92-6.01,24.44-7.62.37,2.38.32,4.91,1.43,7.1,4.51-.44,8.79-2.07,13.04-3.54-2.12-2.76-3.59-6.77-7.45-7.42-5.06-1.37-10.05,1.08-14.91,2.24,5.79-5.82,11.05-12.79,11.16-21.41,3.03-6.74.23-14.53-2.42-21.02.91-3.27,3.11-6.19,3.38-9.58-.8-5.73-3.08-11.17-6.55-15.78-1.12-.01-3.38-.05-4.51-.08-.28-2.12-.56-4.22-.84-6.3-.96.6-2.88,1.8-3.83,2.42-.57-.93-1.75-2.75-2.32-3.66-1.41,1-2.8,2-4.2,3.03-2.03-2.52-4.12-4.99-6.19-7.5-1.2.19-3.64.55-4.87.72-5.41-4.74-12.36-8.1-19.71-7.34-15.87,1.28-32.35,2.19-46.72,9.81-9.77,3.71-16.95,11.47-23.97,18.85,3.08-.55,6.19-1.06,9.29-1.52-3,3.07-6.17,6.95-10.98,6.41-7.49.04-14.79,2.75-22.29,1.95-7.06-1.41-13.68-4.39-20.65-6.17.24-1.8.44-3.63.61-5.43,10.41-.39,20.82-1.23,31.16-2.38,7.73-1.2,16.34-1.34,22.38-7.05-16.44,2.1-32.8,4.89-49.33,6.55,5.35-3.59,10.89-6.87,16.58-9.9,1.58-.72,3.14-1.47,4.72-2.21-7.54-.01-14.96,1.39-22.45,2.1-21.11.91-42.34.95-63.18,4.72-6.25,1.36-12.69.52-18.98,1.47-5.15.76-10.33,1.27-15.54,1.43-1.37-.99-2.75-1.96-4.12-2.98,27.27-1.91,54.21-6.66,81.48-8.25,14.21.01,28.4-.76,42.51-2.51,23.05-4.2,47.07-.24,69.67-7.42.44-.65,1.34-1.96,1.79-2.62.8.55,2.43,1.6,3.26,2.14l3.35.15c4.5-2.76,5.76-8.14,7.66-12.72,2.38-.96,4.78-1.91,7.15-2.87,1.03.8,2.03,1.62,3.04,2.42-5.69-1.34-6.82,4.23-8.44,7.95,4.34-3.07,8.33-6.91,13.64-8.18,2.08-.63,4.16-1.28,6.19-2.12.8,1.24,2.42,3.74,3.22,4.96l-.15.67c-2.27-.09-4.61-.93-6.82-.23-2.55,2.66-4.16,6.02-6.03,9.14,1.91-.32,3.84-.56,5.79-.89,1.06.04,2.14.05,3.23.08l3.08.23c-.08,1.41-.2,4.23-.28,5.63.71-3.32,1.13-6.71,1.43-10.1,2.59-3.12,5.3-6.14,8.18-9,1.65,2.19,3.18,4.51,4.64,6.86-.36,2.38-.71,4.75-1.03,7.14,5.26-5.62,10.22-12.06,10.57-20.09l-.05.1ZM476.03,5.28c2.47.82,4.89,1.76,7.25,2.88-4.94,5.2-9,11.97-7.25,19.43,3.54-1.31,3.6-5.3,4.64-8.3,1.27,1.51,2.52,3,3.82,4.51.08-1.17.27-3.5.36-4.67,2.94.56,5.35-3.47,5.58-6.07l.96.48c3.64-1.91,7.61-3.56,10.29-6.82-1.96.23-3.94.47-5.91.72-1.51-1.08-2.99-2.16-4.48-3.26l-.2,2.52c-4.46,2.42-8.09.41-10.8-3.22-1.41.61-2.84,1.2-4.26,1.76v.03ZM607.72,32.87c-.95,2.56-.09,3.47,2.59,2.71.93-2.55.08-3.46-2.59-2.71ZM614.56,35.19l-1.39.13c8.13,7.06,18.81,1.84,28.35,2.08l1.2.85c4.83-.13,9.66-.48,14.49-.82v-1.96c-9.65-2.07-19.54-1.15-29.31-1.62-4.48-.09-9.18-.72-13.35,1.34h.01ZM811.74,61.82c11.47,3.18,21.94,9.31,33.7,11.49-10.09-6.17-21.65-11.52-33.7-11.49ZM672.29,66.82c7.14,6.41,17.95,5.51,25.68,11.02,6.02,4.51,13.08,7.73,18.23,13.36,2.7,2.92,4.48,6.77,8.09,8.75-3.35-6.01-8.09-11.08-11.8-16.86-2.04-3.38-5.11-5.98-8.68-7.66-7.5-3.66-15.33-7.66-23.96-6.95-2.4-1.03-4.94-1.62-7.57-1.67h.01ZM843.72,66.82c8.18,6.93,20.58,8.94,25.32,19.59-3.08-11.17-14.6-17.51-25.32-19.59ZM387.47,67.02c.32,5.89,4.79,10.64,10.37,12.08-1.37-5.24-4.74-10.81-10.37-12.08ZM537.3,69.4c10.69,1.65,13.77,12.75,19.05,20.5-.8,4.99-2.12,10.32-6.22,13.69-10.13,8.1-21.15,15.2-32.8,20.9-4.31,2.38-9.33,1.96-14.05,2.4-6.26.48-12.21,2.56-18.1,4.55-7.73.72-15.96-.23-23.09,3.5-14.67,1.43-29.32,4.22-44.1,2.55,11.49,2.07,22.95,5.1,34.71,3.28,10.85,1.08,21.53-2.12,32.26-3.18,4.51-.91,9.56-.37,13.56-2.99,11.54-3,24.28-4.26,33.94-11.89,5.7-4.09,11.68-7.78,17.19-12.12,5.1-3.99,7.62-10.32,8.92-16.47.89-10.36-6.86-19.89-16.2-23.49-1.71-.41-3.38-.82-5.07-1.24h-.01ZM721.27,72.9c8.33-2.55,15.83,4.31,23.44,7.05,7.29,5.39,15.91,10.66,18.94,19.74.68,4.31-.76,8.66-.87,13.01-4.55,8.73-13.24,13.6-21.94,17.38-.99,4.48-4.48,7.58-8.89,8.53-15.75,3.51-30.78,9.61-46.42,13.49-13.07,1.55-26.17,2.7-39.08,5.18,3.14.65,6.38,1,9.58.56,23.5-3.11,47.67-3.87,70.24-11.84,7.81-2.04,15.8-3.56,23.33-6.62.67-1.71,1.34-3.42,2.03-5.13,6.34-3.82,13.36-6.35,19.55-10.38,4.03-5.82,8.96-11.75,9.85-19.02-4.54-9.84-12.6-17.6-21.61-23.3-9.06-3.55-17.47-9.18-27.36-10.18-3.54-.56-8.21-1.64-10.78,1.55h0ZM866.01,73.56c7.7,8.41,10.93,20.49,9.37,31.66-2.64,7.9-9.72,12.75-14.81,18.91-4.78,5.69-10.08,10.89-15.2,16.26,6.53-2.18,11.93-6.53,17.34-10.61,3.98-2.88,4.34-8.85,8.62-11.37,8.27-4.67,17.84-6.43,27.21-7.25.52-5.06-5.11-7.43-6.54-11.78.28-5.02,4.48-8.73,8.46-11.3-11.16-5.51-22.6-10.6-34.43-14.52h-.01ZM399.79,79.66c-.89,3,3.44,6.73,6.25,5.26.68-2.8-3.64-6.39-6.25-5.26ZM404.59,86.24c1.52,4.2,5.39,6.74,8.57,9.61.15,5.51,1.41,10.92,1.79,16.4l1.39.51c.44-4.98.51-10,.43-15.02-3.6-4.26-6.86-9.18-12.17-11.5h-.01ZM830.75,89.05c3.75,4.58,7.89,8.92,10.41,14.35.76,9.09-4.63,16.75-9.31,24.01-6.45,8.58-16.82,12.58-25.67,18.12,7.75-1.15,15.4-3.36,22.58-6.54,5.19-3.44,9.98-7.7,13.93-12.51,6.29-9.62,6.35-23.45-1.39-32.31-3.26-2.21-6.95-3.63-10.56-5.11h.01ZM652.71,92.74c-.19,4.02,1.76,8.41-1.17,11.85,2.1-1.39,4.07-2.94,5.82-4.75,2.04,4.09,1.08,9.03-2.8,11.54-7.01,3.82-15.31,4.91-21.69,9.94-6.38,4.92-14.63,6.14-21.49,10.02-8.47,1.75-15.92,6.73-24.49,8.13-2.88.57-5.93.63-8.57,2.04-14.57,4.68-30.22,4.63-45.18,7.61-20.59-2.24-40.43,7.39-61.03,4.31,25.18,2.8,50.46-2.51,75.62.24,4.7.27,9.66.87,14.08-1.13,9.42-.76,18.66-2.98,28-4.26,13.64-1.08,24.61-10.26,36.35-16.39,9.41-4.67,20.59-2.56,29.8-7.81,5.38-2.18,8.46-7.73,8.05-13.44,1.06-8.01-5.97-13.25-11.32-17.9h.01ZM868.48,92.49c.48,4.31.37,8.65.36,12.96,1.76-2.21,2.42-5.02,3.28-7.64-1.27-1.76-2.46-3.51-3.64-5.31h0ZM906.04,101.02c6.29.13,12.2-2.18,17.82-4.72.28-.85.82-2.55,1.08-3.4-6.38,2.43-13.51,3.7-18.9,8.13h0ZM799.44,125.8l-400.37,23.01c6.45,1.51,13.16,2.1,19.71.87-5.45-3.98-13.96-4.51-19.71-.87l400.37-23.01Z"/>
      <path class="cls-2" d="M438.34,3.92c4.39-.04,8.75-.29,13.12-.76-.71.71-2.08,2.14-2.76,2.84-2.03.84-4.11,1.48-6.19,2.12-1.19-.01-3.54-.04-4.7-.05.13-1.04.41-3.11.55-4.15h-.01Z"/>
      <path class="cls-3" d="M404.59,86.24c5.31,2.32,8.57,7.25,12.17,11.5.08,5.02.01,10.04-.43,15.02l-1.39-.51c-.37-5.5-1.64-10.89-1.79-16.4-3.18-2.87-7.05-5.41-8.57-9.61h.01Z"/>
      <path class="cls-2" d="M491.28,4.2c1.48,1.09,2.98,2.18,4.48,3.26,1.96-.27,3.94-.51,5.91-.72-2.7,3.26-6.66,4.91-10.29,6.82l-.96-.48c-.39-.19-1.15-.55-1.55-.72-2.19,1.6-4.15,3.92-4.03,6.81-.09,1.17-.28,3.5-.36,4.67-1.28-1.51-2.55-3-3.82-4.51,1.99-4.99,6.47-8.18,10.29-11.68.01-.23.08-.67.11-.89l.2-2.52v-.03Z"/>
      <path class="cls-2" d="M412.83,19.23c3.23-5.17,8.75-8.21,14.25-10.42-1.9,4.58-3.16,9.94-7.66,12.72,2.55-4.61-5.79-4.91-3.35-.15-.82-.55-2.46-1.6-3.26-2.14h.01Z"/>
      <g>
        <path class="cls-2" d="M444.93,11.42c2.21-.71,4.55.13,6.82.23-.57,2.55-1.08,5.11-1.51,7.67-.57.11-1.75.32-2.32.43-1.09-.01-2.18-.04-3.23-.08-1.95.33-3.88.57-5.79.89,1.88-3.12,3.5-6.49,6.03-9.14h0Z"/>
        <path class="cls-2" d="M279.76,183.59c5.35-2.28,11.24-1.88,16.94-1.79-2.12,1.03-4.23,2.08-6.35,3.14,1.83.29,5.45.89,7.26,1.2-9.05,1.15-17.87,3.5-26.71,5.76,1.17-.01,3.5-.05,4.64-.08-5.93,2.42-13.13.82-18.18,5.34,3.59,1.19,7.18,2.36,10.81,3.36-12.3-.05-24.64-.6-36.81-2.51,8.51.61,17.08.72,25.57-.33-7.78-6.54-18.99-3.07-27.88-7.45l.08,3.42c-7.3-1.19-14.71-1.86-21.78-4.11,10.13-.72,20.27,0,30.4.2,4.06.32,6.49-3.47,9.24-5.78,3.46-.44,6.93-.85,10.41-1.2l-2.21,2.88c-1.72.76-3.47,1.47-5.18,2.27,12.23.82,24.53-.65,36.33-3.88-2.19-.19-4.39-.33-6.58-.44h0Z"/>
      </g>
      <g>
        <path class="cls-2" d="M488.87,12.36c.39.19,1.15.55,1.55.72-.23,2.6-2.64,6.63-5.58,6.07-.11-2.88,1.84-5.2,4.03-6.81h0Z"/>
        <path class="cls-2" d="M462.09,134.96c7.11-3.71,15.35-2.76,23.09-3.5-7.39,2.7-15.31,3-23.09,3.5Z"/>
      </g>
      <g>
        <path class="cls-2" d="M560.47,13.22c8.29,1.23,16.16,4.15,24.29,6.07,1.28.82,2.55,1.65,3.79,2.52,2.71,3.98,7.25,5.58,11.6,7.06-3.14,1.04-6.26,2.12-9.37,3.22,4.18,1.17,8.41,2.23,12.64,3.26v4.03c-3.08.51-6.15,1-9.22,1.52,1.56,2.67,3.14,5.38,4.74,8.05-4.46,1.64-8.89,3.32-13.31,5.07-1.27-1.04-2.59-2-3.84-3.03.91-1.67,1.84-3.35,2.79-4.99-3.46,1.28-6.97,2.32-10.57,2.99-.84.75-2.52,2.23-3.36,2.98-6.15-4.61-12.41-9.33-19.65-12.12,5.19-.82,8.75-4.55,11.56-8.68-1.86-1.32-3.71-2.64-5.62-3.88-.29-.85-.87-2.59-1.17-3.44.44-.28,1.36-.84,1.8-1.12.99-3.16,1.9-6.35,2.9-9.52h-.01Z"/>
        <path class="cls-2" d="M274.74,40.49c20.83-.43,41.4-4.51,62.22-4.99-5.69,3.03-11.22,6.31-16.58,9.9-12.09,3.14-24.77,5.13-37.18,2.51l.72,2.67c-20.51,3.63-41.29,6.03-61.47,11.47-9.17,5.34-20.58,8.86-26.53,18.19-3.38,5.35,3.92,8.77,6.59,12.37-.37-14.43,12.49-24.37,24.92-28.63,18.74-5.55,37.92-11.33,57.54-11.71,1.08-.8,2.16-1.6,3.23-2.42,9.34.11,18.66-.79,27.97-1.62-.16,1.8-.37,3.63-.61,5.43-2.32.96-4.64,1.95-6.95,2.98,1.17,1.8,2.35,3.6,3.54,5.41-1.12-.95-3.38-2.84-4.51-3.79-.24,5.67-.47,11.33-.44,17.03-5.51,1.12-11.16,1.39-16.76,1.27.32,10.32,9.29,16.71,14.88,24.37.04,2.16.11,4.31.19,6.47,11.8,1.75,23.58,3.74,35.42,5.35-4.87,1.31-9.66,2.84-14.48,4.37-3.04-.87-6.1-1.72-9.17-2.51,3.07,3.68,6.97,6.47,11.21,8.66-2.51,2.99-6.02,4.02-9.84,3.7-.87.76-2.64,2.28-3.51,3.04-4.16-1-8.3-2.1-12.4-3.35.75-1.79,1.65-3.5,2.62-5.18l-3.42,3.5.13-2.48c-7.92,3.4-15.36-3.56-23.17-4.59.67-.95,2.03-2.84,2.71-3.79-.72.82-2.16,2.47-2.88,3.31-8.09-2.38-16.58-2.36-24.92-2.28,8.79.57,17.47,2.36,25.57,5.87,12.75,5.48,25.91,9.9,39.1,14.15-2.92.93-5.78,1.96-8.62,3.07,9.53,2.84,19.71,1.15,29.27,3.94-.35,3.04-.72,6.1-1.08,9.14,9.06.16,18.14-.01,27.19.56,5.91,5.34,13.97,6.19,21.39,7.99.87-.51,1.75-1,2.64-1.51,1.79,1.15,3.59,2.31,5.39,3.47-.65,2.19-1.32,4.4-1.95,6.63,2.76,2.59,5.48,5.26,8.1,8.02-3.12.99-6.25,1.96-9.34,2.95,1.17,1.32,2.36,2.66,3.55,3.98,5.2-3.79,10.37-7.77,16.19-10.61,2.7,1.67,5.5,3.14,8.37,4.54-5.2.04-10.37.87-15.28,2.6,4.59.93,9.24,1.65,13.91,2.36-2.48.55-4.98,1.09-7.45,1.65.79,1.34,1.58,2.7,2.38,4.03.75-.61,2.24-1.84,2.99-2.46.48,3.16,1.04,6.31,1.67,9.46.57-1.48,1.17-2.98,1.76-4.46,4.4,2.76,9.42,4.09,14.59,4.5-1.13,1.2-2.23,2.43-3.35,3.68-24.76.08-49.5-.11-74.25,1.56-19.78,1.31-39.6.33-59.42.68-9.65.55-19.33.65-28.94-.41-3.64-1-7.23-2.18-10.81-3.36,5.03-4.51,12.25-2.92,18.18-5.34,15.99-.35,31.74-3.07,47.54-5.26-8.46-.95-17-1.52-25.48-.43-1.83-.32-5.45-.91-7.26-1.2,2.12-1.06,4.23-2.12,6.35-3.14-5.69-.09-11.57-.51-16.94,1.79-8.19.55-16.38,1.41-24.57,2.07l2.21-2.88c3.55-.48,7.1-.93,10.65-1.56-9.9-2.18-19.9-3.88-29.8-6.03-19.57-6.43-39.79-10.84-60.34-12.47-17.27-5.3-34.09-12.68-52.28-14.12-22.73-3.68-45.61-6.74-68.09-11.69l4.68-1.56c-2.98-1.24-5.97-2.46-8.92-3.71,5.97-3.28,11.54,1.52,17.24,2.98,5.89,1.27,13.73,3.32,17.46-3.11,1,.09,1.99.13,2.99.15,1.23-2.7,2.36-5.43,3.46-8.18.95-.35,1.9-.72,2.84-1.08,5.7-4.87,9.7-13.45,18.15-13.48-.43,3.54-.29,7.09.24,10.6,5.87.55,11.73,1.12,17.58,1.71l1.79-4.79c-2.94-.24-5.87-.47-8.81-.71,1.6-.56,3.22-1.13,4.82-1.69.43-1.06,1.27-3.19,1.69-4.27,1.28-.51,3.83-1.52,5.1-2.03,4.83,1.41,9.65,2.94,14.19,5.15,14.55,7.29,31.67,6.26,46.13,13.84,20.3,5.63,40.77,12.13,62,12.88-15.64-3.42-30.92-8.29-46.35-12.53-13.68-5.58-28.31-8.25-41.85-14.12-7.25-3.11-14.71-5.76-21.97-8.82,1.83-2.64,3.63-5.3,5.31-8.01-2.21-6.82-2.84-14.16-1.69-21.26,4.06-2.32,8.89-1.86,13.39-1.99-1.31-2.66-2.56-5.34-3.83-8.01,2.75-.84,5.51-1.64,8.29-2.4-4.02-1.65-7.92-3.54-11.57-5.86,14.87-6.71,31.11-10.14,47.3-11.68.93-.08,2.8-.27,3.74-.35,11.02,1.04,21.86-2.04,32.86-1.31,10.42.51,20.59-2.6,31-2.76h-.04ZM279.58,57.21c-10.56,2.38-21.45,3.71-31.48,7.95-6.06,2.7-13.41,3.18-17.91,8.58-3.5,3.64-2.08,9.38.05,13.36-.28.87-.82,2.64-1.09,3.51,4.15,3,9.56,1.31,14.25,1.24-1.88-1.75-3.79-3.44-5.67-5.17,3.88-1.6,7.77-3.22,11.64-4.89.67.57,1.36,1.15,2.03,1.72,6.25-5.79,16.43-1.8,22.08-8.61,3.07.09,6.15-.01,9.24-.2-4.74-1.28-10.48-.43-14.21-4.09,3.19-.04,6.39,0,9.61.08.04-.41.09-1.2.13-1.62-6.14-1.65-12.44-3.71-18.83-2.14l-.85-1.93c5.87-.89,11.8-1.65,17.47-3.55,6.11-.65,12.2.24,18.23.99,3.51.2,7.05.35,10.56.47-.47-1.31-1.41-3.94-1.9-5.26.8-.47,2.38-1.39,3.18-1.86-8.85.24-17.75-.09-26.5,1.39l-.04.04ZM187.8,77.53c-3.92.23-6.17,8.29-.87,6.78,1.86-2.07,6.19-5.17,2.6-7.67l-1.72.89ZM242.45,94.14c5.78,5.76,15.2,9.24,23.2,6.74-5.11-2.76-11.13-2.88-16.34-5.38-2.16-1.08-4.44-1.55-6.86-1.37h0ZM286.56,101.1c-1.91.08-5.7.24-7.62.32,1.48,4.58,6.82,3.42,10.48,3.6,1.19.04,3.56.08,4.75.11h.85c.72-.52,2.16-1.55,2.88-2.04-.75,2.46,3.94,5.78,4.58,2.21.29-2.52-.43-4.58-2.16-6.15-2.4-2.35-4.89-4.61-7.38-6.86-2.24,2.87-4.35,5.82-6.39,8.81h0ZM230.65,112.87c2.9-.15,5.78-.32,8.66-.51-.75-1.69-1.48-3.4-2.21-5.1-2.8,1.13-6.01,2.07-6.45,5.59h0ZM303.01,111c-2.16,2.66,2.71,4.68,4.26,2.38,2.18-2.66-2.73-4.72-4.26-2.38ZM205.83,142.89c3.22,1.79,6.69,3,10.22,4.06,1.52,2.16,2.4,5.17,5.15,6.11,9.61,4.39,20.41,3.5,30.68,3.51-2.62-1.95-5.17-3.94-7.67-6.01-6.86-1.08-15.43,2.16-20.78-3.46-4.46-4.87-11.61-4.11-17.6-4.22h0Z"/>
      </g>
      <path class="cls-2" d="M416.09,21.37c-2.46-4.75,5.89-4.46,3.35.15l-3.35-.15Z"/>
      <g>
        <path class="cls-2" d="M532.31,20.6c7.97-.29,15.67,2,23.48,3.26.29.85.87,2.59,1.17,3.44-8.49-1.04-17.03-1.76-25.6-1.65-.61-.76-1.88-2.32-2.51-3.11,2.76.01,5.58,0,8.38-.08-1.23-.47-3.7-1.39-4.92-1.86h0Z"/>
        <path class="cls-2" d="M303.01,111c1.52-2.35,6.43-.28,4.26,2.38-1.55,2.31-6.41.28-4.26-2.38Z"/>
      </g>
      <path class="cls-2" d="M614.56,35.19c4.16-2.07,8.86-1.43,13.35-1.34,9.77.47,19.66-.44,29.31,1.62v1.96c-4.83.33-9.66.68-14.49.82l-1.2-.85c-.52-.35-1.55-1.04-2.07-1.39-8.19-1.67-16.59-1.55-24.89-.82h-.01Z"/>
      <path class="cls-2" d="M607.72,32.87c2.66-.75,3.51.16,2.59,2.71-2.67.76-3.54-.15-2.59-2.71Z"/>
      <g>
        <path class="cls-2" d="M406.75,35.21c7.42,5.3,13.16,12.41,19.83,18.51,5.86,5.83,13.25,10.84,15.91,19.07,1.95,7.42,1.76,15.2,1.93,22.82-1.64-.85-3.79-1.45-4.07-3.64-2.08-8.3-2.98-17.7-9.18-24.18-7.78-7.7-16.48-14.36-25.04-21.13-4.42-2.84-.43-7.9.61-11.45h.01Z"/>
        <path class="cls-2" d="M411.19,172.79c10.78-3.63,24.29-5.65,33.99,1.67,5.1,3.96,11.85.71,17.62,2.66l-3.4,3.74c1.34.29,4.03.89,5.38,1.19-4.09,1.27-8.19,2.51-12.36,3.51-4.87-1.51-10.93-3.03-14.63,1.62,2.1.27,4.22.51,6.35.75-2.18,3.6-4.3,7.23-6.38,10.88-2.35-.04-4.67-.08-6.99-.09,1.12-1.24,2.21-2.47,3.35-3.68-5.17-.41-10.18-1.72-14.59-4.5-.6,1.48-1.19,2.98-1.76,4.46-.63-3.14-1.19-6.3-1.67-9.46-.75.61-2.24,1.84-2.99,2.46-.8-1.34-1.6-2.7-2.38-4.03,2.47-.56,4.96-1.12,7.45-1.65-4.67-.71-9.31-1.43-13.91-2.36,4.91-1.72,10.08-2.56,15.28-2.6-2.87-1.39-5.67-2.87-8.37-4.54v-.05Z"/>
      </g>
      <g>
        <path class="cls-2" d="M151.02,45.43c15.8-1.41,31.43-4.61,47.35-4.61,7.1.15,15.05-3.03,21.34,1.65-2.94.75-5.87,1.45-8.82,2.08-.93.09-2.8.28-3.74.35-4.59-.13-9.25-.67-13.77.44-10.98,2.95-22.43,3.71-33.25,7.42-1.15-.67-3.47-2-4.63-2.67,3.35-.75,6.74-1.32,10.1-1.96-3.79.2-7.61.48-11.4.75-1.08-1.15-2.14-2.28-3.19-3.44h.01Z"/>
        <path class="cls-2" d="M330.23,73.46c3.47,4.96,1.04,11.3-2.14,15.75-1.06.04-3.18.09-4.26.11.11-.76.33-2.32.44-3.11,1.27-.13,3.82-.41,5.1-.55.35-4.07.57-8.14.85-12.21h.01Z"/>
      </g>
      <path class="cls-2" d="M109.4,52.24c13.92-2.67,27.99-4.39,42.04-6.14-.41,1.06-1.19,3.19-1.6,4.26-16.3.09-32.24,3.66-48.22,6.38,1.93.8,3.87,1.56,5.86,2.27-5.45,1.15-11.05,1.43-16.56.75-.52-.47-1.56-1.41-2.08-1.9-.39-.37-1.17-1.09-1.56-1.45-11.47-.35-22.4-3.75-33.57-5.86,18.64-1.84,37.12,5.3,55.7,1.69h-.01Z"/>
      <path class="cls-2" d="M107.48,58.99c15.92-3.42,32.35-4.09,48.02-8.9,1.15.67,3.47,2,4.63,2.67-15.23,2.8-30.03,13.93-34.01,29.31-1.69-1.51-4.34-2.24-5.13-4.55.85-2.24,1.96-4.39,3.04-6.53-3.36-3.88-8.73-10.74-14.25-6.54-5.79,2.9-7.58,9.77-6.54,15.75,2.21-.19,4.44-.33,6.69-.44-1.96,3.28-6.1,2.94-9.33,3.78-2.08,3.56-4.37,7.01-7.09,10.13,1.47.63,2.94,1.24,4.39,1.9l2.67-4.46,1.93,1.79c1.12-.67,2.21-1.32,3.32-1.99-1.88,7.29-2.7,16.67-11.24,19.14-2.7-.96-5.35-2.21-8.23-2.46-2.7.93-4.92,2.75-7.3,4.26-2.47-1.65-4.96-3.28-7.25-5.18.8-2.08,2.9-3.18,4.42-4.7.41-.85.84-1.72,1.27-2.59,2.67-1.6,5.38-3.19,8.02-4.86-5.46.33-10.88,1.62-15.59,4.5-1.32-1.8-2.64-3.6-3.98-5.41-1.67,4.83-1.24,9.84,0,14.68-3.9,4.31-10.6,1.27-14.03-2.23,1.23-.37,3.66-1.12,4.87-1.51l-7.64-6.19c2.62-2.36,5.06-4.92,7.66-7.3-10.09,6.67-23.4,6.39-32.78,14.6-.19,5.74,4.58,9.93,9.28,12.33,7.75,3.87,16.11,6.39,24.58,8.1,9.9,2.46,20.03,3.74,30.08,5.38-3.71,6.43-11.56,4.37-17.46,3.11-5.7-1.45-11.28-6.26-17.24-2.98,2.95,1.27,5.95,2.47,8.92,3.71l-4.68,1.56c-7.58-1.84-14.77-4.92-22.17-7.37,13.03,11.32,27.24,22.78,44.79,25.76,1.27,2.18,2.71,4.61,5.55,4.7,8.65,1.27,16.68,5.3,25.48,5.73,6.01.56,11.68,3,17.71,3.31,12.33,1.62,26.72-1.52,37.3,6.34-2.75.41-5.5.8-8.25,1.19.37.82,1.12,2.43,1.48,3.23-7.1-1.9-14.25-3.63-21.59-4.11-27.76-4.18-55.84-8.77-82.05-19.19-7.9-2.98-16.99-3.56-23.53-9.46-5.95-5.3-13.31-8.89-18.7-14.79-5.62-7.81-11.75-15.71-13.51-25.42,2.62-3.74,4.54-8.98,9.52-10.02,11-3.26,22.84-3.5,33.38-8.34,1.32-2.75-1.43-5.69-4.06-6.02-7.78-1.93-17.56-.67-22.08-8.85,1.99-2.6,3.27-6.19,6.49-7.54,21.49-5.41,43.84-4.12,65.55-8.18.52.48,1.56,1.43,2.08,1.9,5.5.68,11.12.41,16.56-.75h.04ZM26.31,70.54c-.04.95-.11,2.83-.15,3.78,5.43,1.51,10.85,3.04,16.39,4.15,6.81-10.6,20.59-10.46,31.52-13.36-16.1-.95-32.39.37-47.77,5.45h.01ZM5.35,112.02c3.04,11.4,11.33,21.41,21.31,27.64,5.79,3.66,10.6,10.13,18.1,9.9-8.53-6.3-16.63-13.11-23.61-21.13-.15-3.27.85-7.06-1.43-9.81-2.42-1.88-5.2.16-7.61.87-2.38-2.4-4.27-5.22-6.78-7.47h.01Z"/>
      <g>
        <path class="cls-2" d="M137.27,74.09c6.29-7.21,14.08-13.12,22.58-17.51,3.66,2.32,7.57,4.2,11.57,5.86-2.76.76-5.54,1.56-8.29,2.4,1.27,2.67,2.52,5.35,3.83,8.01-4.5.13-9.33-.33-13.39,1.99-1.15,7.1-.52,14.44,1.69,21.26-1.69,2.71-3.5,5.38-5.31,8.01-7.38-3.64-16.48-6.78-19.27-15.43,2.71-4.63,3.64-10.1,6.58-14.59h.01Z"/>
        <path class="cls-2" d="M230.24,87.11c4.48-9.57,13.53-17.66,24.18-19.18-2.64,2.27-5.35,4.46-8.1,6.59,9.03-1.28,18.1-.16,27.15.41-5.65,6.81-15.83,2.8-22.08,8.61-.67-.57-1.36-1.15-2.03-1.72-3.87,1.67-7.75,3.28-11.64,4.89,1.88,1.72,3.79,3.42,5.67,5.17-4.7.05-10.1,1.76-14.25-1.24.28-.87.82-2.64,1.09-3.51h.01Z"/>
      </g>
      <path class="cls-2" d="M811.74,61.82c12.04-.04,23.61,5.31,33.7,11.49-11.75-2.18-22.22-8.3-33.7-11.49Z"/>
      <path class="cls-2" d="M294.25,62.47c2.94-1.51,5.79-3.14,8.66-4.79.48,1.32,1.43,3.96,1.9,5.26-3.51-.11-7.05-.27-10.56-.47Z"/>
      <path class="cls-2" d="M109.79,64.46c5.51-4.2,10.89,2.66,14.25,6.54-1.08,2.14-2.19,4.27-3.04,6.53.8,2.31,3.44,3.04,5.13,4.55-1.08,3.7-3.04,7.05-5.1,10.29.08,1.13.19,3.38.24,4.5,4.83,4.58,10.46,8.19,16.56,10.84-1.27.51-3.82,1.52-5.1,2.03-.43,1.08-1.27,3.22-1.69,4.27-1.6.56-3.22,1.13-4.82,1.69,2.94.24,5.87.47,8.81.71l-1.79,4.79c-5.86-.6-11.71-1.17-17.58-1.71-.55-3.51-.67-7.06-.24-10.6-8.46.01-12.45,8.61-18.15,13.48-.95.35-1.9.72-2.84,1.08-1.09,2.75-2.23,5.48-3.46,8.18-15.8-6.99-33.82-7.3-48.77-16.47.2-4.46-.05-9.03-3.44-12.32,3.47-1.47,7.01-2.79,10.38-4.48l7.64,6.19c-1.2.39-3.64,1.13-4.87,1.51,3.44,3.5,10.13,6.54,14.03,2.23-1.24-4.86-1.67-9.85,0-14.68,1.34,1.8,2.66,3.6,3.98,5.41,4.72-2.88,10.13-4.16,15.59-4.5-2.66,1.65-5.35,3.26-8.02,4.86-.43.85-.85,1.72-1.27,2.59-1.52,1.52-3.63,2.62-4.42,4.7,2.28,1.9,4.78,3.54,7.25,5.18,2.38-1.51,4.61-3.32,7.3-4.26,2.88.24,5.54,1.48,8.23,2.46,8.54-2.47,9.37-11.85,11.24-19.14-1.12.67-2.21,1.32-3.32,1.99l-1.93-1.79-2.67,4.46c-1.45-.65-2.92-1.27-4.39-1.9,2.71-3.12,4.99-6.55,7.09-10.13,3.23-.84,7.37-.48,9.33-3.78-2.24.11-4.48.27-6.69.44-1.04-5.97.75-12.84,6.54-15.75h-.01Z"/>
      <g>
        <path class="cls-2" d="M259.4,66.97c6.39-1.58,12.69.48,18.83,2.14-.04.41-.09,1.2-.13,1.62-3.22-.08-6.41-.11-9.61-.08-2.47,0-4.94.05-7.42.09-.41-.95-1.27-2.83-1.67-3.78h0Z"/>
        <path class="cls-2" d="M868.48,92.49c1.19,1.8,2.38,3.55,3.64,5.31-.87,2.62-1.52,5.43-3.28,7.64.01-4.31.13-8.65-.36-12.96h0Z"/>
      </g>
      <g id="Nose">
        <g>
          <path class="cls-1" d="M387.47,66.4c5.63,1.27,9,6.83,10.37,12.08-5.58-1.45-10.05-6.19-10.37-12.08Z"/>
          <path class="cls-2" d="M312.67,81.31c-.82-2.56-.84-6.66,2.64-7.09,3.14,2.83,7.78,6.74,3.96,11.08-2.23-1.28-4.5-2.48-6.59-3.99h0Z"/>
        </g>
        <path class="cls-2" d="M42.2,115.16c-4.63-2.04-9.24-8.73-3.44-12.32,3.38,3.28,3.64,7.86,3.44,12.32Z"/>
        <path class="cls-2" d="M12.13,119.49c2.4-.71,5.18-2.75,7.61-.87,2.28,2.75,1.28,6.54,1.43,9.81-2.95-3.04-6.03-5.95-9.03-8.94h-.01Z"/>
        <path class="cls-2" d="M80.13,155.28c9.44,2.24,18.64,5.54,28.28,6.93,14.05,2.62,28.4,2.64,42.48,4.94-7.37.41-14.98-.95-22.02,1.86-6.03-.29-11.71-2.75-17.71-3.31-8.79-.43-16.84-4.46-25.48-5.73-2.84-.09-4.3-2.52-5.55-4.7h0Z"/>
        <path class="cls-2" d="M177.9,162.69c20.55,1.64,40.77,6.03,60.34,12.47-11.88-1.06-23.85-2.35-35.24-6.03-8.21-2.79-16.94-3.55-25.11-6.43h.01Z"/>
        <path class="cls-2" d="M610.61,188.25c9.44-1.71,18.81,1.56,28.27.75,8.01-.61,16.02-1.04,24.05-1.56-10.13,1.83-19.55,6.66-29.99,6.77,3.38-1.03,6.66-2.28,9.96-3.54-7.53-1.15-15.05.48-22.58.95-31.62.76-63.21,2.21-94.64,5.59-8.61.33-17.23-.19-25.8.76-20.61,2.64-41.43,1.23-62.13.82,15.04-1.2,30.18,1.06,45.19-.52,6.62-1.71,13.41-2.28,20.23-1.76,8.41.61,16.34-3.6,24.73-2.66,13.53.95,27.08-.76,40.4-2.94,14.12-.04,28.32-.27,42.28-2.66h.01Z"/>
      </g>
      <path class="cls-2" d="M187.8,77.53l1.72-.89c3.59,2.51-.75,5.62-2.6,7.67-5.3,1.51-3.04-6.55.87-6.78Z"/>
      <path class="cls-3" d="M399.79,79.66c2.6-1.13,6.93,2.46,6.25,5.26-2.8,1.47-7.14-2.24-6.25-5.26Z"/>
      <path class="cls-2" d="M906.04,101.02c5.39-4.42,12.53-5.69,18.9-8.13-.27.85-.8,2.55-1.08,3.4-5.63,2.55-11.54,4.86-17.82,4.72h0Z"/>
      <path class="cls-2" d="M439.1,109.49c15.83-3.38,30.64-10.74,43.84-20.03-.09,8.62-5.35,15.59-11.16,21.41,4.86-1.17,9.85-3.63,14.91-2.24,3.87.65,5.34,4.64,7.45,7.42-4.26,1.47-8.53,3.08-13.04,3.54-1.12-2.19-1.06-4.72-1.43-7.1-8.51,1.62-15.39,8.85-24.44,7.62-4.2-.09-8.3-1.12-12.36-2.08,2.71-1.12,5.41-2.21,8.14-3.28-5.54-.51-10.5,1.48-12.64,6.83-5.3.28-10.57,0-15.82-.8,6.15-3.63,12.47-6.97,19.07-9.74-.63-.37-1.9-1.13-2.52-1.52v-.03Z"/>
      <path class="cls-2" d="M291.63,96.56c3.32.87,3.14,5.7,3.4,8.54h-.85c-2-2.18-4.27-5.59-2.55-8.54h0Z"/>
      <g>
        <path class="cls-2" d="M297.92,103.07c.6-.99,1.8-2.95,2.42-3.94,1.72,1.58,2.46,3.63,2.16,6.15-.63,3.56-5.31.24-4.58-2.21h0Z"/>
        <path class="cls-2" d="M586.88,139.47c8.57-1.39,16.02-6.38,24.49-8.13-3.51,2.8-6.63,6.54-11.21,7.57-13.6,3.18-27.13,6.97-41.04,8.57-6.41.8-13.2.01-19.14,2.95,7.19,1.47,14.55,1.41,21.82,2.1-4.42,2-9.38,1.39-14.08,1.13-25.16-2.75-50.44,2.56-75.62-.24,20.61,3.08,40.44-6.55,61.03-4.31,14.96-2.98,30.6-2.92,45.18-7.61,2.64-1.41,5.69-1.47,8.57-2.04h0Z"/>
      </g>
      <path class="cls-2" d="M33.3,118.01c-4.7-2.42-9.46-6.59-9.28-12.33,7.1,11.88,22.01,15.12,33.86,20.45-8.47-1.71-16.84-4.23-24.58-8.1h0Z"/>
      <path class="cls-2" d="M230.65,112.87c.44-3.54,3.64-4.46,6.45-5.59.72,1.69,1.47,3.4,2.21,5.1-2.88.19-5.76.35-8.66.51h0Z"/>
      <path class="cls-2" d="M452.71,140.79c15.31-1.83,30.5-4.46,45.83-6.17-4.02,2.62-9.05,2.08-13.56,2.99-10.74,1.06-21.41,4.26-32.26,3.18Z"/>
      <path class="cls-2" d="M205.83,142.89c5.98.11,13.13-.65,17.6,4.22,5.35,5.62,13.92,2.38,20.78,3.46,2.51,2.07,5.06,4.06,7.67,6.01-10.28-.01-21.07.87-30.68-3.51-2.75-.95-3.63-3.96-5.15-6.11-3.54-1.04-7.01-2.27-10.22-4.06h0Z"/>
      <path class="cls-2" d="M399.07,148.81c5.76-3.64,14.27-3.11,19.71.87-6.55,1.23-13.27.63-19.71-.87h0Z"/>
      <g>
        <path class="cls-2" d="M128.89,169.02c7.05-2.8,14.67-1.45,22.02-1.86,6.54.52,12.99,1.71,19.43,2.79-1.2,1.23-2.42,2.46-3.6,3.68l1.2,1.08,1.34.61c3.36.8,1.95-3.23,2.4-5.11,3.78,1.28,7.58,2.59,11.08,4.54,9.33,5.58,20.09,8.13,30.54,10.72,11.22.47,22.49-.67,33.7-1.48-2.75,2.31-5.18,6.1-9.24,5.78-10.13-.2-20.27-.93-30.4-.2,7.09,2.24,14.48,2.92,21.78,4.11l-.08-3.42c8.89,4.39,20.09.91,27.88,7.45-8.49,1.06-17.06.95-25.57.33-12.17-2.19-24.72-2.24-36.7-5.35-11.49-4.98-22.9-10.36-35.24-12.89-.37-.8-1.12-2.42-1.48-3.23,2.75-.39,5.5-.79,8.25-1.19-10.57-7.86-24.96-4.72-37.3-6.34h-.01Z"/>
        <path class="cls-2" d="M443.86,235.98c4.31-.15,7.97-2.4,11.45-4.72.65,2.52,1.37,5.02,1.71,7.62-.91,4.39-3.75,8.57-2.27,13.17-7.82,5.34-17.46,6.47-26.52,8.09-23.45,3.27-46.5,9.18-70.14,11.05,9.31-.55,17.76-4.75,26.65-7.14,14.85-4.78,30.58-6.87,44.79-13.56,6.49-2.84,9.93-9.37,14.33-14.52h.01Z"/>
      </g>
    </g>
  </g>
</svg>