<?xml version="1.0" encoding="UTF-8"?>
<svg id="Layer_1" data-name="Layer 1" xmlns="http://www.w3.org/2000/svg" viewBox="0 0 3887.31 1552.77">
  <defs>
    <style>
      .cls-1 {
        fill: #787979;
      }

      .cls-1, .cls-2, .cls-3, .cls-4 {
        stroke-width: 0px;
      }

      .cls-5 {
        letter-spacing: -.08em;
      }

      .cls-6 {
        letter-spacing: 0em;
      }

      .cls-7 {
        font-size: 12px;
      }

      .cls-7, .cls-8, .cls-4, .cls-9, .cls-10, .cls-11 {
        fill: #fff;
      }

      .cls-7, .cls-11 {
        font-family: CircularAir-Light, 'Circular Air';
        font-weight: 300;
      }

      .cls-12 {
        letter-spacing: -.1em;
      }

      .cls-13 {
        letter-spacing: -.03em;
      }

      .cls-14 {
        stroke: #231f20;
      }

      .cls-14, .cls-9, .cls-15 {
        stroke-miterlimit: 10;
      }

      .cls-16 {
        letter-spacing: -.22em;
      }

      .cls-3, .cls-15 {
        fill: none;
      }

      .cls-17 {
        letter-spacing: 0em;
      }

      .cls-8 {
        font-family: GoogleSans18pt-Regular, 'Google Sans 18pt';
        font-size: 21px;
      }

      .cls-18 {
        letter-spacing: 0em;
      }

      .cls-19 {
        letter-spacing: -.02em;
      }

      .cls-9, .cls-15 {
        stroke: #1f2228;
        stroke-width: 2px;
      }

      .cls-20 {
        letter-spacing: -.05em;
      }

      .cls-21 {
        letter-spacing: 0em;
      }

      .cls-10 {
        font-family: YellowManice, 'Yellow Manice';
        font-size: 55.29px;
      }

      .cls-22 {
        letter-spacing: -.14em;
      }

      .cls-23 {
        letter-spacing: 0em;
      }

      .cls-24 {
        letter-spacing: -.02em;
      }

      .cls-11 {
        font-size: 40px;
      }

      .cls-25 {
        letter-spacing: -.1em;
      }

      .cls-26 {
        letter-spacing: 0em;
      }

      .cls-27 {
        letter-spacing: -.02em;
      }

      .cls-28 {
        letter-spacing: -.13em;
      }

      .cls-29 {
        letter-spacing: -.13em;
      }

      .cls-30 {
        letter-spacing: 0em;
      }

      .cls-31 {
        letter-spacing: -.01em;
      }

      .cls-32 {
        letter-spacing: 0em;
      }

      .cls-33 {
        letter-spacing: -.03em;
      }
    </style>
  </defs>
  <rect class="cls-14" x="882.81" y=".5" width="1930" height="1079.96"/>
  <g>
    <g>
      <path class="cls-4" d="M1886.55,432.72c31.79-6.78,63.83-11.71,96.47-11.55-1.48,33.53-22.2,60.5-44.18,83.97,1.32-9.96,2.81-19.87,4.29-29.82-6.14-9.8-12.5-19.49-19.39-28.66-1.11-.95-3.18-2.81-4.18-3.71-6.46.79-12.82,1.7-19.12,2.7-4.03,6.52-8.05,13.14-11.97,19.71-3.34-5.14-10.12-15.52-13.46-20.71,2.86-2.97,8.63-8.95,11.55-11.87v-.05Z"/>
      <path class="cls-4" d="M1013.15,812.87c10.12-.69,19.65,1.22,28.66,5.72,21.72,10.38,46.88,10.86,68.28,22.46-33.37,10.38-72.79-4.13-96.94-28.18h0Z"/>
    </g>
    <path class="cls-4" d="M1983.01,421.17c48.63-6.52,96.04,8,144.36,9.32,22.51,5.3,45.66,6.52,68.5,10.54,49.32,8.69,96.52,26.96,146.21,33.69-4.18,13.19-8,26.54-12.13,39.78-1.85,1.17-5.67,3.5-7.52,4.66-32.63-5.19-64.79-14.83-98.11-13.61-66.22-5.19-146,7.79-179.32,73,5.99,16.53,11.81,33.16,17.8,49.69,2.86.85,8.48,2.65,11.28,3.5,2.33-67.81,65.69-132.38,135.83-118.13,2.65,3.28,7.95,9.8,10.49,12.98,35.81-.48,71.46,2.54,106.96,6.89,7.95,5.19,15.68,10.7,23.47,16.21-11.71,17.22-26.65,32.84-48.31,36.29-27.39-8.79-54.51-19.49-83.17-23.31-44.29,1.7-81.63,30.67-108.65,63.78,44.55-29.3,102.67-45.19,154.1-25.22,48.47,17.69,97.95,35.12,140.97,64.15,15.79,10.28,20.34,29.88,29.88,45.03-10.54-28.45-26.01-55.62-51.01-73.79,3.5-3.13,10.54-9.32,14.04-12.45,15.05-2.81,29.72-7.15,44.18-12.5-3.97,6.89-7.84,13.88-11.65,20.87,5.3,4.29,10.81,8.32,16.05,12.66,18.49-7.31,36.98-14.36,55.62-21.19-6.67-11.18-13.3-22.46-19.81-33.64,12.82-2.17,25.64-4.29,38.51-6.36v-16.85c-17.69-4.29-35.33-8.69-52.82-13.61,12.98-4.56,26.01-9.11,39.15-13.46-18.17-6.2-37.14-12.87-48.47-29.51,153.79,2.97,308.21,11.39,461.36-7.15-30.04-7.31-60.71-11.87-91.38-15.36-9.48-8.79-18.97-17.48-28.34-26.28,39.68,25.48,88.04,18.49,132.17,28.55,9.11,4.45,17.96,9.22,26.96,13.99-11.28,32.69-53.72,24.16-80.68,31.68,72.68,1.11,144.52,14.78,217.14,17.38,80.36,9.8,160.51,22.46,239.5,40.53,26.17,5.35,52.55,10.38,79.3,12.29,77.13,3.66,150.71,29.35,224.19,50.96,48.63,16.05,97.32,33.96,140.54,61.87,30.62,19.28,65.21,32.16,93.45,55.31,11.12,11.28,19.65,31.79,8.32,45.66-17.53,19.55-45.29,23.84-69.03,31.36,12.82,10.17,25.8,20.34,38.04,31.36-20.13,27.18-62.62,14.04-79.83,42.86-.48-4.03-1.38-12.29-1.85-16.32-26.33,9.16-53.98,13.61-80.47,22.3-33.64,11.5-56.63,40-84.71,60.02-30.35,21.45-62.62,40.16-95.83,56.52-124.81,26.86-252,48.05-370.93,96.68-44.34,18.38-92.49,24.16-137.05,41.69-44.55,17.48-92.44,22.89-138.37,35.39-22.99,5.51-46.3,9.11-69.66,12.29-188.54,20.02-377.82,36.55-563.87,74.64-91.28,16.37-191.45,11.71-271.81,65-35.12,22.04-25.64,72.2-56.21,98.69-6.2-19.28,5.67-36.71,9.48-55.04-1.38-10.86-4.45-21.3-7.15-31.84-14.52,9.69-29.82,19.12-47.84,19.71,15.36-26.38,31.63-54.78,60.87-67.81,48.37-29.72,107.12-21.51,159.83-36.71,114.21-22.99,229.96-40.37,346.3-46.3,74.69-4.45,148.7-16.05,223.13-23.79,43.65-.48,83.01-20.66,125.34-28.29-33.53,2.17-67.01,3.97-100.49,6.52-39.52,3.44-78.67-10.28-118.13-3.13-58.33,10.01-117.66,10.97-176.67,11.12-55.68,9.11-112.31,16.21-168.83,12.29-35.12-3.97-68.28,13.67-103.35,11.12-28.5-2.17-56.95.21-84.55,7.36-62.78,6.62-126.03-2.86-188.86,2.17,8.69-15.2,17.53-30.35,26.65-45.45-8.95-1.01-17.8-2.01-26.54-3.13,15.47-19.39,40.79-13.03,61.13-6.78,17.38-4.19,34.54-9.38,51.65-14.67-5.62-1.22-16.85-3.71-22.46-4.98l14.2-15.63c-24.05-8.16-52.34,5.46-73.64-11.12-40.53-30.62-97-22.14-142.03-6.99-24.32,11.87-45.88,28.5-67.65,44.34-4.98-5.51-9.96-11.12-14.83-16.63,12.98-4.13,26.01-8.21,39.04-12.34-10.97-11.55-22.3-22.78-33.85-33.53,2.65-9.32,5.46-18.54,8.16-27.71-7.52-4.87-15.04-9.69-22.51-14.52-3.71,2.12-7.36,4.18-11.02,6.3-30.99-7.52-64.68-11.12-89.37-33.37-37.82-2.38-75.7-1.64-113.63-2.33,1.48-12.71,3.02-25.48,4.5-38.2-39.94-11.65-82.48-4.56-122.32-16.48,11.87-4.56,23.84-8.95,36.02-12.82,52.45,5.72,105.84,10.97,158.61,5.72-58.33-2.65-115.96-13.61-172.54-27.18,3.66-3.18,11.02-9.54,14.67-12.71,15.95,1.32,30.62-2.97,41.11-15.47-17.69-9.16-34.01-20.82-46.83-36.18,12.82,3.28,25.53,6.83,38.3,10.49,20.13-6.36,40.15-12.82,60.5-18.28,75.97,5.51,152.3,2.65,228.32,8.05,22.51,1.85,45.13-.37,67.12-5.46.32-22.62-.69-45.19-.85-67.81-17.8-16.48-36.5-31.94-53.35-49.32-21.61-23.79-53.61-33.64-76.13-56.31,10.97-7.36,21.67-15.15,31.84-23.68-14.3-13.03-25-29.3-20.55-49.64,5.51,8,10.86,16.05,16.05,24.32,4.98-4.71,9.96-9.38,14.89-14.04l.32,16.63c12.71-3.66,25.48-15.04,39.47-10.86,14.2,9.38,24.79,23.15,36.13,35.65-12.98-9.85-25.38-20.45-37.82-30.88-10.7,5.03-21.61,9.85-31.94,15.63,24.21,43.17,72.68,66.01,100.71,106.37,19.28,30.04,11.87,66.7,13.19,100.28,28.02-1.01,55.68-6.2,82.96-12.5,2.65,1.64,7.95,4.82,10.54,6.36-27.55,11.55-53.98,25.53-79.67,40.68,21.88,3.34,43.97,4.5,66.11,3.34,8.95-22.36,29.67-30.67,52.82-28.55-11.39,4.5-22.67,9.11-34.01,13.72,16.95,4.03,34.12,8.32,51.65,8.69,37.82,5.14,66.54-25.11,102.14-31.84,1.54,9.96,1.32,20.5,5.99,29.67,18.86-1.85,36.71-8.63,54.51-14.78-8.85-11.55-14.99-28.29-31.15-30.99-21.14-5.72-42.01,4.5-62.3,9.38,24.21-24.32,46.19-53.45,46.62-89.47,12.66-28.18.95-60.71-10.12-87.83,3.81-13.67,12.98-25.85,14.14-40.05-3.34-23.94-12.87-46.67-27.39-65.95-4.66-.05-14.14-.21-18.86-.32-1.17-8.85-2.33-17.64-3.5-26.33-4.03,2.49-12.03,7.52-16,10.12-2.38-3.87-7.31-11.5-9.69-15.31-5.88,4.18-11.71,8.37-17.53,12.66-8.48-10.54-17.22-20.87-25.85-31.36-5.03.79-15.2,2.28-20.34,3.02-22.62-19.81-51.65-33.85-82.38-30.67-66.32,5.35-135.19,9.16-195.21,41-40.84,15.52-70.83,47.94-100.18,78.77,12.87-2.28,25.85-4.45,38.83-6.36-12.56,12.82-25.8,29.03-45.88,26.81-31.31.16-61.82,11.5-93.13,8.16-29.51-5.88-57.16-18.33-86.3-25.8,1.01-7.52,1.85-15.15,2.54-22.67,43.49-1.64,86.99-5.14,130.21-9.96,32.31-5.03,68.28-5.62,93.5-29.45-68.71,8.79-137.05,20.45-206.13,27.39,22.36-14.99,45.51-28.71,69.29-41.37,6.62-3.02,13.14-6.15,19.71-9.22-31.52-.05-62.51,5.83-93.82,8.79-88.2,3.81-176.94,3.97-264.03,19.71-26.12,5.67-53.03,2.17-79.3,6.15-21.51,3.18-43.17,5.3-64.95,5.99-5.72-4.13-11.5-8.21-17.22-12.45,113.95-8,226.52-27.81,340.47-34.49,59.38.05,118.66-3.18,177.63-10.49,96.31-17.53,196.7-1.01,291.15-30.99,1.85-2.7,5.62-8.21,7.47-10.97,3.34,2.28,10.17,6.67,13.61,8.95l13.99.64c18.81-11.55,24.05-34.01,32-53.13,9.96-4.03,19.97-8,29.88-11.97,4.29,3.34,8.48,6.78,12.71,10.12-23.79-5.62-28.5,17.69-35.28,33.22,18.12-12.82,34.8-28.87,57-34.17,8.69-2.65,17.38-5.35,25.85-8.85,3.34,5.19,10.12,15.63,13.46,20.71l-.64,2.81c-9.48-.37-19.28-3.87-28.5-.95-10.65,11.12-17.38,25.16-25.22,38.2,8-1.32,16.05-2.33,24.21-3.71,4.45.16,8.95.21,13.51.32l12.87.95c-.32,5.88-.85,17.69-1.17,23.52,2.97-13.88,4.71-28.02,5.99-42.22,10.81-13.03,22.14-25.64,34.17-37.61,6.89,9.16,13.3,18.86,19.39,28.66-1.48,9.96-2.97,19.87-4.29,29.82,21.98-23.47,42.7-50.38,44.18-83.97l-.21.42ZM1989.21,441.57c10.33,3.44,20.45,7.36,30.3,12.03-20.66,21.72-37.61,50.01-30.3,81.21,14.78-5.46,15.05-22.14,19.39-34.7,5.3,6.3,10.54,12.56,15.95,18.86.32-4.87,1.11-14.62,1.48-19.49,12.29,2.33,22.36-14.52,23.31-25.37l4.03,2.01c15.2-8,31.79-14.89,43.02-28.5-8.21.95-16.48,1.96-24.69,3.02-6.3-4.5-12.5-9.01-18.7-13.61l-.85,10.54c-18.65,10.12-33.8,1.7-45.13-13.46-5.88,2.54-11.87,5.03-17.8,7.36v.11ZM2539.52,556.84c-3.97,10.7-.37,14.52,10.81,11.34,3.87-10.65.32-14.46-10.81-11.34ZM2568.07,566.54l-5.83.53c33.96,29.51,78.62,7.68,118.45,8.69l5.03,3.55c20.18-.53,40.37-2.01,60.55-3.44v-8.21c-40.31-8.63-81.63-4.82-122.48-6.78-18.7-.37-38.35-3.02-55.78,5.62l.05.05ZM3392.04,677.84c47.94,13.3,91.7,38.88,140.81,48-42.17-25.8-90.48-48.15-140.81-48ZM2809.32,698.71c29.82,26.81,75.01,23.04,107.33,46.04,25.16,18.86,54.67,32.31,76.18,55.84,11.28,12.18,18.7,28.29,33.8,36.55-13.99-25.11-33.8-46.3-49.32-70.46-8.53-14.14-21.35-25-36.29-32-31.36-15.31-64.05-32-100.12-29.03-10.01-4.29-20.66-6.78-31.63-6.99l.05.05ZM3525.7,698.71c34.17,28.98,85.98,37.35,105.79,81.85-12.87-46.67-61.03-73.16-105.79-81.85ZM1619.13,699.56c1.32,24.63,20.02,44.45,43.33,50.49-5.72-21.88-19.81-45.19-43.33-50.49ZM2245.24,709.52c44.66,6.89,57.53,53.29,79.62,85.66-3.34,20.87-8.85,43.12-26.01,57.21-42.33,33.85-88.36,63.52-137.05,87.36-18.01,9.96-38.99,8.21-58.7,10.01-26.17,2.01-51.01,10.7-75.65,19.02-32.31,3.02-66.7-.95-96.47,14.62-61.29,5.99-122.53,17.64-184.3,10.65,48,8.63,95.88,21.3,145.05,13.72,45.35,4.5,89.95-8.85,134.82-13.3,18.86-3.81,39.94-1.54,56.68-12.5,48.21-12.56,101.45-17.8,141.81-49.69,23.84-17.11,48.79-32.53,71.83-50.64,21.3-16.69,31.84-43.12,37.29-68.81,3.71-43.28-28.66-83.12-67.7-98.16-7.15-1.7-14.14-3.44-21.19-5.19l-.05.05ZM3014.01,724.14c34.8-10.65,66.17,18.01,97.95,29.45,30.46,22.51,66.48,44.55,79.14,82.48,2.86,18.01-3.18,36.18-3.66,54.35-19.02,36.5-55.31,56.84-91.7,72.63-4.13,18.7-18.7,31.68-37.14,35.65-65.79,14.67-128.62,40.16-193.99,56.37-54.62,6.46-109.34,11.28-163.32,21.67,13.14,2.7,26.65,4.18,40.05,2.33,98.22-12.98,199.19-16.16,293.53-49.48,32.63-8.53,66.01-14.89,97.47-27.65,2.81-7.15,5.62-14.3,8.48-21.45,26.49-15.95,55.84-26.54,81.69-43.39,16.85-24.32,37.45-49.11,41.16-79.46-18.97-41.11-52.66-73.53-90.32-97.37-37.88-14.83-73-38.35-114.32-42.54-14.78-2.33-34.33-6.83-45.03,6.46v-.05ZM3618.83,726.89c32.16,35.12,45.66,85.61,39.15,132.28-11.02,33-40.63,53.29-61.87,79.04-19.97,23.79-42.12,45.51-63.52,67.97,27.28-9.11,49.85-27.28,72.47-44.34,16.63-12.03,18.12-36.98,36.02-47.52,34.54-19.49,74.54-26.86,113.68-30.3,2.17-21.14-21.35-31.04-27.33-49.21,1.17-20.98,18.7-36.5,35.33-47.2-46.62-23.04-94.45-44.29-143.88-60.66l-.05-.05ZM1670.62,752.37c-3.71,12.56,14.36,28.13,26.12,21.98,2.86-11.71-15.2-26.7-26.12-21.98ZM1690.7,779.87c6.36,17.53,22.51,28.18,35.81,40.16.64,23.04,5.88,45.61,7.47,68.55l5.83,2.12c1.85-20.82,2.12-41.8,1.8-62.78-15.04-17.8-28.66-38.35-50.86-48.05h-.05ZM3471.51,791.63c15.68,19.12,32.95,37.29,43.49,59.97,3.18,37.98-19.34,69.98-38.88,100.33-26.96,35.86-70.3,52.55-107.27,75.7,32.37-4.82,64.36-14.04,94.35-27.34,21.67-14.36,41.69-32.16,58.22-52.29,26.28-40.21,26.54-98-5.83-135.03-13.61-9.22-29.03-15.15-44.13-21.35h.05ZM2727.52,807.04c-.79,16.79,7.36,35.12-4.87,49.53,8.79-5.83,17.01-12.29,24.32-19.87,8.53,17.11,4.5,37.72-11.71,48.21-29.3,15.95-63.99,20.5-90.64,41.53-26.65,20.55-61.13,25.64-89.79,41.85-35.39,7.31-66.54,28.13-102.35,33.96-12.03,2.38-24.79,2.65-35.81,8.53-60.87,19.55-126.29,19.34-188.8,31.79-86.03-9.38-168.94,30.88-255.02,18.01,105.21,11.71,210.84-10.49,316,1.01,19.65,1.11,40.37,3.66,58.86-4.71,39.36-3.18,77.98-12.45,117.02-17.8,57-4.5,102.82-42.86,151.88-68.5,39.31-19.49,86.03-10.7,124.54-32.63,22.46-9.11,35.33-32.31,33.64-56.15,4.45-33.48-24.95-55.36-47.31-74.8l.05.05ZM3629.16,805.98c2.01,18.01,1.54,36.13,1.48,54.14,7.36-9.22,10.12-20.98,13.72-31.94-5.3-7.36-10.28-14.67-15.2-22.2h0ZM3786.12,841.64c26.28.53,50.96-9.11,74.48-19.71,1.17-3.55,3.44-10.65,4.5-14.2-26.65,10.17-56.47,15.47-78.99,33.96v-.05ZM3340.66,945.2l-1673.06,96.15c26.96,6.3,54.99,8.79,82.38,3.66-22.78-16.63-58.33-18.86-82.38-3.66l1673.06-96.15Z"/>
    <path class="cls-4" d="M1831.72,435.9c18.33-.16,36.55-1.22,54.83-3.18-2.97,2.97-8.69,8.95-11.55,11.87-8.48,3.5-17.16,6.2-25.85,8.85-4.98-.05-14.78-.16-19.65-.21.53-4.34,1.7-12.98,2.28-17.32h-.05Z"/>
    <path class="cls-2" d="M1690.7,779.87c22.2,9.69,35.81,30.3,50.86,48.05.32,20.98.05,41.96-1.8,62.78l-5.83-2.12c-1.54-22.99-6.83-45.51-7.47-68.55-13.3-11.97-29.45-22.62-35.81-40.16h.05Z"/>
    <path class="cls-4" d="M2052.94,437.07c6.2,4.56,12.45,9.11,18.7,13.61,8.21-1.11,16.48-2.12,24.69-3.02-11.28,13.61-27.81,20.5-43.02,28.5l-4.03-2.01c-1.64-.79-4.82-2.28-6.46-3.02-9.16,6.67-17.32,16.37-16.85,28.45-.37,4.87-1.17,14.62-1.48,19.49-5.35-6.3-10.65-12.56-15.95-18.86,8.32-20.87,27.02-34.17,43.02-48.79.05-.95.32-2.81.48-3.71l.85-10.54.05-.11Z"/>
    <path class="cls-4" d="M1725.13,499.84c13.51-21.61,36.55-34.33,59.54-43.55-7.95,19.12-13.19,41.53-32,53.13,10.65-19.28-24.21-20.5-13.99-.64-3.44-2.28-10.28-6.67-13.61-8.95h.05Z"/>
    <g>
      <path class="cls-4" d="M1859.26,467.21c9.22-2.97,19.02.53,28.5.95-2.38,10.65-4.5,21.35-6.3,32.05-2.38.48-7.31,1.32-9.69,1.8-4.56-.05-9.11-.16-13.51-.32-8.16,1.38-16.21,2.38-24.21,3.71,7.84-13.03,14.62-27.12,25.22-38.2h0Z"/>
      <path class="cls-4" d="M1169.05,1186.66c22.36-9.54,46.99-7.84,70.77-7.47-8.85,4.29-17.69,8.69-26.54,13.14,7.63,1.22,22.78,3.71,30.35,5.03-37.82,4.82-74.69,14.62-111.62,24.05,4.87-.05,14.62-.21,19.39-.32-24.79,10.12-54.88,3.44-75.97,22.3,14.99,4.98,29.98,9.85,45.19,14.04-51.39-.21-102.98-2.49-153.84-10.49,35.55,2.54,71.36,3.02,106.85-1.38-32.53-27.34-79.36-12.82-116.49-31.15l.32,14.3c-30.51-4.98-61.45-7.79-91.01-17.16,42.33-3.02,84.71,0,127.03.85,16.95,1.32,27.12-14.52,38.62-24.16,14.46-1.85,28.98-3.55,43.49-5.03l-9.22,12.03c-7.2,3.18-14.52,6.15-21.67,9.48,51.12,3.44,102.51-2.7,151.83-16.21-9.16-.79-18.33-1.38-27.49-1.85h0Z"/>
    </g>
    <g>
      <path class="cls-4" d="M2042.88,471.13c1.64.79,4.82,2.28,6.46,3.02-.95,10.86-11.02,27.71-23.31,25.37-.48-12.03,7.68-21.72,16.85-28.45v.05Z"/>
      <path class="cls-4" d="M1930.94,983.45c29.72-15.52,64.15-11.55,96.47-14.62-30.88,11.28-63.99,12.56-96.47,14.62Z"/>
    </g>
    <g>
      <path class="cls-4" d="M2342.08,474.73c34.65,5.14,67.54,17.32,101.5,25.37,5.35,3.44,10.65,6.89,15.84,10.54,11.34,16.63,30.3,23.31,48.47,29.51-13.14,4.34-26.17,8.85-39.15,13.46,17.48,4.87,35.12,9.32,52.82,13.61v16.85c-12.87,2.12-25.69,4.18-38.51,6.36,6.52,11.18,13.14,22.46,19.81,33.64-18.65,6.83-37.14,13.88-55.62,21.19-5.3-4.34-10.81-8.37-16.05-12.66,3.81-6.99,7.68-13.99,11.65-20.87-14.46,5.35-29.14,9.69-44.18,12.5-3.5,3.13-10.54,9.32-14.04,12.45-25.69-19.28-51.86-38.99-82.11-50.64,21.67-3.44,36.55-19.02,48.31-36.29-7.79-5.51-15.52-11.02-23.47-16.21-1.22-3.55-3.66-10.81-4.87-14.36,1.85-1.17,5.67-3.5,7.52-4.66,4.13-13.19,7.95-26.54,12.13-39.78h-.05Z"/>
      <path class="cls-4" d="M1148.07,588.68c87.04-1.8,173.02-18.86,260-20.87-23.79,12.66-46.88,26.38-69.29,41.37-50.54,13.14-103.51,21.45-155.38,10.49l3.02,11.18c-85.71,15.15-172.54,25.22-256.88,47.94-38.3,22.3-85.98,37.03-110.88,76.02-14.14,22.36,16.37,36.66,27.55,51.7-1.54-60.29,52.18-101.82,104.15-119.62,78.3-23.2,158.45-47.36,240.45-48.95,4.5-3.34,9.01-6.67,13.51-10.12,39.04.48,77.98-3.28,116.86-6.78-.69,7.52-1.54,15.15-2.54,22.67-9.69,4.03-19.39,8.16-29.03,12.45,4.87,7.52,9.8,15.04,14.78,22.62-4.66-3.97-14.14-11.87-18.86-15.84-1.01,23.68-1.96,47.36-1.85,71.15-23.04,4.66-46.62,5.83-70.03,5.3,1.32,43.12,38.83,69.82,62.19,101.82.16,9.01.48,18.01.79,27.02,49.32,7.31,98.53,15.63,148.01,22.36-20.34,5.46-40.37,11.87-60.5,18.28-12.71-3.66-25.48-7.2-38.3-10.49,12.82,15.36,29.14,27.02,46.83,36.18-10.49,12.5-25.16,16.79-41.11,15.47-3.66,3.18-11.02,9.54-14.67,12.71-17.38-4.18-34.7-8.79-51.81-13.99,3.13-7.47,6.89-14.62,10.97-21.67l-14.3,14.62.53-10.38c-33.11,14.2-64.21-14.89-96.84-19.18,2.81-3.97,8.48-11.87,11.34-15.84-3.02,3.44-9.01,10.33-12.03,13.83-33.8-9.96-69.29-9.85-104.15-9.54,36.71,2.38,73,9.85,106.85,24.53,53.29,22.89,108.28,41.37,163.37,59.12-12.18,3.87-24.16,8.21-36.02,12.82,39.84,11.87,82.38,4.82,122.32,16.48-1.48,12.71-3.02,25.48-4.5,38.2,37.88.69,75.81-.05,113.63,2.33,24.69,22.3,58.38,25.85,89.37,33.37,3.66-2.12,7.31-4.18,11.02-6.3,7.47,4.82,14.99,9.64,22.51,14.52-2.7,9.16-5.51,18.38-8.16,27.71,11.55,10.81,22.89,21.98,33.85,33.53-13.03,4.13-26.12,8.21-39.04,12.34,4.87,5.51,9.85,11.12,14.83,16.63,21.72-15.84,43.33-32.47,67.65-44.34,11.28,6.99,22.99,13.14,34.96,18.96-21.72.16-43.33,3.66-63.83,10.86,19.18,3.87,38.62,6.89,58.11,9.85-10.38,2.28-20.82,4.56-31.15,6.89,3.28,5.62,6.62,11.28,9.96,16.85,3.13-2.54,9.38-7.68,12.5-10.28,2.01,13.19,4.34,26.38,6.99,39.52,2.38-6.2,4.87-12.45,7.36-18.65,18.38,11.55,39.36,17.11,60.97,18.81-4.71,5.03-9.32,10.17-13.99,15.36-103.46.32-206.87-.48-310.27,6.52-82.64,5.46-165.49,1.38-248.29,2.86-40.31,2.28-80.79,2.7-120.94-1.7-15.2-4.19-30.2-9.11-45.19-14.04,21.03-18.86,51.17-12.18,75.97-22.3,66.8-1.48,132.65-12.82,198.66-21.98-35.33-3.97-71.04-6.36-106.48-1.8-7.63-1.32-22.78-3.81-30.35-5.03,8.85-4.45,17.69-8.85,26.54-13.14-23.79-.37-48.37-2.12-70.77,7.47-34.22,2.28-68.44,5.88-102.67,8.63l9.22-12.03c14.83-2.01,29.67-3.87,44.5-6.52-41.37-9.11-83.17-16.21-124.54-25.22-81.79-26.86-166.29-45.29-252.16-52.13-72.15-22.14-142.45-52.98-218.47-59.01-94.98-15.36-190.6-28.18-284.53-48.84l19.55-6.52c-12.45-5.19-24.95-10.28-37.29-15.52,24.95-13.72,48.21,6.36,72.05,12.45,24.63,5.3,57.37,13.88,72.95-12.98,4.18.37,8.32.53,12.5.64,5.14-11.28,9.85-22.67,14.46-34.17,3.97-1.48,7.95-3.02,11.87-4.5,23.84-20.34,40.53-56.21,75.86-56.31-1.8,14.78-1.22,29.61,1.01,44.29,24.53,2.28,49,4.66,73.48,7.15l7.47-20.02c-12.29-1.01-24.53-1.96-36.82-2.97,6.67-2.33,13.46-4.71,20.13-7.05,1.8-4.45,5.3-13.35,7.05-17.85,5.35-2.12,16-6.36,21.3-8.48,20.18,5.88,40.31,12.29,59.28,21.51,60.82,30.46,132.33,26.17,192.78,57.85,84.81,23.52,170.37,50.7,259.1,53.82-65.37-14.3-129.21-34.65-193.68-52.34-57.16-23.31-118.29-34.49-174.87-59.01-30.3-12.98-61.45-24.05-91.81-36.87,7.63-11.02,15.15-22.14,22.2-33.48-9.22-28.5-11.87-59.17-7.05-88.84,16.95-9.69,37.14-7.79,55.94-8.32-5.46-11.12-10.7-22.3-16-33.48,11.5-3.5,23.04-6.83,34.65-10.01-16.79-6.89-33.11-14.78-48.37-24.47,62.14-28.02,130-42.38,197.65-48.79,3.87-.32,11.71-1.11,15.63-1.48,46.04,4.34,91.33-8.53,137.31-5.46,43.55,2.12,86.03-10.86,129.52-11.55h-.16ZM1168.31,658.56c-44.13,9.96-89.63,15.52-131.54,33.22-25.32,11.28-56.05,13.3-74.85,35.86-14.62,15.2-8.69,39.2.21,55.84-1.17,3.66-3.44,11.02-4.56,14.67,17.32,12.56,39.94,5.46,59.54,5.19-7.84-7.31-15.84-14.36-23.68-21.61,16.21-6.67,32.47-13.46,48.63-20.45,2.81,2.38,5.67,4.82,8.48,7.2,26.12-24.21,68.66-7.52,92.28-35.97,12.82.37,25.69-.05,38.62-.85-19.81-5.35-43.81-1.8-59.38-17.11,13.35-.16,26.7,0,40.15.32.16-1.7.37-5.03.53-6.78-25.64-6.89-51.97-15.52-78.67-8.95l-3.55-8.05c24.53-3.71,49.32-6.89,73-14.83,25.53-2.7,50.96,1.01,76.18,4.13,14.67.85,29.45,1.48,44.13,1.96-1.96-5.46-5.88-16.48-7.95-21.98,3.34-1.96,9.96-5.83,13.3-7.79-36.98,1.01-74.17-.37-110.72,5.83l-.16.16ZM784.77,743.47c-16.37.95-25.8,34.65-3.66,28.34,7.79-8.63,25.85-21.61,10.86-32.05l-7.2,3.71ZM1013.15,812.87c24.16,24.05,63.52,38.62,96.94,28.18-21.35-11.55-46.51-12.03-68.28-22.46-9.01-4.5-18.54-6.46-28.66-5.72h0ZM1197.45,841.95c-8,.32-23.84,1.01-31.84,1.32,6.2,19.12,28.5,14.3,43.81,15.04,4.98.16,14.89.32,19.87.48h3.55c3.02-2.17,9.01-6.46,12.03-8.53-3.13,10.28,16.48,24.16,19.12,9.22,1.22-10.54-1.8-19.12-9.01-25.69-10.01-9.8-20.45-19.28-30.83-28.66-9.38,11.97-18.17,24.32-26.7,36.82h0ZM963.83,891.17c12.13-.64,24.16-1.32,36.18-2.12-3.13-7.05-6.2-14.2-9.22-21.3-11.71,4.71-25.11,8.63-26.96,23.36v.05ZM1266.21,883.33c-9.01,11.12,11.34,19.55,17.8,9.96,9.11-11.12-11.39-19.71-17.8-9.96ZM860.1,1016.61c13.46,7.47,27.97,12.56,42.7,16.95,6.36,9.01,10.01,21.61,21.51,25.53,40.15,18.33,85.29,14.62,128.2,14.67-10.97-8.16-21.61-16.48-32.05-25.11-28.66-4.5-64.47,9.01-86.83-14.46-18.65-20.34-48.53-17.16-73.53-17.64v.05Z"/>
    </g>
    <path class="cls-4" d="M1738.75,508.79c-10.28-19.87,24.63-18.65,13.99.64l-13.99-.64Z"/>
    <g>
      <path class="cls-4" d="M2224.37,505.56c33.32-1.22,65.48,8.37,98.11,13.61,1.22,3.55,3.66,10.81,4.87,14.36-35.49-4.34-71.15-7.36-106.96-6.89-2.54-3.18-7.84-9.69-10.49-12.98,11.55.05,23.31,0,35.02-.32-5.14-1.96-15.47-5.83-20.55-7.79h0Z"/>
      <path class="cls-4" d="M1266.21,883.33c6.36-9.8,26.86-1.17,17.8,9.96-6.46,9.64-26.81,1.17-17.8-9.96Z"/>
    </g>
    <path class="cls-4" d="M2568.07,566.54c17.38-8.63,37.03-5.99,55.78-5.62,40.84,1.96,82.16-1.85,122.48,6.78v8.21c-20.18,1.38-40.37,2.86-60.55,3.44l-5.03-3.55c-2.17-1.48-6.46-4.34-8.63-5.83-34.22-6.99-69.34-6.46-103.99-3.44h-.05Z"/>
    <path class="cls-4" d="M2539.52,556.84c11.12-3.13,14.67.69,10.81,11.34-11.18,3.18-14.78-.64-10.81-11.34Z"/>
    <g>
      <path class="cls-4" d="M1699.7,566.64c30.99,22.14,54.99,51.86,82.85,77.34,24.47,24.37,55.36,45.29,66.48,79.67,8.16,30.99,7.36,63.52,8.05,95.36-6.83-3.55-15.84-6.04-17.01-15.2-8.69-34.7-12.45-73.95-38.35-101.02-32.53-32.16-68.87-60.02-104.63-88.31-18.49-11.87-1.8-33,2.54-47.84h.05Z"/>
      <path class="cls-4" d="M1718.24,1141.53c45.03-15.15,101.5-23.63,142.03,6.99,21.3,16.53,49.53,2.97,73.64,11.12l-14.2,15.63c5.62,1.22,16.85,3.71,22.46,4.98-17.11,5.3-34.22,10.49-51.65,14.67-20.34-6.3-45.66-12.66-61.13,6.78,8.79,1.11,17.64,2.12,26.54,3.13-9.11,15.04-17.96,30.2-26.65,45.45-9.8-.16-19.49-.32-29.19-.37,4.66-5.19,9.22-10.33,13.99-15.36-21.61-1.7-42.54-7.2-60.97-18.81-2.49,6.2-4.98,12.45-7.36,18.65-2.65-13.14-4.98-26.33-6.99-39.52-3.13,2.54-9.38,7.68-12.5,10.28-3.34-5.62-6.67-11.28-9.96-16.85,10.33-2.33,20.71-4.66,31.15-6.89-19.49-2.97-38.88-5.99-58.11-9.85,20.5-7.2,42.12-10.7,63.83-10.86-11.97-5.83-23.68-11.97-34.96-18.96l.05-.21Z"/>
    </g>
    <g>
      <path class="cls-4" d="M631.09,609.34c66.01-5.88,131.33-19.28,197.86-19.28,29.67.64,62.88-12.66,89.16,6.89-12.29,3.13-24.53,6.04-36.87,8.69-3.87.37-11.71,1.17-15.63,1.48-19.18-.53-38.67-2.81-57.53,1.85-45.88,12.34-93.71,15.52-138.95,30.99-4.82-2.81-14.52-8.37-19.34-11.18,13.99-3.13,28.18-5.51,42.22-8.21-15.84.85-31.79,2.01-47.62,3.13-4.5-4.82-8.95-9.54-13.35-14.36h.05Z"/>
      <path class="cls-4" d="M1379.95,726.47c14.52,20.71,4.34,47.2-8.95,65.79-4.45.16-13.3.37-17.8.48.48-3.18,1.38-9.69,1.85-12.98,5.3-.53,15.95-1.7,21.3-2.28,1.48-17.01,2.38-34.01,3.55-51.01h.05Z"/>
    </g>
    <path class="cls-4" d="M457.17,637.79c58.17-11.18,116.97-18.33,175.67-25.64-1.7,4.45-4.98,13.35-6.67,17.8-68.13.37-134.72,15.31-201.52,26.65,8.05,3.34,16.16,6.52,24.47,9.48-22.78,4.82-46.19,5.99-69.19,3.13-2.17-1.96-6.52-5.88-8.69-7.95-1.64-1.54-4.87-4.56-6.52-6.04-47.94-1.48-93.61-15.68-140.28-24.47,77.87-7.68,155.11,22.14,232.77,7.05h-.05Z"/>
    <path class="cls-4" d="M449.12,666.02c66.54-14.3,135.19-17.11,200.67-37.19,4.82,2.81,14.52,8.37,19.34,11.18-63.62,11.71-125.5,58.22-142.13,122.48-7.05-6.3-18.12-9.38-21.45-19.02,3.55-9.38,8.21-18.33,12.71-27.28-14.04-16.21-36.5-44.87-59.54-27.34-24.21,12.13-31.68,40.84-27.34,65.79,9.22-.79,18.54-1.38,27.97-1.85-8.21,13.72-25.48,12.29-38.99,15.79-8.69,14.89-18.28,29.3-29.61,42.33,6.15,2.65,12.29,5.19,18.33,7.95l11.18-18.65,8.05,7.47c4.66-2.81,9.22-5.51,13.88-8.32-7.84,30.46-11.28,69.66-46.99,79.99-11.28-4.03-22.36-9.22-34.38-10.28-11.28,3.87-20.55,11.5-30.51,17.8-10.33-6.89-20.71-13.72-30.3-21.67,3.34-8.69,12.13-13.3,18.49-19.65,1.7-3.55,3.5-7.2,5.3-10.81,11.18-6.67,22.46-13.35,33.53-20.29-22.83,1.38-45.45,6.78-65.16,18.81-5.51-7.52-11.02-15.04-16.63-22.62-6.99,20.18-5.19,41.11,0,61.35-16.32,18.01-44.29,5.3-58.64-9.32,5.14-1.54,15.31-4.66,20.34-6.3l-31.94-25.85c10.97-9.85,21.14-20.55,32-30.51-42.17,27.86-97.79,26.7-136.99,61.03-.79,24,19.12,41.48,38.78,51.54,32.37,16.16,67.33,26.7,102.72,33.85,41.37,10.28,83.7,15.63,125.71,22.46-15.52,26.86-48.31,18.28-72.95,12.98-23.84-6.04-47.15-26.17-72.05-12.45,12.34,5.3,24.85,10.33,37.29,15.52l-19.55,6.52c-31.68-7.68-61.72-20.55-92.65-30.78,54.46,47.31,113.84,95.2,187.16,107.65,5.3,9.11,11.34,19.28,23.2,19.65,36.13,5.3,69.72,22.14,106.48,23.94,25.11,2.33,48.79,12.56,74.01,13.83,51.54,6.78,111.67-6.36,155.85,26.49-11.5,1.7-22.99,3.34-34.49,4.98,1.54,3.44,4.66,10.17,6.2,13.51-29.67-7.95-59.54-15.15-90.22-17.16-116.02-17.48-233.35-36.66-342.85-80.2-33-12.45-70.99-14.89-98.32-39.52-24.85-22.14-55.62-37.14-78.14-61.82-23.47-32.63-49.11-65.64-56.47-106.21,10.97-15.63,18.97-37.51,39.78-41.85,45.98-13.61,95.46-14.62,139.48-34.86,5.51-11.5-5.99-23.79-16.95-25.16-32.53-8.05-73.37-2.81-92.28-36.98,8.32-10.86,13.67-25.85,27.12-31.52,89.79-22.62,183.19-17.22,273.93-34.17,2.17,2.01,6.52,5.99,8.69,7.95,22.99,2.86,46.46,1.7,69.19-3.13l.16-.05ZM109.92,714.28c-.16,3.97-.48,11.81-.64,15.79,22.67,6.3,45.35,12.71,68.5,17.32,28.45-44.29,86.03-43.7,131.7-55.84-67.28-3.97-135.35,1.54-199.61,22.78l.05-.05ZM22.36,887.62c12.71,47.62,47.36,89.47,89.05,115.49,24.21,15.31,44.29,42.33,75.65,41.37-35.65-26.33-69.5-54.78-98.64-88.31-.64-13.67,3.55-29.51-5.99-41-10.12-7.84-21.72.69-31.79,3.66-9.96-10.01-17.85-21.83-28.34-31.2h.05Z"/>
    <g>
      <path class="cls-4" d="M573.61,729.12c26.28-30.14,58.86-54.83,94.35-73.16,15.31,9.69,31.63,17.53,48.37,24.47-11.55,3.18-23.15,6.52-34.65,10.01,5.3,11.18,10.54,22.36,16,33.48-18.81.53-38.99-1.38-55.94,8.32-4.82,29.67-2.17,60.34,7.05,88.84-7.05,11.34-14.62,22.46-22.2,33.48-30.83-15.2-68.87-28.34-80.52-64.47,11.34-19.34,15.2-42.22,27.49-60.97h.05Z"/>
      <path class="cls-4" d="M962.13,783.52c18.7-40,56.52-73.79,101.02-80.15-11.02,9.48-22.36,18.65-33.85,27.55,37.72-5.35,75.65-.69,113.47,1.7-23.63,28.45-66.17,11.71-92.28,35.97-2.81-2.38-5.67-4.82-8.48-7.2-16.16,6.99-32.37,13.72-48.63,20.45,7.84,7.2,15.84,14.3,23.68,21.61-19.65.21-42.22,7.36-59.54-5.19,1.17-3.66,3.44-11.02,4.56-14.67l.05-.05Z"/>
    </g>
    <path class="cls-4" d="M3392.04,677.84c50.33-.16,98.64,22.2,140.81,48-49.11-9.11-92.87-34.7-140.81-48Z"/>
    <path class="cls-4" d="M1229.6,680.54c12.29-6.3,24.21-13.14,36.18-20.02,2.01,5.51,5.99,16.53,7.95,21.98-14.67-.48-29.45-1.11-44.13-1.96Z"/>
    <path class="cls-4" d="M458.76,688.86c23.04-17.53,45.51,11.12,59.54,27.34-4.5,8.95-9.16,17.85-12.71,27.28,3.34,9.64,14.36,12.71,21.45,19.02-4.5,15.47-12.71,29.45-21.3,43.02.32,4.71.79,14.14,1.01,18.81,20.18,19.12,43.7,34.22,69.19,45.29-5.3,2.12-15.95,6.36-21.3,8.48-1.8,4.5-5.3,13.46-7.05,17.85-6.67,2.33-13.46,4.71-20.13,7.05,12.29,1.01,24.53,1.96,36.82,2.97l-7.47,20.02c-24.47-2.49-48.95-4.87-73.48-7.15-2.28-14.67-2.81-29.51-1.01-44.29-35.33.05-52.02,35.97-75.86,56.31-3.97,1.48-7.95,3.02-11.87,4.5-4.56,11.5-9.32,22.89-14.46,34.17-66.01-29.19-141.34-30.51-203.79-68.81.85-18.65-.21-37.72-14.36-51.49,14.52-6.15,29.3-11.65,43.39-18.7l31.94,25.85c-5.03,1.64-15.2,4.71-20.34,6.3,14.36,14.62,42.33,27.34,58.64,9.32-5.19-20.29-6.99-41.16,0-61.35,5.62,7.52,11.12,15.04,16.63,22.62,19.71-12.03,42.33-17.38,65.16-18.81-11.12,6.89-22.36,13.61-33.53,20.29-1.8,3.55-3.55,7.2-5.3,10.81-6.36,6.36-15.15,10.97-18.49,19.65,9.54,7.95,19.97,14.78,30.3,21.67,9.96-6.3,19.28-13.88,30.51-17.8,12.03,1.01,23.15,6.2,34.38,10.28,35.71-10.33,39.15-49.53,46.99-79.99-4.66,2.81-9.22,5.51-13.88,8.32l-8.05-7.47-11.18,18.65c-6.04-2.7-12.18-5.3-18.33-7.95,11.34-13.03,20.87-27.39,29.61-42.33,13.51-3.5,30.78-2.01,38.99-15.79-9.38.48-18.7,1.11-27.97,1.85-4.34-24.95,3.13-53.66,27.34-65.79h-.05Z"/>
    <g>
      <path class="cls-4" d="M1083.97,699.35c26.7-6.62,53.03,2.01,78.67,8.95-.16,1.7-.37,5.03-.53,6.78-13.46-.32-26.81-.48-40.15-.32-10.33,0-20.66.21-30.99.37-1.7-3.97-5.3-11.81-6.99-15.79h0Z"/>
      <path class="cls-4" d="M3629.16,805.98c4.98,7.52,9.96,14.83,15.2,22.2-3.66,10.97-6.36,22.67-13.72,31.94.05-18.01.53-36.13-1.48-54.14h0Z"/>
    </g>
    <g id="Nose">
      <g>
        <path class="cls-1" d="M1619.13,696.96c23.52,5.3,37.61,28.55,43.33,50.49-23.31-6.04-42.01-25.85-43.33-50.49Z"/>
        <path class="cls-1" d="M1306.58,759.26c-3.44-10.7-3.5-27.81,11.02-29.61,13.14,11.81,32.53,28.18,16.53,46.3-9.32-5.35-18.81-10.38-27.55-16.69h0Z"/>
      </g>
      <path class="cls-4" d="M176.35,900.7c-19.34-8.53-38.62-36.5-14.36-51.49,14.14,13.72,15.2,32.84,14.36,51.49Z"/>
      <path class="cls-4" d="M50.7,918.82c10.01-2.97,21.67-11.5,31.79-3.66,9.54,11.5,5.35,27.34,5.99,41-12.34-12.71-25.22-24.85-37.72-37.35h-.05Z"/>
      <path class="cls-4" d="M334.86,1068.37c39.47,9.38,77.87,23.15,118.19,28.98,58.7,10.97,118.66,11.02,177.52,20.66-30.78,1.7-62.62-3.97-92.02,7.79-25.22-1.22-48.95-11.5-74.01-13.83-36.71-1.8-70.35-18.65-106.48-23.94-11.87-.37-17.96-10.54-23.2-19.65h0Z"/>
      <path class="cls-4" d="M743.4,1099.36c85.87,6.83,170.37,25.22,252.16,52.13-49.64-4.45-99.65-9.8-147.27-25.22-34.33-11.65-70.77-14.83-104.94-26.86l.05-.05Z"/>
      <path class="cls-4" d="M2551.59,1206.16c39.47-7.15,78.62,6.52,118.13,3.13,33.48-2.54,66.96-4.34,100.49-6.52-42.33,7.63-81.69,27.81-125.34,28.29,14.14-4.29,27.81-9.54,41.64-14.78-31.47-4.82-62.88,2.01-94.35,3.97-132.12,3.18-264.13,9.22-395.46,23.36-35.97,1.38-71.99-.79-107.8,3.18-86.14,11.02-173.12,5.14-259.63,3.44,62.83-5.03,126.13,4.45,188.86-2.17,27.65-7.15,56.05-9.54,84.55-7.36,35.12,2.54,68.28-15.04,103.35-11.12,56.52,3.97,113.15-3.18,168.83-12.29,59.01-.16,118.35-1.11,176.67-11.12h.05Z"/>
    </g>
    <path class="cls-4" d="M784.77,743.47l7.2-3.71c14.99,10.49-3.13,23.47-10.86,32.05-22.14,6.3-12.71-27.39,3.66-28.34Z"/>
    <path class="cls-2" d="M1670.62,752.37c10.86-4.71,28.98,10.28,26.12,21.98-11.71,6.15-29.82-9.38-26.12-21.98Z"/>
    <path class="cls-4" d="M3786.12,841.64c22.51-18.49,52.34-23.79,78.99-33.96-1.11,3.55-3.34,10.65-4.5,14.2-23.52,10.65-48.21,20.29-74.48,19.71v.05Z"/>
    <path class="cls-4" d="M1834.9,877.02c66.17-14.14,128.04-44.87,183.19-83.7-.37,36.02-22.36,65.16-46.62,89.47,20.29-4.87,41.16-15.15,62.3-9.38,16.16,2.7,22.3,19.39,31.15,30.99-17.8,6.15-35.65,12.87-54.51,14.78-4.66-9.16-4.45-19.71-5.99-29.67-35.55,6.78-64.31,36.98-102.14,31.84-17.53-.37-34.7-4.66-51.65-8.69,11.34-4.66,22.62-9.22,34.01-13.72-23.15-2.12-43.86,6.2-52.82,28.55-22.14,1.17-44.18,0-66.11-3.34,25.69-15.15,52.13-29.14,79.67-40.68-2.65-1.54-7.95-4.71-10.54-6.36l.05-.11Z"/>
    <path class="cls-4" d="M1218.64,822.99c13.88,3.66,13.14,23.84,14.2,35.71h-3.55c-8.37-9.11-17.85-23.36-10.65-35.71h0Z"/>
    <g>
      <path class="cls-4" d="M1244.91,850.22c2.49-4.13,7.52-12.34,10.12-16.48,7.2,6.62,10.28,15.15,9.01,25.69-2.65,14.89-22.2,1.01-19.12-9.22h0Z"/>
      <path class="cls-4" d="M2452.42,1002.31c35.81-5.83,66.96-26.65,102.35-33.96-14.67,11.71-27.71,27.34-46.83,31.63-56.84,13.3-113.37,29.14-171.48,35.81-26.81,3.34-55.15.05-79.99,12.34,30.04,6.15,60.82,5.88,91.17,8.79-18.49,8.37-39.2,5.83-58.86,4.71-105.16-11.5-210.79,10.7-316-1.01,86.14,12.87,168.99-27.39,255.02-18.01,62.51-12.45,127.88-12.18,188.8-31.79,11.02-5.88,23.79-6.15,35.81-8.53h0Z"/>
    </g>
    <path class="cls-4" d="M139.17,912.62c-19.65-10.12-39.52-27.55-38.78-51.54,29.67,49.64,91.96,63.2,141.5,85.45-35.39-7.15-70.35-17.69-102.72-33.85v-.05Z"/>
    <path class="cls-4" d="M963.83,891.17c1.85-14.78,15.2-18.65,26.96-23.36,3.02,7.05,6.15,14.2,9.22,21.3-12.03.79-24.05,1.48-36.18,2.12v-.05Z"/>
    <path class="cls-4" d="M1891.74,1007.82c63.99-7.63,127.46-18.65,191.5-25.8-16.79,10.97-37.82,8.69-56.68,12.5-44.87,4.45-89.47,17.8-134.82,13.3Z"/>
    <path class="cls-4" d="M860.1,1016.61c25,.48,54.88-2.7,73.53,17.64,22.36,23.47,58.17,9.96,86.83,14.46,10.49,8.63,21.14,16.95,32.05,25.11-42.96-.05-88.04,3.66-128.2-14.67-11.5-3.97-15.15-16.53-21.51-25.53-14.78-4.34-29.3-9.48-42.7-16.95v-.05Z"/>
    <path class="cls-4" d="M1667.6,1041.35c24.05-15.2,59.65-12.98,82.38,3.66-27.39,5.14-55.46,2.65-82.38-3.66h0Z"/>
    <g>
      <path class="cls-4" d="M538.6,1125.79c29.45-11.71,61.29-6.04,92.02-7.79,27.34,2.17,54.3,7.15,81.21,11.65-5.03,5.14-10.12,10.28-15.04,15.36l5.03,4.5,5.62,2.54c14.04,3.34,8.16-13.51,10.01-21.35,15.79,5.35,31.68,10.81,46.3,18.96,38.99,23.31,83.97,33.96,127.62,44.82,46.88,1.96,93.98-2.81,140.81-6.2-11.5,9.64-21.67,25.48-38.62,24.16-42.33-.85-84.71-3.87-127.03-.85,29.61,9.38,60.5,12.18,91.01,17.16l-.32-14.3c37.14,18.33,83.97,3.81,116.49,31.15-35.49,4.45-71.3,3.97-106.85,1.38-50.86-9.16-103.3-9.38-153.36-22.36-48-20.82-95.67-43.28-147.27-53.88-1.54-3.34-4.66-10.12-6.2-13.51,11.5-1.64,22.99-3.28,34.49-4.98-44.18-32.84-104.31-19.71-155.85-26.49h-.05Z"/>
      <path class="cls-4" d="M1854.76,1405.61c18.01-.64,33.32-10.01,47.84-19.71,2.7,10.54,5.72,20.98,7.15,31.84-3.81,18.33-15.68,35.81-9.48,55.04-32.69,22.3-72.95,27.02-110.82,33.8-98,13.67-194.31,38.35-293.11,46.19,38.88-2.28,74.22-19.87,111.35-29.82,62.03-19.97,127.78-28.71,187.16-56.68,27.12-11.87,41.48-39.15,59.86-60.66h.05Z"/>
    </g>
  </g>
  <text class="cls-10" transform="translate(941.06 98.96) scale(.97 1)"><tspan class="cls-5" x="0" y="0">M</tspan><tspan class="cls-29" x="38.37" y="0">a</tspan><tspan class="cls-22" x="63.58" y="0">r</tspan><tspan class="cls-12" x="87.63" y="0">a </tspan><tspan class="cls-16" x="128.6" y="0">P</tspan><tspan class="cls-28" x="151.05" y="0">a</tspan><tspan class="cls-20" x="176.43" y="0">i</tspan><tspan class="cls-25" x="186.55" y="0">n.</tspan></text>
  <text class="cls-8" transform="translate(2456.55 93.21)"><tspan class="cls-26" x="0" y="0">Ho</tspan><tspan x="26.75" y="0" xml:space="preserve">me    </tspan><tspan class="cls-33" x="76.44" y="0"> </tspan><tspan x="80.68" y="0">Ab</tspan><tspan class="cls-23" x="107.39" y="0">o</tspan><tspan class="cls-6" x="119.8" y="0">u</tspan><tspan x="131.69" y="0" xml:space="preserve">t      B</tspan><tspan class="cls-23" x="181.31" y="0">l</tspan><tspan x="185.64" y="0" xml:space="preserve">og     </tspan><tspan class="cls-24" x="235.05" y="0" xml:space="preserve"> C</tspan><tspan class="cls-26" x="254.65" y="0">o</tspan><tspan class="cls-19" x="266.95" y="0">n</tspan><tspan class="cls-26" x="278.21" y="0">t</tspan><tspan class="cls-30" x="285.66" y="0">ac</tspan><tspan x="308.07" y="0">t</tspan></text>
  <text class="cls-11" transform="translate(1046.41 478.49)"><tspan class="cls-13" x="0" y="0">W</tspan><tspan x="38.16" y="0">el</tspan><tspan class="cls-21" x="68.52" y="0">c</tspan><tspan x="89.2" y="0">ome </tspan><tspan class="cls-17" x="176.68" y="0">t</tspan><tspan x="190.16" y="0">o </tspan><tspan class="cls-21" x="222.55" y="0">m</tspan><tspan x="256.2" y="0">y blo</tspan><tspan class="cls-18" x="340.23" y="0">g</tspan><tspan x="362.03" y="0">.</tspan></text>
  <path class="cls-3" d="M2583.86,218.48c5.41,39.06,16.5,77.33,32.82,113.23,11.49-29,24.44-57.43,38.79-85.12"/>
  <path class="cls-9" d="M2634.62,374.83c.99,11.05,1.97,22.11,2.96,33.16,3.74-13.33,8.49-26.37,14.2-38.98"/>
  <path class="cls-15" d="M2619.67,388.84c7.79,15.58,13.12,32.38,15.74,49.6,5.44-17.59,13.25-34.43,23.16-49.95l-38.9.34Z"/>
  <path class="cls-15" d="M2633.42,351.27c4.1,7.41,6.26,15.88,6.24,24.35-.06-5.88,2.95-11.3,5.87-16.4,1.73-3.02,3.46-6.04,5.33-8.98,1.7-2.67,3.5-5.27,5.41-7.8"/>
  <text class="cls-7" transform="translate(2579.28 467.96)"><tspan x="0" y="0">sc</tspan><tspan class="cls-31" x="11.51" y="0">r</tspan><tspan x="15.61" y="0">oll </tspan><tspan class="cls-32" x="30.8" y="0">t</tspan><tspan x="34.85" y="0">o </tspan><tspan class="cls-32" x="44.57" y="0">e</tspan><tspan x="50.88" y="0">xplo</tspan><tspan class="cls-31" x="72.76" y="0">r</tspan><tspan class="cls-27" x="76.86" y="0">e</tspan><tspan x="82.93" y="0">...</tspan></text>
</svg>