<?xml version="1.0" encoding="UTF-8"?>
<svg id="Layer_2" data-name="Layer 2" xmlns="http://www.w3.org/2000/svg" viewBox="0 0 87.3 132.99">
  <defs>
    <style>
      .cls-1 {
        stroke: #8a1010;
        stroke-miterlimit: 10;
        stroke-width: .5px;
      }

      .cls-1, .cls-2 {
        fill: #fff;
      }

      .cls-2 {
        stroke-width: 0px;
      }
    </style>
  </defs>
  <g id="Brand_Mark" data-name="Brand Mark">
    <g id="Logo_Dark" data-name="Logo Dark">
      <g>
        <g>
          <path class="cls-1" d="M50.14,5.72c.37-.37.73-.77,1.08-1.18s.7-.83,1.05-1.24.74-.79,1.17-1.12.9-.61,1.42-.81,1.13-.31,1.82-.31h.92c-.26,1.21-.55,2.33-.87,3.35s-.68,1.99-1.07,2.9-.81,1.78-1.26,2.61-.93,1.66-1.44,2.49-1.04,1.67-1.61,2.52-1.16,1.76-1.77,2.72c-.35.51-.67,1.08-.96,1.7s-.56,1.25-.79,1.88-.43,1.25-.6,1.86-.29,1.16-.38,1.65c0,.18,0,.35.01.53s.04.38.09.61c.49.01.97-.06,1.42-.23s.88-.39,1.28-.65.78-.55,1.12-.85.66-.59.95-.85.54-.47.76-.64.4-.24.55-.22l1,.13c-.02.06-.13.22-.32.48s-.46.58-.79.94-.74.76-1.21,1.18-.99.82-1.56,1.2-1.18.71-1.84,1-1.34.48-2.06.56c-.16.02-.33.05-.53.08s-.4.04-.61.03-.42-.05-.62-.13-.39-.21-.55-.41-.29-.46-.39-.79-.15-.77-.15-1.29c0-.29.04-.63.12-1.03s.23-.85.46-1.38c.42-1.16.9-2.27,1.44-3.31s1.11-2.06,1.7-3.05c.6-.99,1.21-1.97,1.83-2.93s1.24-1.95,1.83-2.95,1.16-2.04,1.7-3.11,1.01-2.2,1.43-3.4c-.75.56-1.51,1.19-2.26,1.9s-1.49,1.47-2.2,2.27-1.39,1.63-2.03,2.48-1.22,1.7-1.73,2.53c-.26.39-.57.9-.92,1.53s-.75,1.34-1.17,2.12c-.42.78-.86,1.6-1.33,2.47s-.92,1.73-1.39,2.57-.92,1.66-1.36,2.43-.85,1.45-1.22,2.04-.71,1.06-1.01,1.41-.53.52-.7.52c-.26,0-.45-.09-.57-.26s-.2-.4-.24-.68-.06-.59-.05-.93.01-.69.01-1.04c0-.03,0-.1.02-.2s.02-.21.04-.33.04-.24.07-.37.07-.23.11-.32.09-.15.15-.19.12-.02.19.04c.11,0,.19-.02.26-.07s.12-.1.17-.16.1-.11.15-.16.12-.07.21-.07c.89-1.43,1.76-2.92,2.6-4.46s1.65-3.13,2.44-4.75,1.54-3.26,2.26-4.92,1.41-3.32,2.07-4.98c-1.12.87-2.16,1.84-3.1,2.9s-1.83,2.19-2.66,3.37-1.62,2.41-2.37,3.68-1.49,2.55-2.23,3.83-1.48,2.56-2.23,3.83-1.55,2.5-2.39,3.68c-.03.34-.09.65-.18.92s-.21.53-.36.76-.31.44-.49.63-.38.37-.58.54c-.28-.04-.51-.12-.68-.25s-.3-.28-.4-.47-.17-.41-.21-.65-.08-.5-.1-.76-.04-.54-.07-.82-.06-.56-.12-.83c.56-.42,1.1-.94,1.62-1.55s1.03-1.29,1.53-2.03.97-1.51,1.43-2.32.9-1.62,1.33-2.44c.42-.81.83-1.6,1.21-2.37s.75-1.48,1.1-2.13c.32-.61.61-1.17.86-1.68s.47-1.01.67-1.48.37-.95.53-1.42.3-.97.44-1.5.28-1.11.41-1.73.28-1.32.43-2.1c-.65.42-1.29.89-1.93,1.4s-1.27,1.05-1.89,1.62-1.25,1.16-1.87,1.77-1.24,1.22-1.85,1.84-1.23,1.23-1.84,1.83-1.22,1.18-1.83,1.73v-.58c0-.28-.02-.55-.06-.78s-.08-.47-.12-.69-.08-.45-.12-.67-.06-.46-.06-.72c0-.12.02-.2.06-.26s.1-.11.17-.14.16-.05.26-.05.21,0,.32,0h.34c.55-.48,1.12-.93,1.72-1.36s1.2-.84,1.81-1.25l1.82-1.22c.61-.41,1.19-.83,1.77-1.26s1.12-.89,1.63-1.37,1-.99,1.44-1.55c.22-.12.47-.2.75-.26s.56-.09.84-.09c.35,0,.66.03.94.1s.54.18.77.35c0,.49-.04.94-.13,1.35s-.19.79-.33,1.14-.28.69-.45,1.01-.32.64-.47.97-.29.67-.41,1.02-.21.74-.27,1.16c.4-.21.78-.5,1.14-.87s.72-.77,1.08-1.2.73-.87,1.11-1.32.79-.85,1.23-1.21.93-.66,1.45-.89c.52-.23,1.11-.35,1.76-.35.14,0,.29,0,.45,0s.31.01.45.05.25.1.34.2c.09.1.13.25.13.45,0,.45-.05.86-.16,1.22s-.23.71-.36,1.05-.26.68-.39,1.02-.2.73-.23,1.16c.45-.24.87-.55,1.24-.92Z"/>
          <path class="cls-1" d="M64.6,22.6c.06,0,.12.02.18.05s.12.07.17.14.08.15.08.26c0,.13-.04.3-.13.53s-.2.46-.34.72-.29.51-.47.77-.35.48-.52.68c-.3.34-.61.64-.95.9s-.68.48-1.03.66-.69.32-1.04.41-.67.14-.98.14c-.41,0-.74-.04-.99-.11s-.45-.17-.59-.29-.24-.27-.29-.44-.07-.34-.06-.53.04-.39.09-.59.1-.41.15-.61c-.06.13-.16.28-.3.47s-.32.38-.53.58-.45.4-.71.6-.55.38-.86.54-.63.29-.97.39-.69.15-1.05.15c-.14,0-.28,0-.43,0s-.3-.02-.46-.06-.3-.1-.43-.19-.26-.23-.36-.41-.19-.41-.25-.7-.09-.64-.09-1.07.08-.94.23-1.47.37-1.08.64-1.63.59-1.12.96-1.67.77-1.08,1.19-1.56.87-.93,1.34-1.33.93-.71,1.4-.95l2.97,1.22c.06-.13.14-.26.22-.39s.19-.24.29-.35.22-.18.35-.25.25-.1.39-.1c.17,0,.32.03.46.08s.26.12.37.21.21.19.29.31.17.24.25.37c-.23.58-.45,1.14-.66,1.69s-.42,1.08-.62,1.62-.41,1.09-.61,1.66-.41,1.15-.63,1.76c-.06.18-.09.33-.09.47,0,.17.05.3.14.4s.24.15.43.15c.37,0,.74-.11,1.13-.32s.76-.48,1.11-.8.66-.67.93-1.05.47-.72.6-1.04c0,0,.04,0,.1.01ZM54.29,25.81c.11.03.2.04.27.04.47,0,.89-.09,1.26-.26s.72-.42,1.03-.74.6-.69.85-1.12.51-.9.75-1.4.48-1.04.72-1.6.48-1.13.74-1.71c-.02-.04-.07-.08-.15-.12s-.17-.08-.27-.11-.2-.06-.3-.08-.18-.04-.24-.04c-.19,0-.36,0-.5.04s-.28.08-.41.14-.25.15-.38.24-.25.21-.4.35c-.42.4-.8.81-1.14,1.24s-.65.89-.92,1.39-.5,1.05-.7,1.65-.36,1.26-.49,2c.07.03.17.05.27.08Z"/>
          <path class="cls-1" d="M74.73,22.51c.11.05.18.12.22.19s.04.15.02.23-.04.15-.07.21c-.26.64-.59,1.26-.99,1.84s-.86,1.1-1.4,1.55-1.15.8-1.83,1.07-1.44.4-2.28.4c-.29,0-.54-.05-.75-.14s-.38-.23-.51-.4-.23-.38-.29-.61-.09-.5-.09-.78c0-.43.05-.89.15-1.4s.25-1.02.45-1.53.44-1.01.74-1.5.63-.92,1.02-1.3c-.09-.17-.22-.3-.39-.38s-.33-.17-.51-.25-.35-.19-.51-.31-.29-.31-.38-.56c-.03.2-.1.43-.19.69s-.2.53-.33.81-.26.57-.41.85-.3.57-.45.84-.3.52-.43.76-.25.43-.36.6c-.05.09-.11.16-.16.22s-.12.09-.21.09c-.07,0-.15-.02-.24-.06s-.21-.12-.38-.26l.08-.18c.05-.12.12-.27.2-.47s.17-.41.27-.64.2-.48.29-.72.18-.47.26-.68.15-.39.19-.53c.04-.14.07-.31.1-.52s.05-.43.06-.67.02-.47.03-.7.01-.45.01-.64c0-.1,0-.21-.01-.32s-.01-.21-.02-.31c0-.11-.01-.21-.02-.31.18-.05.4-.1.69-.14s.63-.06,1.04-.06c.47,0,.84.05,1.11.14s.46.22.6.38.23.34.27.55.08.42.12.64.09.44.16.67.2.43.39.62c.05-.04.14-.08.26-.12s.26-.08.42-.12.33-.07.51-.09.37-.03.55-.03c.2,0,.39.02.57.05s.35.08.49.15.26.17.35.28.13.27.13.44c0,.1-.01.2-.04.3s-.06.19-.1.28-.08.17-.12.24-.07.12-.09.16c-.02,0-.05-.01-.09-.04s-.08-.05-.13-.08-.09-.06-.13-.08-.07-.04-.1-.05c-.2.18-.41.4-.63.67s-.45.56-.68.87-.45.64-.66.97-.4.67-.56,1-.29.63-.39.93-.15.55-.15.78c0,.12.03.23.09.32s.17.14.32.14c.2,0,.43-.05.69-.14s.52-.23.8-.4.56-.38.85-.62.55-.51.81-.81.49-.62.7-.96.39-.7.52-1.07c.24.01.42.05.53.1Z"/>
          <path class="cls-1" d="M86.62,22.6c.06,0,.12.02.18.05s.12.07.17.14.08.15.08.26c0,.13-.04.3-.13.53s-.2.46-.34.72-.29.51-.47.77-.35.48-.52.68c-.3.34-.61.64-.95.9s-.68.48-1.03.66-.69.32-1.04.41-.67.14-.98.14c-.41,0-.74-.04-.99-.11s-.45-.17-.59-.29-.24-.27-.29-.44-.07-.34-.06-.53.04-.39.09-.59.1-.41.15-.61c-.06.13-.16.28-.3.47s-.32.38-.53.58-.45.4-.71.6-.55.38-.86.54-.63.29-.97.39-.69.15-1.05.15c-.14,0-.28,0-.43,0s-.3-.02-.46-.06-.3-.1-.43-.19-.26-.23-.36-.41-.19-.41-.25-.7-.09-.64-.09-1.07.08-.94.23-1.47.37-1.08.64-1.63.59-1.12.96-1.67.77-1.08,1.19-1.56.87-.93,1.34-1.33.93-.71,1.4-.95l2.97,1.22c.06-.13.14-.26.22-.39s.19-.24.29-.35.22-.18.35-.25.25-.1.39-.1c.17,0,.32.03.46.08s.26.12.37.21.21.19.29.31.17.24.25.37c-.23.58-.45,1.14-.66,1.69s-.42,1.08-.62,1.62-.41,1.09-.61,1.66-.41,1.15-.63,1.76c-.06.18-.09.33-.09.47,0,.17.05.3.14.4s.24.15.43.15c.37,0,.74-.11,1.13-.32s.76-.48,1.11-.8.66-.67.93-1.05.47-.72.6-1.04c0,0,.04,0,.1.01ZM76.3,25.81c.11.03.2.04.27.04.47,0,.89-.09,1.26-.26s.72-.42,1.03-.74.6-.69.85-1.12.51-.9.75-1.4.48-1.04.72-1.6.48-1.13.74-1.71c-.02-.04-.07-.08-.15-.12s-.17-.08-.27-.11-.2-.06-.3-.08-.18-.04-.24-.04c-.19,0-.36,0-.5.04s-.28.08-.41.14-.25.15-.38.24-.25.21-.4.35c-.42.4-.8.81-1.14,1.24s-.65.89-.92,1.39-.5,1.05-.7,1.65-.36,1.26-.49,2c.07.03.17.05.27.08Z"/>
        </g>
        <g>
          <path class="cls-1" d="M58.15,39.5c-.98,1.24-2.07,2.41-3.28,3.49s-2.5,2.07-3.89,2.96-2.82,1.65-4.31,2.27c-.59.18-1.15.4-1.7.68-.54.28-1.09.65-1.65,1.11-.09.03-.18.05-.24.06s-.13.01-.18.01h-.16s-.07,0-.11,0-.08.01-.12.03c-.19.5-.4,1.01-.64,1.54s-.49,1.05-.74,1.58-.49,1.07-.73,1.61-.45,1.08-.63,1.62c-.17.37-.34.75-.52,1.16s-.38.82-.59,1.22-.45.79-.71,1.16-.53.69-.84.97-.65.5-1.02.67-.78.25-1.22.25c-.2,0-.41-.03-.66-.1s-.49-.17-.74-.29c-.49-.16-.93-.38-1.33-.67s-.75-.61-1.06-1c-.51-.76-.91-1.47-1.19-2.13s-.45-1.29-.5-1.89c-.02-.23-.01-.43.03-.6s.09-.35.17-.52c.05-.37.12-.71.22-1.02s.19-.63.28-.94c.56-1.64,1.34-3.32,2.37-5.05,1.02-1.73,2.28-3.44,3.77-5.14.42-.51.86-1.01,1.31-1.48s.91-.93,1.38-1.38c.42-.39.88-.74,1.38-1.06s.99-.59,1.46-.83c.37-.18.7-.35,1.02-.49s.6-.3.86-.48.5-.4.72-.66.4-.59.56-1c.03,0,.05,0,.08,0s.04,0,.06,0c.11,0,.2-.01.28-.04s.15-.06.21-.09.1-.06.14-.09.07-.04.09-.04c.04-.1.12-.21.22-.33s.26-.25.45-.38c.08-.3.15-.57.21-.82s.13-.47.21-.64.18-.32.3-.42.29-.15.5-.15c.25.02.48.06.68.13.18.05.34.13.49.24s.23.25.25.42c.01.18-.01.35-.08.53s-.14.36-.24.54-.19.37-.3.56-.19.39-.26.6c.52-.07,1.11-.2,1.75-.39s1.33-.38,2.06-.57,1.48-.36,2.27-.51c.79-.15,1.57-.22,2.37-.22.45.07.87.15,1.26.22s.76.18,1.1.31.63.33.9.58.49.59.69,1.03c-.66,1.32-1.48,2.6-2.46,3.84ZM38.53,54.94c.46-.95.92-2.06,1.39-3.32s.98-2.66,1.52-4.2c.54-1.54,1.18-3.22,1.91-5.02.02-.07.04-.17.07-.31s.05-.29.07-.45l.06-.47c.02-.16.04-.28.06-.39,0-.01-.01-.03-.02-.06s-.02-.04-.05-.05c-.24.1-.5.24-.77.4s-.54.34-.81.52-.53.36-.78.54-.48.33-.68.46c-.26.22-.53.44-.81.68s-.56.49-.84.77c-.24.2-.47.42-.69.67s-.43.51-.65.79-.44.57-.68.87-.49.61-.77.92c-.41.56-.8,1.14-1.18,1.73-.38.59-.74,1.18-1.06,1.76s-.61,1.15-.86,1.71-.43,1.08-.55,1.58c.01.2.06.43.13.71s.13.58.16.93c-.14.36-.25.68-.35.95s-.15.49-.17.66c.05.22.14.45.29.69s.33.45.55.64.48.35.78.48.61.2.95.21c.23,0,.46-.08.7-.24s.46-.35.67-.57.39-.45.55-.68.28-.42.35-.57c.56-.62,1.06-1.41,1.52-2.37ZM45.51,45.74c.24,0,.48-.01.72-.03s.47-.05.71-.1c.83-.15,1.65-.39,2.44-.72s1.56-.73,2.28-1.2,1.4-1,2.04-1.59,1.21-1.22,1.73-1.89.97-1.38,1.35-2.11.68-1.48.9-2.24c-.22-.01-.44-.03-.66-.04s-.45-.02-.68-.02c-.6,0-1.22.03-1.84.08s-1.24.13-1.85.23-1.21.23-1.78.38-1.12.32-1.62.52-.96.42-1.38.66-.76.51-1.04.8c-.22.29-.43.58-.61.87s-.34.59-.46.88c-.2.46-.38.93-.54,1.42s-.31.98-.45,1.47-.27.99-.39,1.49-.24.98-.36,1.46c.51,0,1-.11,1.48-.32Z"/>
          <path class="cls-1" d="M60.56,54.49c.06,0,.12.02.18.05s.12.07.17.14.08.15.08.26c0,.13-.04.3-.13.53s-.2.46-.34.72-.29.51-.47.77-.35.48-.52.68c-.3.34-.61.64-.95.9s-.68.48-1.03.66-.69.32-1.04.41-.67.14-.98.14c-.41,0-.74-.04-.99-.11s-.45-.17-.59-.29-.24-.27-.29-.44-.07-.34-.06-.53.04-.39.09-.59.1-.41.15-.61c-.06.13-.16.28-.3.47s-.32.38-.53.58-.45.4-.71.6-.55.38-.86.54-.63.29-.97.39-.69.15-1.05.15c-.14,0-.28,0-.43,0s-.3-.02-.46-.06-.3-.1-.43-.19-.26-.23-.36-.41-.19-.41-.25-.7-.09-.64-.09-1.07.08-.94.23-1.47.37-1.08.64-1.63.59-1.12.96-1.67.77-1.08,1.19-1.56.87-.93,1.34-1.33.93-.71,1.4-.95l2.97,1.22c.06-.13.14-.26.22-.39s.19-.24.29-.35.22-.18.35-.25.25-.1.39-.1c.17,0,.32.03.46.08s.26.12.37.21.21.19.29.31.17.24.25.37c-.23.58-.45,1.14-.66,1.69s-.42,1.08-.62,1.62-.41,1.09-.61,1.66-.41,1.15-.63,1.76c-.06.18-.09.33-.09.47,0,.17.05.3.14.4s.24.15.43.15c.37,0,.74-.11,1.13-.32s.76-.48,1.11-.8.66-.67.93-1.05.47-.72.6-1.04c0,0,.04,0,.1.01ZM50.25,57.7c.11.03.2.04.27.04.47,0,.89-.09,1.26-.26s.72-.42,1.03-.74.6-.69.85-1.12.51-.9.75-1.4.48-1.04.72-1.6.48-1.13.74-1.71c-.02-.04-.07-.08-.15-.12s-.17-.08-.27-.11-.2-.06-.3-.08-.18-.04-.24-.04c-.19,0-.36,0-.5.04s-.28.08-.41.14-.25.15-.38.24-.25.21-.4.35c-.42.4-.8.81-1.14,1.24s-.65.89-.92,1.39-.5,1.05-.7,1.65-.36,1.26-.49,2c.07.03.17.05.27.08Z"/>
          <path class="cls-1" d="M79.65,53.32c.05.05.1.11.14.2s.05.2.02.35c-.03.14-.09.32-.18.53s-.2.44-.34.67-.28.47-.43.7-.31.43-.46.6c-.33.38-.67.71-1.01.98s-.67.5-1,.67-.65.28-.95.34-.59.06-.86,0c-.13-.03-.28-.07-.45-.12s-.34-.13-.5-.24-.3-.24-.42-.41-.19-.38-.21-.63c-.04-.45-.03-.87.02-1.26s.13-.73.22-1.04.2-.57.31-.79.2-.39.28-.5c.18-.32.37-.65.58-.99l.64-1c.21-.33.41-.67.6-1s.34-.67.46-1.01c-.37.13-.74.32-1.1.57s-.72.53-1.08.83-.72.62-1.08.94-.72.62-1.09.89c-.48.35-.9.76-1.25,1.24s-.69.97-1,1.5-.62,1.06-.92,1.59-.63,1.04-.99,1.52c-.22-.01-.42-.06-.6-.13s-.34-.16-.48-.25-.28-.2-.42-.31-.27-.22-.41-.32v-1.69c.37-.47.74-.91,1.13-1.32s.74-.84,1.07-1.29.61-.93.83-1.46.37-1.13.42-1.82c-.14.05-.28.11-.41.17s-.26.12-.39.2c-.32.35-.63.7-.92,1.05-.13.15-.26.3-.4.46s-.27.32-.4.47-.25.31-.37.46-.22.29-.3.42c-.18.26-.37.5-.57.74s-.39.45-.57.63c-.21.22-.42.42-.62.6-.17.06-.31.08-.42.05-.05-.01-.09-.04-.12-.07s-.06-.08-.07-.14-.01-.14,0-.24.05-.22.11-.37c.07-.19.2-.43.37-.72s.37-.59.6-.91.47-.65.72-.99.49-.66.72-.95.43-.56.61-.8.31-.41.39-.52c.06-.08.13-.16.2-.23h0s.07-.07.07-.07c.2-.2.42-.36.66-.49s.43-.23.58-.29c.43-.18.86-.3,1.29-.36s.85-.05,1.24.02c.04.07.08.22.13.44s.08.46.11.74.03.57.02.87-.06.58-.14.83c.3-.11.58-.23.81-.37s.45-.28.65-.42.38-.3.55-.46.34-.32.52-.47.37-.31.57-.47.43-.3.69-.45c.22-.12.49-.24.8-.36s.63-.21.96-.27.65-.09.95-.09.57.07.79.2c-.16.69-.36,1.35-.61,1.97s-.52,1.23-.81,1.82-.58,1.17-.88,1.74-.57,1.16-.82,1.75c-.06.15-.12.31-.17.47s-.1.33-.13.49-.06.31-.08.45-.03.26-.03.37c0,0,.04,0,.1.02s.17,0,.31-.05.35-.13.6-.25.58-.32.97-.57c.41-.26.75-.55,1.05-.86s.53-.6.73-.87c.22-.32.41-.63.56-.94.09.02.18.06.24.11Z"/>
        </g>
      </g>
      <g id="Quill">
        <path class="cls-2" d="M0,132.55c.29.4.84.47,1.35.42.06-.06.19-.18.25-.23.46.18.97-.34,1.44-.48.47.18.95-.46,1.42-.24.25-.12.51-.23.77-.32.34.08.69-.08,1-.27.28.19.61-.03.91-.14.24-.11.49-.05.73-.13.31-.12.61-.27.92-.39.54.07,1.05-.39,1.57-.57.57.08,1.08-.55,1.63-.74,1.42-.44,2.47-1.71,3.85-2.25,1.62-1.17,3.24-2.34,4.85-3.53.05,0,.15,0,.2,0,1.98-1.41,3.89-2.91,5.82-4.38.25-.2.58-.26.83-.47,2.47-1.97,4.89-3.99,7.25-6.08.24-.21.35-.52.6-.74,1.21-1.1,2.38-2.24,3.55-3.38.16-.15.31-.33.35-.54.71-.79,1.48-1.54,2.2-2.33.14-.12.23-.28.22-.45.6-.68,1.19-1.36,1.8-2.03.07-.69,1.08-1.09,1.17-1.8.43-.61,1.16-1.13,1.34-1.84.4-.51.84-1,1.21-1.53,0-.05,0-.15,0-.21.4-.48.75-1,1.18-1.46-.03-.03-.09-.1-.13-.13.35-.45.71-.89,1.03-1.36,0-.05,0-.16,0-.21.23-.3.47-.6.7-.91-.05-.55.6-.95.87-1.42-.05-.62.86-1.04.84-1.65.25-.48.83-.91.84-1.43.24-.44.75-.83.76-1.32.25-.48.84-.91.83-1.44.25-.44.78-.83.75-1.33.23-.44.74-.84.75-1.32.25-.37.5-.74.75-1.11-.05-.58.77-.98.73-1.55.24-.38.49-.74.74-1.11-.04-.62.85-1.05.82-1.65.22-.32.57-.61.61-1,.34-.49.71-.96,1.09-1.42-.06-.63.9-1.02.87-1.64.28-.47.79-.88.86-1.42.19-.35.4-.68.62-1.01-.08-.44.46-.78.41-1.22.25-.53.48-1.13.32-1.66-.25-.61-.82-1-1.11-1.58,0-.05.02-.16.03-.21-.41-.65-.78-1.34-1.05-2.07-.08-.14-.01-.31.06-.46-.1-.29-.2-.58-.31-.86.06-.07.17-.2.23-.27-.04-.09-.13-.27-.17-.35.03-.26.01-.52-.05-.77.3-.41-.09-.85.27-1.25-.15-.3.12-.61.17-.93,0-.56.32-1.1.29-1.65.12-.28.25-.55.4-.81-.08-.36.2-.7.38-1.02-.15-.44.46-.79.35-1.24.2-.44.59-.85.58-1.33.12-.32.45-.59.39-.94.15-.31.33-.61.51-.9-.07-.42.31-.79.53-1.15-.04-.07-.1-.2-.14-.27.06-.06.18-.19.24-.25.11-.2.23-.39.35-.58-.06-.3.12-.59.28-.86.16-.78.71-1.51.74-2.31.18-.24.2-.51.25-.77.11-.28.25-.57.24-.87.24-.61.34-1.24.49-1.86.17-.3.35-.59.53-.89,0-.14-.01-.28-.01-.42.39-.42.2-.93.11-1.36.06-.06.12-.13.18-.19-.33-.38-.57-1.08-1.21-1.02-.29-.06-.59-.09-.88-.11-.11.08-.32.23-.42.31.04.42-.53.75-.38,1.2-.16.52.16.94.24,1.41-.18.46.09.89.08,1.35-.22.25-.17.5-.06.74-.09.18-.28.35-.21.55.09.32-.13.63-.29.92.04.06.11.19.15.26-.2.27-.44.55-.33.87-.2.32-.36.65-.39,1.01-.15.23-.25.48-.21.74-.17.3-.35.6-.52.89.13.49-.55.87-.45,1.36-.16.31-.34.6-.52.9.12.5-.56.86-.47,1.36-.18.32-.43.64-.41,1-.18.42-.64.78-.59,1.24-.2.34-.41.68-.62,1.01.07.49-.54.84-.54,1.33-.23.45-.66.83-.72,1.33-.23.5-.79.89-.82,1.44-.31.45-.67.86-.97,1.31-.34.78-.62,1.58-1.21,2.25.14.5-.61.84-.52,1.34-.25.44-.73.82-.75,1.33-.29.55-.82,1.01-.97,1.61-.11.35-.46.6-.56.96-.13.54-.67.92-.8,1.45-.17.55-.78.93-.82,1.51-.25.45-.73.81-.77,1.32-.3.45-.62.9-.97,1.33,0,.55-.58.96-.86,1.43.03.62-.88,1.04-.85,1.65-.23.31-.47.6-.71.9,0,.55-.6.96-.89,1.43.07.65-.98,1.09-.95,1.75-.37.47-.73.95-1.11,1.41.03.67-.98,1.09-.97,1.74-.42.5-.81,1.02-1.23,1.53-.03.7-1.03,1.14-1.1,1.83-.39.52-.84,1.01-1.22,1.54,0,.05.02.15.02.2-.42.51-.86,1.01-1.26,1.53,0,.05.02.15.02.19-.49.58-.99,1.16-1.46,1.75,0,.05.01.15.02.19-.46.54-.93,1.08-1.38,1.63,0,.05.01.15.01.19-.16.19-.32.39-.48.57-.46.45-.83.97-1.26,1.45.03.02.1.07.14.09-.38.42-.75.84-1.11,1.26,0,.22-.18.39-.31.57-.48.55-.96,1.11-1.48,1.63.04.02.11.07.15.09-.62.67-1.22,1.37-1.86,2.02.03.03.08.09.11.11-.8.85-1.57,1.73-2.39,2.57.04.02.12.06.16.08-.85.83-1.6,1.74-2.47,2.56.04.02.11.06.15.09-.92.93-1.82,1.87-2.73,2.8-.07.31-.35.53-.57.76-1.01.98-1.99,2.01-3.02,2.96.04.02.11.06.15.09-1.78,1.67-3.52,3.39-5.36,4.99.04.02.12.06.16.08-1.87,1.67-3.74,3.34-5.65,4.97-.6.49-1.14,1.06-1.81,1.45.56-.51,1.15-.99,1.69-1.52-.03-.03-.1-.1-.13-.13,1.4-1.29,2.72-2.66,4.09-3.98l-.16-.06c.89-.89,1.78-1.77,2.65-2.68.86-1.25,2.05-2.25,3.08-3.36l-.17-.05c.78-.79,1.53-1.6,2.29-2.41,0-.05,0-.15,0-.2.77-.84,1.54-1.69,2.34-2.51-.04-.02-.11-.07-.15-.09.69-.7,1.31-1.45,2-2.14-.03-.03-.1-.08-.13-.11.72-.82,1.57-1.57,2.1-2.52.31-.4.67-.77,1.02-1.15-.04-.02-.11-.07-.15-.09.66-.75,1.43-1.45,1.9-2.32.38-.52.86-.97,1.26-1.48.04-.16.07-.33.2-.45.48-.56.95-1.11,1.44-1.66-.04-.02-.11-.06-.15-.08.52-.56.99-1.15,1.49-1.73.15-.03.35-.09.29-.28-.09-.63.94-.98.9-1.59.45-.55.92-1.09,1.36-1.65,0-.05-.02-.14-.02-.19.45-.54.9-1.09,1.35-1.63,0-.05-.01-.16-.02-.21.41-.51.79-1.03,1.24-1.52,0-.71,1.07-1.16,1.07-1.84.43-.49.82-1.02,1.23-1.52-.03-.67.96-1.07.99-1.74.19-.38.75-.7.69-1.13.33-.5.89-.94,1-1.52.36-.48.71-.95,1.08-1.42-.05-.65.89-1.04.87-1.65.32-.5.89-.95.97-1.53.25-.44.75-.8.77-1.31.34-.48.7-.96,1.07-1.42-.06-.51.52-.9.76-1.34-.02-.61.87-1.03.83-1.65.24-.49.83-.9.84-1.43.25-.37.51-.73.76-1.1-.06-.51.51-.89.75-1.33-.11-.42.55-.73.43-1.15.25-.44.75-.83.74-1.33.21-.45.73-.84.71-1.33.2-.34.42-.67.65-1-.11-.5.61-.82.52-1.32.25-.36-.2-.61-.41-.79-.07.03-.2.09-.26.11-.05-.05-.14-.15-.19-.2-.23,0-.46.01-.68.03-.31-.05-.63-.02-.95.09-.35-.08-.71.1-1.06.23-.44-.11-.88.3-1.32.38-.55.04-1.04.37-1.55.61-.35-.17-.7.27-1.07.27-.6-.01-1.1.72-1.69.56-.53.27-1.06.54-1.6.81-.55-.02-1.03.44-1.54.65-.05-.01-.15-.03-.2-.04-.71.31-1.35.82-2.1.97-.56.16-1.04.79-1.62.71-.57.32-1.12.7-1.7,1-.05,0-.16-.03-.21-.03-2.42,1.48-4.75,3.2-6.57,5.39-.09.11-.13.23-.12.37-.75.92-1.13,2-1.46,3.08.04.06.12.18.16.24-.06.16-.44.39-.16.5.7-.02,1.3-.53,1.94-.81.47.12.96-.35,1.45-.48.33.13.73-.29,1.04,0-.04.16-.09.31-.14.47-2.41,1.35-4.49,3.26-6.35,5.3,0,.06-.03.18-.04.24-.42.55-.92,1.04-1.34,1.59,0,.05.02.16.02.21-.19.24-.38.46-.57.7l-.15.19c-.16.21-.31.44-.45.66,0,.38-.34.67-.55.98-.12.13-.19.27-.12.42-.28.43-.64.84-.76,1.33-.15.43-.66.8-.6,1.24-.25.37-.5.73-.75,1.09.13.5-.57.84-.51,1.34-.27.43-.68.83-.73,1.34-.15.42-.66.79-.6,1.22-.26.37-.49.74-.74,1.11.15.38-.45.66-.35,1.04-.26.48-.85.91-.83,1.44-.38.53-.79,1.05-1.25,1.53,0,.05,0,.15-.01.2-.64.9-1.78,1.58-1.97,2.69.23.28.58.39.92.52.23-.08.47-.17.7-.27.05.05.16.15.22.2.2-.06.4-.13.6-.2.21.2.79.33.56.75-.37.5-.86.92-1.27,1.39,0,.05-.02.15-.03.2-.62.7-1.26,1.4-1.93,2.06.03.03.09.09.12.12-.6.64-1.18,1.3-1.74,1.98,0,.05-.01.14-.02.19-.29.45-.88.8-.94,1.32-.43.55-.92,1.06-1.32,1.64,0,.05-.02.15-.02.2-.4.51-.84,1-1.21,1.54,0,.05,0,.15,0,.2-.38.46-.73.95-1.11,1.41.08.63-.9,1.03-.86,1.65-.31.48-.75.9-.89,1.45-.14.46-.75.82-.69,1.3-.25.37-.5.74-.75,1.1.02.49-.49.89-.73,1.33.12.49-.54.84-.5,1.33-.18.39-.51.73-.59,1.14-.04.4-.45.7-.42,1.11-.17.25-.32.52-.32.82-.15.31-.31.62-.5.92.13.45-.44.82-.35,1.25-.2.32-.4.65-.39,1-.14.33-.3.65-.52.94.03.07.09.2.12.26-.42.38-.28.9-.57,1.33-.23.34.05.69-.15,1.04M33.36,74.88c.3-.1.6-.21.9-.31.33.24.79-.18,1.18-.24.25.09.53.03.8.03.05-.03.14-.1.19-.13.11.03.32.08.42.11-.11,0-.22-.01-.33-.02-.06.06-.19.16-.25.22-.33-.21-.75.15-1.11.27-.04-.02-.13-.06-.18-.07-.47.2-.93.44-1.38.69-.08-.18-.16-.36-.24-.54Z"/>
      </g>
    </g>
  </g>
</svg>