<?xml version="1.0" standalone="no"?>
<!DOCTYPE svg PUBLIC "-//W3C//DTD SVG 1.1//EN" "http://www.w3.org/Graphics/SVG/1.1/DTD/svg11.dtd" >
<svg xmlns="http://www.w3.org/2000/svg" xmlns:xlink="http://www.w3.org/1999/xlink" version="1.1">
<metadata>
Created by FontForge 20190801 at Thu Mar 16 16:39:07 2023
 By Unknown
(c)Perspectype Studio 2021. All Rights Reserved
</metadata>
<defs>
<font id="YellowManice" horiz-adv-x="530" >
  <font-face 
    font-family="Yellow Manice"
    font-weight="400"
    font-stretch="normal"
    units-per-em="1000"
    panose-1="2 0 6 0 0 0 0 0 0 0"
    ascent="800"
    descent="-200"
    x-height="452"
    cap-height="799"
    bbox="-159 -679 1141 1150"
    underline-thickness="50"
    underline-position="-100"
    unicode-range="U+0020-FB02"
  />
<missing-glyph horiz-adv-x="502" 
d="M402 0h-402v700h402v-700zM378 24v652h-354v-652h354zM184 222h-15q-17 44 -17 72q0 37 39 106q40 70 40 106q0 28 -16 44t-44 16q-29 0 -61 -27v22q39 35 83 35t71.5 -22.5t27.5 -62.5q0 -44 -53 -112q-30 -38 -49 -64q-17 -26 -17 -48q0 -16 11 -65zM179 104
q-5 0 -10 5l-30 35q-3 3 -3 8q0 6 5 11l28 28q4 5 10 5q3 0 10 -5l28 -29q4 -5 4 -10q0 -4 -5 -11l-27 -30q-7 -7 -10 -7z" />
    <glyph glyph-name="f_f" unicode="ff" horiz-adv-x="668" 
d="M187 608q-16 -40 -25 -82q-16 -68 -23 -125q-2 -8 -2 -12v-6q0 -10 10 -10h5q62 4 94 8q28 2 43 2t16 16q2 14 5.5 57t7.5 66q18 102 41 150q31 60 83 60h2q37 0 62 -37q8 -13 14.5 -26.5t12.5 -30.5t8.5 -27l8 -32t7.5 -29q6 -28 7 -42v-3q0 -28 -22 -31q-3 -1 -9 -1
q-25 0 -33 22q-11 29 -31 87q-5 17 -13 21q-8 -32 -11 -48q-16 -86 -23 -129q-1 -2 -1 -5v-19q0 -14 4 -17t22 -3h7t67 -9q19 -2 33 -13q12 -10 12 -22q0 -3 -2 -7q-4 -13 -21 -13q-5 0 -7 1q-17 4 -48 5.5t-43 3.5h-16q-12 0 -15 -12q-4 -20 -4 -31q0 -60 -3 -120
q-2 -40 -2 -59q0 -65 12 -195q0 -8 2 -16t5.5 -18t4.5 -16q2 -9 13 -22q9 -9 9 -19q0 -17 -20 -25q-9 -3 -16 -3q-14 0 -26 9q-18 14 -28 43q-20 59 -31 126q-15 105 -24 248q-1 14 -1 43v42q0 13 -2 16.5t-10 3.5q-1 0 -4.5 -0.5t-5.5 -0.5q-88 -8 -132 -11
q-17 -2 -20.5 -5t-4.5 -20q-6 -52 -8 -127q0 -126 20 -225q2 -10 8 -30q5 -23 26 -29q16 -4 16 -19q0 -7 -4 -15q-11 -25 -38 -25q-16 0 -29 11q-28 23 -37 51q-22 55 -32 108q-3 18 -9.5 50.5t-9.5 46.5q-15 76 -17 180v19q0 21 -8 34q-2 4 -2 7q0 7 6 15q7 11 9 41
q8 123 45 221q23 63 53 96q23 26 62 26q41 0 61 -35q39 -66 45 -149q1 -8 1 -24t-1 -24q0 -22 -20 -24h-5q-17 0 -23 18q-4 14 -10 42q-6 31 -25 68q-6 11 -13 14z" />
    <glyph glyph-name="l_l" unicode="ll" horiz-adv-x="733" 
d="M3 306q0 53 23 145q24 107 67 161q45 54 91 54q1 0 5 -0.5t6 -0.5q38 -4 66 -36q49 -54 57 -140q1 -10 1 -31q0 -36 -6 -70q-33 -167 -136 -286q-16 -18 -25 -25q-14 -11 -14 -27q0 -3 2 -11q19 -72 45 -105q21 -28 59 -28q35 1 70 26q47 32 87 83q6 6 6 16q0 2 -0.5 5.5
t-0.5 4.5q-6 58 -10 91q-6 32 -6 80q0 10 0.5 29.5t0.5 29.5q0 66 12 153q12 86 22 127q15 63 45 103q14 16 23 23q17 12 35 12q36 0 53 -38q17 -40 20 -91q2 -40 2 -61q0 -160 -58 -328q-24 -65 -46 -103q-7 -11 -7 -25q1 -23 17 -100q2 -10 9 -10q2 0 8 2q27 12 49 16
q5 1 13 1q24 0 38 -22q4 -7 4 -15q0 -9 -6 -20q-7 -11 -19 -11q-6 0 -9 1t-8 1q-20 0 -38 -24q-13 -19 -33 -28q-27 -14 -36 -33q-6 -16 -24 -16h-5q-16 2 -23 24q-2 6 -2 17q0 20 13 34q11 13 11 25q0 8 -7 22q-3 5 -7 15.5t-6 14.5q-3 7 -7 7q-3 0 -7 -4q-2 -1 -5 -4.5
t-4 -5.5q-48 -55 -110 -84q-25 -12 -56 -17q-2 0 -7 -0.5t-7 -0.5q-53 0 -99 40q-59 52 -86 138q-19 60 -30 123q-8 56 -10 163v14zM131 128q5 1 15 11q101 122 121 259q4 30 4 46q0 38 -11 68q-14 37 -39 55q-10 7 -14 7q-7 0 -16 -11q-8 -9 -16 -31q-25 -63 -35 -127
q-16 -93 -16 -177v-25q0 -49 7 -75zM533 610q-10 -13 -17 -37q-23 -88 -29 -188q-4 -94 -4 -139v-85q5 3 9 11q52 125 63 240q4 44 4 67q0 59 -14 109q-5 18 -12 22z" />
    <glyph glyph-name="o_o" unicode="oo" horiz-adv-x="969" 
d="M541 251q-41 18 -41 51q0 4 2 20q9 47 46 79t85 34h15q98 0 158 -87q54 -76 54 -170q0 -30 -6 -61q-19 -103 -96 -167q-54 -44 -106 -44q-24 0 -54 11q-55 22 -76 87q-14 41 -14 88q0 40 10 77l3 12q0 7 -6 7h-3q-2 0 -6.5 -2t-6.5 -2q-10 -3 -33.5 -11t-36.5 -11
q-21 -6 -24 -26q-15 -97 -58 -166q-31 -52 -74 -81q-37 -23 -73 -23q-56 0 -97 47q-44 50 -55 123q-4 36 -4 52q0 54 16 103q2 8 2 11q0 10 -9 19q-38 37 -46 93q-1 7 -1 21q0 68 59 115q49 37 112 37q59 0 112 -33q100 -65 117 -188q1 -8 2.5 -23.5t2.5 -23.5q0 -12 10 -12
q15 0 60 16.5t60 27.5zM604 18q8 -55 55 -55q14 0 26 4q33 11 53 34q75 81 75 179q0 36 -8 67q-18 81 -89 121q-25 15 -54 15q-33 0 -61.5 -18t-40.5 -50q-1 -3 -3 -11q0 -10 4 -13q1 -1 3 -1t8 3q13 12 31 12q11 0 26 -5q35 -12 35 -42q0 -5 -2 -15q-4 -15 -15.5 -40.5
t-15.5 -35.5q-26 -72 -27 -121v-28zM196 197q24 -8 62 -8h41q17 0 47 2q12 1 15.5 5.5t4.5 17.5v9q0 25 -5 55q-15 82 -67 127q-54 46 -114 46q-36 0 -73 -20q-59 -33 -59 -96q0 -35 22 -66q7 -10 11 -10q3 0 12 12q24 37 55 37q19 0 39 -10q7 -3 14 -8q10 -5 10 -15v-5
q0 -4 0.5 -12t0.5 -11q0 -17 -7 -28q-1 -1 -9 -22zM146 38q-1 -4 -1 -12q0 -12 6 -40q13 -50 46 -59q10 -2 16 -2q28 0 54 26q61 59 88 176q1 3 1 8q0 9 -11 9h-6q-29 -4 -65 -4q-46 0 -83 8q-10 2 -11 2q-9 0 -15 -17q-19 -55 -19 -90v-5z" />
    <glyph glyph-name="t_t" unicode="tt" horiz-adv-x="614" 
d="M78 343q-16 -17 -39 -19q-28 0 -34 16q-2 8 -2 11q0 15 14 27q18 16 38 22q25 8 25 40q0 6 -0.5 17t-0.5 17q0 61 8 130q6 42 42 65q8 5 15 5h3q25 -1 44.5 -23.5t19.5 -49.5v-2q-8 -117 -8 -134v-11q2 -1 7 -1l15 3l30 6l30 6q18 1 18 19q0 20 13 145q2 26 34 60
q8 8 27 8q21 0 35 -8q29 -15 29 -52v-11q-2 -50 -15 -126q-1 -4 -1 -10q0 -8 16 -11q24 -2 35 -3q14 -1 24 -9q12 -10 12 -21q0 -4 -1 -6q-5 -19 -24 -19h-28q-5 0 -14 -0.5t-14 -0.5q-18 0 -19 -19q-1 -32 -7.5 -90t-8.5 -81q-8 -114 -8 -172v-32q2 -74 15 -131
q6 -27 24 -32q12 -3 12 -19q0 -6 -1 -9q-2 -12 -12 -19.5t-22 -7.5q-4 0 -12 2q-29 9 -43 46q-20 49 -32 123q-20 128 -22 216q-2 42 -2 63l3 108v10q0 20 -11 20q-9 0 -22 -4q-32 -6 -48 -11q-13 -3 -16.5 -7.5t-3.5 -16.5v-13q0 -29 -3 -84t-4 -68q-3 -138 -3 -139
q0 -65 19 -135q5 -20 19 -20h8q8 0 14 -8t6 -19q0 -1 -0.5 -3t-0.5 -3q-5 -28 -27 -36q-9 -3 -17 -3q-17 0 -29 11q-27 21 -41 67q-47 142 -54 334q-3 85 -4 102z" />
    <glyph glyph-name="c_e" unicode="ce" horiz-adv-x="972" 
d="M581 157q12 3 32 13.5t30 13.5q9 3 26.5 9.5t26.5 9.5q15 5 34 5h10q19 0 28 -15q7 -12 7 -17q0 -4 -3 -9q-7 -12 -19 -12q-1 0 -2.5 0.5t-2.5 0.5q-8 2 -13 2q-8 0 -31 -7q-31 -9 -112 -49q-14 -8 -14 -22v-3q9 -94 47 -138q17 -20 36 -20q14 0 28 10q27 19 62 61
q17 22 70 89q6 9 15 15q7 4 13 4q9 0 15 -7q6 -8 6 -14t-5 -14q-10 -13 -40 -58.5t-50 -68.5q-33 -40 -58 -58q-38 -26 -73 -26q-40 0 -81 32q-41 30 -66 87q-2 4 -6.5 12.5t-7 15t-3.5 13.5q-1 8 -8 8q-5 0 -9 -4q-8 -6 -17.5 -13.5t-21.5 -17t-18 -14.5q-89 -70 -130 -93
q-49 -27 -89 -27q-23 0 -49 9q-41 15 -79 68q-39 52 -51 135q-6 33 -6 67q0 22 3 43q12 85 19 109q8 28 23 64q9 27 24 51q58 97 144 107q2 0 6 0.5t6 0.5q48 0 81 -41q38 -48 40 -116q0 -57 -7 -84q-6 -24 -22 -24q-5 0 -12 3q-13 5 -13 23q-1 19 -1 59q0 24 -13 52
q-14 27 -34 27q-17 0 -34 -20q-51 -61 -72 -151q-20 -88 -20 -161v-17q4 -60 20 -96l18 -27q15 -19 40 -19h8q42 4 91 37q24 16 48.5 34.5t56.5 44.5t46 37q11 8 11 22q-1 4 -1 12t-1 12q-6 35 -6 67q0 92 46 204q21 51 64 91q28 28 52 40q26 14 52 14q19 0 37 -6
q23 -6 45 -36q31 -36 41 -96q5 -30 5 -53q0 -18 -3 -36q-2 -14 -6 -20q-9 -14 -21 -14h-2q-15 1 -20 21v19q-4 49 -18 80q-4 10 -7 14q-12 17 -24 17q-10 0 -22 -12q-42 -42 -54 -82q-31 -103 -36 -141q-2 -10 -2 -15t3 -11z" />
    <glyph glyph-name="o_p" unicode="op" horiz-adv-x="1027" 
d="M927 278q-4 -144 -114 -263q-61 -66 -171 -127q-30 -16 -56 -16q-15 0 -15 -16q2 -74 16 -140q2 -9 13 -30q7 -13 7 -23q0 -11 -10 -20q-13 -11 -25 -11q-10 0 -23 8q-18 10 -27 32q-12 29 -25 82q-7 27 -12.5 60t-7.5 54.5t-5.5 62.5t-4.5 56q-3 44 -3 86q0 47 3 95
q7 123 23 206q1 7 1.5 20.5t0.5 17.5q0 20 -19 21h-6q-20 0 -48 -7q-78 -17 -146 -52q-10 -4 -16 -9q-15 -11 -15 -19t7 -18q41 -63 59 -104q29 -64 29 -127q0 -38 -11 -80q-29 -101 -118 -136q-18 -7 -41 -7q-63 0 -100 43q-22 26 -36 61q-19 45 -22 74q-5 35 -5 63
q0 55 15 107q18 59 28 77q19 32 48 58q15 12 28 12q3 0 11 -2t12 -2t14 -2.5t15 -2.5h3q7 1 11.5 12.5t6.5 13.5q14 15 40 32q46 28 152 63q62 20 106 22h4q57 0 80 -49q8 -19 16 -19q4 0 17 5q73 27 141 27h7q84 -2 128 -55q29 -34 38 -100q2 -10 2 -34zM568 -38
q0 -22 9 -22q5 0 17 5q23 9 50 30q84 62 127 131q45 70 57 136q5 30 5 54q0 17 -3 35q-5 20 -20 35.5t-34 17.5q-24 2 -37 2q-5 0 -13 -0.5t-13 -0.5q-22 -2 -85 -18q-18 -5 -23.5 -10.5t-6.5 -24.5q-1 -10 -2 -30.5t-2 -30.5t-6.5 -51.5t-6.5 -64.5q-1 -13 -6.5 -79
t-6.5 -103v-11zM198 297q-4 -3 -6.5 -7t-4 -9t-2.5 -7q-47 -83 -59 -183q-2 -11 -2 -33q0 -40 11 -73q12 -38 48 -38q12 0 28 7q49 23 66 87q7 28 7 59q0 53 -23 99q-24 49 -63 98z" />
    <glyph glyph-name=".notdef" horiz-adv-x="502" 
d="M402 0h-402v700h402v-700zM378 24v652h-354v-652h354zM184 222h-15q-17 44 -17 72q0 37 39 106q40 70 40 106q0 28 -16 44t-44 16q-29 0 -61 -27v22q39 35 83 35t71.5 -22.5t27.5 -62.5q0 -44 -53 -112q-30 -38 -49 -64q-17 -26 -17 -48q0 -16 11 -65zM179 104
q-5 0 -10 5l-30 35q-3 3 -3 8q0 6 5 11l28 28q4 5 10 5q3 0 10 -5l28 -29q4 -5 4 -10q0 -4 -5 -11l-27 -30q-7 -7 -10 -7z" />
    <glyph glyph-name=".null" horiz-adv-x="0" 
 />
    <glyph glyph-name="nonmarkingreturn" horiz-adv-x="333" 
 />
    <glyph glyph-name="space" unicode=" " horiz-adv-x="350" 
 />
    <glyph glyph-name="space" unicode="&#xa0;" horiz-adv-x="350" 
 />
    <glyph glyph-name="exclam" unicode="!" horiz-adv-x="231" 
d="M126 618q-15 -134 -16 -144q-5 -32 -5 -98v-101q0 -37 4 -113q0 -9 2.5 -31.5t2.5 -34.5q0 -24 -19 -29q-3 -1 -10 -1q-16 0 -27 14q-7 9 -11 23q-6 26 -8 39q-12 72 -22 220q-1 28 -6.5 90.5t-6.5 95.5l-3 96v4q0 15 9 40q8 24 36 29q5 1 15 2.5t15 1.5q11 0 23 -10
q25 -23 27 -73v-20zM130 -83q0 -15 -12.5 -30.5t-28.5 -19.5q-8 -2 -12 -2q-18 0 -31.5 15t-13.5 36v6q0 1 3 16q12 40 41 40q15 0 33 -12q21 -13 21 -43v-6z" />
    <glyph glyph-name="quotedbl" unicode="&#x22;" horiz-adv-x="346" 
d="M25 620q2 11 2 32q0 40 -15 78q-4 9 -4 20q0 33 40 46q16 4 22 4q14 0 24 -11q22 -28 22 -50v-7q-2 -23 -13 -55q-4 -14 -10 -49.5t-12 -53.5q-4 -14 -9 -19q-11 -13 -21 -13h-2q-2 1 -3 1q-20 5 -20 26q-1 19 -1 51zM152 620q2 11 2 32q0 40 -15 78q-4 9 -4 20
q0 33 40 46q16 4 22 4q14 0 24 -11q22 -28 22 -50v-7q-2 -23 -13 -55q-4 -14 -10 -49.5t-12 -53.5q-4 -14 -9 -19q-11 -13 -21 -13h-2q-2 1 -3 1q-20 5 -20 26q-1 19 -1 51z" />
    <glyph glyph-name="numbersign" unicode="#" horiz-adv-x="652" 
d="M249 345q14 -1 43 -4t44 -4q2 0 5 -0.5t4 -0.5q7 0 9.5 3.5t4.5 14.5q0 2 3.5 28t5.5 39q8 45 47 45q13 0 29 -8q17 -9 21 -42q1 -4 1 -12t-2.5 -26t-2.5 -27v-10q0 -10 3.5 -13t19.5 -6q30 -8 45 -15t19 -17q3 -6 3 -14t-4 -15q-5 -10 -18 -10q-6 0 -9 1q-11 3 -52 8h-6
q-7 0 -9.5 -2.5t-4.5 -12.5q-4 -17 -6 -33q-3 -20 -7.5 -59t-6.5 -57v-5q-1 -6 -1 -14q0 -9 4.5 -12.5t20.5 -5.5q31 -4 46 -10q12 -5 18 -11q10 -10 10 -20q0 -4 -2 -10q-6 -14 -22 -14h-6q-21 5 -53 5q-13 0 -16.5 -3.5t-3.5 -15.5v-8q0 -23 8 -67v-6q0 -16 -14 -23
q-4 -2 -11 -2q-12 0 -20 11q-10 10 -13 25q-8 36 -9 56q-1 6 -1 19q-1 6 -2 8.5t-3.5 4t-7.5 1.5h-5q-62 -5 -73 -7q-9 -1 -51 -4q-13 0 -19 -1q-14 -3 -14 -12q0 -5 1 -8l6 -27q1 -4 1 -11q0 -17 -14 -23q-6 -2 -9 -2q-18 0 -28 16q-10 19 -15 42q-4 18 -20 18h-3
q-9 -1 -26 -1q-32 2 -37 32q0 1 -0.5 2.5t-0.5 2.5q0 5 6 15q11 16 46 26q11 2 14.5 5t3.5 11v7q-4 50 -14 148q-1 15 -13 15q-2 0 -4 -0.5t-4 -0.5q-6 -1 -19 -1q-20 0 -34 6q-24 7 -25 32q0 29 21 39t47 13q18 2 22 6t7 23q1 6 1.5 21.5t2.5 23.5q6 30 19.5 41.5
t36.5 11.5q7 0 25 -2q25 -5 28 -30q5 -40 5 -51t-1 -17q0 -2 -0.5 -4.5t-0.5 -3.5q0 -7 15 -7q8 0 12 1h9v1zM354 244q0 12 -1.5 15t-10.5 3h-8q-82 -6 -124 -9q-15 -1 -17 -19q-11 -92 -11 -128v-17q1 -8 2 -11t3.5 -4.5t9.5 -1.5h6q38 2 58 2q15 0 47 -2q7 -1 20.5 -1.5
t17.5 -0.5h3q9 0 9 9v19q-1 8 -4 87v59z" />
    <glyph glyph-name="dollar" unicode="$" horiz-adv-x="573" 
d="M238 476v-90q0 -23 4.5 -29.5t26.5 -14.5q89 -36 134 -72q35 -28 54 -65q11 -22 11 -48q0 -25 -11 -52q-24 -59 -83 -110q-32 -27 -83 -57q-16 -9 -16 -17q0 -1 2 -15l3 -15t2 -15v-5q0 -14 -11 -20q-2 -1 -6 -1q-13 0 -19 13q-3 6 -7 17.5t-5 13.5q-3 8 -9 8q-3 0 -5 -1
q-18 -8 -26 -12q-70 -28 -91 -30q-3 -1 -10 -1q-14 0 -24 7q-14 9 -14 24q0 3 2 11q6 14 17 14q3 0 9 -2q4 -2 12 -2q6 0 20 4q13 4 27.5 10t32 15t26.5 13q18 9 18 29v7q-6 42 -16 126q-2 18 -4 39t-4.5 46t-3.5 39q-4 39 -5 61q0 15 -16 20q-11 4 -33.5 13t-33.5 14
q-52 22 -80 64q-19 28 -19 61q0 13 3 28q15 72 78 125q50 43 94 62q11 6 12 16q2 22 5 33q5 23 25 23q10 0 18 -8t10 -19q4 -20 8 -23t25 -5q78 -7 108 -68q7 -14 7 -30q0 -14 -6 -29q-7 -18 -20 -18q-6 0 -16 5q-10 6 -15 11q-18 22 -53 22h-11q-8 -2 -12 -2
q-16 -2 -19 -5.5t-3 -21.5v-91h-4zM413 159q0 30 -25 56q-36 42 -135 77h-2q-1 1 -2 1q-8 0 -8 -10q0 -2 -0.5 -4.5t-0.5 -3.5t0.5 -4t0.5 -5q6 -100 10 -155q1 -14 2.5 -29.5t3.5 -34.5t3 -29q2 -24 9 -24q5 0 18 9q62 38 108 100q18 25 18 56zM177 560q-38 -31 -45 -36
q-24 -20 -38 -47q-8 -16 -8 -28q0 -20 23 -36q22 -17 57 -31q8 -2 9 -2q5 0 6 11q1 4 1 12v69q0 45 -1 68q0 2 0.5 5t0.5 4q0 6 -5 11z" />
    <glyph glyph-name="percent" unicode="%" horiz-adv-x="598" 
d="M241 524q-2 -66 -34 -117q-33 -51 -86 -51h-8q-59 3 -88 64q-19 41 -19 86q0 34 12 79q11 40 38 51q10 5 12 5h1q3 -1 8 -1q8 0 30 13q20 11 41 11q25 0 46.5 -13.5t31.5 -37.5q15 -33 15 -75v-14zM188 530q0 13 -6 39q-7 25 -22 36q-9 6 -17 6q-16 0 -20 -19
q-10 -38 -14 -47q-14 -28 -16 -84v-4q0 -12 9 -30q9 -15 24 -15q6 0 16 5q15 8 25 27q15 27 21 81v5zM497 138q-3 -88 -35 -140t-86 -52h-8q-59 3 -89 65q-18 39 -18 85q0 37 11 78q11 40 38 52q2 0 5 2t5 2h1q3 -1 8 -1q7 0 13 2t15 8t11 7q18 8 34 8q24 0 45.5 -12.5
t31.5 -33.5q18 -38 18 -66v-4zM442 122q0 14 -6 38q-7 26 -25 36q-7 5 -16 5q-13 0 -17 -18q-7 -31 -16 -53q-12 -25 -14 -78v-5q0 -15 8 -29q9 -16 25 -16q9 0 17 5q15 9 24 26q17 33 20 83v6zM53 -62q-16 0 -16 16q0 4 1 6q2 9 14 32q95 173 126 226q32 57 230 401
q5 10 12 17t16 7q8 0 12 -4q10 -8 10 -18q0 -3 -2 -9q-3 -8 -11 -24q-7 -12 -134 -224q-51 -86 -108 -188q-14 -24 -114 -200q-7 -13 -17 -26q-9 -11 -19 -12z" />
    <glyph glyph-name="ampersand" unicode="&#x26;" horiz-adv-x="558" 
d="M417 559q-3 -61 -37 -121q-13 -23 -40.5 -65t-31.5 -48q-70 -111 -93 -156q-6 -12 -10 -18q-9 -17 -9 -22q0 -7 13 -21q33 -35 77 -66q7 -6 14 -6t14 7q74 62 106 122q9 18 20 18q3 0 5 -1q10 -3 10 -18q0 -5 -2 -13q-11 -33 -51 -79q-9 -10 -26.5 -27.5l-24.5 -24.5
q-8 -8 -8 -11t11 -9q28 -16 61 -24q28 -6 28 -32v-2q0 -21 -28 -28q-5 -1 -14 -1q-17 0 -35 6q-43 14 -68 31q-12 7 -19 7q-10 0 -22 -9q-41 -29 -80 -37q-12 -2 -18 -2q-57 0 -70 61q-4 22 -4 34q0 20 7 48q4 23 14 47q3 7 3 15q0 11 -8 22q-51 71 -73 134q-28 79 -28 148
q0 150 117 223q63 39 128 43q24 2 35 2q14 0 21 -1q59 -8 91 -49q25 -32 25 -77zM138 193q5 4 13 22q48 98 73 147q54 111 69 163q4 16 4 21q0 23 -35 27q-16 3 -33 3q-45 0 -85 -22q-66 -35 -77 -111q-3 -21 -3 -43q0 -18 3 -37q10 -77 71 -170zM142 -3q1 -39 25 -39
q7 0 16 3q18 5 43 19q10 7 10 9q0 3 -8 9q-33 28 -55 51q-6 6 -10 6q-5 0 -8 -9q-12 -34 -13 -49z" />
    <glyph glyph-name="quotesingle" unicode="'" horiz-adv-x="219" 
d="M25 620q2 11 2 32q0 40 -15 78q-4 9 -4 20q0 33 40 46q16 4 22 4q14 0 24 -11q22 -28 22 -50v-7q-2 -23 -13 -55q-4 -14 -10 -49.5t-12 -53.5q-4 -14 -9 -19q-11 -13 -21 -13h-2q-2 1 -3 1q-20 5 -20 26q-1 19 -1 51z" />
    <glyph glyph-name="parenleft" unicode="(" horiz-adv-x="390" 
d="M181 -184q-28 3 -53 26q-38 36 -72 107q-36 77 -47 148q-7 42 -7 91q0 18 2 54q7 82 11 105q14 82 37 158q12 42 48 138q3 10 12 26.5t12 24.5q1 2 7.5 13.5t8.5 17.5q11 38 59 59q7 3 15 3q32 0 50 -25q6 -11 7 -13t6.5 -9t8 -13t2.5 -12v-3q-6 -35 -19 -50
q-18 -22 -25 -48q-2 -7 -9 -17q-63 -99 -116 -256q-41 -130 -41 -234q0 -5 0.5 -13t0.5 -13q2 -57 39 -134q23 -46 42 -66q16 -18 35 -18q3 0 13 2q6 2 10 2q9 0 13 -7q3 -5 3 -10q0 -9 -9 -18q-15 -16 -44 -16z" />
    <glyph glyph-name="parenright" unicode=")" horiz-adv-x="390" 
d="M109 787q29 -3 53 -26q40 -40 71 -107q37 -75 48 -148q7 -45 7 -95q0 -16 -2 -50q-6 -70 -12 -105q-15 -89 -36 -158q-12 -42 -48 -138q-4 -10 -13 -26.5t-12 -24.5q-2 -4 -7.5 -14.5t-7.5 -16.5q-11 -38 -60 -59q-8 -3 -15 -3q-32 0 -49 25q-2 2 -4 6.5t-3 6.5
q-17 24 -17 33v4q4 32 19 50q17 20 25 48q1 3 8 17q65 101 116 256q42 128 42 234q0 4 -0.5 13t-0.5 13q-4 62 -40 134q-20 44 -41 66q-16 18 -35 18q-3 0 -13 -2q-8 -2 -11 -2q-8 0 -12 7q-3 5 -3 10q0 9 9 18q15 16 44 16z" />
    <glyph glyph-name="asterisk" unicode="*" horiz-adv-x="438" 
d="M101 627q-63 33 -77 42q-19 13 -19 28t8 24t22 9q7 0 16 -3q11 -4 44 -22q6 -3 16 -9t14 -8q1 4 4 46q0 27 9 48q9 18 42 18q23 0 33 -21q8 -21 8 -37q0 -12 -3 -26q-3 -15 -3 -18q0 -8 5 -10q2 -1 5 -1t21 13q9 7 27 23q11 8 19 8q6 0 13 -5q10 -7 10 -20q0 -6 -3 -14
q-7 -19 -33 -39q-18 -14 -29 -22q6 -4 46 -18q2 -1 11 -4t14 -5q15 -9 15 -17v-4q-2 -17 -22 -21h-5q-13 0 -23 3t-31.5 9t-32.5 9q-9 3 -14 3q-6 0 -7 -17q-1 -12 -1 -37q0 -30 5 -52q2 -10 2 -12q0 -12 -12 -18q-6 -2 -11 -2q-17 0 -25 11q-7 10 -11 26q-8 45 -10 70
q-1 17 -9 17q-4 0 -13 -3q-32 -12 -70 -22q-3 -1 -11 -3h-7q-20 0 -24 15q-1 2 -1 7q0 14 18 23q21 9 65 27q12 5 15 11z" />
    <glyph glyph-name="plus" unicode="+" horiz-adv-x="516" 
d="M351 215q18 0 39 -8q23 -8 23 -29q0 -5 -1 -7q-5 -24 -26 -24q-4 0 -7 1q-15 3 -28 3q-11 0 -86 -13q-17 -4 -17 -15v-3q1 -6 3 -36t7 -46q6 -22 13 -32q7 -11 7 -19q0 -7 -8 -15q-8 -7 -20 -7q-10 0 -19 6q-15 11 -23 29q-14 34 -21 79q-2 17 -5 23t-10 6q-8 0 -23 -4
l-81 -24q-13 -5 -24 -5h-4q-29 2 -35 22q-3 9 -3 17q0 16 11 27q25 26 54 36q60 21 86 24q16 2 16 16q0 5 0.5 14t0.5 13v6q-1 5 -1 15l6 63q3 41 40 49q3 1 7 1q6 0 13 -5q26 -19 26 -46v-3q0 -4 -6 -89q-1 -6 -1 -20h97z" />
    <glyph glyph-name="comma" unicode="," horiz-adv-x="232" 
d="M132 -47q0 -33 -23 -58q-4 -4 -51 -59q-14 -16 -25 -19q-2 0 -6.5 -1.5t-6.5 -1.5q-9 0 -13 7q-5 8 -5 14q0 7 5 14q6 7 14.5 19.5t11.5 17.5q17 29 17 56v4q0 15 10.5 28.5t25.5 17.5q3 1 9 1q5 0 11 -3q8 -4 17 -17.5t9 -19.5z" />
    <glyph glyph-name="hyphenminus" unicode="-" horiz-adv-x="494" 
d="M238 230q41 0 113 -10q15 -1 31 -17q9 -9 9 -22q0 -9 -4 -14q-8 -14 -22 -14q-7 0 -10 1q-22 7 -49 7q-16 0 -44.5 -3t-35.5 -4q-80 -10 -171 -39q-9 -3 -16 -3q-16 0 -28 15q-8 13 -8 21q0 10 7 20q16 22 43 33q53 21 95 25q58 5 65 5q3 0 7 -0.5t6 -0.5h12z" />
    <glyph glyph-name="hyphenminus" unicode="&#xad;" horiz-adv-x="494" 
d="M238 230q41 0 113 -10q15 -1 31 -17q9 -9 9 -22q0 -9 -4 -14q-8 -14 -22 -14q-7 0 -10 1q-22 7 -49 7q-16 0 -44.5 -3t-35.5 -4q-80 -10 -171 -39q-9 -3 -16 -3q-16 0 -28 15q-8 13 -8 21q0 10 7 20q16 22 43 33q53 21 95 25q58 5 65 5q3 0 7 -0.5t6 -0.5h12z" />
    <glyph glyph-name="period" unicode="." horiz-adv-x="220" 
d="M119 -63q0 -25 -20 -46.5t-43 -21.5q-25 0 -40 18.5t-15 49.5v2q0 22 15.5 38t36.5 16h2q24 -1 44 -16.5t20 -38.5v-1z" />
    <glyph glyph-name="slash" unicode="/" horiz-adv-x="348" 
d="M1 -103q6 80 20 171q37 224 58 329q7 34 17 97.5t14 87.5q4 21 29 126q8 29 30 50q8 8 20 8q7 0 14 -3q22 -9 31.5 -20.5t9.5 -30.5q0 -5 -2 -17q-6 -35 -24 -103q-25 -98 -49 -177q-5 -17 -46 -194q-6 -25 -40 -200q-20 -107 -20 -144v-17q-3 -27 -23 -29h-2
q-19 0 -29 20q-8 21 -8 40v6z" />
    <glyph glyph-name="zero" unicode="0" horiz-adv-x="593" 
d="M2 273q0 45 13 116q9 63 38 137q22 55 41 95q31 58 93 83q24 9 47 9q27 0 61 -12q89 -32 139 -134q54 -108 54 -234q0 -15 -2 -45q-10 -142 -72 -254q-37 -65 -90 -101q-48 -36 -103 -37h-3q-78 0 -132 65q-49 60 -66 136q-14 64 -18 161v15zM433 337q0 30 -5 68
q-21 117 -84 183q-45 47 -102 47q-18 0 -34 -4q-32 -7 -32 -20q0 -9 11 -29q7 -19 7 -22v-5q-2 -15 -8 -37q-5 -22 -19 -71t-19 -76q-16 -76 -19 -175v-7q0 -6 0.5 -12.5t1.5 -14.5t1 -13q3 -71 29 -122q16 -31 45 -44q18 -8 32 -8q22 0 49 15q51 29 85 89q61 108 61 244v14
z" />
    <glyph glyph-name="one" unicode="1" horiz-adv-x="287" 
d="M50 217q0 64 9 159q1 7 1 20q0 14 -1 20v9q0 21 3 59.5t3 54.5q0 20 -16 20q-1 0 -3 0.5t-3 0.5q-36 11 -36 41q0 9 3 19q17 50 51 75q24 19 49 19q14 0 28 -7q11 -5 14 -8q3 -4 10 -15t10.5 -17t7.5 -16t4 -19q1 -15 1 -45q0 -70 -11 -178q-2 -12 -4 -36l-3 -36
q-3 -19 -5 -52.5t-4 -48.5q-2 -16 -6.5 -47.5t-7 -51t-4.5 -47t-2 -50.5v-21q2 -64 14 -88q2 -3 2 -9q0 -10 -11 -23q-8 -8 -18 -8q-5 0 -13 3q-22 7 -31 38q-12 37 -17 97l-12 120q-2 13 -2 40v28z" />
    <glyph glyph-name="two" unicode="2" horiz-adv-x="571" 
d="M225 -42q117 10 174 50q1 0 2 1l2 2q9 5 19 5q12 0 18 -7q5 -7 5 -15q0 -12 -9 -22q-11 -15 -30 -26q-86 -47 -200 -57q-2 0 -6 -0.5t-7 -0.5q-22 0 -49 10q-59 24 -59 80q0 8 4 28q8 33 34 72q15 23 31.5 44.5t44 54.5t34.5 42q68 85 104 154q2 5 8 19.5t9 21.5
q12 27 12 61q0 17 -1 25q-4 31 -30 58t-60 35q-16 4 -35 4q-30 0 -64 -13q-49 -19 -88 -48q-23 -17 -28 -34q-6 -21 -24 -21q-12 0 -23 11q-12 12 -12 32q0 2 0.5 5t0.5 5q2 29 31 65q24 27 54 48q36 26 66 40q54 27 110 27q39 0 79 -15q68 -25 98 -90q16 -34 22 -59
q4 -16 4 -36q0 -39 -18 -85q-31 -77 -117 -185q-128 -161 -137 -174q-32 -44 -38 -72q-2 -10 -2 -14q0 -14 22 -21q8 -3 49 -5z" />
    <glyph glyph-name="three" unicode="3" horiz-adv-x="593" 
d="M327 723q47 0 88 -23q51 -27 65 -73q7 -21 7 -43q0 -30 -15 -67q-16 -39 -78 -131q-23 -36 -47 -87q-12 -27 -12 -52q0 -40 32 -77t51 -79q11 -22 11 -51q0 -65 -53 -102q-49 -35 -113 -35q-25 0 -46 4q-21 3 -38 17q-16 12 -16 31q0 7 3 15q7 16 20 16q5 0 12 -5
q14 -13 38 -13q13 0 20 1q54 4 97 44q15 14 15 35q0 5 -2 17q-5 17 -15 32q-30 47 -35 53q-34 44 -34 96q0 19 5 42q10 44 48 115q55 103 65 132q6 17 6 27q0 26 -36 26h-9q-65 -5 -108 -20q-76 -22 -130 -49q-22 -12 -32 -20q-10 -10 -34 -14h-5q-21 0 -35.5 15t-14.5 37v4
q4 51 52 89q82 65 191 84q54 9 72 9h10z" />
    <glyph glyph-name="four" unicode="4" horiz-adv-x="637" 
d="M437 63q0 88 13 233q1 8 1 24q0 22 -1 33q-1 23 -15 23q-4 0 -16 -4q-17 -6 -32.5 -14.5t-38.5 -23.5t-30 -19q-12 -7 -38.5 -24.5t-47.5 -29t-42 -20.5q-33 -12 -56 -12q-6 0 -20 2q-33 5 -56 32q-31 36 -50 113q-4 17 -6 86q0 4 -0.5 10t-0.5 10q0 38 9 92q2 13 20 87
q6 25 27 41q15 12 30 12q12 0 26 -8q32 -21 40 -49q2 -6 2 -16q0 -13 -6 -33q-16 -55 -30 -116q-12 -50 -12 -102q0 -23 3 -47q2 -17 8 -30q10 -19 29 -19h7q23 0 44 9q35 14 125 71q75 46 88 53q24 13 41 13q2 0 5 -0.5t4 -0.5q59 -9 68 -69q5 -40 5 -71q0 -30 -4 -92
q-2 -41 -12 -117.5t-12 -111.5q-1 -19 -1 -56q-1 -29 -24 -33q-1 0 -3 -0.5t-3 -0.5q-21 0 -28 26q-10 32 -10 79v70z" />
    <glyph glyph-name="five" unicode="5" horiz-adv-x="603" 
d="M235 589q-40 0 -60 6q-8 2 -9 2q-8 0 -10 -14q-3 -21 -14.5 -67.5t-14.5 -71.5l-3 -42q0 -19 5 -42q13 -47 62 -61q15 -4 45.5 -9t33.5 -6q72 -17 106 -65q39 -52 39 -118q0 -14 -1 -21q-8 -91 -86 -162q-18 -17 -48 -25q-4 -1 -11 -1q-20 0 -30 16q-9 12 -9 26
q0 10 4 18q8 15 20 15q8 0 13 -4t9 -4q5 0 11 6q57 62 60 137v7q0 50 -28.5 84.5t-75.5 41.5q-3 0 -88 18q-73 15 -114 93q-37 73 -37 177q0 20 2 60q1 8 5.5 29t4.5 33q0 10 9 19q4 4 8 14q12 37 45 37q5 0 21 -4q8 -3 34 -10q17 -6 20 -15q8 -17 35 -19q5 0 15 -0.5
t15 -0.5q44 0 92 8l144 24q6 1 17 1h6q20 -4 23 -24q1 -2 1 -7q0 -12 -15 -20q-17 -9 -41 -16q-90 -22 -135 -34q-36 -9 -75 -9z" />
    <glyph glyph-name="six" unicode="6" horiz-adv-x="581" 
d="M132 48q5 11 17 38t19 41q47 89 75 122q46 52 103 66q12 2 18 2q33 0 63 -21t41 -55q10 -30 10 -64q0 -26 -6 -53q-23 -110 -91 -177q-52 -49 -115 -56q-5 -1 -15 -1q-60 0 -116 49q-39 35 -66 85q-45 84 -60 195q-4 31 -4 68q0 60 11 128q1 10 23 77q31 94 76 150
q6 8 18.5 23t18.5 23q11 11 21 15q4 1 13.5 5t15.5 4q4 0 7 -1q24 -9 43 -28q8 -7 8 -19q0 -7 -1 -10q-10 -34 -22 -49q-75 -97 -109 -214q-29 -94 -29 -167v-12q0 -81 21 -141q8 -19 12 -23zM261 -65q25 0 42 8q41 20 65 49q40 47 59 124q5 17 5 43q0 29 -8 53
q-13 40 -48 40q-10 0 -22 -5q-24 -10 -40 -27q-51 -51 -106 -159q-17 -34 -25 -65q-2 -10 -2 -14q0 -12 10 -20q32 -27 62 -27h8z" />
    <glyph glyph-name="seven" unicode="7" horiz-adv-x="590" 
d="M229 714q5 0 13 0.5t13 0.5q49 0 99 -11q69 -15 107 -75q28 -41 28 -97v-6q-4 -89 -18 -137q-19 -63 -34 -106q-52 -159 -57 -176q-24 -86 -31 -138q-1 -10 -1 -31v-7q0 -4 -1 -7q-1 -11 -9.5 -20.5t-17.5 -11.5q-1 0 -3 -0.5t-3 -0.5q-22 0 -34 21q-10 16 -10 35v18
q0 71 18 153q6 24 14.5 72.5t14.5 72.5q32 136 48 187q17 59 17 94v10q-1 31 -12.5 50.5t-41.5 31.5q-29 11 -65 11q-27 0 -65 -7q-23 -4 -116 -31q-15 -5 -26 -5h-4q-19 0 -33 12.5t-16 29.5v4q0 13 11 26.5t25 18.5q21 8 85 13q8 1 39 4t47 3q13 0 19 -1z" />
    <glyph glyph-name="eight" unicode="8" horiz-adv-x="567" 
d="M467 541q-1 -65 -16 -169q-15 -88 -16 -163v-8q0 -29 10 -66q13 -46 13 -78v-6q-1 -23 -15 -44q-70 -105 -196 -126q-17 -3 -33 -3q-50 0 -88 27q-73 51 -73 145v5q0 71 42 145q16 30 28 43q4 4 4 8t-7 9q-39 32 -58 55q-38 48 -49 95q-6 22 -6 44q0 48 28 102
q35 67 94 110q85 58 155 64q5 0 15 0.5t14 0.5q18 0 36 -3q59 -9 90 -65q28 -48 28 -122zM379 557q0 7 -2 21t-2 18q-3 29 -23.5 47t-49.5 18h-8q-76 -6 -140 -57q-56 -44 -76 -99q-9 -25 -9 -52q0 -21 5 -36q20 -65 88 -114q9 -7 16 -7q4 0 10 3q8 3 14 3t9 -2
q2 -1 10.5 -5.5t11.5 -6.5t9 -6.5t9.5 -9.5t5.5 -11q4 -11 17 -18q12 -6 35.5 -18t35.5 -18q16 -8 20 -8q5 0 5 22v146q0 23 2 69q3 37 7 113v8zM154 13q0 -1 -0.5 -3.5t-0.5 -3.5q0 -29 31 -51q15 -10 38 -10q11 0 17 1q62 8 116 57q19 19 27 39q5 12 5 22q0 16 -12 31
q-13 19 -43 43q-11 8 -24 15.5t-30 16t-26 13.5q-14 8 -17 8q-6 0 -19 -16q-8 -9 -13 -20q-16 -35 -23 -46q-24 -37 -26 -96z" />
    <glyph glyph-name="nine" unicode="9" horiz-adv-x="595" 
d="M0 495q3 80 74 149q70 70 173 70h9q98 -5 159 -85q56 -74 74 -201q4 -28 4 -62q0 -45 -7 -83q-15 -99 -59 -208q-31 -75 -67 -142q-12 -21 -25 -31q-12 -10 -23 -10q-6 0 -12 3q-21 12 -21 30v2q2 29 21 33q11 2 16 15q19 53 25 74q18 70 30 143q0 2 0.5 5.5t0.5 5.5v3
q0 9 -8 9q-1 0 -2.5 -0.5t-2.5 -0.5q-27 -7 -48 -8h-11q-148 0 -240 116q-60 75 -60 173zM307 280q1 0 4.5 -0.5t5.5 -0.5q8 0 45 7q14 2 19 7t5 17v4q-5 96 -10 118q-17 69 -54 123q-35 52 -100 52q-23 0 -41 -7q-28 -10 -61 -34q-48 -37 -48 -102q0 -16 5 -36
q23 -77 109 -123q45 -25 121 -25z" />
    <glyph glyph-name="colon" unicode=":" horiz-adv-x="220" 
d="M119 20q0 -25 -20 -46.5t-43 -21.5q-25 0 -40 19t-15 50v2q0 21 15.5 37.5t36.5 16.5h2q24 -1 44 -17t20 -39v-1zM119 336q0 -25 -20 -46.5t-43 -21.5q-25 0 -40 19t-15 50v2q0 21 15.5 37.5t36.5 16.5h2q24 -1 44 -17t20 -39v-1z" />
    <glyph glyph-name="semicolon" unicode=";" horiz-adv-x="250" 
d="M149 336q0 -25 -20 -46.5t-43 -21.5q-25 0 -40 19t-15 50v2q0 21 15.5 37.5t36.5 16.5h2q24 -1 44 -17t20 -39v-1zM132 36q0 -33 -23 -58q-4 -4 -51 -59q-14 -16 -25 -19q-2 0 -6.5 -1.5t-6.5 -1.5q-9 0 -13 7q-5 8 -5 14q0 7 5 14q6 7 14.5 19.5t11.5 17.5q17 29 17 56
v4q0 15 10.5 28.5t25.5 17.5q3 1 9 1q5 0 11 -3q8 -4 17 -17.5t9 -19.5z" />
    <glyph glyph-name="less" unicode="&#x3c;" horiz-adv-x="539" 
d="M159 119q10 -11 28 -17q104 -43 150 -46h13q22 0 35 7q10 5 17 5q9 0 15 -8q5 -7 5 -14q0 -8 -8 -19q-12 -16 -39 -21q-19 -4 -43 -4q-36 0 -81 10q-81 15 -160 76q-31 23 -53 30q-15 3 -26 16q-9 10 -9 22q0 7 2 10q9 18 28 18h5q19 -4 27 -10q8 -5 19 -5q5 0 17 2
q29 9 75 32q22 11 43.5 24.5t51 34t40.5 27.5q7 5 24 18.5t27 19.5q15 10 29 10q12 0 22 -7q19 -13 19 -36q0 -18 -13 -32q-6 -7 -44 -35q-88 -60 -150 -83q-5 -2 -66 -25z" />
    <glyph glyph-name="equal" unicode="=" horiz-adv-x="497" 
d="M241 298q41 0 113 -10q15 -2 31 -17q9 -9 9 -22q0 -8 -4 -15q-9 -14 -22 -14q-2 0 -10 2q-22 7 -49 7q-8 0 -80 -8q-70 -7 -171 -38q-9 -3 -16 -3q-16 0 -28 15q-8 13 -8 21q0 10 7 20q16 22 43 33q53 21 95 25q9 0 32.5 2t34.5 2h23zM202 134q10 1 32 1q17 0 53 -2
q32 -4 49 -15q10 -7 14 -16q3 -8 3 -13q0 -11 -7 -18.5t-17 -7.5q-5 0 -7 1q-20 5 -49 5q-33 0 -114 -15q-42 -7 -121 -17h-5q-22 0 -28 17q-2 6 -2 10q0 20 16 32q34 23 88 33q13 3 95 5z" />
    <glyph glyph-name="greater" unicode="&#x3e;" horiz-adv-x="539" 
d="M280 221q-7 8 -28 17q-101 41 -150 46h-13q-22 0 -35 -8q-10 -5 -16 -5q-10 0 -16 9q-4 5 -4 13q0 9 7 19q12 16 39 21q20 4 44 4q33 0 80 -9q80 -16 160 -76q28 -22 53 -30q14 -4 26 -16q9 -11 9 -23q0 -7 -2 -10q-9 -17 -28 -17h-5q-15 2 -27 9q-9 6 -20 6q-7 0 -16 -3
q-29 -9 -75 -32q-33 -17 -135 -86q-8 -5 -24.5 -18.5t-26.5 -19.5q-18 -10 -29 -10t-22 8q-19 13 -19 35q0 18 13 32q10 12 44 35q82 58 150 84q42 16 66 25z" />
    <glyph glyph-name="question" unicode="?" horiz-adv-x="575" 
d="M278 616q-65 0 -140 -39q-20 -11 -25 -26q-10 -31 -33 -31q-5 0 -19 4q-52 18 -52 64q0 13 4 24q7 23 24 43q32 41 79 62q76 33 144 33q24 0 36 -2q45 -7 77 -20q80 -36 96 -117q2 -12 2 -19q0 -9 -13 -66q-9 -31 -36 -69q-11 -16 -100 -140q-47 -64 -65 -109
q-16 -42 -16 -80q0 -6 -0.5 -19t-0.5 -20q0 -19 4 -34q1 -2 1 -7q0 -11 -11 -20q-8 -6 -15 -6q-4 0 -14 4q-12 4 -19 16q-8 14 -12 28q-6 29 -6 58q0 36 8 78q8 40 45 92q18 25 54.5 74.5t54.5 74.5q41 58 49 103q1 4 1 12q0 22 -13 36t-36 17q-7 1 -22 1h-31zM264 -91
q0 -22 -16.5 -40t-36.5 -18t-34.5 16t-14.5 37q1 23 17 35.5t36 13.5h2q19 0 33 -13.5t14 -30.5z" />
    <glyph glyph-name="at" unicode="@" horiz-adv-x="812" 
d="M405 115q-44 -78 -46 -81q-33 -58 -68 -81q-28 -19 -55 -19q-52 0 -84 59q-24 48 -28 127q0 2 -0.5 7.5t-0.5 8.5q0 33 10 73q16 61 19 70q15 50 51 78q3 3 10.5 8.5t12 9t12 7t14.5 4.5q12 2 17 2q15 0 33 -8q43 -21 84 -77q3 -4 8 -12.5t9.5 -15t10.5 -11.5q1 2 10 25
q9 31 33 54q15 15 31 15q15 0 29 -10q33 -22 33 -53q0 -13 -6 -30q-22 -61 -30 -111q-8 -52 -8 -78v-9q2 -26 14 -49q10 -19 26 -19q8 0 18 5q39 21 61 72q34 78 34 150v10q-5 161 -123 240q-45 30 -103 38q-22 2 -34 2q-92 0 -172.5 -54t-120.5 -134q-48 -93 -48 -190
q0 -17 1 -26q13 -173 144 -260q52 -33 109 -33h9q110 3 199 44q32 14 55 36q10 12 19 12q4 0 9 -3q5 -2 5 -11q0 -10 -8 -21q-7 -11 -24 -22q-39 -30 -115 -52q-74 -21 -144 -22h-9q-80 0 -150 51q-116 85 -144 253q-6 36 -6 71q0 90 38 175q91 202 297 234q24 4 52 4
q95 0 172 -55q61 -44 97 -115q40 -80 40 -174q0 -45 -7 -84q-16 -84 -49 -133q-28 -41 -66 -59q-24 -11 -44 -11q-26 0 -51 15q-33 21 -45 47q-29 60 -29 86q0 4 -8 30zM399 211q-1 0 -3.5 -0.5t-3.5 -0.5q-10 0 -23 13q-53 44 -73 52q-13 5 -17 5q-6 0 -14 -15
q-43 -80 -43 -167q0 -11 2 -35q4 -33 9 -44q6 -16 14 -16q4 0 16 7q21 13 33 29q37 48 103 172z" />
    <glyph glyph-name="A" unicode="A" horiz-adv-x="697" 
d="M399 325q3 2 8 16q26 119 28 165q2 63 6 124q3 50 12 98q4 17 10 24q13 16 31 16q8 0 17 -3q24 -10 24 -39v-4q-2 -15 -4.5 -44.5t-4.5 -44.5q-3 -21 -4.5 -45.5t-2.5 -54t-2 -45.5q-1 -18 -4 -160v-83q0 -99 6 -165q7 -90 23 -151q5 -19 10 -31q5 -15 20 -18
q23 -3 23 -18q0 -4 -1 -7q-2 -14 -11 -23t-21 -9h-3q-21 3 -37 19q-23 26 -37 70q-16 48 -35 168q-4 24 -8.5 73t-7.5 74q-7 -3 -9 -13q-25 -102 -63 -202q-29 -78 -68 -124q-16 -21 -40 -31q-19 -8 -38 -8q-44 0 -80 36q-53 53 -82 133q-19 52 -36 127q-17 78 -17 181
q0 8 0.5 23.5t0.5 22.5q2 46 15 93q13 41 20 57q45 97 132 102h8q13 0 23 -3q63 -22 102 -71q56 -73 91 -208q1 -2 1.5 -6t1.5 -6.5t3 -4.5zM122 197q0 -98 29 -191q17 -53 39 -78q15 -15 28 -15q11 0 24 10q21 15 39 47q47 86 86 221q2 5 2 16t-2 16q-17 91 -61 167
q-32 60 -81 93q-14 10 -28 10q-20 0 -32 -24q-24 -45 -32 -100q-12 -82 -12 -121q0 -17 1 -26v-25z" />
    <glyph glyph-name="B" unicode="B" horiz-adv-x="693" 
d="M115 254q23 132 47 204q45 141 121 252q23 36 54 62q19 16 41 23q9 3 19 3q35 0 46 -35q7 -17 7 -39q0 -7 -2 -21q-11 -52 -42 -110q-31 -55 -99 -146l-12 -21q10 -2 32 -6t33 -7q132 -29 198 -143q29 -49 29 -108q0 -25 -4 -45q-16 -91 -94 -176q-47 -50 -111 -86
q-48 -28 -73 -39q-45 -19 -90 -26q-6 -1 -17 -1q-43 0 -69 30q-13 15 -13 30q0 8 2 13q6 18 21 18q7 0 10 -1q7 -3 10 -5q15 -12 35 -12q15 0 30 6q73 26 134 78q48 40 88 97q42 64 47 109q1 7 1 21q0 56 -41 103q-70 77 -194 82q-17 0 -26 -3q-23 -7 -26 -7q-5 0 -23 8
q-7 -19 -11 -47q-13 -78 -20 -173q-1 -16 -4 -191q0 -18 -2 -26q-6 -22 -24 -22q-11 0 -21 10q-5 5 -12 23q-24 69 -42 178q-22 122 -31 220q-11 122 -12 162q0 13 -1.5 39t-1.5 40v10q1 14 1 48.5t2.5 60t9.5 48.5q10 35 39 50q8 4 19 4q20 0 38 -14.5t22 -35.5q2 -8 2 -12
q0 -2 -0.5 -5t-0.5 -4q-2 -24 -7 -75t-7 -77q-10 -105 -10 -188q0 -7 0.5 -20.5t0.5 -19.5q1 -14 2 -42.5t2 -42.5zM192 392q10 6 21 21q71 100 106 161q46 80 60 125q4 14 4 20v3q-2 8 -7 8q-4 0 -6 -2q-15 -12 -27 -27q-81 -95 -134 -252q-1 -3 -7 -23.5t-10 -33.5z" />
    <glyph glyph-name="C" unicode="C" horiz-adv-x="669" 
d="M509 547q0 -3 0.5 -9.5t0.5 -9.5q0 -45 -25 -139q-5 -18 -20 -18h-2q-6 1 -11 8t-5 15v2q1 7 5 26q15 53 15 88v7q0 86 -47 137q-24 26 -54 26q-18 0 -35 -10q-43 -23 -67 -54q-58 -76 -102 -188q-29 -74 -37 -133q-8 -56 -8 -103q0 -56 12 -100q18 -70 48 -122
q29 -52 75 -80q33 -19 66 -19q22 0 45 9q85 33 141 103q9 10 18 30l6 15q1 1 2 4t2 4.5t2.5 3.5t2.5 3t3 2.5t4 2t5 0.5q7 0 12.5 -8t6.5 -19v-3q0 -19 -17 -47q-25 -43 -79 -87q-66 -50 -126 -67q-21 -7 -45 -7q-41 0 -85 21q-41 19 -90 68q-58 58 -96 170q-18 55 -24 113
q-4 48 -4 72q0 33 4 60q8 55 19 99q24 90 68 172q48 87 100 134q58 52 106 61q26 4 38 4q59 0 102 -40q65 -60 70 -159v-38z" />
    <glyph glyph-name="D" unicode="D" horiz-adv-x="786" 
d="M126 61q0 18 2.5 50.5t2.5 45.5q6 179 64 344q38 108 91 178q41 54 90 84q35 21 76 21q54 0 92 -32q61 -52 93 -128q29 -69 39 -130q8 -40 8 -90q0 -24 -1 -37q-9 -137 -69 -267q-68 -146 -198 -228q-105 -65 -229 -65h-11q-31 0 -53 9q-25 9 -34 27q-5 10 -5 18t5 16
q5 9 14 9q8 0 12 -7q16 -26 53 -26h6q96 0 182 44q146 74 212 259q34 93 34 204q0 177 -97 301q-32 40 -71 40q-10 0 -22 -3q-17 -4 -33 -17q-44 -37 -68 -75q-80 -125 -115 -307q-16 -89 -16 -205v-63q0 -48 3 -72q1 -3 1 -8q0 -20 -19 -30q-8 -4 -18 -4q-12 0 -24 9
q-11 8 -18 19q-28 42 -47 122q-16 71 -27 141q-26 156 -28 255q-1 24 -1 72q0 40 2 60l9 81q2 25 19 66q10 25 39 30h7q24 0 38 -23q12 -17 12 -42q0 -9 -1 -14q-12 -71 -26 -217q-5 -68 -5 -122q0 -25 2 -71q6 -88 11 -134q6 -41 17 -88z" />
    <glyph glyph-name="E" unicode="E" horiz-adv-x="586" 
d="M142 296q-6 1 -18 2.5t-18 2.5q-39 5 -66 36.5t-33 69.5q-3 23 -3 45q0 45 14 92q33 98 93 164q32 36 59 54q49 34 94 34h13q29 0 46 -9q56 -29 56 -96v-7q-4 -71 -61 -153q-8 -8 -12 -11q-8 -6 -14 -6q-7 0 -13 6q-6 4 -6 10q0 7 7 14q24 34 34 82q2 12 2 19q0 13 -3 25
q-4 20 -20 20q-7 0 -14 -3q-16 -7 -33 -22q-60 -53 -96 -123q-34 -71 -39 -93q-5 -20 -6 -40v-6q0 -17 8 -25.5t27 -11.5q14 -3 27 -3q11 0 30 2.5t27 2.5q16 1 32 14q25 18 89 26h3q19 0 19 -19q0 -3 -2 -9q-9 -32 -35 -49q-141 -93 -209 -234q-26 -54 -26 -105
q0 -22 4 -41q8 -37 35 -56t60 -20h10q50 0 89 16q74 29 127 71q16 14 16 30t13 20q1 0 3 0.5t3 0.5q11 0 20 -9q9 -11 9 -23q0 -4 -2 -12q-10 -28 -35 -48q-92 -74 -186 -98q-30 -8 -59 -8q-36 0 -71 13q-77 28 -101 116q-9 33 -9 67q0 44 15 86q1 3 8 28t13 37
q20 45 74 114q8 10 11 15v5z" />
    <glyph glyph-name="F" unicode="F" horiz-adv-x="632" 
d="M164 296q4 0 20 8q67 29 150 39q35 5 84 5h24q40 -2 66 -14q23 -10 24 -32q0 -22 -17 -22q-5 0 -11 3q-29 17 -68 17q-7 0 -15 -0.5t-17.5 -1.5t-14.5 -1q-108 -9 -212 -57q-22 -9 -23 -34q-1 -20 -1 -61q0 -134 24 -239q2 -6 6 -20q6 -17 16 -17l2 1h3h2q9 0 15 -14
q2 -6 2 -11q0 -20 -18 -33q-10 -5 -19 -5q-16 0 -29 11q-18 18 -26 37q-17 38 -30 106q-22 107 -32 207q-7 47 -7 81v17q0 15 -2.5 47t-2.5 48v168q0 33 3 50v3q0 14 -16 15q-17 1 -27 12.5t-10 26.5q0 8 3 17q9 27 49 52q20 12 62 34l9 3q8 2 56 11t66 12.5t53 8t64 6.5
q6 0 16 1t18.5 1.5t16.5 0.5q37 0 64 -9q25 -8 38 -30q4 -8 4 -17q0 -11 -5 -19q-8 -13 -21 -13h-2q-11 0 -15 15q-5 16 -28 18q-24 2 -36 2q-25 0 -51 -3q-88 -11 -150 -27q-17 -4 -18 -20q-1 -3 -1 -5q-2 -28 -10 -84q-21 -149 -22 -194q-1 -17 -3.5 -48.5t-3.5 -40.5v-5
q0 -5 2 -7h2z" />
    <glyph glyph-name="G" unicode="G" horiz-adv-x="679" 
d="M468 52q-26 -42 -40 -64q-42 -69 -92 -112q-59 -48 -113 -53q-3 0 -7 -0.5t-7 -0.5q-46 0 -89 33q-56 44 -87 130q-29 81 -31 171q0 5 -0.5 16.5t-0.5 17.5q0 86 18 159q23 89 32 111q36 95 66 141q4 6 16.5 28t21.5 33q35 47 67.5 77.5t74.5 48.5q23 10 49 10
q67 0 101 -58q31 -50 37 -113q4 -37 4 -85q0 -7 -0.5 -21t-0.5 -21q-1 -53 -17 -107q-6 -18 -17 -18q-4 0 -6 1q-17 5 -17 22v5q0 1 0.5 2.5t0.5 2.5q12 49 12 112q0 25 -1 38q-4 66 -20 106q-10 25 -25 39q-16 16 -32 16q-11 0 -25 -8q-29 -18 -64 -65q-66 -92 -111 -228
q-23 -70 -34 -127q-17 -87 -17 -154q0 -46 7 -85q8 -49 23 -86q8 -23 28 -46q21 -24 53 -24q17 0 36 8q47 20 92 72q84 100 110 216q4 14 8 20q14 16 34 16q7 0 10 -1q12 -3 21 -14.5t11 -25.5q6 -72 6 -144q0 -109 14 -204q1 -14 8 -29q1 -3 1 -9q0 -17 -12 -25
q-5 -4 -14 -4q-10 0 -19 6q-17 12 -25 47q-11 51 -17 95q-9 79 -13 112q0 14 -8 20z" />
    <glyph glyph-name="H" unicode="H" horiz-adv-x="723" 
d="M151 210q2 -171 32 -292q4 -12 5 -18q2 -10 8 -10q1 0 7 2q4 2 10 2q8 0 12 -13q4 -12 4 -20q0 -5 -1 -8q-8 -32 -34 -35h-5q-23 0 -35 20q-18 27 -28 62q-25 85 -44 188q-16 88 -19 132q-2 13 -8 13q-1 0 -7 -2q-2 -1 -8 -1q-10 0 -19 6q-16 9 -16 24q0 9 6 18
q11 16 27 23q15 7 15 24v6q-4 32 -4 73q0 8 0.5 24.5t0.5 24.5q2 141 9 188q7 35 16 46q18 25 54 25q2 0 6.5 -0.5t6.5 -0.5q12 -1 24 -18t13 -32v-10q0 -35 -7 -88q-11 -79 -13 -136q0 -10 -2 -30t-3 -31q0 -20 10 -20q2 0 12 2q132 28 258 28h32q15 0 18 3t3 19v19
q0 65 10 197q9 107 17 136q5 17 9 21l7 7l7.5 7.5t7 6t9 5t9.5 1.5h5q38 -5 49 -47q3 -8 3 -24q0 -17 -3 -34q-3 -26 -6.5 -55t-8 -63.5t-6.5 -54.5q-22 -197 -24 -239q-4 -79 -4 -177q0 -51 2 -153q2 -67 11 -122q0 -2 0.5 -4t0.5 -3q0 -21 -25 -26h-5q-14 0 -24 13
q-10 14 -13 32q-7 33 -19 200q-2 25 -3 82t-4 87q-2 26 -2 39q0 9 0.5 26.5t0.5 26.5q-1 17 -5.5 22t-22.5 6h-14q-26 0 -103 -9q-31 -3 -87 -14.5t-73 -14.5q-6 -1 -18 -5q-15 -3 -15 -18q1 -20 1 -59z" />
    <glyph glyph-name="I" unicode="I" horiz-adv-x="367" 
d="M61 651q-3 0 -5 -1t-4 -3.5t-3 -3.5q-12 -9 -23 -9q-7 0 -14 5q-9 7 -9 25q0 9 4 16q10 18 41 41q62 47 131 70q24 8 39 8q12 0 21 -4q21 -8 21 -26q0 -1 -0.5 -2.5t-0.5 -2.5q-6 -17 -22 -17h-9q-9 0 -32 -7q-11 -5 -11 -12q0 -1 2 -7q4 -11 4 -26q0 -9 -2 -27
q-6 -56 -8 -84q-1 -23 -4.5 -69t-4.5 -70q-2 -26 -3.5 -77.5t-2.5 -77.5q-2 -44 -2 -64q0 -56 8 -166q8 -86 19 -128q3 -13 5 -16.5t8 -3.5q8 0 14 1q3 0 7.5 0.5t6.5 0.5q8 0 17 -3q17 -8 17 -23v-2q-3 -16 -24 -17q-58 -5 -86 -53q-11 -17 -25 -17q-7 0 -10 2
q-23 9 -23 32v2q1 2 1 3q5 21 21 33t16 18q0 4 -5 17q-13 36 -27 112q-9 51 -15 102q-2 22 -6.5 65t-7.5 64q-10 93 -11 174q0 11 -1 31t-1.5 36t-0.5 31q0 33 3 66q2 26 2 40q0 16 -2 24h-3z" />
    <glyph glyph-name="J" unicode="J" horiz-adv-x="633" 
d="M532 345q0 -21 -3 -53t-3 -44v-8q0 -29 -8 -81q-5 -41 -16 -76q-4 -15 -5 -25q-13 -78 -52 -151q-43 -81 -108 -99q-20 -5 -34 -5q-21 0 -45 8q-94 32 -177 109q-11 9 -17 22q-5 8 -5 17q0 4 1 6q3 12 14 17q4 2 7 2q7 0 14 -9q22 -30 82 -67q61 -35 101 -43q10 -2 16 -2
q26 0 45 21q25 27 39 75q30 102 36 197q5 68 5 122v19q0 110 -17 194q-13 61 -34 112q-20 51 -54 82q-22 20 -62 24h-11q-32 0 -92 -22q-39 -16 -63 -35q-17 -13 -21 -25q-6 -16 -30 -21h-3q-8 0 -17 8t-11 18t-2 14q0 12 7 25q19 32 52 54q95 60 181 68q8 1 23 1
q43 0 78 -17q74 -33 118 -117q47 -88 62 -208q1 -11 9 -98v-9z" />
    <glyph glyph-name="K" unicode="K" horiz-adv-x="629" 
d="M266 301q75 0 145 -19q33 -8 58 -25q15 -9 25 -30q3 -8 3 -14q0 -7 -3 -15q-6 -12 -15 -12q-4 0 -10 3q-4 2 -12 8q-24 23 -67 30q-73 13 -135 13q-52 0 -95 -8h-2q-29 -5 -37 -11t-8 -26q0 -2 0.5 -8t0.5 -9q3 -116 18 -230q11 -74 28 -104q4 -5 4 -13q0 -11 -8 -18.5
t-20 -8.5h-4q-22 0 -33 16q-16 21 -24 51q-23 85 -41 210q-4 32 -10 97t-10 97q-2 17 -10 160q-3 41 -3 79q0 11 0.5 32.5t0.5 31.5q2 93 8 122q8 42 51 51q10 2 14 2q18 0 37 -17q24 -21 24 -60q0 -10 -2 -32q-1 -21 -6 -84t-7 -98q-2 -48 -8 -134v-35h3q6 0 14 8
q115 94 182 180q46 59 80 130q22 46 29 111q0 10 2 28q3 26 33 37q8 2 11 2q14 0 30 -14q29 -24 29 -68q0 -9 -2 -29q-8 -53 -50 -111q-88 -124 -226 -239q-12 -10 -17 -16q-1 0 -1.5 -1.5t-1.5 -4t-3 -5.5h41z" />
    <glyph glyph-name="L" unicode="L" horiz-adv-x="725" 
d="M119 283q0 -13 -0.5 -38.5t-0.5 -38.5q0 -33 2 -50q9 -116 42 -197q15 -35 41 -61q35 -36 81 -36q26 0 51 9q60 19 130 80q56 47 90 92q19 23 30 49q9 17 18 17q4 0 6 -1q14 -5 14 -23q0 -5 -1 -7q-2 -15 -15 -35q-33 -51 -94 -111q-40 -38 -83 -70q-52 -39 -108 -50
q-27 -5 -47 -5q-48 0 -85 22q-50 29 -85 83q-34 51 -63 149q-15 51 -32 177q-8 58 -8 106q0 5 0.5 14.5t0.5 13.5v7q0 9 -1 25.5t-1 24.5v7q2 32 2 48v31q0 37 2 55q14 127 16 140q8 47 39 70q14 9 28 9q11 0 23 -6q45 -23 45 -76q0 -11 -1 -17q-3 -28 -13 -92t-14 -99
q-9 -93 -10 -120v-96h1z" />
    <glyph glyph-name="M" unicode="M" horiz-adv-x="777" 
d="M65 300q1 -12 4 -36t4 -36q9 -70 46 -250q2 -12 2 -17q0 -14 -6 -29q-4 -12 -16 -16q-7 -3 -14 -3q-17 0 -30.5 11.5t-14.5 27.5q0 3 -9 91q-3 29 -9 85.5t-8 83.5q-12 137 -12 172v21q0 32 26 46q9 5 19 5q14 0 23 -8q18 -15 38 -45q37 -60 58 -102q8 -11 9 -11q6 1 6 9
v5q25 179 103 309q50 82 126 137q55 41 117 48q6 1 17 1q56 0 93 -50q24 -31 32 -95q6 -47 6 -92q0 -49 -8 -103q-2 -13 -4 -39t-3 -36q-28 -242 -42 -307q-17 -87 -24 -171v-8q0 -16 12 -27q10 -9 10 -21q0 -9 -6 -25q-7 -24 -34 -29h-3q-22 0 -32 27q-8 24 -10 65
q-2 50 -2 76q0 9 0.5 27t0.5 27q0 12 -1.5 35t-1.5 35v15q0 66 13 239q2 28 7 77t8.5 90.5t3.5 77.5q0 5 -0.5 16t-0.5 16q-2 40 -9 65q-10 33 -37 33q-10 0 -16 -1q-29 -5 -59 -24q-107 -67 -160 -201q-26 -66 -37 -126q-3 -14 -10 -84q-1 -9 -2.5 -28t-2.5 -29
q-1 -5 -5 -20q-12 -28 -37 -28q-16 0 -30 13q-29 26 -61 78q-3 6 -10.5 17.5t-11.5 17.5q-4 -2 -5 -2z" />
    <glyph glyph-name="N" unicode="N" horiz-adv-x="719" 
d="M169 -45q4 33 12.5 99t12.5 99q28 222 75 347q44 118 76 172q43 70 82 97q27 18 52 18q33 0 57 -26q27 -30 37 -60q14 -37 25 -100q19 -125 19 -275q0 -33 -2 -101q-1 -15 -2.5 -98.5t-5.5 -127.5l-3 -134q0 -13 -3 -18q-7 -19 -29 -22h-2q-11 0 -24 17q-7 9 -7 27
q-1 35 -3.5 107.5t-3.5 109.5q-3 140 -4 167q-2 36 -4 115t-5 120q-10 133 -33 197q-10 28 -22 28q-9 0 -28 -16q-33 -29 -66 -94q-84 -159 -112 -331q-20 -130 -27 -196q-4 -33 -9.5 -92.5t-7.5 -78.5q-4 -45 -12 -67q-12 -30 -37 -30q-17 0 -34 17q-12 14 -17 22
q-21 43 -39 106q-20 72 -27 117q-3 18 -12 71.5t-13 83.5q-2 22 -6.5 67t-7.5 69q-6 41 -6 84q0 19 1 29v5q0 5 -1 15.5t-1 16.5t2 16t5 61q4 43 23 103q14 47 53 54q5 0 15.5 4t16.5 4q7 0 13 -3q14 -6 21 -17q16 -26 16 -56q0 -7 -2 -21q-4 -25 -8 -70.5t-7 -64.5
q-3 -22 -4.5 -45.5t-1.5 -54.5t-1 -46v-23q0 -15 0.5 -45.5t0.5 -46.5q0 -51 6 -155q6 -96 19 -150z" />
    <glyph glyph-name="O" unicode="O" horiz-adv-x="709" 
d="M2 195q0 76 23 168q22 84 49 119q4 4 4 8t-6 10q-22 28 -29 46q-7 20 -7 42q0 40 23 77q56 93 174 120q29 7 62 7q45 0 93 -17q101 -37 159 -146q44 -84 55 -182q3 -33 3 -67q0 -66 -12 -134q-25 -127 -84 -245q-55 -111 -143 -164q-58 -35 -119 -35q-107 0 -176 101
q-51 73 -64 178q-5 31 -5 75v39zM107 79q0 -81 32 -138q43 -75 121 -75h3q60 1 113 45q51 42 84 107q51 94 76 197q23 92 23 169q0 55 -11 102q-23 112 -88 182t-158 73h-6q-110 0 -184 -95q-13 -17 -18 -44q-1 -4 -1 -13q0 -41 36 -60q48 -24 83 -25q13 -1 40 -1
q122 0 214 40q14 6 23 6h2q15 0 15 -14q0 -5 -1 -7q-4 -14 -17 -22q-23 -16 -51 -25q-93 -31 -204 -31h-4q-14 0 -21 -1.5t-14 -8t-8 -20.5q0 -2 -2 -4q-23 -47 -43 -109q-33 -108 -34 -202v-26z" />
    <glyph glyph-name="P" unicode="P" horiz-adv-x="631" 
d="M122 437q11 16 27 49t18 36q69 130 150 219q31 35 71 54q14 6 27 6q40 0 65 -29t34 -67q8 -37 8 -67q0 -65 -32 -137q-61 -138 -211 -261q-22 -18 -53 -31q-18 -6 -28 -6q-17 0 -31 10q-15 9 -15 27v5q4 21 21 21q5 0 7 -1q8 -2 12 -2q17 0 36 19q59 48 107 118
q63 93 81 143q21 58 21 102q0 30 -8 55q0 1 -2 6t-4 7q-6 13 -14 13q-5 0 -13 -5q-38 -25 -72 -71q-59 -76 -101 -156q-76 -141 -97 -267q-13 -69 -13 -98v-6q5 -131 26 -220q1 -6 5 -17.5t5 -15.5q3 -8 16 -17t13 -21t-13 -22q-10 -7 -21 -7q-10 0 -21 6q-24 15 -36 42
q-24 55 -37 123q-20 99 -36 233q-9 86 -13 219v29q0 41 2 123q0 17 2.5 47.5t2.5 42.5q0 11 3.5 22t9.5 26t8 21q4 9 9 11q35 13 49 13q8 0 12 -1q15 -3 22 -16q20 -28 20 -57v-7q-8 -80 -11 -120q-2 -20 -4.5 -61t-3.5 -62z" />
    <glyph glyph-name="Q" unicode="Q" horiz-adv-x="660" 
d="M170 -81q-3 3 -23 11q-67 25 -105 102t-38 183q0 26 4 76q7 82 37 170q19 52 49 72q10 7 10 18q0 2 -0.5 4t-0.5 3q-4 17 -4 39q0 16 1 24q12 119 100 157q35 15 71 15q42 0 87 -21q99 -47 151 -157q46 -98 46 -207q0 -15 -2 -43q-14 -176 -124 -313q-30 -34 -47 -50
q-16 -16 -56 -45q122 18 153 25q10 2 16 2q14 0 19 -14q2 -6 2 -7q0 -6 -8 -14q-12 -11 -41 -17q-122 -32 -228 -50q-38 -7 -60 -26q-7 -5 -7 -11q0 -5 3 -9q5 -6 5 -14q0 -10 -7 -15q-5 -5 -14 -5q-12 0 -21 7q-19 13 -19 38q0 10 3 19q8 22 31 40l6 3t7 4t4 6zM153 401
q-5 -1 -7 -7q-10 -19 -18 -65q-22 -117 -22 -159v-16q4 -80 26 -119q27 -49 75 -53h9q28 0 54 14q64 29 114 92q118 151 118 321q0 44 -7 83q-18 115 -93 189q-43 43 -94 54q-15 4 -33 4q-75 0 -100 -72q-10 -30 -10 -64q0 -25 7 -60q21 -100 94 -198q51 -65 99 -97
q15 -12 30 -12q3 0 11 2t11 2q10 0 15 -8q4 -8 4 -12q0 -8 -8 -18q-13 -17 -34 -17q-10 0 -21 3q-27 6 -59 29q-73 54 -125 130q-7 10 -19 28t-17 26z" />
    <glyph glyph-name="R" unicode="R" horiz-adv-x="685" 
d="M271 295q12 -5 30 -5q110 0 220 -55q22 -10 44 -34q15 -18 15 -42q0 -21 -13 -37q-6 -8 -15 -12q-6 -3 -13 -3q-18 0 -18 18v8q0 31 -40 47q-86 34 -189 37q-44 0 -75 -5q-25 -3 -42 -20q-20 -21 -44 -30q-15 -4 -15 -20v-3q8 -114 22 -170q14 -60 27 -88q4 -9 6 -12
t5 -5t8 -2q2 0 6 0.5t7 0.5h2q21 0 21 -18q0 -1 -0.5 -3t-0.5 -3q-3 -16 -15.5 -26.5t-27.5 -10.5q-8 0 -16 3q-23 9 -40 35q-11 17 -27 55q-21 54 -42 135q-12 48 -21 96q-8 47 -16 145q-1 16 -2 48.5t-3 48.5q-5 90 -5 108q0 14 -0.5 42t-0.5 42q0 6 0.5 19t0.5 20
q0 13 -1 20t-1 21q0 41 19 74q15 24 35 24q8 0 18 -3q3 -1 10.5 -2.5t11.5 -2.5t9 -4.5t9 -8.5q21 -31 21 -61q0 -83 -9 -124q-1 -4 -1 -12q0 -4 2 -24q8 17 20 43q56 126 136 208q36 37 77 48q7 2 19 2q25 0 43 -15.5t25 -41.5q6 -22 6 -45q0 -36 -15 -79
q-42 -126 -134 -264l-27 -39q-6 -8 -6 -16v-2zM116 240q4 2 14.5 10t16.5 10t11 4t9.5 5.5t8 5.5t8 7.5t7 7.5t7 8.5t5.5 8.5t6 9.5t6 8.5q11 16 13 20q85 139 122 271q13 48 13 78v6q0 14 -7 14q-5 0 -10 -4q-28 -18 -34 -24q-36 -33 -69 -83q-74 -111 -118 -261
q-9 -30 -9 -84v-18z" />
    <glyph glyph-name="S" unicode="S" horiz-adv-x="654" 
d="M438 603q0 -2 0.5 -6t0.5 -5q0 -13 -4 -38.5t-4 -39.5q-1 -10 -8 -17t-16 -7h-3q-20 2 -20 26v3q1 11 4 33t4 33v11q0 69 -47 106q-18 12 -38 12q-12 0 -23 -4q-41 -16 -73.5 -64t-32.5 -87q2 -34 20 -57q31 -38 58 -61q69 -58 106 -97q94 -97 129 -184q22 -53 22 -105
q0 -78 -44 -143.5t-111 -98.5q-47 -23 -101 -23q-57 0 -109 27t-88 75q-49 67 -49 145q0 33 9 68q23 87 61 137q17 23 35 26q3 1 9 1q12 0 18 -9q3 -6 3 -11q0 -9 -8 -17q-21 -20 -35 -48.5t-19.5 -48.5t-12.5 -58q-5 -25 -5 -43q0 -46 21 -90q24 -51 70 -79.5t98 -28.5
q71 0 125 51q69 64 69 155v14q-3 50 -33 94q-44 67 -107 114q-21 16 -68 47.5t-71 49.5q-7 6 -21.5 16.5t-25.5 19.5t-20 19q-62 67 -62 138v9q1 47 23 95q20 46 70 89q61 52 131 52q17 0 35 -3q104 -21 133 -135q5 -17 5 -44v-14z" />
    <glyph glyph-name="T" unicode="T" horiz-adv-x="758" 
d="M269 701q-12 0 -34 -11q-85 -35 -127 -63q-6 -4 -20 -15q-15 -11 -15 -19q0 -5 5 -13q2 -3 2 -8q0 -7 -6.5 -12t-16.5 -5q-20 0 -33.5 14t-13.5 33q0 8 5 20q7 18 22 34q52 58 145 103q46 21 100 39q89 29 176 29q53 0 103 -10q36 -7 69 -29q23 -17 26 -48v-3
q0 -20 -17 -28q-6 -3 -12 -3q-11 0 -18 9q-10 13 -26 20.5t-24.5 8t-32.5 2.5q-12 1 -37 1q-40 0 -75 -7q-14 -3 -16 -6t-3 -17q-1 -23 -13 -138q-4 -36 -10 -110q-15 -161 -16 -298v-66q0 -66 2 -99q1 -12 14 -136q2 -17 18 -21q20 -5 20 -24v-5q-2 -30 -28 -40
q-8 -4 -17 -4q-14 0 -30 14q-19 19 -31 65q-20 81 -25 151q0 3 -9 82q-7 66 -11 200q-3 108 -3 110q0 6 0.5 17.5t0.5 17.5q1 20 2.5 78.5t4.5 98t9 77.5q0 1 0.5 3.5t0.5 4.5t-2 6h-3z" />
    <glyph glyph-name="U" unicode="U" horiz-adv-x="667" 
d="M448 367q-24 -100 -36 -151q-46 -179 -81 -278q-18 -51 -44 -88q-16 -23 -33 -33q-18 -12 -37 -12q-18 0 -38 11q-26 15 -46 47q-47 74 -79 195q-26 101 -33 154q-15 102 -16 141q0 11 -2 44.5t-2 51.5v12q2 82 5 105q12 96 12 98q11 65 23 84q15 21 34 21h5q5 0 7 1h3
q56 0 61 -60q0 -2 0.5 -6t0.5 -6q0 -12 -4 -40q-10 -78 -18 -161q-2 -20 -2 -62v-41q0 -11 -0.5 -33t-0.5 -33q0 -22 2 -66q4 -66 8 -99q13 -110 28 -179q15 -58 40 -105q1 -4 5 -8q7 -10 14 -10q6 0 13 6q20 18 39 58q20 43 54 151q48 156 90 354q23 110 34 199q2 15 3 48
t4 51q1 3 2 14t3 16q6 25 28 25h4q21 -2 22 -28q0 -5 0.5 -13t0.5 -13q0 -12 -2 -36q-3 -31 -4 -89t-2 -76q-1 -13 -1 -39q0 -13 0.5 -39t0.5 -39q2 -193 4 -233q3 -110 23 -206q7 -28 16 -36q9 -7 9 -17q0 -7 -6 -13q-7 -8 -20 -8q-7 0 -13 3q-8 4 -16 20q-13 24 -25 78
q-16 84 -25 203q-2 24 -5.5 79.5t-6.5 85.5z" />
    <glyph glyph-name="V" unicode="V" horiz-adv-x="629" 
d="M8 506q0 9 -2 27q-4 44 -4 65q0 36 6 71q6 30 32 51q10 10 25 10q11 0 18 -5q3 -2 10.5 -6t11.5 -6.5t9 -7.5t8 -10q9 -18 9 -37v-6q-3 -51 -3 -101q0 -38 1 -56q3 -129 25 -272q11 -70 51 -206q25 -84 71 -152q16 -24 29 -24q12 0 27 26q17 32 34 113q31 166 44 329
q5 56 14.5 169.5t14.5 170.5q8 78 22 115q7 19 17 28q7 7 16 7q6 0 12 -3q21 -10 22 -29v-3q0 -16 -16 -20q-10 -3 -12 -15q-1 -10 -4 -30t-4 -31q-10 -137 -38 -403q-19 -171 -52 -330q-13 -55 -35 -100q-9 -19 -26 -33q-18 -13 -36 -13q-8 0 -17 3q-27 9 -46 28
q-48 48 -85 124q-75 150 -112 319q-27 119 -36 214q-1 8 -1 23v6z" />
    <glyph glyph-name="W" unicode="W" horiz-adv-x="845" 
d="M162 32q5 5 15 31q35 95 90 159l15 15q17 13 34 13q19 0 37 -15q23 -19 45 -71q11 -24 35 -83t40 -90q37 -74 63 -105q6 -7 20 -19q10 -8 17 -8q9 0 20 11q6 5 17 25q24 46 44 144q20 100 20 229q0 30 -2 90q-4 122 -18 189q-14 72 -39 114q-18 32 -43 52q-35 29 -39 34
q-1 2 -5.5 6t-5.5 6q-10 15 -10 18t1 5q5 8 16 8h7q48 0 86 -33q53 -45 81 -123q22 -61 34 -177q7 -63 7 -135q0 -48 -3 -96q-1 -51 -11 -107q-12 -88 -31 -150q-21 -68 -42 -105q-11 -21 -32 -40q-23 -22 -55 -22q-22 0 -45 14t-39 34q-55 65 -100 162q-9 19 -29.5 72
t-35.5 81q-9 16 -13 16q-3 0 -15 -13q-31 -34 -55 -101q-4 -12 -12.5 -34.5t-12.5 -33.5q0 -1 -1 -3q-20 -45 -57 -45q-30 0 -52 32q-30 43 -47 108q-29 105 -40 200q-13 102 -13 190q0 23 2 69q0 6 1 16t1.5 18.5t0.5 16.5q2 23 9 44q13 39 52 39h4q17 -2 30 -15.5
t16 -33.5q1 -12 1 -35q0 -25 -2 -75.5t-3 -75.5q0 -82 6 -136q2 -15 3 -49t4 -52q2 -15 6 -47t7.5 -57t8.5 -47q4 -19 12 -29z" />
    <glyph glyph-name="X" unicode="X" horiz-adv-x="722" 
d="M250 269q9 10 34 61q81 157 140 259q8 14 35 62.5t42 74.5q11 20 29 40q13 13 28 13q21 0 32 -22q4 -8 4 -16q0 -13 -11 -20q-14 -9 -25 -30q-32 -56 -96.5 -168.5t-96.5 -169.5q-16 -28 -42.5 -80t-37.5 -72q-4 -10 -4 -14q0 -3 4 -15q28 -62 75 -144t125 -125
q30 -15 51 -16h4q22 0 32 17q13 20 19 24q5 4 11 4q10 0 13 -11q3 -9 3 -17q0 -19 -15 -39q-23 -31 -65 -31q-8 0 -26 2q-53 8 -122 58q-60 45 -122 134q-24 36 -36 55q-7 0 -9 -9q-6 -14 -19 -42.5t-21 -46t-17.5 -42t-15.5 -46.5q-7 -30 -7 -38q0 -13 5 -23q2 -6 2 -8
q0 -13 -17 -16q-3 -1 -8 -1q-17 0 -26 19q-6 10 -6 27q0 10 1 15q4 30 24 88q34 96 68 166q6 14 6 24q0 14 -7 27q-20 35 -62 137q-31 76 -49 125q-36 100 -58 177q-5 17 -11 53q-1 4 -1 10q0 32 32 46q15 6 29 6q20 0 38 -14q11 -8 15 -20q12 -27 28 -85q5 -20 23 -91
t30 -109q31 -98 51 -143z" />
    <glyph glyph-name="Y" unicode="Y" horiz-adv-x="698" 
d="M515 454q-4 -9 -11.5 -27t-11.5 -27q-74 -178 -153 -280q-37 -47 -79 -70q-31 -17 -61 -17q-45 0 -84 41q-43 46 -68 121q-9 28 -23 86q-17 70 -20 168q-1 16 -1 49q0 76 13 164q9 60 32 96q13 21 33 21h17q8 0 11 -1q27 -3 37 -26q9 -25 9 -41q0 -9 -1 -14
q-14 -84 -20 -126q-2 -13 -3.5 -28.5t-3 -34t-2.5 -28.5q-4 -41 -4 -94v-29q4 -102 18 -168q7 -31 27 -65q19 -30 48 -30q19 0 35 10q36 19 69 63q48 62 89 145q76 159 105 307q1 5 2 14.5t2.5 17t5.5 13.5q13 19 32 19q9 0 17 -4q10 -5 14 -15q7 -19 7 -34q2 -82 3 -122
q2 -34 2 -102q0 -56 -1 -84q-3 -134 -39 -263q-37 -136 -122 -209q-38 -33 -76 -38q-1 0 -4 -0.5t-5 -0.5q-24 0 -44 15t-25 37q-2 8 -2 14q0 13 9 18q2 1 6 1t14 -6l20 -20q8 -9 18 -9q4 0 12 2q16 6 40 28q51 51 73 115q28 82 38 162q11 74 11 163v122q-1 0 -3 1h-2z" />
    <glyph glyph-name="Z" unicode="Z" horiz-adv-x="625" 
d="M340 -99q78 0 131 27q4 2 14 4q8 2 12 2q15 0 22 -10q4 -8 4 -17q0 -11 -6 -21q-13 -21 -51 -37q-66 -29 -141 -31q-13 -1 -39 -1q-31 0 -46 2q-103 13 -163 83q-64 74 -64 167q0 37 8 69q13 55 51 116q37 56 81 101q35 36 71 71q12 12 51 50.5t64 65.5t47 55
q38 48 44 74q3 9 3 16q0 19 -26 19h-4q-54 -1 -107 -25q-42 -16 -54 -22q-41 -20 -111 -76q-11 -8 -11 -17q0 -5 1 -8t1 -8q0 -12 -10.5 -22.5t-23.5 -11.5h-2q-20 0 -44 16t-32 35q-5 13 -5 24q0 9 4 25q12 38 45 64q8 6 11 9q5 6 11 11t13 10.5t11.5 9t13.5 8.5t13 7t15 7
t13.5 6t15 6.5t13.5 6.5q34 15 67 24q53 15 97 15q38 0 76 -12q34 -10 52 -32q25 -29 25 -63q0 -21 -8 -40q-18 -45 -59 -96q-28 -35 -83.5 -97t-78.5 -89q-70 -83 -105 -137q-39 -60 -49 -111q-3 -19 -3 -39q0 -95 76 -143q63 -40 134 -40h15z" />
    <glyph glyph-name="bracketleft" unicode="[" horiz-adv-x="411" 
d="M5 184q-2 14 -2 45v32q0 27 -1 41q0 4 -0.5 11.5t-0.5 11.5q0 15 1.5 45.5t1.5 45.5q0 13 0.5 53.5t1.5 62.5q1 27 4 166q1 25 32 62q5 6 14 6h5q8 -1 24 -1q14 0 42 1.5t42 1.5q19 0 28 -1q31 -3 63 -9q22 -5 36 -18q13 -13 13 -24q0 -5 -1 -7q-7 -18 -21 -18
q-5 0 -10 3q-28 14 -68 14q-19 0 -57 -4q-13 -1 -13 -15q1 -10 1 -30q0 -43 -6 -87q-2 -18 -4 -55t-4 -55q-2 -14 -10 -143q0 -4 -5 -64.5t-7 -90.5q-7 -126 -7 -160v-38q0 -37 4 -56q6 -30 22 -30q7 0 23 8q42 24 69 63q15 23 24 30t14 7q4 0 7 -3q5 -3 5 -10
q0 -2 -0.5 -4.5t-0.5 -4.5q-5 -25 -33 -59q-31 -37 -69 -57q-4 -3 -8 -4q-25 -11 -44 -11q-44 0 -65 54q-15 39 -24 103q-16 110 -16 192z" />
    <glyph glyph-name="backslash" unicode="\" horiz-adv-x="348" 
d="M247 -103v-8q0 -21 -8 -38q-10 -20 -29 -20h-2q-20 2 -23 29v17q0 37 -20 144q-24 134 -39 200q-2 10 -19 83.5t-28 110.5q-24 79 -49 177q-14 53 -24 103q-2 12 -2 17q0 19 9.5 30.5t31.5 20.5q7 3 14 3q12 0 20 -8q22 -19 30 -50q25 -105 29 -126q4 -24 14 -87.5
t17 -97.5q21 -105 58 -329q14 -91 20 -171z" />
    <glyph glyph-name="bracketright" unicode="]" horiz-adv-x="411" 
d="M306 419q2 -14 2 -45v-32q0 -27 1 -41q0 -4 0.5 -11.5t0.5 -11.5q0 -15 -1.5 -45.5t-1.5 -45.5q0 -13 -0.5 -53.5t-1.5 -62.5q-1 -27 -4 -166q-1 -25 -32 -62q-5 -6 -14 -6h-5q-8 1 -24 1q-14 0 -42 -1.5t-42 -1.5q-19 0 -28 1q-32 3 -63 9q-19 5 -36 18q-12 10 -12 23
q0 5 1 8q5 18 20 18q5 0 11 -3q28 -14 67 -14q19 0 57 4q13 1 13 15q-1 10 -1 30q0 44 6 87q2 18 4 55t4 55q2 14 10 143q0 4 5 64.5t7 90.5q7 114 7 146v52q0 37 -4 56q-6 30 -22 30q-7 0 -23 -8q-42 -24 -69 -63q-15 -23 -24 -30t-14 -7q-4 0 -7 3q-5 2 -5 9q0 4 2 10
q4 26 32 59q31 37 69 57q4 3 8 4q25 11 44 11q44 0 65 -54q15 -39 24 -103q16 -110 16 -192z" />
    <glyph glyph-name="asciicircum" unicode="^" horiz-adv-x="567" 
d="M406 676q-48 4 -100 47q-37 30 -76 95q-8 14 -12 20q-8 11 -14 11q-7 0 -16 -10q-43 -47 -61 -74q-10 -16 -46 -63q-10 -12 -22 -17q-11 -3 -19 -3q-15 0 -25 10q-12 14 -12 30q0 7 3 16q5 15 15 17q9 3 17 7t16 12t12 11.5t13.5 14.5t11.5 13q11 13 33 39.5t34 39.5
q29 32 65 32q27 0 53 -20q14 -10 19 -17q3 -3 34.5 -39t44.5 -57l15 -21q16 -19 34 -19q1 0 3 0.5t4 0.5h6q12 0 19 -5q10 -10 10 -24q0 -3 -2 -11q-7 -15 -22.5 -25.5t-32.5 -10.5h-2z" />
    <glyph glyph-name="underscore" unicode="_" horiz-adv-x="639" 
d="M501 -74q-101 0 -172 -5q-24 -1 -50 -4.5t-58 -9t-50 -7.5q-13 -2 -42.5 -7t-45.5 -7q-8 -1 -24 -10q-10 -6 -20 -6q-12 0 -25 11q-11 9 -11 24q0 9 4 17q11 28 49 41q55 22 142 27q43 3 130 3h103q22 0 64 -6q11 -1 24 -8q18 -9 18 -25v-5q-3 -20 -29 -23h-7z" />
    <glyph glyph-name="grave" unicode="`" horiz-adv-x="373" 
d="M46 933h3q47 0 52 -39q4 -25 24 -48q60 -70 112 -110q19 -13 27 -26q7 -10 7 -19q0 -6 -3 -12q-7 -13 -28 -13q-20 1 -41 17q-67 46 -116 92q-46 44 -61 62q-17 23 -17 44q0 12 4 24q6 17 13 22.5t24 5.5z" />
    <glyph glyph-name="a" unicode="a" horiz-adv-x="587" 
d="M298 67q-4 0 -6 -2.5t-4 -7t-3 -5.5q-7 -13 -20.5 -37t-24.5 -43.5t-21 -36.5q-19 -35 -46 -59q-18 -18 -44 -18q-29 0 -50 19q-18 16 -28 35q-48 95 -50 206v23q0 77 11 130q26 127 87 187q42 42 88 42q19 0 42 -9q41 -18 63 -67q25 -56 33 -107q2 -8 2 -12v-2
q0 -19 -17 -26q-4 -2 -10 -2q-12 0 -22 10q-5 6 -19 32q-20 38 -38 51q-7 6 -12 6q-6 0 -12 -10q-12 -19 -22 -45q-9 -25 -17 -53.5t-16.5 -66t-12.5 -55.5q-5 -19 -7 -44q0 -11 -2 -44t-2 -51q0 -24 3 -46q5 -22 7 -27q4 -9 9 -9q3 0 10 5q11 10 31 38q69 111 95 161
q9 18 25 56q11 28 39 28q19 0 32 -15q19 -18 20 -41q1 -7 4 -33t3 -40q0 -22 4 -66q1 -20 12 -40q6 -13 11 -13q4 0 15 8q12 10 18 14q8 5 14 5q7 0 11 -4q5 -5 5 -15v-7q-2 -20 -18 -38t-35 -23q-10 -2 -15 -2q-29 0 -54 32q-50 61 -61 128q-3 5 -5 6z" />
    <glyph glyph-name="b" unicode="b" horiz-adv-x="585" 
d="M107 122q0 -74 15 -167q8 -44 29 -56q9 -6 9 -15q0 -6 -5 -14q-11 -19 -34 -19q-13 0 -21 7q-24 18 -35 49q-19 50 -31 142q-2 14 -5 38.5t-5.5 45t-4.5 38.5q-14 121 -16 156q-2 46 -2 69q0 28 2 84q4 92 13 150q2 12 7 20q23 34 56 48q10 4 15 4q7 0 12 -4
q31 -23 34 -25q20 -17 20 -50q0 -3 -0.5 -8.5t-0.5 -8.5q-4 -36 -4 -54t-6 -35l-3 -18q0 -3 -0.5 -7.5t-0.5 -6.5q0 -10 9 -10t16 1q28 4 63 4q43 0 82 -10q88 -24 134 -94q21 -33 27 -74q2 -22 2 -31q0 -75 -50 -171q-43 -86 -157 -202q-5 -5 -11 -10t-13.5 -11t-11.5 -9
q-14 -11 -31 -12h-3q-13 0 -22 9t-9 21q0 4 2 10q5 15 16 15q3 0 7 -2q6 -3 10 -3q8 0 17 9q112 115 144 219q16 49 20 96v11q0 47 -28 78.5t-74 38.5q-21 3 -41 3q-14 0 -42.5 -1.5t-42.5 -1.5h-17q-16 0 -19 -21q-15 -131 -15 -182v-33z" />
    <glyph glyph-name="c" unicode="c" horiz-adv-x="517" 
d="M2 144q1 25 7 77q5 49 34 119q18 48 47 81q30 32 44 42q41 31 93 43q3 1 10 1q22 0 47 -13t37 -31q17 -23 26 -70q6 -28 6 -59q0 -28 -8 -86q-2 -12 -7 -20q-9 -18 -23 -18h-4q-21 3 -28 26v5q0 9 1 14q0 3 0.5 11t0.5 11q0 41 -13 77q0 1 -1.5 4l-2 4t-1.5 3.5t-2 4
t-2.5 3.5t-2.5 3t-3 2.5t-4 2.5t-4 1h-2q-12 0 -29 -19q-58 -70 -92 -199q-12 -44 -12 -121q0 -48 21 -89q22 -44 53 -44q12 0 33 8q97 38 152 109q6 8 11 12q8 6 14 6q1 0 7 -2q10 -5 12 -19q0 -13 -9 -27q-26 -40 -84 -82q-33 -24 -78 -48q-31 -17 -65 -17q-63 0 -106 53
q-44 54 -62 138q-11 46 -11 87v16z" />
    <glyph glyph-name="d" unicode="d" horiz-adv-x="545" 
d="M293 447q3 3 3 9v4q-4 97 -7 149v6q0 17 8 49q5 24 39 48l2 1q2 1 9 1q15 0 35.5 -6.5t26.5 -13.5q28 -34 28 -75v-24q0 -97 -12 -173q-2 -14 -3 -40t-2 -38q-5 -54 -13 -162q-2 -44 -2 -68q0 -61 5 -136q2 -25 10 -75q2 -18 11 -30q11 -11 11 -23q0 -9 -7 -16
q-10 -10 -26 -10q-13 0 -20 6q-19 13 -28 42q-13 38 -25 127q-13 108 -14 129q-2 9 -6 12q-16 -33 -31 -68q-36 -80 -57 -118q-27 -46 -44 -62q-28 -26 -57 -26q-30 0 -57 27q-24 24 -41 66q-24 68 -24 116v5q0 14 -1.5 41t-1.5 41v16q3 44 22 113q13 49 36 99q25 56 53 77
q42 32 81 32q42 0 82 -36q1 -1 6.5 -7.5t10.5 -8.5zM122 18q0 -38 9 -67q3 -13 9 -13q2 0 11 7q18 17 42 57q40 71 108 219q7 15 7 32q0 9 -1 14q-2 16 -17 36q-30 39 -54 55q-10 7 -16 7t-16 -14q-15 -20 -26 -62q-24 -74 -29 -104q-2 -19 -12 -57q-7 -22 -10 -61t-5 -49z
" />
    <glyph glyph-name="e" unicode="e" horiz-adv-x="518" 
d="M3 145q0 1 6 76q4 46 34 119q20 50 49 83q34 36 48 45q53 37 94 38h3q53 0 85 -43q17 -24 25 -70q6 -31 6 -61q0 -40 -8 -85q-2 -13 -8 -22q-9 -15 -22 -15h-2q-20 2 -27 19q-3 9 -3 16q0 2 0.5 5.5t0.5 4.5q1 8 1 24q0 40 -13 76q-1 1 -1 4q-11 23 -24 23q-12 0 -26 -16
q-56 -65 -90 -184q-2 -6 -2 -8q0 -4 5 -4q1 0 9 2l48 18q7 3 22 8t22 8q9 3 18 3q15 0 28 -6q27 -10 27 -38q0 -4 -2 -12q-6 -20 -24 -20q-8 0 -16 6q-8 7 -17 7q-3 0 -9 -2q-72 -20 -108 -25q-13 -3 -14 -16q-3 -24 -3 -46q0 -51 17 -95q8 -22 28 -40q12 -11 30 -11
q8 0 26 4q24 6 47 22q71 44 96 72q9 10 17 22q3 5 8 8q10 6 15 6q1 0 7 -2q11 -5 11 -20v-3q0 -10 -9 -23q-26 -40 -84 -82q-33 -24 -78 -48q-30 -17 -64 -17q-63 0 -107 54q-42 53 -62 138q-11 48 -11 82q0 14 1 21z" />
    <glyph glyph-name="f" unicode="f" horiz-adv-x="442" 
d="M217 579q-20 -58 -27 -109q-1 -8 -4 -24t-4 -25q0 -1 -0.5 -3t-0.5 -3q0 -11 16 -11q4 0 13.5 -0.5t14.5 -0.5t14 0.5t14 0.5q17 0 49 -6q20 -3 32 -19q6 -7 6 -17q0 -9 -4 -16q-7 -11 -19 -11q-5 0 -7 1q-27 5 -46 5q-23 0 -67 -6q-18 -2 -25.5 -10t-8.5 -26
q-10 -121 -12 -179v-8q0 -18 7 -81q7 -67 18 -111q8 -31 22 -43q9 -7 9 -18q0 -19 -18 -27q-7 -3 -15 -3q-19 0 -30 13q-16 17 -24 40q-19 55 -37 139q-3 14 -8.5 44t-8.5 44q-16 78 -16 133v16q0 13 -4 37q-1 11 -13 11q-15 2 -19 7q-10 9 -10 21q0 15 12 24q8 5 19 10
q15 8 16 27q3 55 12 112q11 70 34 134q18 47 63 77q13 8 35 8q29 0 46 -11q15 -10 27 -27t16.5 -27t15.5 -35q15 -37 21 -136v-4q0 -13 -7 -20q-9 -9 -20 -9q-15 0 -23 16q-12 24 -26 64q-8 19 -28 42z" />
    <glyph glyph-name="g" unicode="g" horiz-adv-x="540" 
d="M325 138q-3 -4 -41 -78q-41 -79 -75 -131q-15 -21 -35 -38q-23 -20 -51 -20q-36 0 -60 31q-48 63 -54 141q-7 58 -7 102q0 21 1 32q1 17 5 46q12 84 47 162q31 70 78 92q29 13 58 13q60 0 94 -63q25 -47 44 -121q2 -10 2 -16v-2q0 -12 -18 -24q-3 -2 -8 -2q-7 0 -16 7
q-14 10 -32 45q-10 22 -37 42q-8 6 -12 6q-7 0 -13 -10q-3 -5 -6.5 -14.5t-4.5 -11.5q-17 -33 -39 -130q-12 -54 -16 -86q-7 -45 -7 -78q0 -31 6 -62q0 -1 3 -13q3 -7 7 -7q3 0 6 3q15 14 24 26q66 81 125 194q5 11 13 31.5t10 24.5q0 1 2 7t4 9q13 22 32 22q16 0 30 -16
q10 -10 16 -33q16 -54 25 -115q5 -27 11 -79q2 -24 2 -37q0 -28 -6 -88q-10 -90 -66 -202q-16 -32 -41 -60q-20 -22 -50 -22q-11 0 -21 5q-25 13 -25 38q0 1 0.5 3t0.5 3q3 22 20 22q4 0 6 -1q3 -1 7 -1q14 0 23 20q25 48 40 118q12 55 13 100q0 10 0.5 28.5t0.5 27.5
q0 46 -4 82q-8 70 -11 78z" />
    <glyph glyph-name="h" unicode="h" horiz-adv-x="591" 
d="M140 405q9 5 25.5 13.5t24.5 13.5q51 30 123 43q6 1 16 1q26 0 50 -13q41 -21 62 -56q40 -62 42 -150q0 -118 -14 -220q-4 -27 -4 -61q0 -22 2 -68q1 -10 11 -28q6 -9 6 -17q0 -23 -28 -25h-4q-28 0 -39 28q-14 39 -19 87q-18 165 -18 167q-1 4 -1 13v12q-1 82 -19 173
q-5 26 -27 49q-12 15 -32 15q-5 0 -15 -2q-43 -9 -105 -51q-12 -8 -17 -13q-3 -3 -17 -8.5t-16 -13.5q-1 -6 -4 -39q0 -27 -3 -89.5t-3 -95.5v-15q0 -68 15 -124q2 -9 7 -9h1l2 1q2 1 6 1q11 0 15 -15q3 -9 3 -18q0 -13 -8 -27q-9 -17 -29 -17q-15 0 -26 11q-11 12 -18 27
q-18 43 -37 129q-3 16 -10 44.5t-9 40.5q-21 109 -23 231q0 14 -2 41.5t-2 41.5q0 13 1 20q2 21 3 59.5t3.5 69.5t8.5 59q2 9 26 65q5 11 20 16q17 5 28 5q29 0 56 -19q4 -3 7 -6.5t4.5 -6.5t3.5 -9t2 -8.5t1.5 -10t1.5 -8.5q1 -6 1 -19q0 -8 -11 -79q-1 -8 -7 -35.5
t-8.5 -46t-2.5 -36.5v-18z" />
    <glyph glyph-name="i" unicode="i" horiz-adv-x="236" 
d="M129 328q2 -16 2 -23q0 -13 -3 -41t-3 -42v-30q0 -21 -7 -91q-8 -117 -8 -131q0 -21 1 -31q2 -22 12 -35q7 -8 7 -20q0 -13 -10 -23q-13 -11 -24 -11q-10 0 -21 8q-12 7 -16 19q-12 30 -14 45q-3 27 -16.5 102t-16.5 117q-2 18 -4 103q-3 45 -3 47q0 61 5 105q2 20 17 28
q2 1 5.5 4t4.5 3q23 16 40 16q25 0 50 -54q4 -9 4 -22q0 -6 -1 -18t-1 -18v-7zM83 593q34 0 40 -27q2 -5 2 -14q0 -23 -19 -32q-40 -21 -55 -42q-6 -7 -17 -7t-16 4q-16 8 -16 28v4q5 21 17 36q14 18 28 34t31 16h5z" />
    <glyph glyph-name="j" unicode="j" horiz-adv-x="279" 
d="M60 133q0 93 -20 188q-8 34 -12 50q-2 12 -2 16q0 25 28 41q13 8 31 8q19 0 35 -11q25 -18 39 -71q17 -67 17 -142q0 -44 -4 -80q-3 -33 -7.5 -66t-13 -75.5t-12.5 -62t-16.5 -75t-14.5 -65.5q-15 -57 -25 -81q-9 -21 -28 -31q-8 -5 -17 -5q-11 0 -20 8q-15 13 -15 27
q0 2 2 10q14 38 31 135q14 84 22 180q2 13 2 40v62zM13 524q8 51 22 76q10 22 32 26q3 1 11 1q26 0 35 -19q4 -7 4 -16q0 -16 -13 -29q-1 -1 -5 -3.5t-6 -4.5q-21 -16 -23 -42q-1 -18 -5.5 -24.5t-16.5 -8.5h-3q-21 0 -29 28q-2 10 -3 16z" />
    <glyph glyph-name="k" unicode="k" horiz-adv-x="566" 
d="M130 334q9 7 27.5 21.5t28.5 21.5q85 59 177 80q20 4 28 4q27 0 53 -17q20 -12 20 -42q0 -10 -1 -15q-3 -30 -36 -39q-99 -23 -162 -60q-38 -22 -93 -64q-13 -10 -21 -28q-5 -10 -5 -15q0 -13 18 -20q22 -10 62 -12h85q57 0 85 -1q20 0 40 -3q23 -3 25 -24q0 -19 -26 -22
q-33 -3 -101 -5q-18 0 -54.5 -2t-54.5 -2h-11q-40 0 -70 9q-12 2 -13 2q-8 0 -8 -12v-5q2 -55 7 -101q9 -63 15 -86q2 -8 2 -11q0 -15 -17 -24q-6 -3 -12 -3q-16 0 -27 12q-13 15 -19 38q-11 36 -26 131q-12 86 -17 128q-2 16 -13 90.5t-13 115.5q-2 50 -2 76q0 77 7 144
q2 31 34 81q5 11 17 12q3 0 8 0.5t7 0.5q40 0 68 -20q9 -7 11 -14q13 -36 13 -66q0 -8 -2 -22q-13 -72 -20 -118q-12 -76 -14 -114z" />
    <glyph glyph-name="l" unicode="l" horiz-adv-x="389" 
d="M272 502q0 -155 -61 -288q-36 -80 -81 -123q-9 -7 -9 -18q0 -1 0.5 -3.5t0.5 -3.5q14 -78 22 -99q2 -3 4 -8.5t4 -8.5q3 -9 13 -9q1 0 2 0.5t2 0.5q18 6 33 12q23 10 41 10q12 0 23 -4q22 -8 22 -30v-2q0 -9 -6 -16t-13 -7q-3 0 -5 1q-9 3 -16 3q-20 0 -45 -23
q-76 -67 -81 -73q-4 -4 -14 -12q-11 -8 -19 -8q-10 0 -22 9t-12 24q0 8 3 15q14 30 36 49q7 6 7 11t-4 9q-30 41 -51 121q-32 116 -41 189q-4 32 -4 71q0 20 2 62q3 60 26 160q20 78 64 143q15 23 54 40q12 5 22 5q23 0 43.5 -15t29.5 -37q30 -82 30 -142v-5zM177 584
q-59 -162 -59 -355q0 -40 1 -60q23 30 41 69q49 111 49 208q0 56 -16 110q-4 17 -16 28z" />
    <glyph glyph-name="m" unicode="m" horiz-adv-x="769" 
d="M550 398q-26 -37 -54 -88q-48 -87 -89 -223q-12 -39 -34 -117q-7 -21 -17 -37q-20 -27 -47 -27q-25 0 -44 24q-44 52 -56 107q-2 7 -5 9q-3 0 -4.5 -2t-2 -5.5t-1.5 -4.5q-24 -76 -41 -143q-10 -39 -36 -40h-4q-28 0 -43 34q-16 36 -27 102q-9 48 -22 122
q-18 110 -18 185v24q0 24 -2 36q-1 4 -1 14q0 12 7 49q3 17 15 26q24 19 30 23q14 9 27 9q18 0 39 -19q28 -26 28 -75v-14q0 -13 -1.5 -40t-1.5 -40v-11q0 -46 -9 -113q-3 -22 -8 -103l4 -16q27 74 38 122q7 33 32 38q14 2 20 2q26 0 40 -19q9 -11 31 -68q8 -21 22 -94
q3 -10 7 -26q2 5 25 69q60 182 148 343q15 29 36 61q22 31 53 31q21 0 39 -15q12 -10 21 -31q19 -43 20 -89q3 -108 3 -109q0 -32 -1 -48q-2 -28 -7 -79t-7 -70q-3 -33 -3 -66q0 -19 2 -57q0 -9 6 -25q3 -8 3 -15q0 -16 -13 -24q-9 -6 -21 -6q-15 0 -25 10q-12 11 -22 41
q-5 18 -9 51t-7 46q-5 26 -9 75.5t-8 72.5q-2 14 -2 23q0 14 3 28q1 4 1 11v5q-2 12 -2 36q0 17 2.5 52.5t2.5 53.5q0 16 -1 24z" />
    <glyph glyph-name="n" unicode="n" horiz-adv-x="526" 
d="M137 382q8 8 27.5 26t33 30t27.5 21q38 27 77 38q10 2 15 2q25 0 51.5 -16.5t34.5 -34.5q20 -47 20 -88v-6q0 -16 1.5 -48t1.5 -48q0 -21 -4 -61q-1 -16 -4.5 -44.5t-5.5 -51.5t-2 -44q0 -8 -1 -22.5t-1.5 -26.5t-0.5 -22q0 -42 10 -81q2 -10 2 -14q0 -14 -12 -22
q-9 -6 -18 -6q-11 0 -23 9q-14 10 -21 30q-15 48 -19 135q0 14 -2.5 42t-3.5 42q-3 70 -3 138v47q0 49 -9 78q-7 19 -14 19q-4 0 -16 -5q-34 -15 -83 -57q-11 -10 -30 -30t-28 -28q-26 -26 -29 -68q-10 -115 -10 -140v-17q2 -76 14 -126q3 -13 10 -21q14 -16 14 -25
q0 -8 -9 -17q-9 -10 -25 -10q-15 0 -24 8q-17 13 -27 38q-15 36 -26 100q-12 73 -21 147l-3 84v17q0 66 10 148q1 13 7 34q6 27 41 34q12 3 37 3q14 0 22 -12q20 -35 20 -63q0 -10 -1 -15z" />
    <glyph glyph-name="o" unicode="o" 
d="M39 98q0 5 0.5 33.5t3 48t8.5 38.5q0 1 4.5 20.5t10.5 28.5q3 5 3 8q0 7 -9 12q-14 6 -25 18q-28 29 -28 65q0 18 10 43q20 48 65 68q34 15 75 15t81 -15q67 -26 107 -78q8 -10 13 -10q4 0 12 11q4 6 11 17.5t9 14.5q9 12 10 13q10 12 16 12q3 0 5 -1q8 -4 8 -18v-5
q-1 -31 -27 -64q-8 -10 -13 -14q-6 -6 -6 -13q0 -4 3 -10q10 -21 20 -63q12 -45 12 -89q0 -79 -38 -158q-41 -81 -90 -132q-38 -41 -92 -41q-26 0 -50 12q-43 20 -73 78q-17 32 -24 62.5t-12 92.5zM152 31q0 -21 1 -30q6 -47 27 -68q16 -16 29 -16q11 0 27 11q22 15 54 58
q70 104 70 208q0 25 -2 38q-4 33 -17 66q-6 15 -12 15q-4 0 -14 -5q-36 -18 -89 -30q-19 -6 -20 -6q-3 -2 -3 -6q0 -1 1 -5t1 -6v-2q0 -8 -2 -12q-7 -17 -16.5 -49.5t-13.5 -44.5q-15 -46 -21 -116zM176 319q64 7 116 30q11 5 11 9q0 3 -8 13q-55 63 -136 63q-2 0 -8 -0.5
t-9 -0.5q-44 -3 -68 -40q-7 -11 -7 -25t8 -24q21 -23 45 -23h15q11 0 41 -2z" />
    <glyph glyph-name="p" unicode="p" horiz-adv-x="583" 
d="M146 436q51 17 61 20q33 9 66 9q40 0 79 -15q46 -20 79 -65q31 -48 39 -82q6 -31 6 -62q0 -71 -32 -140q-34 -70 -77 -121q-60 -72 -149 -107q-15 -6 -30 -6q-6 0 -16 2q-18 3 -29 15.5t-11 27.5v4q2 27 23 27q6 0 16 -5q7 -4 15 -4t17 6q33 21 56 53q39 60 59 96
q21 38 37 97q7 25 7 54q0 32 -8 57q-23 79 -105 79h-6q-46 -2 -88 -16q-14 -5 -17 -22q-4 -16 -14 -126q-10 -100 -18 -201q-4 -66 -4 -99q0 -37 4 -68q7 -63 23 -103q6 -16 20 -16q21 -1 21 -22v-5q-2 -14 -13.5 -23.5t-25.5 -9.5q-3 0 -11 2q-21 6 -35 27q-18 27 -27 59
q-29 94 -41 186q-12 94 -13 141q0 18 -0.5 54t-0.5 55q0 27 2 81v9q0 9 -0.5 28t-0.5 28q0 25 4 45q1 6 4 37t11 46q16 32 57 32h5q26 -3 40 -17.5t21 -41.5z" />
    <glyph glyph-name="q" unicode="q" horiz-adv-x="528" 
d="M318 82q-31 -60 -55 -95q-38 -55 -58 -74q-32 -32 -72 -32q-34 0 -62 25q-33 29 -49 73q-14 41 -17 78q-3 35 -3 70q0 64 12 115q22 98 52 153q23 43 54 70q25 22 64 22q56 0 84 -36q37 -47 50 -135q2 -20 2 -30t-1 -14q-5 -20 -22 -20q-7 0 -17 8q-8 7 -18.5 23
t-13.5 20q-13 18 -26 31q-10 8 -13 8q-6 0 -13 -13q-2 -2 -3 -5t-2.5 -6.5t-2.5 -5.5q-36 -73 -56 -193q-8 -40 -8 -75q0 -33 8 -58q1 -2 2.5 -7t2.5 -7q5 -11 13 -11q4 0 10 3q15 7 32 26q75 91 104 166q6 15 21 45.5t21 45.5q9 23 35 23q14 0 27 -10.5t16 -24.5
q5 -19 5 -46v-13q-2 -19 -3.5 -40.5t-3 -48t-2.5 -40.5q-1 -13 -5 -56.5t-5 -67.5q-5 -72 -5 -129q0 -41 1 -61q0 -12 4 -38q3 -14 12 -19q12 -6 12 -18q0 -5 -1 -7q-4 -17 -22 -22q-8 -2 -11 -2q-25 0 -36 28q-7 19 -12 41q-4 14 -7.5 40.5t-5.5 35.5q-2 13 -4.5 16.5
t-11.5 3.5h-8q-133 -9 -178 -18q-8 -1 -20 -8q-7 -3 -12 -3q-9 0 -17 8q-7 7 -7 17q0 7 4 14q11 16 30 21q65 19 106 19h92q12 0 15.5 2.5t3.5 11.5v5q-4 47 -4 106q0 17 0.5 52t0.5 53q0 1 -0.5 2t-1 3t-1.5 5z" />
    <glyph glyph-name="r" unicode="r" horiz-adv-x="580" 
d="M127 378q11 8 25 26t17 21q7 7 21 23t22 24q22 24 55 24t58 -25q7 -7 14 -15.5t15 -19t13 -16.5q38 -46 78 -46h2q1 0 3.5 -0.5t3.5 -0.5q18 -4 23 -18q1 -2 1 -6q0 -10 -13 -23q-13 -12 -35 -12q-9 0 -14 1q-46 7 -91 40q-43 30 -64 52q-7 8 -13 8t-13 -7
q-69 -65 -111 -131q-8 -13 -8 -27q0 -27 -4.5 -84.5t-4.5 -87.5v-9q0 -62 9 -124q3 -18 16 -25q16 -9 16 -24q0 -17 -15 -27q-12 -9 -25 -9q-16 0 -29 12q-21 18 -32 62q-24 91 -38 220q-8 74 -8 113q0 4 0.5 12.5t0.5 12.5q4 50 4 76q0 4 -0.5 11t-0.5 11v10q0 47 53 69
q8 4 17 4q13 0 26 -13q9 -9 23 -27q7 -8 7 -20q0 -6 -1 -9q0 -2 -1.5 -5t-2 -6.5t-0.5 -7.5t1 -7z" />
    <glyph glyph-name="s" unicode="s" horiz-adv-x="520" 
d="M352 273q-1 -7 -7.5 -13.5t-14.5 -7.5h-3q-8 0 -16 14q-5 7 -7 24q-10 53 -41 81q-10 9 -16 9q-7 0 -18 -10q-16 -13 -40 -45q-42 -56 -49 -74q-11 -27 -11 -37q0 -17 35 -40q21 -13 98 -39q60 -21 98 -47q47 -33 47 -88q0 -26 -11 -47q-39 -78 -128 -108q-11 -5 -28 -5
h-9q-21 2 -35 18t-14 37v7q2 8 6 15q8 14 18 14t18 -14l4 -9q3 -8 8 -10h4q4 0 22 10q47 33 63 69q5 13 5 21q0 20 -21 33q-16 11 -47 21q-17 5 -51 14.5t-51 14.5q-54 15 -80 34q-73 50 -73 130q0 9 2 27q15 109 112 193q28 26 77 43q1 0 5 1.5t6 1.5q62 -4 86 -26
q27 -23 40 -65q15 -56 17 -123v-24z" />
    <glyph glyph-name="t" unicode="t" horiz-adv-x="425" 
d="M208 195q-2 -52 -2 -78q0 -60 6 -118q6 -63 30 -120q6 -14 12 -14q3 0 12 3q4 1 9 1q13 0 16 -17v-6q0 -20 -18 -35q-9 -8 -22 -8q-10 0 -18 4q-13 6 -35 34q-23 36 -39 96q-30 97 -38 151q-15 102 -19 184q-3 63 -5 73q-4 17 -10 17q-1 0 -13 -2q-4 -1 -11.5 -3
t-11.5 -3l-12 -3h-5q-22 0 -29 15q-2 4 -2 8q0 19 16 29q21 12 39 16q17 5 20 6q17 5 17 19v13q0 9 0.5 26.5t0.5 27.5v11q0 4 -0.5 11t-0.5 11q0 22 7 97q3 29 30 58q10 10 18 10h2q46 -5 51 -7q24 -6 31 -38q4 -19 4 -40q0 -32 -9 -79q-2 -9 -4 -49q0 -6 -1.5 -18
t-2.5 -19v-5q0 -7 3 -9.5t12 -2.5q11 -1 33 -1q19 0 35 -6q19 -6 19 -26v-3q-3 -18 -24 -18h-5q-6 1 -17 1q-13 0 -37 -2q-17 -1 -20.5 -3.5t-5.5 -19.5q-4 -19 -6 -96v-73z" />
    <glyph glyph-name="u" unicode="u" horiz-adv-x="561" 
d="M341 132q-5 -1 -8 -4t-5 -8t-3 -6q-49 -91 -106 -167q-27 -34 -47 -49q-26 -19 -51 -19q-39 0 -66 42q-28 45 -43 126q-10 59 -10 142q0 48 1 72q0 61 10 117q1 5 3.5 14.5t3.5 14.5q5 22 22 34.5t39 12.5q16 0 31 -6q12 -4 21.5 -23t9.5 -36v-5q-2 -16 -6.5 -46.5
t-6.5 -44.5q-1 -16 -6.5 -47.5t-7.5 -48.5q-1 -11 -4.5 -33t-4.5 -32q-5 -75 -5 -92q0 -37 7 -69q0 -2 1.5 -9t2.5 -10t4 -7t8 -6q3 -1 7 -1q8 0 25 17q29 29 75 97q49 72 91 156q10 22 10 38q-1 21 -1 64q0 31 1 47q5 59 9 74q6 21 23.5 34.5t39.5 13.5h2q12 0 25 -10
q27 -22 27 -64v-12q-2 -34 -14 -102q-9 -59 -15 -117q-9 -70 -9 -93q2 -56 6 -110q0 -13 10 -26q8 -11 8 -21q0 -11 -13 -22q-10 -8 -20 -8q-15 0 -26 14q-9 12 -15 34t-24 141q-4 32 -6 49z" />
    <glyph glyph-name="v" unicode="v" horiz-adv-x="596" 
d="M131 333q3 -90 19 -197q16 -99 63 -180q9 -16 26 -31q13 -13 26 -13q11 0 24 10q25 19 43 49q78 122 103 260q6 31 6 64q0 51 -17 93q-15 40 -45 68q-8 8 -23 11q-22 6 -22 25v4q2 11 11 18t21 7q18 0 39 -15q90 -68 90 -170v-7q0 -100 -40 -217q-42 -118 -83 -179
q-38 -59 -81 -77q-15 -7 -32 -7q-11 0 -23 3q-39 10 -63 34q-56 58 -85 118q-40 81 -59 161q-28 136 -28 191v9q0 49 16 75q19 28 49 28q20 0 37 -14q22 -17 28 -67q1 -6 1 -18q0 -6 -0.5 -18t-0.5 -18z" />
    <glyph glyph-name="w" unicode="w" horiz-adv-x="806" 
d="M223 108q-5 -2 -7 -14q-23 -81 -34 -149q-3 -17 -9 -32q-13 -34 -39 -36h-6q-31 0 -47 25q-25 41 -41 95q-23 74 -32 187q-5 47 -5 86q0 43 7 81v25q0 23 9 44q20 54 76 54h4q39 0 48 -26q8 -26 8 -40q0 -11 -2 -16q-5 -16 -8 -33.5t-4.5 -41t-3.5 -34.5q-8 -70 -8 -131
q0 -50 5 -110q2 -20 4 -31q2 4 5 12.5t4 12.5q26 87 50 150q4 11 10 32t10 31q13 28 40 31h17q31 0 43.5 -10.5t19.5 -42.5q5 -21 11 -60t9 -56q12 -58 29 -99q20 -47 52 -80q27 -28 55 -28t55 25q38 35 67 105q33 84 33 173q0 13 -2 41q-8 111 -91 171q-24 18 -40 18
q-1 0 -3.5 -0.5t-3.5 -0.5h-3q-10 0 -16.5 6.5t-6.5 16.5q0 7 3 13q10 25 40 25q7 0 11 -1q34 -7 67 -32q78 -55 93 -165q5 -30 5 -73q0 -62 -14 -129q-27 -122 -89 -195q-54 -63 -122 -63q-48 0 -96 33q-49 34 -76 76q-3 4 -13.5 17t-14.5 21q-28 50 -31 61
q-3 10 -10.5 30.5t-11.5 30.5z" />
    <glyph glyph-name="x" unicode="x" horiz-adv-x="580" 
d="M220 201q50 76 67 99q44 64 120 163q8 11 22 18q8 4 16 4q14 0 26 -14q7 -9 7 -17q0 -9 -8 -20q-8 -10 -23.5 -28.5t-22.5 -27.5q-77 -89 -166 -220q-8 -11 -8 -20q0 -7 5 -17q49 -94 85 -129q44 -44 69 -56q11 -7 20 -7q5 0 11 3q4 2 7 3q2 0 5.5 0.5t4.5 0.5q9 0 14 -6
q4 -5 4 -13q0 -4 -2 -12q-4 -16 -19.5 -26t-33.5 -10h-7q-25 3 -47 15q-46 24 -99 72q-70 65 -85 80q-18 -27 -23 -35q-7 -13 -20.5 -37t-23.5 -44t-16 -39q-1 -5 -6 -10q-5 -8 -14 -8q-4 0 -7 1q-10 3 -13 15v5q0 9 4 23q15 38 53 110q2 4 10.5 19.5t13.5 23.5q4 7 4 15
q0 12 -7 20q-18 23 -36 56q-59 105 -90 244q-2 7 -2 20q0 28 17.5 47t48.5 24h6q29 0 49 -29q20 -30 36 -94q23 -97 54 -162z" />
    <glyph glyph-name="y" unicode="y" horiz-adv-x="566" 
d="M368 234q-18 -41 -48 -113q-38 -91 -76 -151q-27 -46 -59 -66q-23 -14 -46 -14q-38 0 -66 33q-32 37 -48 104q-18 69 -23 164v24q0 24 2 66.5t2 55.5q1 14 15 69q4 10 21 25q19 17 52 20q1 0 3.5 0.5t3.5 0.5q19 0 30 -20q2 -4 13 -20q13 -18 13 -37q0 -4 -2 -14
q-10 -47 -13 -52q-3 -6 -4 -18.5t-2 -16.5q-21 -90 -24 -146q0 -7 -1 -19t-1.5 -21.5t-0.5 -18.5q0 -44 11 -81q0 -1 1.5 -6t2 -6.5l2 -6t3 -6t4 -4.5t5 -4t6.5 -2q2 -1 6 -1q11 0 30 19q34 36 72 107q63 121 105 247q6 16 12 50q0 1 0.5 5t1 5.5l1.5 4.5t2 4.5t3 3.5t4.5 3
t5.5 1q5 1 14 1q23 0 33 -18q8 -14 10 -32q2 -19 8.5 -65.5t8.5 -71.5q5 -80 5 -144q-2 -145 -27 -247q-17 -68 -51 -110q-29 -38 -81 -49q-4 -1 -12 -1q-49 0 -69 45q-5 12 -5 20t3 16q6 15 19 15q9 0 16 -6q3 -2 7.5 -7.5t6.5 -7.5q9 -11 18 -11q8 0 17 9q13 13 19 29
q25 58 35 129q14 114 14 194v15q0 22 -2 63.5t-2 54.5q0 1 -0.5 2t-1.5 3.5t-2 5.5z" />
    <glyph glyph-name="z" unicode="z" horiz-adv-x="516" 
d="M299 -143q-6 0 -17.5 -0.5t-17.5 -0.5q-67 0 -119 16q-37 11 -65 37q-31 30 -31 76q0 20 8 41q19 43 52 78q2 2 134 140q48 49 71 88q11 21 16 36v2l1 2q0 7 -9 7h-2l-9 -3q-73 -27 -82 -31q-13 -6 -42 -15.5t-44 -16.5q-53 -25 -63 -31q-15 -8 -31 -8q-19 0 -33 15
q-12 12 -12 40q0 13 4 20q25 45 57 61q56 32 85 45q53 25 132 34q8 1 25 1q41 0 71 -17q32 -19 35 -59v-9q0 -41 -35 -94q-39 -57 -145 -167q-60 -64 -86 -100q-13 -18 -17 -31q-3 -9 -3 -14q0 -10 14 -20q23 -16 61 -23q73 -15 116 -15q22 0 43 3h17q29 -3 34 -26
q1 -2 1 -8q0 -21 -19 -32q-17 -12 -37 -15q-4 -1 -58 -6z" />
    <glyph glyph-name="braceleft" unicode="{" horiz-adv-x="419" 
d="M187 513q0 -59 -5 -100q-13 -117 -94 -175q-10 -7 -10 -11q0 -3 7 -10q23 -30 30 -83q5 -30 9 -122q4 -58 12 -96q11 -55 60 -55q16 0 36 6q3 1 9 4.5t8 4.5q10 4 14 4q8 0 14 -7q5 -5 5 -12q0 -8 -8 -18q-17 -20 -41 -26q-23 -6 -45 -6q-33 0 -60 15q-32 19 -46 63
q-14 41 -20 114q-2 40 -4 120q-1 13 -5 39q-7 33 -32 44q-16 6 -16 22q0 10 6 19q9 11 15 15q49 41 52 121q3 47 3 140v70q2 61 22 115q13 36 46 59t71 25h9q30 0 50 -12q26 -15 36 -48q2 -6 2 -9q0 -10 -12 -19q-5 -4 -10 -4q-7 0 -17 10l-10 10q-10 7 -18 7q-7 0 -17 -5
q-36 -18 -41 -67q-5 -52 -5 -94v-48z" />
    <glyph glyph-name="bar" unicode="|" horiz-adv-x="207" 
d="M16 110q-9 240 -10 309q-4 136 -5 204v19q0 29 4 87q2 28 14 40t36 14h2q16 0 30.5 -15.5t17.5 -35.5q1 -13 1 -40v-12q0 -17 -8 -148q-1 -15 -1.5 -32.5t-1 -38.5t-0.5 -32q-8 -154 -11 -231q-1 -27 -1 -82q-2 -87 -4 -261v-3q-2 -30 -22 -32h-1q-10 0 -19.5 9t-11.5 20
q-3 15 -5 47q-2 72 -6 214h2z" />
    <glyph glyph-name="braceright" unicode="}" horiz-adv-x="419" 
d="M132 90q0 59 5 100q13 116 94 175q10 7 10 10q0 4 -6 11q-24 30 -31 83q-5 30 -9 122q-3 56 -11 96q-12 55 -61 55q-17 0 -36 -6q-3 -1 -9 -4.5t-8 -4.5q-8 -4 -14 -4q-7 0 -14 7q-4 5 -4 12q0 10 7 18q17 20 41 26q23 6 46 6q33 0 59 -15q31 -19 47 -63q16 -48 19 -114
q1 -20 2.5 -60t2.5 -60q0 -13 4 -39q7 -33 32 -44q16 -7 16 -23q0 -9 -6 -18q-9 -11 -15 -15q-49 -41 -52 -121q-3 -47 -3 -140v-70q-1 -59 -21 -115q-13 -36 -46.5 -59t-71.5 -25h-9q-30 0 -50 12q-27 15 -36 48q-2 6 -2 9q0 11 13 19q4 4 10 4q7 0 17 -10q2 -2 5 -5.5
t4 -4.5q11 -7 18 -7t17 5q36 18 41 67q6 60 6 88q0 4 -0.5 12.5t-0.5 12.5v29z" />
    <glyph glyph-name="asciitilde" unicode="~" horiz-adv-x="597" 
d="M338 94q-30 0 -57 19q-11 8 -32.5 24.5t-31.5 23.5q-2 2 -6 5t-7.5 5.5t-7.5 4.5q-11 7 -21 7q-12 0 -26 -13q-25 -22 -35 -51q-6 -18 -22.5 -29t-34.5 -11q-5 0 -13 2q-13 3 -25.5 21.5t-12.5 33.5q0 5 1 7l4.5 13.5t5.5 15l6 13.5t7.5 14t9 11t12.5 11q50 32 81 37
q14 2 20 2q37 0 72 -27q30 -23 71 -62q22 -21 47 -21q16 0 34 9q50 28 70 58q6 8 9 11q8 10 18 10q3 0 9 -2q11 -5 11 -20q0 -5 -1 -8q-6 -20 -12 -28q-39 -55 -115 -83q-6 -2 -9 -2q-6 -1 -19 -1z" />
    <glyph glyph-name="exclamdown" unicode="&#xa1;" horiz-adv-x="231" 
d="M5 -547q3 20 7.5 69t8.5 75q5 32 5 98q0 14 0.5 41.5t0.5 41.5q0 24 -5 131q0 11 -2 33l-3 33q0 24 19 29q3 1 10 1q17 0 28 -14q7 -9 10 -23q6 -26 8 -39q15 -91 22 -220q1 -28 6.5 -90.5t6.5 -95.5l3 -96v-4q0 -12 -8 -40q-8 -24 -36 -29q-5 0 -15 -1.5t-16 -2.5
q-11 0 -23 10q-23 21 -27 73v20zM1 153q0 15 12.5 31t28.5 20q8 2 12 2q19 0 32.5 -15.5t13.5 -36.5v-5q-2 -10 -4 -16q-12 -40 -41 -40q-15 0 -33 12q-21 13 -21 44v4z" />
    <glyph glyph-name="cent" unicode="&#xa2;" horiz-adv-x="478" 
d="M2 22q1 101 30 185q26 72 32 84q44 86 98 120q13 8 19 10q26 6 29 40q1 17 7 49q2 18 10 34q10 17 24 17q5 0 8 -1q19 -6 19 -25v-6q-3 -21 -11 -63q-1 -3 -1.5 -9.5t-0.5 -9.5q0 -1 -0.5 -3t-0.5 -3q0 -13 14 -21q39 -22 52 -83q1 -2 1 -7q0 -4 -1 -7q-3 -14 -21 -20
q-2 -1 -6 -1q-7 0 -15 12q-3 3 -7.5 11t-8.5 12q-8 6 -10 6h-2q-5 -1 -5 -9v-4q-5 -95 -5 -115q1 -71 1 -214q1 -7 2 -22t2 -23q1 -9 7 -9q1 0 7 2q31 14 66 45q11 11 19 14q6 2 8 2q14 0 16 -18q0 -16 -16 -34q-27 -29 -81 -59q-20 -10 -20 -20q0 -2 2 -16q5 -36 16 -57
q4 -8 4 -11q0 -6 -6 -12t-14 -6q-6 0 -14 5q-11 7 -19 26t-13 48q-3 12 -11 12q-4 0 -7 -1q-25 -7 -51 -12q-6 -1 -18 -1q-52 0 -90 49t-38 111v8zM200 317q-25 -22 -38 -48q-35 -69 -51 -116q-19 -59 -25 -124q0 -3 -0.5 -8t-0.5 -8q0 -32 11 -63q8 -20 19.5 -28.5
t33.5 -8.5q21 1 42 6q16 5 16 20v4q-5 55 -5 99q0 37 -1 110.5t-1 110.5v54z" />
    <glyph glyph-name="sterling" unicode="&#xa3;" horiz-adv-x="552" 
d="M201 -92q-3 0 -7 -0.5t-7 -0.5q-38 0 -99 21q-21 8 -63 26q-19 10 -19 21q0 10 13 20q35 26 37 78q2 40 2 60q0 45 -5 100q-1 9 -2.5 24.5t-2.5 28.5t-1 25q-2 15 -15 20q-24 8 -24 27q0 12 12 26q2 2 5.5 5t5.5 4q11 7 11 20v4q-1 9 -1 28q0 52 15 103q16 57 44 92
q41 49 97 49q23 0 42 -8q53 -20 65 -89q0 -1 0.5 -3.5t0.5 -3.5q0 -14 -13 -18q-3 -1 -8 -1q-12 0 -19 11q-10 16 -18 24q-13 15 -29 15q-13 0 -27 -11q-19 -14 -32 -48q-11 -27 -19 -95v-4l-1 -2q0 -8 8 -8q5 0 9 1q42 10 64 16q12 3 26 3q4 0 11 -0.5t10 -0.5
q18 -2 27 -12q9 -9 9 -20q0 -5 -1 -8q-6 -14 -22 -14h-3q-5 1 -14 1q-23 0 -53 -10q-10 -3 -30 -10.5t-30 -11.5q-15 -5 -15 -20v-4q4 -86 4 -129q0 -36 -1 -54q-3 -57 -14 -103q-9 -38 -31 -73q-7 -11 -7 -15q0 -5 17 -11q43 -15 89 -15q15 0 22 1q51 3 91 20q46 19 77 50
q10 10 10 18q0 3 -2 9q-2 5 -2 12q0 12 11 18q5 4 14 4q14 0 23 -9q14 -16 14 -35q0 -7 -1 -11q-10 -43 -40 -64q-62 -44 -138 -58q-36 -6 -54 -6q-3 0 -8.5 0.5t-7.5 0.5z" />
    <glyph glyph-name="currency" unicode="&#xa4;" horiz-adv-x="452" 
d="M33 373q14 0 26 -16l33 -51q7 -10 12 -10q4 0 11 5q17 12 32 12q4 0 12 -2h5q10 5 24 5q19 0 40 -13q4 -2 6 -2q4 0 12 8q5 7 15.5 19t15.5 19q8 11 19 18t21 7q13 0 24 -14q7 -10 7 -19q0 -12 -13 -24q-35 -32 -41 -39q-10 -11 -10 -22q0 -7 3 -16q6 -18 6 -35
q0 -33 -21 -73q-8 -16 -8 -21t12 -20q30 -36 51 -48l3 -3q14 -11 14 -21q0 -3 -2 -9q-4 -10 -19 -10q-7 0 -15 3q-27 11 -54 36q-1 2 -3 4t-3 4q-18 19 -25 19q-5 0 -27 -10q-18 -8 -35 -8q-12 0 -27 5q-7 3 -13 3q-11 0 -22 -13q-18 -21 -56 -63q-12 -10 -19 -10q-2 0 -8 2
q-12 6 -12 17v5q2 9 12 23q8 12 25 35.5t26 35.5q8 11 8 22q0 8 -2 13q-10 26 -10 53q0 26 7 48q1 3 1 9q0 9 -7 17q-9 11 -26.5 33t-26.5 33q-10 11 -10 26q0 2 0.5 5t0.5 4q3 24 28 24h3zM141 148q0 -14 1 -21q4 -27 26 -27q5 0 17 4q4 2 8 5t8.5 7t7.5 6q31 22 31 61
q0 31 -20 55q-16 16 -19 17h-2q-4 0 -8 -6.5t-7 -7.5q-1 0 -8 -5q-20 -11 -26 -35q-9 -29 -9 -48v-5z" />
    <glyph glyph-name="yen" unicode="&#xa5;" horiz-adv-x="548" 
d="M369 450q-12 -21 -35 -62.5t-34 -62.5q-28 -49 -58 -86q-24 -28 -46 -40q-22 -13 -47 -13q-38 0 -65 31q-39 44 -62 129q-13 48 -17 92q-4 58 -4 88q0 20 2 58q1 10 5 19.5t7 13.5t13 15.5t11 12.5q7 8 22 8t26 -8q31 -25 31 -64q0 -6 -2 -20q-6 -40 -10 -120
q-1 -13 -1 -39q0 -27 3 -54q7 -49 20 -77q12 -25 29 -25q12 0 26 10q25 18 46 47q93 129 137 267q3 11 5.5 31.5t3.5 28.5q5 25 8 32q8 21 29 21h6q23 -2 27 -27q2 -10 2 -15v-6q-7 -53 -9 -210q-4 -142 -14 -213q-21 -147 -100 -243q-33 -38 -66 -52q-11 -4 -22 -4
q-26 0 -40 24q-5 8 -5 17v5q0 14 8 19q2 1 5 1l16 -8q12 -9 18 -9t13 6q52 44 78 120q-5 1 -15 1q-40 0 -65 -18q-5 -4 -11 -4q-4 0 -12 4q-11 5 -11 18v4q3 21 23 27q23 9 53 11q4 1 12 1h27q9 0 13 5q9 14 9 41q0 7 -8 7h-5q-72 -6 -102 -24q-8 -5 -13 -5q-8 0 -16 9
q-7 11 -7 18t6 15q10 11 26 16q32 11 55 12l54 3q14 1 17.5 4t5.5 17q0 8 2 33.5t2 39.5v127z" />
    <glyph glyph-name="brokenbar" unicode="&#xa6;" horiz-adv-x="233" 
d="M9 453q-5 88 -5 158v24q0 5 -2 17t-2 18q0 8 2 15.5t6 17.5t5 14q2 5 18 14q2 1 12.5 7t16.5 8q2 1 7 1q14 0 30.5 -10.5t22.5 -22.5q11 -27 11 -49q0 -16 -5 -38q-26 -133 -26 -249q0 -28 1 -43v-9q0 -12 -5 -21q-11 -19 -28 -19q-7 0 -17 5q-22 12 -28 37
q-11 55 -12 62q-2 21 -2 63zM32 -46q-2 22 -2 34q0 14 1.5 42t1.5 42v108q0 14 5 27q7 18 25 18h3q19 -3 22 -21q6 -44 7 -66q4 -62 14 -140q6 -64 10 -91v-6q0 -15 -6 -28q-7 -16 -26 -19q-3 -1 -10 -1q-15 0 -26.5 10t-15.5 26q-4 13 -4 32q1 11 1 33z" />
    <glyph glyph-name="section" unicode="&#xa7;" 
d="M270 274q-29 -1 -78.5 -9t-60.5 -9q-34 -4 -50 -4q-3 0 -8 0.5t-7 0.5q-47 7 -59 55q-4 12 -4 27q0 21 8 42q17 52 45 82q58 63 110 88q45 21 89 25q1 0 5 0.5t5 0.5q32 0 61.5 -19.5t46.5 -49.5q6 -11 11.5 -25t7 -20t6 -28t4.5 -23t0.5 -2.5t0.5 -2.5q0 -14 -21 -23
q-6 -2 -7 -2q-8 0 -18 14q-3 5 -9 16t-9 16q-24 39 -58 39q-13 0 -30 -6q-30 -11 -84 -50q-10 -7 -27 -24.5t-27 -24.5q-4 -3 -10 -11q-10 -15 -10 -18q0 -2 1 -4q1 -6 8 -6q2 0 6.5 1t6.5 1q8 -1 23 -1q13 0 37 2t31 2q28 2 41 2q38 0 81 -8q27 -6 47.5 -27.5t25.5 -48.5
q1 -4 1 -11q0 -26 -22 -51q-7 -6 -17 -9q-1 0 -2 -0.5t-2 -0.5q-8 0 -15 7q-5 5 -5 11q0 3 2 9q2 4 6 10q7 11 7 24q0 31 -34 40q-13 4 -31 4q-13 0 -19 -1zM430 0q0 -39 -33 -91q-54 -89 -134 -124q-31 -13 -55 -13q-36 0 -67 24q-44 34 -44 88q0 15 3 30q15 75 72 147
q9 11 29 24q9 6 20 6h4q17 -4 19 -16q1 -2 1 -5q0 -8 -10 -15q-23 -16 -40 -42t-24 -45t-18 -56q-2 -10 -2 -16q0 -16 8 -30q13 -25 36 -25q4 0 12 2q11 3 20 9q91 61 117 148q5 20 5 34q0 34 -20.5 59t-57.5 35t-79 13q-60 2 -89 12t-39 37q-2 5 -2 14q0 13 8 26
q9 14 23 14q4 0 10 -2q18 -7 18 -24v-3q0 -13 12 -16q10 -2 28 -4q96 -7 131 -13q64 -13 100.5 -60t37.5 -122z" />
    <glyph glyph-name="dieresis" unicode="&#xa8;" horiz-adv-x="372" 
d="M1 804q0 21 3 32q6 28 27 32q12 2 18 2q20 0 34 -15q17 -20 17 -50q0 -45 -29 -66q-12 -9 -26 -9q-28 0 -39 30q-5 14 -5 34v10zM163 804q0 21 3 32q6 28 27 32q12 2 18 2q20 0 34 -15q17 -20 17 -50q0 -45 -29 -66q-12 -9 -26 -9q-28 0 -39 30q-5 14 -5 34v10z" />
    <glyph glyph-name="copyright" unicode="&#xa9;" horiz-adv-x="627" 
d="M525 207q-5 -191 -142 -303q-75 -61 -161 -65h-13q-77 0 -131 59q-59 62 -69 144q-8 53 -8 60v5q2 102 26 176q30 90 56 131q18 27 49 58q18 18 43 18q6 0 16 -2q5 -1 14 -1t14 1q28 7 74 7h26q51 -3 103 -44q79 -67 99 -187q5 -37 5 -44q0 -2 -0.5 -6.5t-0.5 -6.5z
M473 188q0 85 -32 143q-59 101 -165 101q-3 0 -9 -0.5t-9 -0.5q-17 0 -24 -14l-14 -28q-32 -36 -80 -137q-32 -64 -42 -149q-2 -13 -2 -37q0 -68 34 -116q33 -49 92 -49q15 0 30 3q112 28 177 132q42 68 44 136v16zM170 119q9 117 66 182q20 21 42 24h5q23 0 31 -23
q4 -11 4 -19q0 -12 -18 -22q-16 -8 -29 -30q-29 -47 -39 -100q-1 -1 -1.5 -3.5t-0.5 -3.5q-1 -6 -1 -17q0 -42 34 -42q10 0 27 5q39 14 63 35q13 12 24 12q7 0 13 -6q5 -7 5 -14q0 -14 -10 -24q-42 -44 -110 -59q-7 -2 -20 -2q-23 0 -42 11q-34 20 -43 70v26z" />
    <glyph glyph-name="ordfeminine" unicode="&#xaa;" horiz-adv-x="456" 
d="M264 703q6 6 11 33q6 25 39 29h4q18 0 31 -23q7 -13 7 -29q0 -72 -5 -162q-3 -43 -3 -88q0 -31 1 -46q1 -6 1 -19q0 -23 -23 -31q-8 -2 -11 -2q-11 0 -23 16t-16 65q-4 36 -8 106q0 6 -3 8h-1q-3 0 -7 -9q-38 -70 -63 -102q-22 -27 -53 -42q-21 -11 -43 -11q-52 0 -80 54
q-17 34 -17 75q0 17 3 37q12 77 51 146q32 52 94 66q12 2 16 2q38 0 73 -39q6 -7 25 -34zM95 505q0 -29 9 -33q6 -2 9 -2q10 0 20 7q20 14 35 34q37 49 58 92q14 28 14 32q0 1 -0.5 2.5t-1 2.5t-1.5 2t-3 2.5t-3.5 2.5l-4.5 3t-5 3.5t-6.5 4t-7.5 4.5q-12 8 -23 8
q-16 0 -29 -19q-20 -28 -46 -90q-11 -30 -14 -56z" />
    <glyph glyph-name="guillemotleft" unicode="&#xab;" horiz-adv-x="874" 
d="M159 119q10 -11 28 -17q104 -43 150 -46h13q22 0 35 7q10 5 17 5q9 0 15 -8q5 -7 5 -14q0 -8 -8 -19q-12 -16 -39 -21q-19 -4 -43 -4q-36 0 -81 10q-81 15 -160 76q-31 23 -53 30q-15 3 -26 16q-9 10 -9 22q0 7 2 10q9 18 28 18h5q19 -4 27 -10q8 -5 19 -5q5 0 17 2
q29 9 75 32q22 11 43.5 24.5t51 34t40.5 27.5q7 5 24 18.5t27 19.5q15 10 29 10q12 0 22 -7q19 -13 19 -36q0 -18 -13 -32q-6 -7 -44 -35q-88 -60 -150 -83q-5 -2 -66 -25zM494 119q10 -11 28 -17q104 -43 150 -46h13q22 0 35 7q10 5 17 5q9 0 15 -8q5 -7 5 -14q0 -8 -8 -19
q-12 -16 -39 -21q-19 -4 -43 -4q-36 0 -81 10q-81 15 -160 76q-31 24 -53 30q-15 3 -26 16q-9 10 -9 22q0 7 2 10q9 18 28 18h5q19 -4 27 -10q8 -5 19 -5q5 0 17 2q29 9 75 32q22 11 43.5 24.5t51 34t40.5 27.5q7 5 24 18.5t27 19.5q15 10 29 10q12 0 22 -7q19 -13 19 -36
q0 -18 -13 -32q-6 -7 -44 -35q-88 -60 -150 -83q-5 -2 -66 -25z" />
    <glyph glyph-name="logicalnot" unicode="&#xac;" horiz-adv-x="560" 
d="M304 331q34 0 75 -12q71 -21 78 -98q1 -7 1 -21q0 -32 -10 -70q-11 -46 -11 -74v-7q1 -1 1 -5q0 -3 -1 -5q-5 -23 -23 -27q-2 -1 -7 -1q-15 0 -26 14q-9 12 -11 30q-14 96 -14 145q0 26 -7.5 34.5t-33.5 14.5q-17 4 -38 4q-19 0 -39 -3q-51 -6 -180 -36q-3 0 -10.5 -2
t-12.5 -2h-6q-15 0 -22 15q-3 6 -3 11q0 9 10 19q10 12 27 18q82 37 194 52q40 7 51 7q2 0 5.5 -0.5t5.5 -0.5h7z" />
    <glyph glyph-name="registered" unicode="&#xae;" horiz-adv-x="537" 
d="M219 801q49 0 83 -15q88 -40 111 -134q9 -36 9 -70q0 -94 -67 -190q-53 -73 -136 -92q-22 -5 -38 -5q-48 0 -90 33q-70 57 -85 165q-4 20 -4 46q0 21 6 63q9 61 38 113q44 83 126 86h47zM87 505q0 -51 20 -91q28 -57 81 -57q9 0 13 1q38 8 62 27q46 33 73 88
q26 52 26 105q0 28 -7 55q-11 34 -32 56q-46 49 -135 54h-2q-12 0 -14 -15q-2 -25 -12 -40q-28 -39 -51 -90q-22 -49 -22 -93zM194 479q-1 -5 -1 -14q0 -22 10 -47q6 -14 6 -22q0 -9 -11 -15q-6 -3 -13 -3q-14 0 -26 15q-7 9 -10 21q-17 54 -17 107q0 26 5 58q12 60 71 85
q15 6 30 6q9 0 14 -1q16 -2 26.5 -14t10.5 -29q0 -1 -0.5 -3.5t-0.5 -3.5q-3 -23 -14 -39q-17 -23 -35 -53q-3 -5 -3 -9q0 -5 11 -7q1 0 3 -0.5t3 -0.5q3 0 21 5q1 0 3 0.5t4 0.5q11 0 15 -10q2 -6 2 -8q0 -7 -7 -16q-15 -12 -37 -14h-9q-24 0 -51 11zM231 611
q-14 -5 -18 -9.5t-4 -15.5q0 -1 0.5 -5.5t0.5 -7.5q17 26 21 38z" />
    <glyph glyph-name="macron" unicode="&#xaf;" horiz-adv-x="552" 
d="M191 851q112 -4 202 -19q28 -6 39 -15q17 -12 17 -27q0 -3 -2 -9q-7 -16 -26 -16q-6 0 -9 1q-66 9 -131 9q-119 -3 -214 -25q-12 -2 -16 -2q-19 0 -32 14q-14 14 -14 28t13 27q13 15 34 21q43 13 112 13h27z" />
    <glyph glyph-name="degree" unicode="&#xb0;" horiz-adv-x="331" 
d="M230 801q-11 -84 -76 -122q-22 -12 -46 -12q-30 0 -55 18t-35 49q-14 44 -14 75q0 9 2 25q5 37 22 64q24 38 57 38q20 0 41 -15q9 -7 34 -15q70 -21 70 -102v-3zM172 804q0 22 -6 32q-10 15 -17 15q-1 0 -3 -1q-29 -7 -37 -17q-20 -24 -20 -57q0 -6 2 -20q5 -25 25 -25
q11 0 23 9q33 24 33 64z" />
    <glyph glyph-name="plusminus" unicode="&#xb1;" horiz-adv-x="516" 
d="M351 443q18 0 39 -8q23 -8 23 -29q0 -5 -1 -7q-5 -24 -26 -24q-4 0 -7 1q-15 3 -28 3q-11 0 -86 -13q-17 -4 -17 -15v-3q1 -6 3 -36t7 -46q6 -22 13 -32q7 -11 7 -19q0 -7 -8 -15q-8 -7 -20 -7q-10 0 -19 6q-15 11 -23 29q-14 34 -21 79q-2 17 -5 23t-10 6q-8 0 -23 -4
q-12 -3 -25.5 -7t-30 -9t-25.5 -8q-13 -5 -24 -5h-4q-29 2 -35 22q-3 9 -3 17q0 16 11 27q25 26 54 36q60 21 86 24q16 2 16 16q0 5 0.5 14t0.5 13v6q-1 5 -1 15t1 20.5t2.5 23t2.5 19.5q3 41 40 49q3 1 7 1q6 0 13 -5q26 -19 26 -46v-3q0 -4 -6 -89q-1 -6 -1 -20h97z
M351 136q18 0 39 -8q23 -8 23 -29q0 -5 -1 -7q-5 -24 -26 -24q-4 0 -7 1q-15 3 -28 3q-11 0 -86 -13l-116 -34l-81 -24q-13 -5 -24 -5h-4q-29 2 -35 22q-3 9 -3 17q0 16 11 27q25 26 54 36q60 21 86 24l101 14h97z" />
    <glyph glyph-name="twosuperior" unicode="&#xb2;" horiz-adv-x="344" 
d="M148 369q-5 1 -19 2t-21.5 2t-19 5t-20.5 10q-36 25 -36 63q0 10 3 20q9 32 44 90q5 7 22 31.5t26.5 41t17.5 33.5q9 21 9 23q0 5 -3 8q-4 4 -10 4q-4 0 -11 -2.5t-10 -2.5q-16 -3 -49 -17q-13 -6 -27 -6q-10 0 -21 3q-15 4 -18 20q-2 12 -2 18q0 26 22 40q62 37 111 37
q20 0 41 -6q46 -13 51 -63v-4q0 -29 -18 -69q-18 -38 -47 -78q-38 -52 -58 -89q-9 -17 -9 -25q0 -15 30 -24q28 -7 48 -7q13 0 26 3q1 0 2.5 0.5t2.5 0.5q4 1 11 1q20 0 24 -16q1 -2 1 -7q0 -17 -21 -27q-22 -11 -72 -13z" />
    <glyph glyph-name="threesuperior" unicode="&#xb3;" horiz-adv-x="368" 
d="M148 723q-33 -2 -50 -8q-21 -9 -25 -21q-3 -8 -16 -14t-26 -6q-4 0 -10 2q-7 3 -13.5 17.5t-6.5 27.5v2q3 30 32 47q55 32 111 32q29 0 59 -9q17 -5 27 -14q28 -26 28 -50q0 -20 -16 -49q-7 -13 -49 -62q-11 -13 -22 -28q-6 -10 -6 -16q0 -9 10 -20q9 -10 41 -35
q31 -28 36 -56q1 -5 1 -14q0 -17 -8 -29q-18 -30 -52 -42q-32 -13 -108 -19h-6q-19 0 -38 8q-16 7 -16 21q0 5 1 7q3 17 21 17h9q30 0 79 15q19 5 38 18q8 4 8 11q0 6 -5 11l-5 5t-5.5 6t-5.5 5q-4 4 -13 11.5t-14 11.5q-34 31 -34 66q0 28 19 54q6 9 53 69q3 3 5 7
q7 9 7 11q0 3 -1 4q-2 4 -16 6h-18z" />
    <glyph glyph-name="acute" unicode="&#xb4;" horiz-adv-x="373" 
d="M227 933q17 0 24 -5.5t13 -22.5q4 -12 4 -24q0 -21 -17 -44q-15 -18 -61 -62q-49 -46 -116 -92q-21 -16 -41 -17q-21 0 -28 13q-3 6 -3 12q0 9 7 19q8 13 27 26q52 40 112 110q20 23 24 48q5 39 52 39h3z" />
    <glyph glyph-name="mu" unicode="&#xb5;" horiz-adv-x="561" 
d="M114 -50q3 -8 11 -11q3 -1 7 -1q6 0 9 2q8 6 11 10q2 3 5 5q43 46 75 97q49 72 91 156q10 17 10 38q0 15 -1 22v29q0 40 1 60q0 6 1 9q0 31 8 65q7 22 25 35q16 13 40 13q15 -2 25 -10q28 -25 28 -61q0 -10 -1 -15q-5 -60 -14 -102q-9 -59 -15 -117q0 -3 -1 -10.5
t-2 -11.5q-6 -34 -6 -71q1 -54 6 -110q2 -15 10 -26t8 -21q0 -12 -13 -22q-11 -8 -21 -8q-13 0 -25 14q-11 15 -15 34q-14 58 -20 109l-4 32q-1 6 -2 17t-2 16l-2 16q-6 -2 -9 -6q-5 -7 -5 -8l-2 -4q-42 -80 -106 -167q-18 -27 -47 -49q-29 -20 -52 -20q-5 0 -13 2
q-4 -58 -4 -86q0 -5 0.5 -16.5t0.5 -17.5q1 -18 12 -35q7 -10 7 -21q0 -12 -10 -22q-11 -10 -24 -10q-11 0 -21 7q-12 9 -16 19q-9 19 -14 45q-6 45 -15 91q-12 63 -18 128q-3 33 -3 67q-1 12 -1 36q-1 6 -1 19q-2 18 -2 28q0 42 3 85q0 22 2 64q0 61 10 117l4 18q2 8 3 11
q7 31 28 39q17 8 33 8q14 0 31 -6q13 -7 22 -25t9 -33v-6q-2 -15 -6 -43q-3 -16 -7 -48q-1 -22 -6 -43q-2 -12 -2 -35q0 -25 1 -41q-1 -8 -1 -25q1 -9 1 -28q0 -25 -2 -38q-3 -19 -3 -40v-30q0 -35 -4 -63z" />
    <glyph glyph-name="paragraph" unicode="&#xb6;" horiz-adv-x="597" 
d="M398 -17v104q0 12 -5 12q-3 0 -9 -3q-61 -27 -140 -27h-10q-13 0 -17 -3t-4 -13v-83q0 -43 3 -64q0 -2 0.5 -5.5t0.5 -5.5q0 -5 -2 -15q-5 -17 -19 -18h-4q-15 0 -20 15q-7 16 -8 32l-6 96q-1 11 -1.5 32t-0.5 32q0 17 -19 26q-92 49 -115 153q-4 17 -4 40
q0 66 40.5 122.5t103.5 82.5q55 21 101 21q34 0 67 -10q91 -28 129 -133q22 -61 32 -149q2 -26 2 -37q0 -23 -3.5 -63.5t-4.5 -53.5q-1 -21 -3 -44.5t-5 -52t-4 -44.5q-1 -8 -2.5 -22.5t-3 -26.5t-3.5 -23q-4 -23 -25 -26h-6q-17 0 -25 17q-9 18 -9 41v96h-1zM213 230v-50
q0 -16 2.5 -20.5t11.5 -4.5q1 0 5 0.5t6 0.5q51 2 139 40q13 6 13 23q0 12 -4 33t-4 30q-1 42 -30 96q-37 68 -117 68h-3q-22 -1 -22 -14q0 -7 1 -12q2 -11 5 -85v-14q0 -31 -4 -91h1zM135 409q-27 -18 -44 -49.5t-17 -67.5q0 -19 4 -35q12 -45 55 -80q10 -5 11 -5q3 0 4 1
q4 1 4 6q0 1 -0.5 3.5t-0.5 4.5q-8 139 -11 203q-3 16 -5 19z" />
    <glyph glyph-name="periodcentered" unicode="&#xb7;" horiz-adv-x="350" 
d="M101 345q0 -22 -16.5 -40t-36.5 -18q-21 0 -34 16t-13 42v2q0 19 13 32.5t31 13.5h2q20 -1 37 -14.5t17 -32.5v-1z" />
    <glyph glyph-name="periodcentered" unicode="&#x2219;" horiz-adv-x="350" 
d="M101 345q0 -22 -16.5 -40t-36.5 -18q-21 0 -34 16t-13 42v2q0 19 13 32.5t31 13.5h2q20 -1 37 -14.5t17 -32.5v-1z" />
    <glyph glyph-name="cedilla" unicode="&#xb8;" horiz-adv-x="458" 
d="M58 -319q-26 0 -45 21q-10 12 -10 20q0 6 3 12q12 23 28 23h2q2 0 7 -0.5t8 -0.5q24 0 85 13q86 21 122 41q1 1 4 2.5t4 2.5q13 9 13 17q0 7 -8 18q-10 11 -34 25q-13 7 -73 32q-32 14 -50 31q-16 17 -19 40q0 2 -0.5 5t-0.5 4q0 28 31 40q6 2 9 2q12 0 21 -13
q11 -18 11 -33q3 -20 24 -30q7 -3 21 -9.5t21 -10.5q47 -21 80 -50q34 -28 34 -66q0 -35 -28 -63q-31 -31 -71 -44q-77 -29 -156 -29h-33z" />
    <glyph glyph-name="onesuperior" unicode="&#xb9;" horiz-adv-x="237" 
d="M47 677q-5 -1 -11 -1q-2 0 -7 -1t-7 -1q-9 0 -14 8q-6 9 -6 20q0 8 5 18q21 34 52 58q10 9 24 9q21 0 34 -21q8 -13 13 -28q6 -29 6 -72v-21q0 -16 -1 -47.5t-1 -46.5q0 -27 -9.5 -76.5t-10.5 -58.5q-5 -28 -30 -28q-21 0 -28 20q-4 14 -4 21q-9 120 -9 122v9q0 14 2 41
t2 36v40z" />
    <glyph glyph-name="ordmasculine" unicode="&#xba;" horiz-adv-x="392" 
d="M3 559q0 1 -0.5 4t-0.5 5q0 12 5.5 34t6.5 29q4 28 28 74q22 44 61 55q6 2 17 13q12 12 27 12q9 0 14 -2q46 -14 82.5 -50t40.5 -84q1 -10 1 -30q0 -127 -94 -204q-34 -28 -71 -28q-32 0 -59.5 21.5t-41.5 56.5q-8 20 -11 38q-6 30 -6 44q0 2 0.5 6t0.5 6zM226 624
q0 42 -67 90q-5 3 -7 3q-4 0 -7 -7l-10 -20t-11.5 -25t-7.5 -22q-13 -46 -15 -80v-14q0 -34 9 -58q11 -26 28 -26q12 0 27 12q58 48 61 142v5z" />
    <glyph glyph-name="guillemotright" unicode="&#xbb;" horiz-adv-x="874" 
d="M615 221q-7 8 -28 17q-101 41 -150 46h-13q-22 0 -35 -8q-10 -5 -16 -5q-10 0 -16 9q-4 5 -4 13q0 9 7 19q12 16 39 21q20 4 44 4q33 0 80 -9q80 -16 160 -76q28 -22 53 -30q14 -4 26 -16q9 -11 9 -23q0 -7 -2 -10q-9 -17 -28 -17h-5q-15 2 -27 9q-9 6 -20 6q-7 0 -16 -3
q-29 -9 -75 -32q-33 -17 -135 -86q-8 -5 -24.5 -18.5t-26.5 -19.5q-18 -10 -29 -10t-22 8q-19 13 -19 35q0 18 13 32q10 12 44 35q82 58 150 84q42 16 66 25zM280 221q-7 8 -28 17q-101 41 -150 46h-13q-22 0 -35 -8q-10 -5 -16 -5q-10 0 -16 9q-4 5 -4 13q0 9 7 19
q12 16 39 21q20 4 44 4q33 0 80 -9q80 -16 160 -76q28 -22 53 -30q14 -4 26 -16q9 -11 9 -23q0 -7 -2 -10q-9 -17 -28 -17h-5q-15 2 -27 9q-9 6 -20 6q-7 0 -16 -3q-29 -9 -75 -32q-33 -17 -135 -86q-8 -5 -24.5 -18.5t-26.5 -19.5q-18 -10 -29 -10t-22 8q-19 13 -19 35
q0 18 13 32q10 12 44 35q82 58 150 84q42 16 66 25z" />
    <glyph glyph-name="onequarter" unicode="&#xbc;" horiz-adv-x="613" 
d="M426 73q-22 -22 -43 -31q-15 -7 -32 -7q-46 0 -62 52q-6 24 -6 46q0 18 4 54q2 27 34 49q8 5 15 5q8 0 23.5 -9t17.5 -10q15 -5 15 -22q0 -2 -0.5 -4t-0.5 -3q-3 -24 -18 -48q-15 -22 -18 -38q0 -1 -0.5 -3.5t-0.5 -3.5q0 -3 2 -7q4 -3 9 -3q3 0 7 2q14 7 23 16
q43 39 49 78q0 4 1 7.5t2.5 8l2.5 7.5q9 26 32 26q10 0 19.5 -9t10.5 -20q1 -3 1 -10t-1 -11q-6 -35 -14 -100.5t-11 -86.5q-1 -5 -1 -16q0 -14 1 -21v-3q0 -21 -16 -26q-2 -1 -7 -1q-14 0 -23 17t-9 48v75q-4 2 -6 2zM418 632q28 0 28 -24v-4q-1 -9 -11 -23
q-28 -47 -79.5 -138t-58.5 -103q-10 -18 -62.5 -108.5t-80.5 -138.5q-24 -42 -70 -126q-1 -2 -4 -6.5l-5 -7.5q-5 -6 -12 -6q-4 0 -6 1q-12 4 -12 15v3q0 12 9 26q27 54 83 162q55 107 173 315q73 127 80 139q14 24 26 24h2zM136 569q0 -24 -5 -67t-6 -60q-2 -30 -2 -43
q0 -10 2 -28v-5q0 -22 -20 -27q-1 0 -3 -0.5t-3 -0.5q-19 0 -28 20q-1 2 -6 16q-1 5 -3 16t-3 16q-3 21 -7.5 63t-6.5 63q-1 14 -12 17q-27 10 -27 33q0 9 5 22q16 31 50 59q10 8 21 8q9 0 18 -6q36 -25 36 -55v-41z" />
    <glyph glyph-name="onehalf" unicode="&#xbd;" horiz-adv-x="632" 
d="M369 11q14 -1 42 -1q44 0 76 9q2 1 6.5 2.5t6.5 2.5q3 1 10 1q12 0 17 -10q2 -4 2 -11q0 -9 -8 -17q-11 -11 -22 -14q-81 -27 -130 -27q-16 0 -37 7q-35 14 -35 48q0 16 9 31t52 58q33 33 47 52q11 16 14 33v3q0 7 -8 7h-3q-17 -6 -41 -24q-14 -12 -20 -16q-10 -7 -22 -7
t-19 7q-15 13 -15 32q0 11 5 18q29 47 75 65q32 10 47 10h5q30 -3 49 -24.5t19 -51.5q0 -5 -2 -17q-9 -41 -56 -94q-9 -9 -54 -55q-9 -9 -10 -17zM446 610q0 -13 -7 -25l-180 -312q-42 -74 -128 -220q-8 -14 -23.5 -43.5t-23.5 -43.5q-10 -20 -21 -20q-1 0 -7 2
q-11 6 -11 16q0 6 5 19q9 22 30 62t24 45q70 136 143 268q24 41 71.5 124.5t71.5 124.5q9 14 13 17q7 9 19 9q3 0 11 -2q11 -4 13 -21zM139 576l-3 -38q-4 -37 -7 -57q-4 -32 -4 -96v-21q-2 -20 -18 -24q-6 -2 -9 -2q-12 0 -21 11q-11 13 -15 42q-1 13 -4.5 42t-5.5 44
q-5 43 -5 50v6q0 12 -12 16q-28 9 -28 32q0 11 5 21q16 36 50 61q10 7 21 7q14 0 27 -10q29 -24 29 -84z" />
    <glyph glyph-name="threequarters" unicode="&#xbe;" horiz-adv-x="622" 
d="M435 74q-19 -20 -42 -32q-15 -7 -33 -7q-46 0 -62 53q-6 24 -6 46q0 18 4 54q1 6 2.5 11.5t6 11t7 8l9.5 9.5l8 8q2 2 4 3q3 1 10 1q6 0 13 -2.5t12 -5t12 -7t11 -6.5q10 -5 10 -19q0 -5 -2 -15q-4 -21 -18 -41q-11 -18 -17 -36q0 -1 -0.5 -3.5t-0.5 -4.5q0 -4 3 -7
q4 -3 8 -3q6 0 10 3q51 33 66 83q1 5 4 15.5t4 15.5q4 12 13 19.5t19 7.5h4q11 -2 19 -11.5t9 -22.5q0 -5 -2 -19q-4 -28 -12.5 -89.5t-12.5 -94.5v-11q0 -18 1 -26v-3q0 -19 -14 -24q-3 -1 -8 -1q-15 0 -24 15q-7 12 -9 46q-1 21 -1 63v6q0 7 -5 12zM455 608q-1 -11 -8 -23
q-101 -176 -305 -528q-9 -16 -25.5 -46t-23.5 -43t-10 -15q-5 -6 -12 -6q-5 0 -7 1q-10 5 -10 15v2q0 13 9 29q15 29 43 83.5t37 71.5q77 149 176 319q10 18 36 64t41 71q10 17 15 22q8 8 19 8q3 0 11 -2q12 -5 14 -23zM125 662q42 0 66 -21.5t24 -52.5q0 -16 -6 -32
q-16 -40 -29 -57q-4 -8 -4 -11q0 -7 7 -11q2 -1 4 -3t4.5 -5t3.5 -4q20 -20 20 -41q0 -18 -14 -36q-29 -40 -81 -40q-15 0 -26 4q-19 6 -28 24q-2 6 -2 10q0 14 9 20q6 6 13 6t14 -7q8 -8 17 -8q7 0 14 3q22 9 33 18q6 5 6 10q0 4 -5 9q-3 3 -9 7t-8 6q-23 17 -23 39
q0 8 5 23q4 8 12 25t11 26q3 6 3 12q0 5 -3 8q-4 4 -8 4l-12 -3q-34 -11 -51 -28q-10 -10 -12 -11q-16 -8 -26 -8q-12 0 -21 9q-18 18 -18 38q0 13 7 21q39 53 113 57z" />
    <glyph glyph-name="questiondown" unicode="&#xbf;" horiz-adv-x="575" 
d="M197 -545q65 0 140 39q20 11 25 26q10 31 33 31q5 0 19 -4q53 -18 53 -64q0 -13 -4 -24q-6 -20 -24 -43q-34 -42 -79 -62q-76 -33 -145 -33q-24 0 -36 2q-44 7 -77 21q-80 34 -96 116q-2 12 -2 19q0 17 14 66q8 28 35 69q18 28 54.5 77.5t45.5 62.5q45 59 65 109
q17 44 17 80q0 6 0.5 18t0.5 19q0 21 -5 36q-1 2 -1 6q0 10 11 21q7 6 16 6q7 0 13 -3q14 -7 19 -17q9 -14 12 -28q6 -28 6 -58q0 -36 -8 -78q-7 -38 -45 -92q-17 -25 -54 -74.5t-54 -74.5q-42 -56 -49 -103q-1 -4 -1 -13q0 -47 48 -52q7 -1 22 -1h31zM211 162
q0 23 16.5 40.5t37.5 17.5q20 0 34 -15.5t14 -37.5q0 -23 -16 -35.5t-37 -13.5h-2q-19 0 -33 13.5t-14 30.5z" />
    <glyph glyph-name="Agrave" unicode="&#xc0;" horiz-adv-x="697" 
d="M399 325q3 2 8 16q26 119 28 165q2 63 6 124q3 50 12 98q4 17 10 24q13 16 31 16q8 0 17 -3q24 -10 24 -39v-4q-2 -15 -4.5 -44.5t-4.5 -44.5q-3 -21 -4.5 -45.5t-2.5 -54t-2 -45.5q-1 -18 -4 -160v-83q0 -99 6 -165q7 -90 23 -151q5 -19 10 -31q5 -15 20 -18
q23 -3 23 -18q0 -4 -1 -7q-2 -14 -11 -23t-21 -9h-3q-21 3 -37 19q-23 26 -37 70q-16 48 -35 168q-4 24 -8.5 73t-7.5 74q-7 -3 -9 -13q-25 -102 -63 -202q-29 -78 -68 -124q-16 -21 -40 -31q-19 -8 -38 -8q-44 0 -80 36q-53 53 -82 133q-19 52 -36 127q-17 78 -17 181
q0 8 0.5 23.5t0.5 22.5q2 46 15 93q13 41 20 57q45 97 132 102h8q13 0 23 -3q63 -22 102 -71q56 -73 91 -208q1 -2 1.5 -6t1.5 -6.5t3 -4.5zM122 197q0 -98 29 -191q17 -53 39 -78q15 -15 28 -15q11 0 24 10q21 15 39 47q47 86 86 221q2 5 2 16t-2 16q-17 91 -61 167
q-32 60 -81 93q-14 10 -28 10q-20 0 -32 -24q-24 -45 -32 -100q-12 -82 -12 -121q0 -17 1 -26v-25zM140 1034h3q47 0 52 -39q4 -25 24 -48q60 -70 112 -110q19 -13 27 -26q7 -11 7 -19q0 -6 -3 -12q-7 -13 -28 -13q-20 1 -41 17q-67 46 -116 92q-46 44 -61 62q-17 23 -17 44
q0 12 4 24q6 17 13 22.5t24 5.5z" />
    <glyph glyph-name="Aacute" unicode="&#xc1;" horiz-adv-x="697" 
d="M399 325q3 2 8 16q26 119 28 165q2 63 6 124q3 50 12 98q4 17 10 24q13 16 31 16q8 0 17 -3q24 -10 24 -39v-4q-2 -15 -4.5 -44.5t-4.5 -44.5q-3 -21 -4.5 -45.5t-2.5 -54t-2 -45.5q-1 -18 -4 -160v-83q0 -99 6 -165q7 -90 23 -151q5 -19 10 -31q5 -15 20 -18
q23 -3 23 -18q0 -4 -1 -7q-2 -14 -11 -23t-21 -9h-3q-21 3 -37 19q-23 26 -37 70q-16 48 -35 168q-4 24 -8.5 73t-7.5 74q-7 -3 -9 -13q-25 -102 -63 -202q-29 -78 -68 -124q-16 -21 -40 -31q-19 -8 -38 -8q-44 0 -80 36q-53 53 -82 133q-19 52 -36 127q-17 78 -17 181
q0 8 0.5 23.5t0.5 22.5q2 46 15 93q13 41 20 57q45 97 132 102h8q13 0 23 -3q63 -22 102 -71q56 -73 91 -208q1 -2 1.5 -6t1.5 -6.5t3 -4.5zM122 197q0 -98 29 -191q17 -53 39 -78q15 -15 28 -15q11 0 24 10q21 15 39 47q47 86 86 221q2 5 2 16t-2 16q-17 91 -61 167
q-32 60 -81 93q-14 10 -28 10q-20 0 -32 -24q-24 -45 -32 -100q-12 -82 -12 -121q0 -17 1 -26v-25zM314 1002q17 0 24 -5.5t13 -22.5q4 -12 4 -24q0 -21 -17 -44q-15 -18 -61 -62q-49 -46 -116 -92q-21 -16 -41 -17q-21 0 -28 13q-3 6 -3 12q0 9 7 19q8 13 27 26
q53 40 112 110q20 23 24 48q5 39 52 39h3z" />
    <glyph glyph-name="Acircumflex" unicode="&#xc2;" horiz-adv-x="697" 
d="M399 325q3 2 8 16q26 119 28 165q2 63 6 124q3 50 12 98q4 17 10 24q13 16 31 16q8 0 17 -3q24 -10 24 -39v-4q-2 -15 -4.5 -44.5t-4.5 -44.5q-3 -21 -4.5 -45.5t-2.5 -54t-2 -45.5q-1 -18 -4 -160v-83q0 -99 6 -165q7 -90 23 -151q5 -19 10 -31q5 -15 20 -18
q23 -3 23 -18q0 -4 -1 -7q-2 -14 -11 -23t-21 -9h-3q-21 3 -37 19q-23 26 -37 70q-16 48 -35 168q-4 24 -8.5 73t-7.5 74q-7 -3 -9 -13q-25 -102 -63 -202q-29 -78 -68 -124q-16 -21 -40 -31q-19 -8 -38 -8q-44 0 -80 36q-53 53 -82 133q-19 52 -36 127q-17 78 -17 181
q0 8 0.5 23.5t0.5 22.5q2 46 15 93q13 41 20 57q45 97 132 102h8q13 0 23 -3q63 -22 102 -71q56 -73 91 -208q1 -2 1.5 -6t1.5 -6.5t3 -4.5zM122 197q0 -98 29 -191q17 -53 39 -78q15 -15 28 -15q11 0 24 10q21 15 39 47q47 86 86 221q2 5 2 16t-2 16q-17 91 -61 167
q-32 60 -81 93q-14 10 -28 10q-20 0 -32 -24q-24 -45 -32 -100q-12 -82 -12 -121q0 -17 1 -26v-25zM435 803q-48 4 -100 47q-37 30 -76 95q-8 14 -12 20q-8 11 -14 11q-7 0 -16 -10q-43 -47 -61 -74q-10 -16 -46 -63q-10 -12 -22 -17q-10 -3 -19 -3q-15 0 -25 10
q-12 13 -12 30q0 7 3 16q5 15 15 17q9 3 17 7t16 12t12 11.5t13.5 14.5t11.5 13q12 13 34 39.5t33 39.5q29 32 65 32q27 0 53 -20q14 -10 19 -17q3 -3 34.5 -39t44.5 -57q2 -4 4.5 -7.5t5.5 -7.5t5 -6q16 -19 34 -19q1 0 3 0.5t4 0.5h6q12 0 19 -5q10 -10 10 -24
q0 -3 -2 -11q-7 -15 -22.5 -25.5t-32.5 -10.5h-2z" />
    <glyph glyph-name="Atilde" unicode="&#xc3;" horiz-adv-x="697" 
d="M399 325q3 2 8 16q26 119 28 165q2 63 6 124q3 50 12 98q4 17 10 24q13 16 31 16q8 0 17 -3q24 -10 24 -39v-4q-2 -15 -4.5 -44.5t-4.5 -44.5q-3 -21 -4.5 -45.5t-2.5 -54t-2 -45.5q-1 -18 -4 -160v-83q0 -99 6 -165q7 -90 23 -151q5 -19 10 -31q5 -15 20 -18
q23 -3 23 -18q0 -4 -1 -7q-2 -14 -11 -23t-21 -9h-3q-21 3 -37 19q-23 26 -37 70q-16 48 -35 168q-4 24 -8.5 73t-7.5 74q-7 -3 -9 -13q-25 -102 -63 -202q-29 -78 -68 -124q-16 -21 -40 -31q-19 -8 -38 -8q-44 0 -80 36q-53 53 -82 133q-19 52 -36 127q-17 78 -17 181
q0 8 0.5 23.5t0.5 22.5q2 46 15 93q13 41 20 57q45 97 132 102h8q13 0 23 -3q63 -22 102 -71q56 -73 91 -208q1 -2 1.5 -6t1.5 -6.5t3 -4.5zM122 197q0 -98 29 -191q17 -53 39 -78q15 -15 28 -15q11 0 24 10q21 15 39 47q47 86 86 221q2 5 2 16t-2 16q-17 91 -61 167
q-32 60 -81 93q-14 10 -28 10q-20 0 -32 -24q-24 -45 -32 -100q-12 -82 -12 -121q0 -17 1 -26v-25zM346 768q-30 0 -57 19q-11 8 -32.5 24.5t-31.5 23.5l-21 15q-11 7 -21 7q-12 0 -26 -13q-25 -22 -35 -51q-6 -18 -22.5 -29t-34.5 -11q-5 0 -13 2q-13 3 -25.5 21.5
t-12.5 33.5q0 5 1 7l4.5 13.5t5.5 15l6 13.5t7.5 14t9 11t12.5 11q50 32 81 37q14 2 20 2q37 0 72 -27q30 -23 71 -62q23 -21 47 -21q16 0 34 9q50 28 70 58q6 8 9 11q8 10 18 10q3 0 9 -2q11 -5 11 -20q0 -5 -1 -8q-6 -20 -12 -28q-39 -55 -115 -83q-6 -2 -9 -2
q-6 -1 -19 -1z" />
    <glyph glyph-name="Adieresis" unicode="&#xc4;" horiz-adv-x="697" 
d="M399 325q3 2 8 16q26 119 28 165q2 63 6 124q3 50 12 98q4 17 10 24q13 16 31 16q8 0 17 -3q24 -10 24 -39v-4q-2 -15 -4.5 -44.5t-4.5 -44.5q-3 -21 -4.5 -45.5t-2.5 -54t-2 -45.5q-1 -18 -4 -160v-83q0 -99 6 -165q7 -90 23 -151q5 -19 10 -31q5 -15 20 -18
q23 -3 23 -18q0 -4 -1 -7q-2 -14 -11 -23t-21 -9h-3q-21 3 -37 19q-23 26 -37 70q-16 48 -35 168q-4 24 -8.5 73t-7.5 74q-7 -3 -9 -13q-25 -102 -63 -202q-29 -78 -68 -124q-16 -21 -40 -31q-19 -8 -38 -8q-44 0 -80 36q-53 53 -82 133q-19 52 -36 127q-17 78 -17 181
q0 8 0.5 23.5t0.5 22.5q2 46 15 93q13 41 20 57q45 97 132 102h8q13 0 23 -3q63 -22 102 -71q56 -73 91 -208q1 -2 1.5 -6t1.5 -6.5t3 -4.5zM122 197q0 -98 29 -191q17 -53 39 -78q15 -15 28 -15q11 0 24 10q21 15 39 47q47 86 86 221q2 5 2 16t-2 16q-17 91 -61 167
q-32 60 -81 93q-14 10 -28 10q-20 0 -32 -24q-24 -45 -32 -100q-12 -82 -12 -121q0 -17 1 -26v-25zM115 841q0 21 3 32q6 28 27 32q12 2 18 2q20 0 34 -15q17 -20 17 -50q0 -45 -29 -66q-12 -9 -26 -9q-28 0 -39 30q-5 14 -5 34v10zM277 841q0 21 3 32q6 28 27 32q12 2 18 2
q20 0 34 -15q17 -20 17 -50q0 -45 -29 -66q-12 -9 -26 -9q-28 0 -39 30q-5 14 -5 34v10z" />
    <glyph glyph-name="Aring" unicode="&#xc5;" horiz-adv-x="697" 
d="M399 325q3 2 8 16q26 119 28 165q2 63 6 124q3 50 12 98q4 17 10 24q13 16 31 16q8 0 17 -3q24 -10 24 -39v-4q-2 -15 -4.5 -44.5t-4.5 -44.5q-3 -21 -4.5 -45.5t-2.5 -54t-2 -45.5q-1 -18 -4 -160v-83q0 -99 6 -165q7 -90 23 -151q5 -19 10 -31q5 -15 20 -18
q23 -3 23 -18q0 -4 -1 -7q-2 -14 -11 -23t-21 -9h-3q-21 3 -37 19q-23 26 -37 70q-16 48 -35 168q-4 24 -8.5 73t-7.5 74q-7 -3 -9 -13q-25 -102 -63 -202q-29 -78 -68 -124q-16 -21 -40 -31q-19 -8 -38 -8q-44 0 -80 36q-53 53 -82 133q-19 52 -36 127q-17 78 -17 181
q0 8 0.5 23.5t0.5 22.5q2 46 15 93q13 41 20 57q45 97 132 102h8q13 0 23 -3q63 -22 102 -71q56 -73 91 -208q1 -2 1.5 -6t1.5 -6.5t3 -4.5zM122 197q0 -98 29 -191q17 -53 39 -78q15 -15 28 -15q11 0 24 10q21 15 39 47q47 86 86 221q2 5 2 16t-2 16q-17 91 -61 167
q-32 60 -81 93q-14 10 -28 10q-20 0 -32 -24q-24 -45 -32 -100q-12 -82 -12 -121q0 -17 1 -26v-25zM338 885q-11 -84 -76 -122q-22 -12 -46 -12q-30 0 -55 18t-35 49q-14 44 -14 75q0 9 2 25q5 37 22 64q24 38 57 38q20 0 41 -15q9 -7 34 -15q70 -21 70 -102v-3zM280 888
q0 22 -6 32q-10 15 -17 15q-1 0 -3 -1q-29 -7 -37 -17q-20 -24 -20 -57q0 -6 2 -20q5 -25 25 -25q11 0 23 9q33 24 33 64z" />
    <glyph glyph-name="AE" unicode="&#xc6;" horiz-adv-x="1043" 
d="M122 222v-24q0 -104 29 -192q11 -44 39 -78q12 -15 27 -15q12 0 25 10q26 20 39 47q53 101 86 221q2 10 2 16t-2 16q-16 87 -61 167q-28 56 -81 93q-14 10 -28 10q-20 0 -32 -24q-24 -46 -32 -100q0 -2 -0.5 -6.5t-1.5 -6.5q-10 -62 -10 -108q0 -4 0.5 -13t0.5 -13z
M586 -172q-1 0 -2.5 0.5t-2.5 1.5q-8 -7 -19 -7h-3q-21 3 -37 19q-27 34 -37 70q-23 80 -33 160l-2 8q-6 40 -9 82q-4 45 -7 65q-4 -1 -6 -5t-3 -7v-1q-25 -102 -63 -202q-24 -68 -68 -124q-16 -21 -40 -31q-21 -8 -40 -8q-40 0 -78 36q-55 58 -82 133q-22 60 -36 127
q-17 84 -17 178q0 33 1 49q2 46 15 93q7 25 20 57q19 42 51 71q31 26 81 31h6q13 0 25 -3q61 -19 102 -71q36 -46 57 -99q22 -58 34 -109q1 -1 1 -5t1 -6q2 -5 4 -6q3 1 5 6q1 1 1.5 3.5t0.5 3.5q0 2 1 3q1 5 3 13q19 72 25 152q2 63 6 124q3 50 12 98q1 12 10 24
q13 16 31 16q8 0 17 -3q11 -4 18 -16q6 -11 6 -23v-4q-4 -32 -5 -48q-1 -5 -1 -13q14 21 37 47q24 30 58 54q43 32 98 34h14q20 0 41 -9q56 -31 56 -93v-10q-7 -84 -61 -153q-5 -7 -12 -11q-8 -6 -14 -6q-7 0 -13 6q-5 4 -5 10v3q2 7 6 11q28 39 35 82q1 6 1 17q0 13 -3 27
q-5 20 -19 20q-6 0 -14 -3q-17 -6 -34 -22q-58 -53 -96 -123q-5 -13 -7 -16q-22 -37 -32 -77q-4 -19 -6 -40v-7q0 -32 35 -36q11 -2 33 -2q21 0 32 2q14 2 19 2q17 1 33 14q38 25 84 26h8q9 0 15 -7q4 -8 4 -12q0 -3 -2 -9q-9 -29 -35 -49q-138 -89 -210 -234
q-26 -50 -26 -103q0 -23 4 -43q11 -40 38 -57q26 -19 57 -19h10q47 0 89 16q67 25 127 71q16 10 16 30v2q0 13 14 18q1 0 3 0.5t3 0.5q12 0 19 -9q9 -10 9 -23q0 -8 -2 -12q-10 -27 -34 -48q-83 -70 -186 -98q-27 -7 -57 -7q-37 0 -73 12zM560 301q-26 4 -47 19v-31
q-1 -16 -1 -49q0 -25 2 -73q27 56 71 109q1 0 1 1q1 1 11 14v5l-12 2q-16 2 -25 3z" />
    <glyph glyph-name="Ccedilla" unicode="&#xc7;" horiz-adv-x="669" 
d="M266 -212q0 2 -0.5 5t-0.5 5q0 8 3 16q-29 5 -52 17q-53 26 -90 68q-67 73 -96 170q-18 56 -24 113q-4 29 -4 66t4 66q8 55 19 99q23 87 68 172q40 77 100 134q42 44 106 61q17 4 37 4q57 0 103 -40q67 -65 70 -159q0 -3 0.5 -7.5t0.5 -6.5q0 -3 -0.5 -7.5t-0.5 -6.5v-22
q0 -66 -20 -129q-1 -3 -2.5 -9t-1.5 -8q-2 -8 -8 -13q-7 -5 -12 -5h-2q-8 2 -12 8q-4 7 -4 14v3q2 16 5 26q14 44 15 88v14q0 74 -47 130q-24 26 -52 26q-18 0 -37 -10q-38 -19 -67 -54q-64 -86 -102 -188q-27 -69 -37 -133q-8 -48 -8 -91q0 -56 12 -112q17 -65 48 -122
q27 -50 75 -80q31 -19 65 -19q22 0 46 9q85 33 141 103q10 13 18 30l2 6q0 2 2 5t2 4q1 1 1 3q3 7 8 12t12 5t13 -7q4 -7 6 -20q-2 -26 -16 -48q-1 -1 -1 -2q-32 -52 -79 -87q-54 -44 -126 -67q-3 -1 -7 -2t-7 -1q3 -7 5 -21q2 -13 8 -19q5 -6 16 -11l33 -15q6 -4 9 -5
q44 -20 80 -50q34 -31 34 -66q0 -31 -28 -63q-31 -30 -71 -44q-74 -27 -156 -29h-33q-27 1 -45 21q-10 9 -10 20q0 6 3 12q4 9 12 17q6 6 15 6h15q44 0 86 12h2q61 11 122 41q1 0 1 1l2 1q4 2 5 3q13 7 13 18q0 7 -8 17q-15 16 -34 25q-36 18 -55 25l-18 7q-25 9 -50 31
q-16 16 -19 40z" />
    <glyph glyph-name="Egrave" unicode="&#xc8;" horiz-adv-x="586" 
d="M142 296q-6 1 -18 2.5t-18 2.5q-39 5 -66 36.5t-33 69.5q-3 23 -3 45q0 45 14 92q33 98 93 164q32 36 59 54q49 34 94 34h13q29 0 46 -9q56 -29 56 -96v-7q-4 -71 -61 -153q-8 -8 -12 -11q-8 -6 -14 -6q-7 0 -13 6q-6 4 -6 10q0 7 7 14q24 34 34 82q2 12 2 19q0 13 -3 25
q-4 20 -20 20q-7 0 -14 -3q-16 -7 -33 -22q-60 -53 -96 -123q-34 -71 -39 -93q-5 -20 -6 -40v-6q0 -17 8 -25.5t27 -11.5q14 -3 27 -3q11 0 30 2.5t27 2.5q16 1 32 14q25 18 89 26h3q19 0 19 -19q0 -3 -2 -9q-9 -32 -35 -49q-141 -93 -209 -234q-26 -54 -26 -105
q0 -22 4 -41q8 -37 35 -56t60 -20h10q50 0 89 16q74 29 127 71q16 14 16 30t13 20q1 0 3 0.5t3 0.5q11 0 20 -9q9 -11 9 -23q0 -4 -2 -12q-10 -28 -35 -48q-92 -74 -186 -98q-30 -8 -59 -8q-36 0 -71 13q-77 28 -101 116q-9 33 -9 67q0 44 15 86q1 3 8 28t13 37
q20 45 74 114q8 10 11 15v5zM111 1150h3q47 0 52 -39q4 -25 24 -48q59 -70 112 -110q19 -13 27 -26q7 -11 7 -19q0 -6 -3 -12q-7 -13 -28 -13q-20 1 -41 17q-67 46 -116 92q-46 44 -61 62q-17 23 -17 44q0 12 4 24q6 17 13 22.5t24 5.5z" />
    <glyph glyph-name="Eacute" unicode="&#xc9;" horiz-adv-x="586" 
d="M142 296q-6 1 -18 2.5t-18 2.5q-39 5 -66 36.5t-33 69.5q-3 23 -3 45q0 45 14 92q33 98 93 164q32 36 59 54q49 34 94 34h13q29 0 46 -9q56 -29 56 -96v-7q-4 -71 -61 -153q-8 -8 -12 -11q-8 -6 -14 -6q-7 0 -13 6q-6 4 -6 10q0 7 7 14q24 34 34 82q2 12 2 19q0 13 -3 25
q-4 20 -20 20q-7 0 -14 -3q-16 -7 -33 -22q-60 -53 -96 -123q-34 -71 -39 -93q-5 -20 -6 -40v-6q0 -17 8 -25.5t27 -11.5q14 -3 27 -3q11 0 30 2.5t27 2.5q16 1 32 14q25 18 89 26h3q19 0 19 -19q0 -3 -2 -9q-9 -32 -35 -49q-141 -93 -209 -234q-26 -54 -26 -105
q0 -22 4 -41q8 -37 35 -56t60 -20h10q50 0 89 16q74 29 127 71q16 14 16 30t13 20q1 0 3 0.5t3 0.5q11 0 20 -9q9 -11 9 -23q0 -4 -2 -12q-10 -28 -35 -48q-92 -74 -186 -98q-30 -8 -59 -8q-36 0 -71 13q-77 28 -101 116q-9 33 -9 67q0 44 15 86q1 3 8 28t13 37
q20 45 74 114q8 10 11 15v5zM267 1125q17 0 24 -5.5t13 -22.5q4 -12 4 -24q0 -21 -17 -44q-15 -18 -61 -62q-49 -46 -116 -92q-21 -16 -41 -17q-21 0 -28 13q-3 6 -3 12q0 9 7 19q8 13 27 26q52 40 112 110q20 23 24 48q5 39 52 39h3z" />
    <glyph glyph-name="Ecircumflex" unicode="&#xca;" horiz-adv-x="586" 
d="M142 296q-6 1 -18 2.5t-18 2.5q-39 5 -66 36.5t-33 69.5q-3 23 -3 45q0 45 14 92q33 98 93 164q32 36 59 54q49 34 94 34h13q29 0 46 -9q56 -29 56 -96v-7q-4 -71 -61 -153q-8 -8 -12 -11q-8 -6 -14 -6q-7 0 -13 6q-6 4 -6 10q0 7 7 14q24 34 34 82q2 12 2 19q0 13 -3 25
q-4 20 -20 20q-7 0 -14 -3q-16 -7 -33 -22q-60 -53 -96 -123q-34 -71 -39 -93q-5 -20 -6 -40v-6q0 -17 8 -25.5t27 -11.5q14 -3 27 -3q11 0 30 2.5t27 2.5q16 1 32 14q25 18 89 26h3q19 0 19 -19q0 -3 -2 -9q-9 -32 -35 -49q-141 -93 -209 -234q-26 -54 -26 -105
q0 -22 4 -41q8 -37 35 -56t60 -20h10q50 0 89 16q74 29 127 71q16 14 16 30t13 20q1 0 3 0.5t3 0.5q11 0 20 -9q9 -11 9 -23q0 -4 -2 -12q-10 -28 -35 -48q-92 -74 -186 -98q-30 -8 -59 -8q-36 0 -71 13q-77 28 -101 116q-9 33 -9 67q0 44 15 86q1 3 8 28t13 37
q20 45 74 114q8 10 11 15v5zM377 860q-48 4 -100 47q-37 30 -76 95q-8 14 -12 20q-8 11 -14 11q-7 0 -16 -10q-43 -47 -61 -74q-10 -16 -46 -63q-10 -12 -22 -17q-11 -3 -19 -3q-15 0 -25 10q-12 14 -12 30q0 7 3 16q5 15 15 17q9 3 17 7t16 12t12 11.5t13.5 14.5t11.5 13
q11 13 33.5 39.5t33.5 39.5q29 32 65 32q27 0 53 -20q14 -10 19 -17q3 -3 34.5 -39t44.5 -57l15 -21q16 -19 34 -19q1 0 3 0.5t4 0.5h6q11 0 19 -5q10 -10 10 -24q0 -3 -2 -11q-7 -15 -22.5 -25.5t-32.5 -10.5h-2z" />
    <glyph glyph-name="Edieresis" unicode="&#xcb;" horiz-adv-x="586" 
d="M142 296q-6 1 -18 2.5t-18 2.5q-39 5 -66 36.5t-33 69.5q-3 23 -3 45q0 45 14 92q33 98 93 164q32 36 59 54q49 34 94 34h13q29 0 46 -9q56 -29 56 -96v-7q-4 -71 -61 -153q-8 -8 -12 -11q-8 -6 -14 -6q-7 0 -13 6q-6 4 -6 10q0 7 7 14q24 34 34 82q2 12 2 19q0 13 -3 25
q-4 20 -20 20q-7 0 -14 -3q-16 -7 -33 -22q-60 -53 -96 -123q-34 -71 -39 -93q-5 -20 -6 -40v-6q0 -17 8 -25.5t27 -11.5q14 -3 27 -3q11 0 30 2.5t27 2.5q16 1 32 14q25 18 89 26h3q19 0 19 -19q0 -3 -2 -9q-9 -32 -35 -49q-141 -93 -209 -234q-26 -54 -26 -105
q0 -22 4 -41q8 -37 35 -56t60 -20h10q50 0 89 16q74 29 127 71q16 14 16 30t13 20q1 0 3 0.5t3 0.5q11 0 20 -9q9 -11 9 -23q0 -4 -2 -12q-10 -28 -35 -48q-92 -74 -186 -98q-30 -8 -59 -8q-36 0 -71 13q-77 28 -101 116q-9 33 -9 67q0 44 15 86q1 3 8 28t13 37
q20 45 74 114q8 10 11 15v5zM99 948q0 21 3 32q6 28 27 32q12 2 18 2q20 0 34 -15q17 -20 17 -50q0 -45 -29 -66q-12 -9 -26 -9q-28 0 -39 30q-5 14 -5 34v10zM261 948q0 21 3 32q6 28 27 32q12 2 18 2q20 0 34 -15q17 -20 17 -50q0 -45 -29 -66q-12 -9 -26 -9q-28 0 -39 30
q-5 14 -5 34v10z" />
    <glyph glyph-name="Igrave" unicode="&#xcc;" horiz-adv-x="367" 
d="M61 651q-3 0 -5 -1t-4 -3.5t-3 -3.5q-12 -9 -23 -9q-7 0 -14 5q-9 7 -9 25q0 9 4 16q10 18 41 41q62 47 131 70q24 8 39 8q12 0 21 -4q21 -8 21 -26q0 -1 -0.5 -2.5t-0.5 -2.5q-6 -17 -22 -17h-9q-9 0 -32 -7q-11 -5 -11 -12q0 -1 2 -7q4 -11 4 -26q0 -9 -2 -27
q-6 -56 -8 -84q-1 -23 -4.5 -69t-4.5 -70q-2 -26 -3.5 -77.5t-2.5 -77.5q-2 -44 -2 -64q0 -56 8 -166q8 -86 19 -128q3 -13 5 -16.5t8 -3.5q8 0 14 1q3 0 7.5 0.5t6.5 0.5q8 0 17 -3q17 -8 17 -23v-2q-3 -16 -24 -17q-58 -5 -86 -53q-11 -17 -25 -17q-7 0 -10 2
q-23 9 -23 32v2q1 2 1 3q5 21 21 33t16 18q0 4 -5 17q-13 36 -27 112q-9 51 -15 102q-2 22 -6.5 65t-7.5 64q-10 93 -11 174q0 11 -1 31t-1.5 36t-0.5 31q0 33 3 66q2 26 2 40q0 16 -2 24h-3zM39 1128h3q47 0 52 -39q4 -25 24 -48q59 -70 112 -110q19 -13 27 -26
q7 -10 7 -19q0 -6 -3 -12q-7 -13 -28 -13q-20 1 -41 17q-67 46 -116 92q-46 44 -61 62q-17 23 -17 44q0 12 4 24q6 17 13 22.5t24 5.5z" />
    <glyph glyph-name="Iacute" unicode="&#xcd;" horiz-adv-x="367" 
d="M61 651q-3 0 -5 -1t-4 -3.5t-3 -3.5q-12 -9 -23 -9q-7 0 -14 5q-9 7 -9 25q0 9 4 16q10 18 41 41q62 47 131 70q24 8 39 8q12 0 21 -4q21 -8 21 -26q0 -1 -0.5 -2.5t-0.5 -2.5q-6 -17 -22 -17h-9q-9 0 -32 -7q-11 -5 -11 -12q0 -1 2 -7q4 -11 4 -26q0 -9 -2 -27
q-6 -56 -8 -84q-1 -23 -4.5 -69t-4.5 -70q-2 -26 -3.5 -77.5t-2.5 -77.5q-2 -44 -2 -64q0 -56 8 -166q8 -86 19 -128q3 -13 5 -16.5t8 -3.5q8 0 14 1q3 0 7.5 0.5t6.5 0.5q8 0 17 -3q17 -8 17 -23v-2q-3 -16 -24 -17q-58 -5 -86 -53q-11 -17 -25 -17q-7 0 -10 2
q-23 9 -23 32v2q1 2 1 3q5 21 21 33t16 18q0 4 -5 17q-13 36 -27 112q-9 51 -15 102q-2 22 -6.5 65t-7.5 64q-10 93 -11 174q0 11 -1 31t-1.5 36t-0.5 31q0 33 3 66q2 26 2 40q0 16 -2 24h-3zM188 1102q17 0 24 -5.5t13 -22.5q4 -12 4 -24q0 -21 -17 -44q-15 -18 -61 -62
q-49 -46 -116 -92q-21 -16 -41 -17q-21 0 -28 13q-3 6 -3 12q0 8 7 19q8 13 27 26q53 40 112 110q20 23 24 48q5 39 52 39h3z" />
    <glyph glyph-name="Icircumflex" unicode="&#xce;" horiz-adv-x="367" 
d="M61 651q-3 0 -5 -1t-4 -3.5t-3 -3.5q-12 -9 -23 -9q-7 0 -14 5q-9 7 -9 25q0 9 4 16q10 18 41 41q62 47 131 70q24 8 39 8q12 0 21 -4q21 -8 21 -26q0 -1 -0.5 -2.5t-0.5 -2.5q-6 -17 -22 -17h-9q-9 0 -32 -7q-11 -5 -11 -12q0 -1 2 -7q4 -11 4 -26q0 -9 -2 -27
q-6 -56 -8 -84q-1 -23 -4.5 -69t-4.5 -70q-2 -26 -3.5 -77.5t-2.5 -77.5q-2 -44 -2 -64q0 -56 8 -166q8 -86 19 -128q3 -13 5 -16.5t8 -3.5q8 0 14 1q3 0 7.5 0.5t6.5 0.5q8 0 17 -3q17 -8 17 -23v-2q-3 -16 -24 -17q-58 -5 -86 -53q-11 -17 -25 -17q-7 0 -10 2
q-23 9 -23 32v2q1 2 1 3q5 21 21 33t16 18q0 4 -5 17q-13 36 -27 112q-9 51 -15 102q-2 22 -6.5 65t-7.5 64q-10 93 -11 174q0 11 -1 31t-1.5 36t-0.5 31q0 33 3 66q2 26 2 40q0 16 -2 24h-3zM291 868q-48 4 -100 47q-37 30 -76 95q-8 14 -12 20q-8 11 -14 11q-7 0 -16 -10
q-43 -47 -61 -74q-10 -16 -46 -63q-10 -12 -22 -17q-10 -3 -19 -3q-15 0 -25 10q-12 14 -12 30q0 7 3 16q5 15 15 17q9 3 17 7t16 12t12 11.5t13.5 14.5t11.5 13q12 13 34 39.5t33 39.5q29 32 65 32q27 0 53 -20q14 -10 19 -17q3 -3 34.5 -39t44.5 -57q2 -4 4.5 -7.5
t5.5 -7.5t5 -6q16 -19 34 -19q1 0 3 0.5t4 0.5h6q11 0 19 -5q10 -10 10 -24q0 -3 -2 -11q-7 -15 -22.5 -25.5t-32.5 -10.5h-2z" />
    <glyph glyph-name="Idieresis" unicode="&#xcf;" horiz-adv-x="367" 
d="M61 651q-3 0 -5 -1t-4 -3.5t-3 -3.5q-12 -9 -23 -9q-7 0 -14 5q-9 7 -9 25q0 9 4 16q10 18 41 41q62 47 131 70q24 8 39 8q12 0 21 -4q21 -8 21 -26q0 -1 -0.5 -2.5t-0.5 -2.5q-6 -17 -22 -17h-9q-9 0 -32 -7q-11 -5 -11 -12q0 -1 2 -7q4 -11 4 -26q0 -9 -2 -27
q-6 -56 -8 -84q-1 -23 -4.5 -69t-4.5 -70q-2 -26 -3.5 -77.5t-2.5 -77.5q-2 -44 -2 -64q0 -56 8 -166q8 -86 19 -128q3 -13 5 -16.5t8 -3.5q8 0 14 1q3 0 7.5 0.5t6.5 0.5q8 0 17 -3q17 -8 17 -23v-2q-3 -16 -24 -17q-58 -5 -86 -53q-11 -17 -25 -17q-7 0 -10 2
q-23 9 -23 32v2q1 2 1 3q5 21 21 33t16 18q0 4 -5 17q-13 36 -27 112q-9 51 -15 102q-2 22 -6.5 65t-7.5 64q-10 93 -11 174q0 11 -1 31t-1.5 36t-0.5 31q0 33 3 66q2 26 2 40q0 16 -2 24h-3zM-14 918q0 21 3 32q6 28 27 32q12 2 18 2q20 0 34 -15q17 -20 17 -50
q0 -45 -29 -66q-12 -9 -26 -9q-28 0 -39 30q-5 14 -5 34v10zM148 918q0 21 3 32q6 28 27 32q12 2 18 2q20 0 34 -15q17 -20 17 -50q0 -45 -29 -66q-12 -9 -26 -9q-28 0 -39 30q-5 14 -5 34v10z" />
    <glyph glyph-name="Eth" unicode="&#xd0;" horiz-adv-x="786" 
d="M277 154q-27 7 -58 7q-19 0 -38 -3q-1 -20 -1 -60v-74q0 -34 3 -65q0 -2 0.5 -4t0.5 -3q0 -20 -19 -31q-8 -4 -18 -4q-12 0 -24 9q-9 6 -18 19q-33 54 -47 122q-11 51 -14 67q-23 -5 -67 -19q-9 -3 -17 -3q-16 0 -27 15q-8 9 -8 21q0 10 7 20q16 22 43 33q25 12 54 18
q-22 125 -26 244q-1 5 -1 17q-1 14 -1 43q0 36 3 72q1 14 5 49l4 32q4 31 19 66q10 26 39 30l7 1q23 0 38 -24q12 -21 12 -42q0 -9 -1 -14q-18 -116 -26 -217q-5 -48 -5 -116q0 -51 2 -77q0 -3 1 -10t1 -11q0 -5 1 -16t1 -17q12 1 34 1q14 143 59 271q32 96 91 178
q38 49 90 84q38 22 74 22q3 0 7 -0.5t6 -0.5q48 -5 81 -32q62 -53 93 -128q27 -63 39 -130q8 -50 8 -93q0 -23 -1 -34q-11 -139 -69 -267q-64 -142 -198 -228q-107 -65 -229 -65h-11q-28 0 -53 9q-22 7 -34 27q-5 10 -5 17t5 17q5 7 9 9h6q7 0 11 -7q11 -17 25 -22
q13 -4 28 -4h6q99 2 182 44q82 42 132 109q52 67 80 150q34 96 34 198v19q0 160 -97 288q-27 39 -72 39q-7 0 -21 -2q-17 -4 -33 -17q-40 -32 -68 -75q-86 -142 -115 -307q-6 -33 -9 -70q45 -1 86 -9q17 -3 31 -17q9 -11 9 -21q0 -8 -4 -15q-7 -14 -22 -14q-6 0 -10 1z
M131 152l-22 -4q10 -58 17 -87q1 19 3 55z" />
    <glyph glyph-name="Ntilde" unicode="&#xd1;" horiz-adv-x="719" 
d="M169 -45q4 33 12.5 99t12.5 99q28 222 75 347q44 118 76 172q43 70 82 97q27 18 52 18q33 0 57 -26q27 -30 37 -60q14 -37 25 -100q19 -125 19 -275q0 -33 -2 -101q-1 -15 -2.5 -98.5t-5.5 -127.5l-3 -134q0 -13 -3 -18q-7 -19 -29 -22h-2q-11 0 -24 17q-7 9 -7 27
q-1 35 -3.5 107.5t-3.5 109.5q-3 140 -4 167q-2 36 -4 115t-5 120q-10 133 -33 197q-10 28 -22 28q-9 0 -28 -16q-33 -29 -66 -94q-84 -159 -112 -331q-20 -130 -27 -196q-4 -33 -9.5 -92.5t-7.5 -78.5q-4 -45 -12 -67q-12 -30 -37 -30q-17 0 -34 17q-12 14 -17 22
q-21 43 -39 106q-20 72 -27 117q-3 18 -12 71.5t-13 83.5q-2 22 -6.5 67t-7.5 69q-6 41 -6 84q0 19 1 29v5q0 5 -1 15.5t-1 16.5t2 16t5 61q4 43 23 103q14 47 53 54q5 0 15.5 4t16.5 4q7 0 13 -3q14 -6 21 -17q16 -26 16 -56q0 -7 -2 -21q-4 -25 -8 -70.5t-7 -64.5
q-3 -22 -4.5 -45.5t-1.5 -54.5t-1 -46v-23q0 -15 0.5 -45.5t0.5 -46.5q0 -51 6 -155q6 -96 19 -150zM403 857q-30 0 -57 19q-11 8 -32.5 24.5t-31.5 23.5q-2 2 -6 5t-7.5 5.5t-7.5 4.5q-11 7 -21 7q-12 0 -26 -13q-25 -22 -35 -51q-6 -18 -22.5 -29t-34.5 -11q-5 0 -13 2
q-13 3 -25.5 21.5t-12.5 33.5q0 5 1 7l4.5 13.5t5.5 15l6 13.5t7.5 14t9 11t12.5 11q50 32 81 37q14 2 20 2q37 0 72 -27q30 -23 71 -62q23 -21 47 -21q16 0 34 9q50 28 70 58q6 8 9 11q8 10 18 10q3 0 9 -2q11 -5 11 -20q0 -5 -1 -8q-6 -20 -12 -28q-39 -55 -115 -83
q-6 -2 -9 -2q-6 -1 -19 -1z" />
    <glyph glyph-name="Ograve" unicode="&#xd2;" horiz-adv-x="709" 
d="M2 195q0 76 23 168q22 84 49 119q4 4 4 8t-6 10q-22 28 -29 46q-7 20 -7 42q0 40 23 77q56 93 174 120q29 7 62 7q45 0 93 -17q101 -37 159 -146q44 -84 55 -182q3 -33 3 -67q0 -66 -12 -134q-25 -127 -84 -245q-55 -111 -143 -164q-58 -35 -119 -35q-107 0 -176 101
q-51 73 -64 178q-5 31 -5 75v39zM107 79q0 -81 32 -138q43 -75 121 -75h3q60 1 113 45q51 42 84 107q51 94 76 197q23 92 23 169q0 55 -11 102q-23 112 -88 182t-158 73h-6q-110 0 -184 -95q-13 -17 -18 -44q-1 -4 -1 -13q0 -41 36 -60q48 -24 83 -25q13 -1 40 -1
q122 0 214 40q14 6 23 6h2q15 0 15 -14q0 -5 -1 -7q-4 -14 -17 -22q-23 -16 -51 -25q-93 -31 -204 -31h-4q-14 0 -21 -1.5t-14 -8t-8 -20.5q0 -2 -2 -4q-23 -47 -43 -109q-33 -108 -34 -202v-26zM185 1121h3q47 0 52 -39q4 -25 24 -48q60 -70 112 -110q19 -13 27 -26
q7 -10 7 -19q0 -6 -3 -12q-7 -13 -28 -13q-20 1 -41 17q-67 46 -116 92q-46 44 -61 62q-17 23 -17 44q0 12 4 24q6 17 13 22.5t24 5.5z" />
    <glyph glyph-name="Oacute" unicode="&#xd3;" horiz-adv-x="709" 
d="M2 195q0 76 23 168q22 84 49 119q4 4 4 8t-6 10q-22 28 -29 46q-7 20 -7 42q0 40 23 77q56 93 174 120q29 7 62 7q45 0 93 -17q101 -37 159 -146q44 -84 55 -182q3 -33 3 -67q0 -66 -12 -134q-25 -127 -84 -245q-55 -111 -143 -164q-58 -35 -119 -35q-107 0 -176 101
q-51 73 -64 178q-5 31 -5 75v39zM107 79q0 -81 32 -138q43 -75 121 -75h3q60 1 113 45q51 42 84 107q51 94 76 197q23 92 23 169q0 55 -11 102q-23 112 -88 182t-158 73h-6q-110 0 -184 -95q-13 -17 -18 -44q-1 -4 -1 -13q0 -41 36 -60q48 -24 83 -25q13 -1 40 -1
q122 0 214 40q14 6 23 6h2q15 0 15 -14q0 -5 -1 -7q-4 -14 -17 -22q-23 -16 -51 -25q-93 -31 -204 -31h-4q-14 0 -21 -1.5t-14 -8t-8 -20.5q0 -2 -2 -4q-23 -47 -43 -109q-33 -108 -34 -202v-26zM343 1133q17 0 24 -5.5t13 -22.5q4 -12 4 -24q0 -21 -17 -44q-15 -18 -61 -62
q-49 -46 -116 -92q-21 -16 -41 -17q-21 0 -28 13q-3 6 -3 12q0 9 7 19q8 13 27 26q53 40 112 110q20 23 24 48q5 39 52 39h3z" />
    <glyph glyph-name="Ocircumflex" unicode="&#xd4;" horiz-adv-x="709" 
d="M2 195q0 76 23 168q22 84 49 119q4 4 4 8t-6 10q-22 28 -29 46q-7 20 -7 42q0 40 23 77q56 93 174 120q29 7 62 7q45 0 93 -17q101 -37 159 -146q44 -84 55 -182q3 -33 3 -67q0 -66 -12 -134q-25 -127 -84 -245q-55 -111 -143 -164q-58 -35 -119 -35q-107 0 -176 101
q-51 73 -64 178q-5 31 -5 75v39zM107 79q0 -81 32 -138q43 -75 121 -75h3q60 1 113 45q51 42 84 107q51 94 76 197q23 92 23 169q0 55 -11 102q-23 112 -88 182t-158 73h-6q-110 0 -184 -95q-13 -17 -18 -44q-1 -4 -1 -13q0 -41 36 -60q48 -24 83 -25q13 -1 40 -1
q122 0 214 40q14 6 23 6h2q15 0 15 -14q0 -5 -1 -7q-4 -14 -17 -22q-23 -16 -51 -25q-93 -31 -204 -31h-4q-14 0 -21 -1.5t-14 -8t-8 -20.5q0 -2 -2 -4q-23 -47 -43 -109q-33 -108 -34 -202v-26zM475 838q-48 4 -100 47q-37 30 -76 95q-8 14 -12 20q-8 11 -14 11
q-7 0 -16 -10q-43 -47 -61 -74q-10 -16 -46 -63q-10 -12 -22 -17q-11 -3 -19 -3q-15 0 -25 10q-12 14 -12 30q0 7 3 16q5 15 15 17q9 3 17 7t16 12t12 11.5t13.5 14.5t11.5 13q11 13 33 39.5t34 39.5q29 32 65 32q27 0 53 -20q14 -10 19 -17q3 -3 34.5 -39t44.5 -57
q2 -4 4.5 -7.5t5.5 -7.5t5 -6q16 -19 34 -19q1 0 3 0.5t4 0.5h6q11 0 19 -5q10 -10 10 -24q0 -3 -2 -11q-7 -15 -22.5 -25.5t-32.5 -10.5h-2z" />
    <glyph glyph-name="Otilde" unicode="&#xd5;" horiz-adv-x="709" 
d="M2 195q0 76 23 168q22 84 49 119q4 4 4 8t-6 10q-22 28 -29 46q-7 20 -7 42q0 40 23 77q56 93 174 120q29 7 62 7q45 0 93 -17q101 -37 159 -146q44 -84 55 -182q3 -33 3 -67q0 -66 -12 -134q-25 -127 -84 -245q-55 -111 -143 -164q-58 -35 -119 -35q-107 0 -176 101
q-51 73 -64 178q-5 31 -5 75v39zM107 79q0 -81 32 -138q43 -75 121 -75h3q60 1 113 45q51 42 84 107q51 94 76 197q23 92 23 169q0 55 -11 102q-23 112 -88 182t-158 73h-6q-110 0 -184 -95q-13 -17 -18 -44q-1 -4 -1 -13q0 -41 36 -60q48 -24 83 -25q13 -1 40 -1
q122 0 214 40q14 6 23 6h2q15 0 15 -14q0 -5 -1 -7q-4 -14 -17 -22q-23 -16 -51 -25q-93 -31 -204 -31h-4q-14 0 -21 -1.5t-14 -8t-8 -20.5q0 -2 -2 -4q-23 -47 -43 -109q-33 -108 -34 -202v-26zM380 857q-30 0 -57 19q-11 8 -32.5 24.5t-31.5 23.5q-2 2 -6 5t-7.5 5.5
t-7.5 4.5q-11 7 -21 7q-12 0 -26 -13q-25 -22 -35 -51q-6 -18 -22.5 -29t-34.5 -11q-5 0 -13 2q-13 3 -25.5 21.5t-12.5 33.5q0 5 1 7l4.5 13.5t5.5 15l6 13.5t7.5 14t9 11t12.5 11q50 32 81 37q14 2 20 2q37 0 72 -27q30 -23 71 -62q22 -21 47 -21q16 0 34 9q50 28 70 58
q6 8 9 11q8 10 18 10q3 0 9 -2q11 -5 11 -20q0 -5 -1 -8q-6 -20 -12 -28q-39 -55 -115 -83q-6 -2 -9 -2q-6 -1 -19 -1z" />
    <glyph glyph-name="Odieresis" unicode="&#xd6;" horiz-adv-x="709" 
d="M2 195q0 76 23 168q22 84 49 119q4 4 4 8t-6 10q-22 28 -29 46q-7 20 -7 42q0 40 23 77q56 93 174 120q29 7 62 7q45 0 93 -17q101 -37 159 -146q44 -84 55 -182q3 -33 3 -67q0 -66 -12 -134q-25 -127 -84 -245q-55 -111 -143 -164q-58 -35 -119 -35q-107 0 -176 101
q-51 73 -64 178q-5 31 -5 75v39zM107 79q0 -81 32 -138q43 -75 121 -75h3q60 1 113 45q51 42 84 107q51 94 76 197q23 92 23 169q0 55 -11 102q-23 112 -88 182t-158 73h-6q-110 0 -184 -95q-13 -17 -18 -44q-1 -4 -1 -13q0 -41 36 -60q48 -24 83 -25q13 -1 40 -1
q122 0 214 40q14 6 23 6h2q15 0 15 -14q0 -5 -1 -7q-4 -14 -17 -22q-23 -16 -51 -25q-93 -31 -204 -31h-4q-14 0 -21 -1.5t-14 -8t-8 -20.5q0 -2 -2 -4q-23 -47 -43 -109q-33 -108 -34 -202v-26zM162 934q0 21 3 32q6 28 27 32q12 2 18 2q20 0 34 -15q17 -20 17 -50
q0 -45 -29 -66q-12 -9 -26 -9q-28 0 -39 30q-5 14 -5 34v10zM324 934q0 21 3 32q6 28 27 32q12 2 18 2q20 0 34 -15q17 -20 17 -50q0 -45 -29 -66q-12 -9 -26 -9q-28 0 -39 30q-5 14 -5 34v10z" />
    <glyph glyph-name="multiply" unicode="&#xd7;" horiz-adv-x="520" 
d="M353 38q-54 6 -108 29q-62 29 -76 38q-5 4 -11 4q-7 0 -14 -10q-42 -68 -54 -107q-5 -20 -18 -20h-5q-21 5 -21 25v4q2 24 12 43q20 44 40 86q6 14 6 19q0 7 -14 21q-47 50 -78 109q-6 11 -6 20q0 21 23 33q8 3 14 3q8 0 18 -5q17 -7 42 -37q15 -16 43 -50q6 -6 9 -6
q4 0 10 6q7 9 22 31.5t25 33.5q24 25 41 48q13 15 36 15q30 0 41 -23q3 -6 3 -15q0 -25 -14 -39q-65 -60 -102 -101q-6 -7 -6 -12t7 -11q64 -57 130 -73q10 -2 15 -2q6 0 18 2q11 3 17 3q13 0 17 -13q2 -6 2 -9q0 -19 -18 -29q-19 -11 -46 -11z" />
    <glyph glyph-name="Oslash" unicode="&#xd8;" horiz-adv-x="712" 
d="M185 -112q36 218 71 407q3 16 7 48l18 108q-16 -1 -48 -1h-9q-13 0 -22 -3q-13 -4 -16 -27q0 -2 -1 -3l-1 -1q-23 -47 -43 -109q-31 -97 -34 -202v-33q0 -71 32 -131q17 -33 46 -53zM290 503q7 41 23 121q10 50 18 101q0 2 0.5 6.5t1.5 6.5q-20 2 -31 3h-2
q-117 0 -188 -95q-13 -19 -18 -44q-1 -5 -1 -13q0 -39 36 -60q38 -20 83 -25q32 -2 47 -2q21 0 31 1zM421 702q-5 -19 -17 -59q-20 -65 -33 -129q54 12 95 29q10 4 23 6q17 0 17 -14q0 -4 -1 -7q-5 -14 -17 -22q-26 -18 -51 -25q-41 -13 -77 -20l-3 -12q-16 -69 -31 -156
l-9 -45l-69 -381q5 -1 15 -1q65 3 113 45q52 45 84 107q52 99 76 197q22 78 22 161q0 57 -10 110q-19 103 -88 182q-20 22 -39 34zM366 -163q-62 -35 -120 -35h-9l-6 -31q-15 -62 -15 -124v-13q-5 -27 -23 -28h-2q-20 0 -29 20t-9 42v4q1 32 20 145q-58 24 -102 86
q-53 80 -64 178q-5 31 -5 76v36q0 84 23 170q12 66 49 119q3 4 3 8v2q-1 5 -5 8q-18 20 -29 46q-7 21 -7 45q0 37 23 74q61 96 174 120q28 7 61 7q26 0 47 -4q1 3 2 10t2 11q10 52 24 106q1 5 5 20q8 30 29 50q11 9 22 9q5 0 13 -3q40 -15 40 -51q0 -5 -2 -17
q-13 -66 -23 -103l-18 -68q71 -43 112 -123q44 -84 55 -182q3 -34 3 -70q0 -65 -12 -131q-26 -128 -84 -245q-46 -102 -143 -164z" />
    <glyph glyph-name="Ugrave" unicode="&#xd9;" horiz-adv-x="667" 
d="M448 367q-24 -100 -36 -151q-46 -179 -81 -278q-18 -51 -44 -88q-16 -23 -33 -33q-18 -12 -37 -12q-18 0 -38 11q-26 15 -46 47q-47 74 -79 195q-26 101 -33 154q-15 102 -16 141q0 11 -2 44.5t-2 51.5v12q2 82 5 105q12 96 12 98q11 65 23 84q15 21 34 21h5q5 0 7 1h3
q56 0 61 -60q0 -2 0.5 -6t0.5 -6q0 -12 -4 -40q-10 -78 -18 -161q-2 -20 -2 -62v-41q0 -11 -0.5 -33t-0.5 -33q0 -22 2 -66q4 -66 8 -99q13 -110 28 -179q15 -58 40 -105q1 -4 5 -8q7 -10 14 -10q6 0 13 6q20 18 39 58q20 43 54 151q48 156 90 354q23 110 34 199q2 15 3 48
t4 51q1 3 2 14t3 16q6 25 28 25h4q21 -2 22 -28q0 -5 0.5 -13t0.5 -13q0 -12 -2 -36q-3 -31 -4 -89t-2 -76q-1 -13 -1 -39q0 -13 0.5 -39t0.5 -39q2 -193 4 -233q3 -110 23 -206q7 -28 16 -36q9 -7 9 -17q0 -7 -6 -13q-7 -8 -20 -8q-7 0 -13 3q-8 4 -16 20q-13 24 -25 78
q-16 84 -25 203q-2 24 -5.5 79.5t-6.5 85.5zM182 1093h3q47 0 52 -39q4 -25 24 -48q59 -70 112 -110q19 -13 27 -26q7 -10 7 -19q0 -6 -3 -12q-7 -13 -28 -13q-20 1 -41 17q-67 46 -116 92q-46 44 -61 62q-17 23 -17 44q0 12 4 24q6 17 13 22.5t24 5.5z" />
    <glyph glyph-name="Uacute" unicode="&#xda;" horiz-adv-x="667" 
d="M448 367q-24 -100 -36 -151q-46 -179 -81 -278q-18 -51 -44 -88q-16 -23 -33 -33q-18 -12 -37 -12q-18 0 -38 11q-26 15 -46 47q-47 74 -79 195q-26 101 -33 154q-15 102 -16 141q0 11 -2 44.5t-2 51.5v12q2 82 5 105q12 96 12 98q11 65 23 84q15 21 34 21h5q5 0 7 1h3
q56 0 61 -60q0 -2 0.5 -6t0.5 -6q0 -12 -4 -40q-10 -78 -18 -161q-2 -20 -2 -62v-41q0 -11 -0.5 -33t-0.5 -33q0 -22 2 -66q4 -66 8 -99q13 -110 28 -179q15 -58 40 -105q1 -4 5 -8q7 -10 14 -10q6 0 13 6q20 18 39 58q20 43 54 151q48 156 90 354q23 110 34 199q2 15 3 48
t4 51q1 3 2 14t3 16q6 25 28 25h4q21 -2 22 -28q0 -5 0.5 -13t0.5 -13q0 -12 -2 -36q-3 -31 -4 -89t-2 -76q-1 -13 -1 -39q0 -13 0.5 -39t0.5 -39q2 -193 4 -233q3 -110 23 -206q7 -28 16 -36q9 -7 9 -17q0 -7 -6 -13q-7 -8 -20 -8q-7 0 -13 3q-8 4 -16 20q-13 24 -25 78
q-16 84 -25 203q-2 24 -5.5 79.5t-6.5 85.5zM384 1090q17 0 24 -5.5t13 -22.5q4 -12 4 -24q0 -21 -17 -44q-15 -18 -61 -62q-49 -46 -116 -92q-21 -16 -41 -17q-21 0 -28 13q-3 6 -3 12q0 8 7 19q8 13 27 26q53 40 112 110q20 23 24 48q5 39 52 39h3z" />
    <glyph glyph-name="Ucircumflex" unicode="&#xdb;" horiz-adv-x="667" 
d="M448 367q-24 -100 -36 -151q-46 -179 -81 -278q-18 -51 -44 -88q-16 -23 -33 -33q-18 -12 -37 -12q-18 0 -38 11q-26 15 -46 47q-47 74 -79 195q-26 101 -33 154q-15 102 -16 141q0 11 -2 44.5t-2 51.5v12q2 82 5 105q12 96 12 98q11 65 23 84q15 21 34 21h5q5 0 7 1h3
q56 0 61 -60q0 -2 0.5 -6t0.5 -6q0 -12 -4 -40q-10 -78 -18 -161q-2 -20 -2 -62v-41q0 -11 -0.5 -33t-0.5 -33q0 -22 2 -66q4 -66 8 -99q13 -110 28 -179q15 -58 40 -105q1 -4 5 -8q7 -10 14 -10q6 0 13 6q20 18 39 58q20 43 54 151q48 156 90 354q23 110 34 199q2 15 3 48
t4 51q1 3 2 14t3 16q6 25 28 25h4q21 -2 22 -28q0 -5 0.5 -13t0.5 -13q0 -12 -2 -36q-3 -31 -4 -89t-2 -76q-1 -13 -1 -39q0 -13 0.5 -39t0.5 -39q2 -193 4 -233q3 -110 23 -206q7 -28 16 -36q9 -7 9 -17q0 -7 -6 -13q-7 -8 -20 -8q-7 0 -13 3q-8 4 -16 20q-13 24 -25 78
q-16 84 -25 203q-2 24 -5.5 79.5t-6.5 85.5zM465 865q-48 4 -100 47q-37 30 -76 95q-8 14 -12 20q-8 11 -14 11q-7 0 -16 -10q-43 -47 -61 -74q-10 -16 -46 -63q-10 -12 -22 -17q-10 -3 -19 -3q-15 0 -25 10q-12 13 -12 30q0 7 3 16q5 15 15 17q9 3 17 7t16 12t12 11.5
t13.5 14.5t11.5 13q12 13 34 39.5t33 39.5q29 32 65 32q27 0 53 -20q14 -10 19 -17q3 -3 34.5 -39t44.5 -57l15 -21q16 -19 34 -19q1 0 3 0.5t4 0.5h6q12 0 19 -5q10 -10 10 -24q0 -3 -2 -11q-7 -15 -22.5 -25.5t-32.5 -10.5h-2z" />
    <glyph glyph-name="Udieresis" unicode="&#xdc;" horiz-adv-x="667" 
d="M448 367q-24 -100 -36 -151q-46 -179 -81 -278q-18 -51 -44 -88q-16 -23 -33 -33q-18 -12 -37 -12q-18 0 -38 11q-26 15 -46 47q-47 74 -79 195q-26 101 -33 154q-15 102 -16 141q0 11 -2 44.5t-2 51.5v12q2 82 5 105q12 96 12 98q11 65 23 84q15 21 34 21h5q5 0 7 1h3
q56 0 61 -60q0 -2 0.5 -6t0.5 -6q0 -12 -4 -40q-10 -78 -18 -161q-2 -20 -2 -62v-41q0 -11 -0.5 -33t-0.5 -33q0 -22 2 -66q4 -66 8 -99q13 -110 28 -179q15 -58 40 -105q1 -4 5 -8q7 -10 14 -10q6 0 13 6q20 18 39 58q20 43 54 151q48 156 90 354q23 110 34 199q2 15 3 48
t4 51q1 3 2 14t3 16q6 25 28 25h4q21 -2 22 -28q0 -5 0.5 -13t0.5 -13q0 -12 -2 -36q-3 -31 -4 -89t-2 -76q-1 -13 -1 -39q0 -13 0.5 -39t0.5 -39q2 -193 4 -233q3 -110 23 -206q7 -28 16 -36q9 -7 9 -17q0 -7 -6 -13q-7 -8 -20 -8q-7 0 -13 3q-8 4 -16 20q-13 24 -25 78
q-16 84 -25 203q-2 24 -5.5 79.5t-6.5 85.5zM172 905q0 21 3 32q6 28 27 32q12 2 18 2q20 0 34 -15q17 -20 17 -50q0 -45 -29 -66q-12 -9 -26 -9q-28 0 -39 30q-5 14 -5 34v10zM334 905q0 21 3 32q6 28 27 32q12 2 18 2q20 0 34 -15q17 -20 17 -50q0 -45 -29 -66
q-12 -9 -26 -9q-28 0 -39 30q-5 14 -5 34v10z" />
    <glyph glyph-name="Yacute" unicode="&#xdd;" horiz-adv-x="698" 
d="M515 454q-4 -9 -11.5 -27t-11.5 -27q-74 -178 -153 -280q-37 -47 -79 -70q-31 -17 -61 -17q-45 0 -84 41q-43 46 -68 121q-9 28 -23 86q-17 70 -20 168q-1 16 -1 49q0 76 13 164q9 60 32 96q13 21 33 21h17q8 0 11 -1q27 -3 37 -26q9 -25 9 -41q0 -9 -1 -14
q-14 -84 -20 -126q-2 -13 -3.5 -28.5t-3 -34t-2.5 -28.5q-4 -41 -4 -94v-29q4 -102 18 -168q7 -31 27 -65q19 -30 48 -30q19 0 35 10q36 19 69 63q48 62 89 145q76 159 105 307q1 5 2 14.5t2.5 17t5.5 13.5q13 19 32 19q9 0 17 -4q10 -5 14 -15q7 -19 7 -34q2 -82 3 -122
q2 -34 2 -102q0 -56 -1 -84q-3 -134 -39 -263q-37 -136 -122 -209q-38 -33 -76 -38q-1 0 -4 -0.5t-5 -0.5q-24 0 -44 15t-25 37q-2 8 -2 14q0 13 9 18q2 1 6 1t14 -6l20 -20q8 -9 18 -9q4 0 12 2q16 6 40 28q51 51 73 115q28 82 38 162q11 74 11 163v122q-1 0 -3 1h-2z
M432 1072q17 0 24 -5.5t13 -22.5q4 -12 4 -24q0 -21 -17 -44q-15 -18 -61 -62q-49 -46 -116 -92q-21 -16 -41 -17q-21 0 -28 13q-3 6 -3 12q0 8 7 19q8 13 27 26q53 40 112 110q20 23 24 48q5 39 52 39h3z" />
    <glyph glyph-name="Thorn" unicode="&#xde;" horiz-adv-x="631" 
d="M122 437q11 16 27 49t18 36q69 130 150 219q31 35 71 54q14 6 27 6q40 0 65 -29t34 -67q8 -37 8 -67q0 -65 -32 -137q-61 -138 -211 -261q-22 -18 -53 -31q-18 -6 -28 -6q-17 0 -31 10q-15 9 -15 27v5q4 21 21 21q5 0 7 -1q8 -2 12 -2q17 0 36 19q59 48 107 118
q63 93 81 143q21 58 21 102q0 30 -8 55q0 1 -2 6t-4 7q-6 13 -14 13q-5 0 -13 -5q-38 -25 -72 -71q-59 -76 -101 -156q-76 -141 -97 -267q-13 -69 -13 -98v-6q5 -131 26 -220q1 -6 5 -17.5t5 -15.5q3 -8 16 -17t13 -21t-13 -22q-10 -7 -21 -7q-10 0 -21 6q-24 15 -36 42
q-24 55 -37 123q-20 99 -36 233q-9 86 -13 219v29q0 41 2 123q0 17 5 91.5t5 85.5t3.5 22t9.5 26t8 21q4 9 9 11q35 13 49 13q8 0 12 -1q15 -3 22 -16q20 -28 20 -57v-7q-2 -19 -16 -207q-2 -20 -4.5 -61t-3.5 -62z" />
    <glyph glyph-name="germandbls" unicode="&#xdf;" horiz-adv-x="635" 
d="M109 154q3 5 6 27q2 144 48 279q38 109 103 192q48 58 96 78q36 15 59 15q11 0 28 -5q57 -19 74 -72q8 -23 8 -51q0 -27 -6 -54q-13 -63 -65 -181q-34 -73 -44 -121q-5 -22 -5 -40q0 -24 9 -58q8 -33 34 -95q12 -30 12 -57q0 -65 -68 -113q-45 -31 -126 -42
q-28 -4 -42 -4q-12 0 -26 3q-18 3 -32 14q-14 12 -14 27q0 7 5 17q8 13 20 13q8 0 16 -8q10 -13 28 -13h5q89 10 140 54q27 24 27 55q0 1 -0.5 4.5t-0.5 5.5q-2 24 -20 68q-26 62 -33 119q-2 16 -2 23q0 21 8 59q16 68 61 176q31 78 38 106q6 24 6 48q0 15 -1 22
q-4 40 -46 41q-29 0 -59 -20q-42 -27 -78 -81q-68 -99 -98 -231q-12 -54 -20 -165q-2 -23 -2 -70q0 -21 0.5 -45t1.5 -53.5t1 -46.5v-11q0 -12 -2 -17q-5 -19 -22 -19q-7 0 -15 5q-10 6 -17 22q-78 177 -93 371q-5 75 -5 136q0 34 2 104q0 19 12 91q3 14 13 30q21 27 37 27
q10 0 29 -8q3 -1 8.5 -2.5t9 -2.5t7.5 -3.5t6 -6.5q14 -18 14 -32q0 -6 -1 -9q-5 -14 -7 -41t-4 -36q-14 -67 -22 -186q-3 -46 -3 -93q0 -58 4 -105q2 -20 3 -34z" />
    <glyph glyph-name="agrave" unicode="&#xe0;" horiz-adv-x="587" 
d="M298 67q-4 0 -6 -2.5t-4 -7t-3 -5.5q-7 -13 -20.5 -37t-24.5 -43.5t-21 -36.5q-19 -35 -46 -59q-18 -18 -44 -18q-29 0 -50 19q-18 16 -28 35q-48 95 -50 206v23q0 77 11 130q26 127 87 187q42 42 88 42q19 0 42 -9q41 -18 63 -67q25 -56 33 -107q2 -8 2 -12v-2
q0 -19 -17 -26q-4 -2 -10 -2q-12 0 -22 10q-5 6 -19 32q-20 38 -38 51q-7 6 -12 6q-6 0 -12 -10q-12 -19 -22 -45q-9 -25 -17 -53.5t-16.5 -66t-12.5 -55.5q-5 -19 -7 -44q0 -11 -2 -44t-2 -51q0 -24 3 -46q5 -22 7 -27q4 -9 9 -9q3 0 10 5q11 10 31 38q69 111 95 161
q9 18 25 56q11 28 39 28q19 0 32 -15q19 -18 20 -41q1 -7 4 -33t3 -40q0 -22 4 -66q1 -20 12 -40q6 -13 11 -13q4 0 15 8q12 10 18 14q8 5 14 5q7 0 11 -4q5 -5 5 -15v-7q-2 -20 -18 -38t-35 -23q-10 -2 -15 -2q-29 0 -54 32q-50 61 -61 128q-3 5 -5 6zM123 824h3
q47 0 52 -39q4 -25 24 -48q60 -70 112 -110q19 -13 27 -26q7 -11 7 -19q0 -6 -3 -12q-7 -13 -28 -13q-20 1 -41 17q-67 46 -116 92q-46 44 -61 62q-17 23 -17 44q0 12 4 24q6 17 13 22.5t24 5.5z" />
    <glyph glyph-name="aacute" unicode="&#xe1;" horiz-adv-x="587" 
d="M298 67q-4 0 -6 -2.5t-4 -7t-3 -5.5q-7 -13 -20.5 -37t-24.5 -43.5t-21 -36.5q-19 -35 -46 -59q-18 -18 -44 -18q-29 0 -50 19q-18 16 -28 35q-48 95 -50 206v23q0 77 11 130q26 127 87 187q42 42 88 42q19 0 42 -9q41 -18 63 -67q25 -56 33 -107q2 -8 2 -12v-2
q0 -19 -17 -26q-4 -2 -10 -2q-12 0 -22 10q-5 6 -19 32q-20 38 -38 51q-7 6 -12 6q-6 0 -12 -10q-12 -19 -22 -45q-9 -25 -17 -53.5t-16.5 -66t-12.5 -55.5q-5 -19 -7 -44q0 -11 -2 -44t-2 -51q0 -24 3 -46q5 -22 7 -27q4 -9 9 -9q3 0 10 5q11 10 31 38q69 111 95 161
q9 18 25 56q11 28 39 28q19 0 32 -15q19 -18 20 -41q1 -7 4 -33t3 -40q0 -22 4 -66q1 -20 12 -40q6 -13 11 -13q4 0 15 8q12 10 18 14q8 5 14 5q7 0 11 -4q5 -5 5 -15v-7q-2 -20 -18 -38t-35 -23q-10 -2 -15 -2q-29 0 -54 32q-50 61 -61 128q-3 5 -5 6zM253 826
q17 0 24 -5.5t13 -22.5q4 -12 4 -24q0 -21 -17 -44q-15 -18 -61 -62q-49 -46 -116 -92q-21 -16 -41 -17q-21 0 -28 13q-3 6 -3 12q0 8 7 19q8 13 27 26q52 40 112 110q20 23 24 48q5 39 52 39h3z" />
    <glyph glyph-name="acircumflex" unicode="&#xe2;" horiz-adv-x="587" 
d="M298 67q-4 0 -6 -2.5t-4 -7t-3 -5.5q-7 -13 -20.5 -37t-24.5 -43.5t-21 -36.5q-19 -35 -46 -59q-18 -18 -44 -18q-29 0 -50 19q-18 16 -28 35q-48 95 -50 206v23q0 77 11 130q26 127 87 187q42 42 88 42q19 0 42 -9q41 -18 63 -67q25 -56 33 -107q2 -8 2 -12v-2
q0 -19 -17 -26q-4 -2 -10 -2q-12 0 -22 10q-5 6 -19 32q-20 38 -38 51q-7 6 -12 6q-6 0 -12 -10q-12 -19 -22 -45q-9 -25 -17 -53.5t-16.5 -66t-12.5 -55.5q-5 -19 -7 -44q0 -11 -2 -44t-2 -51q0 -24 3 -46q5 -22 7 -27q4 -9 9 -9q3 0 10 5q11 10 31 38q69 111 95 161
q9 18 25 56q11 28 39 28q19 0 32 -15q19 -18 20 -41q1 -7 4 -33t3 -40q0 -22 4 -66q1 -20 12 -40q6 -13 11 -13q4 0 15 8q12 10 18 14q8 5 14 5q7 0 11 -4q5 -5 5 -15v-7q-2 -20 -18 -38t-35 -23q-10 -2 -15 -2q-29 0 -54 32q-50 61 -61 128q-3 5 -5 6zM371 561
q-48 4 -100 47q-37 30 -76 95q-8 14 -12 20q-8 11 -14 11q-7 0 -16 -10q-43 -47 -61 -74q-10 -16 -46 -63q-10 -12 -22 -17q-11 -3 -19 -3q-15 0 -25 10q-12 13 -12 30q0 7 3 16q5 15 15 17q9 3 17 7t16 12t12 11.5t13.5 14.5t11.5 13q12 13 34 39.5t33 39.5q29 32 65 32
q27 0 53 -20q14 -10 19 -17q3 -3 34.5 -39t44.5 -57q2 -4 4.5 -7.5t5.5 -7.5t5 -6q16 -19 34 -19q1 0 3 0.5t4 0.5h6q11 0 19 -5q10 -10 10 -24q0 -3 -2 -11q-7 -15 -22.5 -25.5t-32.5 -10.5h-2z" />
    <glyph glyph-name="atilde" unicode="&#xe3;" horiz-adv-x="587" 
d="M298 67q-4 0 -6 -2.5t-4 -7t-3 -5.5q-7 -13 -20.5 -37t-24.5 -43.5t-21 -36.5q-19 -35 -46 -59q-18 -18 -44 -18q-29 0 -50 19q-18 16 -28 35q-48 95 -50 206v23q0 77 11 130q26 127 87 187q42 42 88 42q19 0 42 -9q41 -18 63 -67q25 -56 33 -107q2 -8 2 -12v-2
q0 -19 -17 -26q-4 -2 -10 -2q-12 0 -22 10q-5 6 -19 32q-20 38 -38 51q-7 6 -12 6q-6 0 -12 -10q-12 -19 -22 -45q-9 -25 -17 -53.5t-16.5 -66t-12.5 -55.5q-5 -19 -7 -44q0 -11 -2 -44t-2 -51q0 -24 3 -46q5 -22 7 -27q4 -9 9 -9q3 0 10 5q11 10 31 38q69 111 95 161
q9 18 25 56q11 28 39 28q19 0 32 -15q19 -18 20 -41q1 -7 4 -33t3 -40q0 -22 4 -66q1 -20 12 -40q6 -13 11 -13q4 0 15 8q12 10 18 14q8 5 14 5q7 0 11 -4q5 -5 5 -15v-7q-2 -20 -18 -38t-35 -23q-10 -2 -15 -2q-29 0 -54 32q-50 61 -61 128q-3 5 -5 6zM302 567
q-30 0 -57 19q-11 8 -32.5 24.5t-31.5 23.5q-2 2 -6 5t-7.5 5.5t-7.5 4.5q-11 7 -21 7q-12 0 -26 -13q-25 -22 -35 -51q-6 -18 -22.5 -29t-34.5 -11q-5 0 -13 2q-13 3 -25.5 21.5t-12.5 33.5q0 5 1 7l4.5 13.5t5.5 15l6 13.5t7.5 14t9 11t12.5 11q50 32 81 37q14 2 20 2
q37 0 72 -27q30 -23 71 -62q23 -21 47 -21q16 0 34 9q50 28 70 58q6 8 9 11q8 10 18 10q3 0 9 -2q11 -5 11 -20q0 -5 -1 -8q-6 -20 -12 -28q-39 -55 -115 -83q-6 -2 -9 -2q-6 -1 -19 -1z" />
    <glyph glyph-name="adieresis" unicode="&#xe4;" horiz-adv-x="587" 
d="M298 67q-4 0 -6 -2.5t-4 -7t-3 -5.5q-7 -13 -20.5 -37t-24.5 -43.5t-21 -36.5q-19 -35 -46 -59q-18 -18 -44 -18q-29 0 -50 19q-18 16 -28 35q-48 95 -50 206v23q0 77 11 130q26 127 87 187q42 42 88 42q19 0 42 -9q41 -18 63 -67q25 -56 33 -107q2 -8 2 -12v-2
q0 -19 -17 -26q-4 -2 -10 -2q-12 0 -22 10q-5 6 -19 32q-20 38 -38 51q-7 6 -12 6q-6 0 -12 -10q-12 -19 -22 -45q-9 -25 -17 -53.5t-16.5 -66t-12.5 -55.5q-5 -19 -7 -44q0 -11 -2 -44t-2 -51q0 -24 3 -46q5 -22 7 -27q4 -9 9 -9q3 0 10 5q11 10 31 38q69 111 95 161
q9 18 25 56q11 28 39 28q19 0 32 -15q19 -18 20 -41q1 -7 4 -33t3 -40q0 -22 4 -66q1 -20 12 -40q6 -13 11 -13q4 0 15 8q12 10 18 14q8 5 14 5q7 0 11 -4q5 -5 5 -15v-7q-2 -20 -18 -38t-35 -23q-10 -2 -15 -2q-29 0 -54 32q-50 61 -61 128q-3 5 -5 6zM63 651q0 21 3 32
q6 28 27 32q12 2 18 2q20 0 34 -15q17 -20 17 -50q0 -45 -29 -66q-12 -9 -26 -9q-28 0 -39 30q-5 14 -5 34v10zM225 651q0 21 3 32q6 28 27 32q12 2 18 2q20 0 34 -15q17 -20 17 -50q0 -45 -29 -66q-12 -9 -26 -9q-28 0 -39 30q-5 14 -5 34v10z" />
    <glyph glyph-name="aring" unicode="&#xe5;" horiz-adv-x="587" 
d="M298 67q-4 0 -6 -2.5t-4 -7t-3 -5.5q-7 -13 -20.5 -37t-24.5 -43.5t-21 -36.5q-19 -35 -46 -59q-18 -18 -44 -18q-29 0 -50 19q-18 16 -28 35q-48 95 -50 206v23q0 77 11 130q26 127 87 187q42 42 88 42q19 0 42 -9q41 -18 63 -67q25 -56 33 -107q2 -8 2 -12v-2
q0 -19 -17 -26q-4 -2 -10 -2q-12 0 -22 10q-5 6 -19 32q-20 38 -38 51q-7 6 -12 6q-6 0 -12 -10q-12 -19 -22 -45q-9 -25 -17 -53.5t-16.5 -66t-12.5 -55.5q-5 -19 -7 -44q0 -11 -2 -44t-2 -51q0 -24 3 -46q5 -22 7 -27q4 -9 9 -9q3 0 10 5q11 10 31 38q69 111 95 161
q9 18 25 56q11 28 39 28q19 0 32 -15q19 -18 20 -41q1 -7 4 -33t3 -40q0 -22 4 -66q1 -20 12 -40q6 -13 11 -13q4 0 15 8q12 10 18 14q8 5 14 5q7 0 11 -4q5 -5 5 -15v-7q-2 -20 -18 -38t-35 -23q-10 -2 -15 -2q-29 0 -54 32q-50 61 -61 128q-3 5 -5 6zM304 703
q-11 -84 -76 -122q-22 -12 -46 -12q-30 0 -55 18t-35 49q-14 44 -14 75q0 9 2 25q5 37 22 64q24 38 57 38q20 0 41 -15q9 -7 34 -15q70 -21 70 -102v-3zM246 706q0 22 -6 32q-10 15 -17 15q-1 0 -3 -1q-29 -7 -37 -17q-20 -24 -20 -57q0 -6 2 -20q5 -25 25 -25q11 0 23 9
q33 24 33 64z" />
    <glyph glyph-name="ae" unicode="&#xe6;" horiz-adv-x="808" 
d="M303 42q-4 16 -5 25q-6 -2 -7 -4q-2 -4 -3 -7q-1 -1 -3 -4l-27 -48l-39 -69q-19 -35 -46 -59q-18 -17 -43 -17h-7q-28 2 -44 18q-18 16 -28 35q-48 96 -50 206q0 5 -0.5 13.5t-0.5 13.5q0 63 12 126q11 56 29 100q20 49 58 87q23 24 47 34q26 8 39 8q20 0 44 -9
q44 -21 63 -67q23 -51 33 -106q1 4 4 11.5t5 10.5q15 43 49 83q0 1 1 1q16 21 46 44q44 34 95 38h2q52 0 85 -43q22 -34 26 -70q5 -37 5 -67q0 -43 -7 -79q-2 -11 -8 -22q-3 -5 -9 -11q-5 -4 -13 -4h-3q-20 2 -27 19q-3 9 -3 17q0 2 0.5 5t0.5 4q1 8 1 23q0 41 -13 77v2
q-1 1 -1 2q-11 23 -24 23q-12 0 -25 -16q-65 -82 -91 -184q-1 -3 -1 -7q0 -5 5 -5q2 0 8 2l28 10q16 7 20 8q3 2 10 4.5t11 3.5q8 2 24 8q9 3 19 3q13 0 27 -6q26 -12 26 -37q0 -3 -2 -13q-4 -15 -12 -18q-10 -2 -11 -2q-8 0 -17 6q-9 7 -17 7q-3 0 -9 -2q-2 -1 -5 -1
q-51 -17 -103 -24q-12 -1 -14 -16q-3 -21 -3 -43q0 -52 17 -97h2q3 0 14 8q9 9 18 14q4 3 13 5q7 0 12 -4q5 -5 6 -10q0 -8 -1 -12q-3 -21 -18 -37q-3 -4 -10 -11q10 -5 20 -5q16 0 28 4q28 8 47 22l10 6q59 30 103 88q6 6 9 8q3 3 8 5q2 1 5 1q5 0 8 -2q11 -8 12 -20
q-2 -15 -10 -26q-35 -50 -83 -82q-35 -25 -79 -48q-34 -17 -64 -17q-17 0 -30 4q-45 12 -76 50q-46 62 -63 138zM300 221q6 38 11 57q-6 -3 -12 -3q-11 0 -21 10q-8 11 -15 26l-4 6q-14 31 -38 51q-9 6 -13 6q-6 -2 -11 -10q-12 -19 -22 -45q-20 -59 -34 -125l-12 -50
q-5 -19 -7 -44q-1 -6 -1.5 -18.5t-0.5 -18.5q-2 -16 -2 -47q0 -28 3 -57q1 -1 1 -2q1 -13 6 -25q4 -9 10 -9q4 0 9 5q18 15 31 38q1 2 6 10.5t8 12.5q44 67 81 138q19 41 22 48q0 4 0.5 11.5t1.5 11.5q2 16 3 23z" />
    <glyph glyph-name="ccedilla" unicode="&#xe7;" horiz-adv-x="517" 
d="M148 -172q0 2 -0.5 5t-0.5 5q0 8 3 16q-44 14 -75 49q-47 62 -62 138q-11 40 -11 89v14q1 21 5 58q1 3 1.5 9.5t0.5 9.5q7 61 34 119q17 46 47 81l3 3q17 22 41 39q44 33 93 43q2 0 5 0.5t4 0.5q17 0 42 -10q28 -13 43 -34q20 -34 26 -70q6 -33 6 -67q0 -36 -8 -78
q-2 -12 -7 -20q-5 -10 -10 -14t-14 -4h-3q-21 4 -28 26v15q0 3 1 4q1 8 1 23q0 40 -13 76q0 1 -1 1q-4 12 -7 17q-5 9 -15 10h-3q-7 0 -14 -5q-7 -6 -13 -13q0 -1 -1 -1q-68 -89 -92 -199q-12 -52 -12 -106v-15q0 -48 21 -89q13 -28 28 -36q13 -7 24 -7q16 0 34 7
q91 33 152 109q6 8 11 12q6 6 13 6q2 0 8 -2q11 -6 12 -19q-1 -15 -9 -27q-34 -49 -84 -82q-38 -27 -78 -48q-18 -8 -32 -12q3 -6 5 -22q2 -13 8 -19q5 -6 16 -11l33 -15q6 -4 9 -5q44 -20 80 -50q34 -31 34 -66q0 -31 -28 -63q-30 -30 -71 -44q-74 -27 -156 -29h-33
q-27 1 -45 21q-10 9 -10 20q0 6 3 12q4 9 12 17q6 6 15 6h15q44 0 86 12h2q61 11 122 41q1 0 1 1l2 1q4 2 5 3q13 7 13 18q0 7 -8 17q-15 16 -34 25q-36 18 -55 25l-18 7q-25 9 -50 31q-16 16 -19 40z" />
    <glyph glyph-name="egrave" unicode="&#xe8;" horiz-adv-x="518" 
d="M3 145q0 1 6 76q4 46 34 119q20 50 49 83q34 36 48 45q53 37 94 38h3q53 0 85 -43q17 -24 25 -70q6 -31 6 -61q0 -40 -8 -85q-2 -13 -8 -22q-9 -15 -22 -15h-2q-20 2 -27 19q-3 9 -3 16q0 2 0.5 5.5t0.5 4.5q1 8 1 24q0 40 -13 76q-1 1 -1 4q-11 23 -24 23q-12 0 -26 -16
q-56 -65 -90 -184q-2 -6 -2 -8q0 -4 5 -4q1 0 9 2l48 18q7 3 22 8t22 8q9 3 18 3q15 0 28 -6q27 -10 27 -38q0 -4 -2 -12q-6 -20 -24 -20q-8 0 -16 6q-8 7 -17 7q-3 0 -9 -2q-72 -20 -108 -25q-13 -3 -14 -16q-3 -24 -3 -46q0 -51 17 -95q8 -22 28 -40q12 -11 30 -11
q8 0 26 4q24 6 47 22q71 44 96 72q9 10 17 22q3 5 8 8q10 6 15 6q1 0 7 -2q11 -5 11 -20v-3q0 -10 -9 -23q-26 -40 -84 -82q-33 -24 -78 -48q-30 -17 -64 -17q-63 0 -107 54q-42 53 -62 138q-11 48 -11 82q0 14 1 21zM120 830h3q47 0 52 -39q4 -25 24 -48q60 -70 112 -110
q19 -13 27 -26q7 -11 7 -19q0 -6 -3 -12q-7 -13 -28 -13q-20 1 -41 17q-67 46 -116 92q-46 44 -61 62q-17 23 -17 44q0 12 4 24q6 17 13 22.5t24 5.5z" />
    <glyph glyph-name="eacute" unicode="&#xe9;" horiz-adv-x="518" 
d="M3 145q0 1 6 76q4 46 34 119q20 50 49 83q34 36 48 45q53 37 94 38h3q53 0 85 -43q17 -24 25 -70q6 -31 6 -61q0 -40 -8 -85q-2 -13 -8 -22q-9 -15 -22 -15h-2q-20 2 -27 19q-3 9 -3 16q0 2 0.5 5.5t0.5 4.5q1 8 1 24q0 40 -13 76q-1 1 -1 4q-11 23 -24 23q-12 0 -26 -16
q-56 -65 -90 -184q-2 -6 -2 -8q0 -4 5 -4q1 0 9 2l48 18q7 3 22 8t22 8q9 3 18 3q15 0 28 -6q27 -10 27 -38q0 -4 -2 -12q-6 -20 -24 -20q-8 0 -16 6q-8 7 -17 7q-3 0 -9 -2q-72 -20 -108 -25q-13 -3 -14 -16q-3 -24 -3 -46q0 -51 17 -95q8 -22 28 -40q12 -11 30 -11
q8 0 26 4q24 6 47 22q71 44 96 72q9 10 17 22q3 5 8 8q10 6 15 6q1 0 7 -2q11 -5 11 -20v-3q0 -10 -9 -23q-26 -40 -84 -82q-33 -24 -78 -48q-30 -17 -64 -17q-63 0 -107 54q-42 53 -62 138q-11 48 -11 82q0 14 1 21zM251 812q17 0 24 -5.5t13 -22.5q4 -12 4 -24
q0 -21 -17 -44q-15 -18 -61 -62q-49 -46 -116 -92q-21 -16 -41 -17q-21 0 -28 13q-3 6 -3 12q0 8 7 19q8 13 27 26q52 40 112 110q20 23 24 48q5 39 52 39h3z" />
    <glyph glyph-name="ecircumflex" unicode="&#xea;" horiz-adv-x="518" 
d="M3 145q0 1 6 76q4 46 34 119q20 50 49 83q34 36 48 45q53 37 94 38h3q53 0 85 -43q17 -24 25 -70q6 -31 6 -61q0 -40 -8 -85q-2 -13 -8 -22q-9 -15 -22 -15h-2q-20 2 -27 19q-3 9 -3 16q0 2 0.5 5.5t0.5 4.5q1 8 1 24q0 40 -13 76q-1 1 -1 4q-11 23 -24 23q-12 0 -26 -16
q-56 -65 -90 -184q-2 -6 -2 -8q0 -4 5 -4q1 0 9 2l48 18q7 3 22 8t22 8q9 3 18 3q15 0 28 -6q27 -10 27 -38q0 -4 -2 -12q-6 -20 -24 -20q-8 0 -16 6q-8 7 -17 7q-3 0 -9 -2q-72 -20 -108 -25q-13 -3 -14 -16q-3 -24 -3 -46q0 -51 17 -95q8 -22 28 -40q12 -11 30 -11
q8 0 26 4q24 6 47 22q71 44 96 72q9 10 17 22q3 5 8 8q10 6 15 6q1 0 7 -2q11 -5 11 -20v-3q0 -10 -9 -23q-26 -40 -84 -82q-33 -24 -78 -48q-30 -17 -64 -17q-63 0 -107 54q-42 53 -62 138q-11 48 -11 82q0 14 1 21zM380 557q-48 4 -100 47q-37 30 -76 95q-8 14 -12 20
q-8 11 -14 11q-7 0 -16 -10q-43 -47 -61 -74q-10 -16 -46 -63q-10 -12 -22 -17q-10 -3 -19 -3q-15 0 -25 10q-12 13 -12 30q0 7 3 16q5 15 15 17q9 3 17 7t16 12t12 11.5t13.5 14.5t11.5 13q11 13 33 39.5t34 39.5q29 32 65 32q27 0 53 -20q14 -10 19 -17q3 -3 34.5 -39
t44.5 -57l15 -21q16 -19 34 -19q1 0 3 0.5t4 0.5h6q12 0 19 -5q10 -10 10 -24q0 -3 -2 -11q-7 -15 -22.5 -25.5t-32.5 -10.5h-2z" />
    <glyph glyph-name="edieresis" unicode="&#xeb;" horiz-adv-x="518" 
d="M3 145q0 1 6 76q4 46 34 119q20 50 49 83q34 36 48 45q53 37 94 38h3q53 0 85 -43q17 -24 25 -70q6 -31 6 -61q0 -40 -8 -85q-2 -13 -8 -22q-9 -15 -22 -15h-2q-20 2 -27 19q-3 9 -3 16q0 2 0.5 5.5t0.5 4.5q1 8 1 24q0 40 -13 76q-1 1 -1 4q-11 23 -24 23q-12 0 -26 -16
q-56 -65 -90 -184q-2 -6 -2 -8q0 -4 5 -4q1 0 9 2l48 18q7 3 22 8t22 8q9 3 18 3q15 0 28 -6q27 -10 27 -38q0 -4 -2 -12q-6 -20 -24 -20q-8 0 -16 6q-8 7 -17 7q-3 0 -9 -2q-72 -20 -108 -25q-13 -3 -14 -16q-3 -24 -3 -46q0 -51 17 -95q8 -22 28 -40q12 -11 30 -11
q8 0 26 4q24 6 47 22q71 44 96 72q9 10 17 22q3 5 8 8q10 6 15 6q1 0 7 -2q11 -5 11 -20v-3q0 -10 -9 -23q-26 -40 -84 -82q-33 -24 -78 -48q-30 -17 -64 -17q-63 0 -107 54q-42 53 -62 138q-11 48 -11 82q0 14 1 21zM86 646q0 21 3 32q6 28 27 32q12 2 18 2q20 0 34 -15
q17 -20 17 -50q0 -45 -29 -66q-12 -9 -26 -9q-28 0 -39 30q-5 14 -5 34v10zM248 646q0 21 3 32q6 28 27 32q12 2 18 2q20 0 34 -15q17 -20 17 -50q0 -45 -29 -66q-12 -9 -26 -9q-28 0 -39 30q-5 14 -5 34v10z" />
    <glyph glyph-name="igrave" unicode="&#xec;" horiz-adv-x="236" 
d="M129 328q2 -16 2 -23q0 -13 -3 -41t-3 -42v-30q0 -21 -7 -91q-8 -117 -8 -131q0 -21 1 -31q2 -22 12 -35q7 -8 7 -20q0 -13 -10 -23q-13 -11 -24 -11q-10 0 -21 8q-12 7 -16 19q-12 30 -14 45q-3 27 -16.5 102t-16.5 117q-2 18 -4 103q-3 45 -3 47q0 61 5 105q2 20 17 28
q2 1 5.5 4t4.5 3q23 16 40 16q25 0 50 -54q4 -9 4 -22q0 -6 -1 -18t-1 -18v-7zM-15 758h3q47 0 52 -39q4 -25 24 -48q60 -70 112 -110q19 -13 27 -26q7 -11 7 -19q0 -6 -3 -12q-7 -13 -28 -13q-20 1 -41 17q-67 46 -116 92q-46 44 -61 62q-17 23 -17 44q0 12 4 24
q6 17 13 22.5t24 5.5z" />
    <glyph glyph-name="iacute" unicode="&#xed;" horiz-adv-x="236" 
d="M129 328q2 -16 2 -23q0 -13 -3 -41t-3 -42v-30q0 -21 -7 -91q-8 -117 -8 -131q0 -21 1 -31q2 -22 12 -35q7 -8 7 -20q0 -13 -10 -23q-13 -11 -24 -11q-10 0 -21 8q-12 7 -16 19q-12 30 -14 45q-3 27 -16.5 102t-16.5 117q-2 18 -4 103q-3 45 -3 47q0 61 5 105q2 20 17 28
q2 1 5.5 4t4.5 3q23 16 40 16q25 0 50 -54q4 -9 4 -22q0 -6 -1 -18t-1 -18v-7zM150 770q17 0 24 -5.5t13 -22.5q4 -12 4 -24q0 -21 -17 -44q-15 -18 -61 -62q-49 -46 -116 -92q-21 -16 -41 -17q-21 0 -28 13q-3 6 -3 12q0 8 7 19q8 13 27 26q53 40 112 110q20 23 24 48
q5 39 52 39h3z" />
    <glyph glyph-name="icircumflex" unicode="&#xee;" horiz-adv-x="236" 
d="M129 328q2 -16 2 -23q0 -13 -3 -41t-3 -42v-30q0 -21 -7 -91q-8 -117 -8 -131q0 -21 1 -31q2 -22 12 -35q7 -8 7 -20q0 -13 -10 -23q-13 -11 -24 -11q-10 0 -21 8q-12 7 -16 19q-12 30 -14 45q-3 27 -16.5 102t-16.5 117q-2 18 -4 103q-3 45 -3 47q0 61 5 105q2 20 17 28
q2 1 5.5 4t4.5 3q23 16 40 16q25 0 50 -54q4 -9 4 -22q0 -6 -1 -18t-1 -18v-7zM244 489q-48 4 -100 47q-37 30 -76 95q-8 14 -12 20q-8 11 -14 11q-7 0 -16 -10q-43 -47 -61 -74q-10 -16 -46 -63q-10 -12 -22 -17q-11 -3 -19 -3q-15 0 -25 10q-12 13 -12 30q0 7 3 16
q5 15 15 17q9 3 17 7t16 12t12 11.5t13.5 14.5t11.5 13q11 13 33 39.5t34 39.5q29 32 65 32q27 0 53 -20q14 -10 19 -17q3 -3 34.5 -39t44.5 -57q2 -4 4.5 -7.5t5.5 -7.5t5 -6q16 -19 34 -19q1 0 3 0.5t4 0.5h6q12 0 19 -5q10 -10 10 -24q0 -3 -2 -11q-7 -15 -22.5 -25.5
t-32.5 -10.5h-2z" />
    <glyph glyph-name="idieresis" unicode="&#xef;" horiz-adv-x="236" 
d="M129 328q2 -16 2 -23q0 -13 -3 -41t-3 -42v-30q0 -21 -7 -91q-8 -117 -8 -131q0 -21 1 -31q2 -22 12 -35q7 -8 7 -20q0 -13 -10 -23q-13 -11 -24 -11q-10 0 -21 8q-12 7 -16 19q-12 30 -14 45q-3 27 -16.5 102t-16.5 117q-2 18 -4 103q-3 45 -3 47q0 61 5 105q2 20 17 28
q2 1 5.5 4t4.5 3q23 16 40 16q25 0 50 -54q4 -9 4 -22q0 -6 -1 -18t-1 -18v-7zM-56 574q0 21 3 32q6 28 27 32q12 2 18 2q20 0 34 -15q17 -20 17 -50q0 -45 -29 -66q-12 -9 -26 -9q-28 0 -39 30q-5 14 -5 34v10zM106 574q0 21 3 32q6 28 27 32q12 2 18 2q20 0 34 -15
q17 -20 17 -50q0 -45 -29 -66q-12 -9 -26 -9q-28 0 -39 30q-5 14 -5 34v10z" />
    <glyph glyph-name="eth" unicode="&#xf0;" horiz-adv-x="692" 
d="M222 -65h8q30 0 62 27q10 8 10 20q0 4 -2 14q-8 31 -25 65q-55 108 -106 159q-16 17 -40 27q-12 5 -22 5q-35 0 -48 -40q-8 -24 -8 -53q0 -25 5 -43q19 -77 59 -124q24 -29 65 -49q17 -8 42 -8zM550 431q-27 7 -57 7q-11 0 -31 -2q4 -14 5 -21q11 -63 11 -121
q0 -42 -4 -75q-12 -103 -60 -195q-25 -47 -66 -85q-51 -48 -118 -48h-13q-66 9 -115 56q-71 74 -91 177q-6 26 -6 51q0 35 10 66q16 42 46 58q31 18 57 18q7 0 19 -2q63 -17 103 -66q44 -55 72 -118q1 -1 3 -4q8 -17 24 -53l12 -26q9 12 10 20q1 0 1 1t1 2q21 66 21 136v17
q-1 84 -29 167l-9 27q-56 -12 -96 -26q-9 -3 -17 -3q-17 0 -27 15q-8 9 -8 21q0 10 7 20q16 22 43 33q34 15 65 20q-30 59 -67 107q-15 21 -22 49q-1 3 -1 10q0 11 8 19q19 17 43 28q3 1 9 1h4q1 0 13 -5q2 -1 10 -4q12 -5 21 -15q5 -7 15 -19q8 -9 22 -27q45 -59 71 -135
q61 -2 107 -10q17 -3 31 -17q9 -10 9 -21q0 -8 -4 -15q-7 -14 -22 -14q-6 0 -10 1z" />
    <glyph glyph-name="ntilde" unicode="&#xf1;" horiz-adv-x="526" 
d="M137 382q8 8 27.5 26t33 30t27.5 21q38 27 77 38q10 2 15 2q25 0 51.5 -16.5t34.5 -34.5q20 -47 20 -88v-6q0 -16 1.5 -48t1.5 -48q0 -21 -4 -61q-1 -16 -4.5 -44.5t-5.5 -51.5t-2 -44q0 -8 -1 -22.5t-1.5 -26.5t-0.5 -22q0 -42 10 -81q2 -10 2 -14q0 -14 -12 -22
q-9 -6 -18 -6q-11 0 -23 9q-14 10 -21 30q-15 48 -19 135q0 14 -2.5 42t-3.5 42q-3 70 -3 138v47q0 49 -9 78q-7 19 -14 19q-4 0 -16 -5q-34 -15 -83 -57q-11 -10 -30 -30t-28 -28q-26 -26 -29 -68q-10 -115 -10 -140v-17q2 -76 14 -126q3 -13 10 -21q14 -16 14 -25
q0 -8 -9 -17q-9 -10 -25 -10q-15 0 -24 8q-17 13 -27 38q-15 36 -26 100q-12 73 -21 147l-3 84v17q0 66 10 148q1 13 7 34q6 27 41 34q12 3 37 3q14 0 22 -12q20 -35 20 -63q0 -10 -1 -15zM302 576q-30 0 -57 19q-11 8 -32.5 24.5t-31.5 23.5q-2 2 -6 5t-7.5 5.5t-7.5 4.5
q-11 7 -21 7q-12 0 -26 -13q-25 -22 -35 -51q-6 -18 -22.5 -29t-34.5 -11q-5 0 -13 2q-13 3 -25.5 21.5t-12.5 33.5q0 5 1 7l4.5 13.5t5.5 15l6 13.5t7.5 14t9 11t12.5 11q50 32 81 37q14 2 20 2q37 0 72 -27q30 -23 71 -62q23 -21 47 -21q16 0 34 9q50 28 70 58q6 8 9 11
q8 10 18 10q3 0 9 -2q11 -5 11 -20q0 -5 -1 -8q-6 -20 -12 -28q-39 -55 -115 -83q-6 -2 -9 -2q-6 -1 -19 -1z" />
    <glyph glyph-name="ograve" unicode="&#xf2;" 
d="M39 98q0 5 0.5 33.5t3 48t8.5 38.5q0 1 4.5 20.5t10.5 28.5q3 5 3 8q0 7 -9 12q-14 6 -25 18q-28 29 -28 65q0 18 10 43q20 48 65 68q34 15 75 15t81 -15q67 -26 107 -78q8 -10 13 -10q4 0 12 11q4 6 11 17.5t9 14.5q9 12 10 13q10 12 16 12q3 0 5 -1q8 -4 8 -18v-5
q-1 -31 -27 -64q-8 -10 -13 -14q-6 -6 -6 -13q0 -4 3 -10q10 -21 20 -63q12 -45 12 -89q0 -79 -38 -158q-41 -81 -90 -132q-38 -41 -92 -41q-26 0 -50 12q-43 20 -73 78q-17 32 -24 62.5t-12 92.5zM152 31q0 -21 1 -30q6 -47 27 -68q16 -16 29 -16q11 0 27 11q22 15 54 58
q70 104 70 208q0 25 -2 38q-4 33 -17 66q-6 15 -12 15q-4 0 -14 -5q-36 -18 -89 -30q-19 -6 -20 -6q-3 -2 -3 -6q0 -1 1 -5t1 -6v-2q0 -8 -2 -12q-7 -17 -16.5 -49.5t-13.5 -44.5q-15 -46 -21 -116zM176 319q64 7 116 30q11 5 11 9q0 3 -8 13q-55 63 -136 63q-2 0 -8 -0.5
t-9 -0.5q-44 -3 -68 -40q-7 -11 -7 -25t8 -24q21 -23 45 -23h15q11 0 41 -2zM119 795h3q47 0 52 -39q4 -25 24 -48q59 -70 112 -110q19 -13 27 -26q7 -10 7 -19q0 -6 -3 -12q-7 -13 -28 -13q-20 1 -41 17q-67 46 -116 92q-46 44 -61 62q-17 23 -17 44q0 12 4 24
q6 17 13 22.5t24 5.5z" />
    <glyph glyph-name="oacute" unicode="&#xf3;" 
d="M39 98q0 5 0.5 33.5t3 48t8.5 38.5q0 1 4.5 20.5t10.5 28.5q3 5 3 8q0 7 -9 12q-14 6 -25 18q-28 29 -28 65q0 18 10 43q20 48 65 68q34 15 75 15t81 -15q67 -26 107 -78q8 -10 13 -10q4 0 12 11q4 6 11 17.5t9 14.5q9 12 10 13q10 12 16 12q3 0 5 -1q8 -4 8 -18v-5
q-1 -31 -27 -64q-8 -10 -13 -14q-6 -6 -6 -13q0 -4 3 -10q10 -21 20 -63q12 -45 12 -89q0 -79 -38 -158q-41 -81 -90 -132q-38 -41 -92 -41q-26 0 -50 12q-43 20 -73 78q-17 32 -24 62.5t-12 92.5zM152 31q0 -21 1 -30q6 -47 27 -68q16 -16 29 -16q11 0 27 11q22 15 54 58
q70 104 70 208q0 25 -2 38q-4 33 -17 66q-6 15 -12 15q-4 0 -14 -5q-36 -18 -89 -30q-19 -6 -20 -6q-3 -2 -3 -6q0 -1 1 -5t1 -6v-2q0 -8 -2 -12q-7 -17 -16.5 -49.5t-13.5 -44.5q-15 -46 -21 -116zM176 319q64 7 116 30q11 5 11 9q0 3 -8 13q-55 63 -136 63q-2 0 -8 -0.5
t-9 -0.5q-44 -3 -68 -40q-7 -11 -7 -25t8 -24q21 -23 45 -23h15q11 0 41 -2zM245 818q17 0 24 -5.5t13 -22.5q4 -12 4 -24q0 -21 -17 -44q-15 -18 -61 -62q-49 -46 -116 -92q-21 -16 -41 -17q-21 0 -28 13q-3 6 -3 12q0 8 7 19q8 13 27 26q52 40 112 110q20 23 24 48
q5 39 52 39h3z" />
    <glyph glyph-name="ocircumflex" unicode="&#xf4;" 
d="M39 98q0 5 0.5 33.5t3 48t8.5 38.5q0 1 4.5 20.5t10.5 28.5q3 5 3 8q0 7 -9 12q-14 6 -25 18q-28 29 -28 65q0 18 10 43q20 48 65 68q34 15 75 15t81 -15q67 -26 107 -78q8 -10 13 -10q4 0 12 11q4 6 11 17.5t9 14.5q9 12 10 13q10 12 16 12q3 0 5 -1q8 -4 8 -18v-5
q-1 -31 -27 -64q-8 -10 -13 -14q-6 -6 -6 -13q0 -4 3 -10q10 -21 20 -63q12 -45 12 -89q0 -79 -38 -158q-41 -81 -90 -132q-38 -41 -92 -41q-26 0 -50 12q-43 20 -73 78q-17 32 -24 62.5t-12 92.5zM152 31q0 -21 1 -30q6 -47 27 -68q16 -16 29 -16q11 0 27 11q22 15 54 58
q70 104 70 208q0 25 -2 38q-4 33 -17 66q-6 15 -12 15q-4 0 -14 -5q-36 -18 -89 -30q-19 -6 -20 -6q-3 -2 -3 -6q0 -1 1 -5t1 -6v-2q0 -8 -2 -12q-7 -17 -16.5 -49.5t-13.5 -44.5q-15 -46 -21 -116zM176 319q64 7 116 30q11 5 11 9q0 3 -8 13q-55 63 -136 63q-2 0 -8 -0.5
t-9 -0.5q-44 -3 -68 -40q-7 -11 -7 -25t8 -24q21 -23 45 -23h15q11 0 41 -2zM388 544q-48 4 -100 47q-37 30 -76 95q-8 14 -12 20q-8 11 -14 11q-7 0 -16 -10q-43 -47 -61 -74q-10 -16 -46 -63q-10 -12 -22 -17q-10 -3 -19 -3q-15 0 -25 10q-12 14 -12 30q0 7 3 16
q5 15 15 17q9 3 17 7t16 12t12 11.5t13.5 14.5t11.5 13q12 13 33.5 39.5t33.5 39.5q29 32 65 32q27 0 53 -20q14 -10 19 -17q3 -3 34.5 -39t44.5 -57l15 -21q16 -19 34 -19q1 0 3 0.5t4 0.5h6q12 0 19 -5q10 -10 10 -24q0 -3 -2 -11q-7 -15 -22.5 -25.5t-32.5 -10.5h-2z" />
    <glyph glyph-name="otilde" unicode="&#xf5;" 
d="M39 98q0 5 0.5 33.5t3 48t8.5 38.5q0 1 4.5 20.5t10.5 28.5q3 5 3 8q0 7 -9 12q-14 6 -25 18q-28 29 -28 65q0 18 10 43q20 48 65 68q34 15 75 15t81 -15q67 -26 107 -78q8 -10 13 -10q4 0 12 11q4 6 11 17.5t9 14.5q9 12 10 13q10 12 16 12q3 0 5 -1q8 -4 8 -18v-5
q-1 -31 -27 -64q-8 -10 -13 -14q-6 -6 -6 -13q0 -4 3 -10q10 -21 20 -63q12 -45 12 -89q0 -79 -38 -158q-41 -81 -90 -132q-38 -41 -92 -41q-26 0 -50 12q-43 20 -73 78q-17 32 -24 62.5t-12 92.5zM152 31q0 -21 1 -30q6 -47 27 -68q16 -16 29 -16q11 0 27 11q22 15 54 58
q70 104 70 208q0 25 -2 38q-4 33 -17 66q-6 15 -12 15q-4 0 -14 -5q-36 -18 -89 -30q-19 -6 -20 -6q-3 -2 -3 -6q0 -1 1 -5t1 -6v-2q0 -8 -2 -12q-7 -17 -16.5 -49.5t-13.5 -44.5q-15 -46 -21 -116zM176 319q64 7 116 30q11 5 11 9q0 3 -8 13q-55 63 -136 63q-2 0 -8 -0.5
t-9 -0.5q-44 -3 -68 -40q-7 -11 -7 -25t8 -24q21 -23 45 -23h15q11 0 41 -2zM312 550q-30 0 -57 19q-11 8 -32.5 24.5t-31.5 23.5q-2 2 -6 5t-7.5 5.5t-7.5 4.5q-11 7 -21 7q-12 0 -26 -13q-25 -22 -35 -51q-6 -18 -22.5 -29t-34.5 -11q-5 0 -13 2q-13 3 -25.5 21.5
t-12.5 33.5q0 5 1 7l4.5 13.5t5.5 15l6 13.5t7.5 14t9 11t12.5 11q50 32 81 37q14 2 20 2q37 0 72 -27q30 -23 71 -62q22 -21 47 -21q16 0 34 9q50 28 70 58q6 8 9 11q8 10 18 10q3 0 9 -2q11 -5 11 -20q0 -5 -1 -8q-6 -20 -12 -28q-39 -55 -115 -83q-6 -2 -9 -2
q-6 -1 -19 -1z" />
    <glyph glyph-name="odieresis" unicode="&#xf6;" 
d="M39 98q0 5 0.5 33.5t3 48t8.5 38.5q0 1 4.5 20.5t10.5 28.5q3 5 3 8q0 7 -9 12q-14 6 -25 18q-28 29 -28 65q0 18 10 43q20 48 65 68q34 15 75 15t81 -15q67 -26 107 -78q8 -10 13 -10q4 0 12 11q4 6 11 17.5t9 14.5q9 12 10 13q10 12 16 12q3 0 5 -1q8 -4 8 -18v-5
q-1 -31 -27 -64q-8 -10 -13 -14q-6 -6 -6 -13q0 -4 3 -10q10 -21 20 -63q12 -45 12 -89q0 -79 -38 -158q-41 -81 -90 -132q-38 -41 -92 -41q-26 0 -50 12q-43 20 -73 78q-17 32 -24 62.5t-12 92.5zM152 31q0 -21 1 -30q6 -47 27 -68q16 -16 29 -16q11 0 27 11q22 15 54 58
q70 104 70 208q0 25 -2 38q-4 33 -17 66q-6 15 -12 15q-4 0 -14 -5q-36 -18 -89 -30q-19 -6 -20 -6q-3 -2 -3 -6q0 -1 1 -5t1 -6v-2q0 -8 -2 -12q-7 -17 -16.5 -49.5t-13.5 -44.5q-15 -46 -21 -116zM176 319q64 7 116 30q11 5 11 9q0 3 -8 13q-55 63 -136 63q-2 0 -8 -0.5
t-9 -0.5q-44 -3 -68 -40q-7 -11 -7 -25t8 -24q21 -23 45 -23h15q11 0 41 -2zM84 632q0 21 3 32q6 28 27 32q12 2 18 2q20 0 34 -15q17 -20 17 -50q0 -45 -29 -66q-12 -9 -26 -9q-28 0 -39 30q-5 14 -5 34v10zM246 632q0 21 3 32q6 28 27 32q12 2 18 2q20 0 34 -15
q17 -20 17 -50q0 -45 -29 -66q-12 -9 -26 -9q-28 0 -39 30q-5 14 -5 34v10z" />
    <glyph glyph-name="divide" unicode="&#xf7;" horiz-adv-x="494" 
d="M238 230q41 0 113 -10q15 -1 31 -17q9 -9 9 -22q0 -9 -4 -14q-8 -14 -22 -14q-7 0 -10 1q-22 7 -49 7q-16 0 -44.5 -3t-35.5 -4q-80 -10 -171 -39q-9 -3 -16 -3q-16 0 -28 15q-8 13 -8 21q0 10 7 20q16 22 43 33q53 21 95 25q58 5 65 5q3 0 7 -0.5t6 -0.5h12zM256 19
q0 -25 -20 -46.5t-43 -21.5q-25 0 -40 19t-15 50v1q0 22 15.5 38.5t36.5 16.5h2q24 -1 44 -17.5t20 -38.5v-1zM256 335q0 -25 -20 -46.5t-43 -21.5q-25 0 -40 19t-15 50v1q0 22 15.5 38.5t36.5 16.5h2q24 -1 44 -17.5t20 -38.5v-1z" />
    <glyph glyph-name="oslash" unicode="&#xf8;" 
d="M257 286q-17 -63 -30 -124l-14 -62q-20 -88 -32 -157l-2 -9l1 -1q14 -15 29 -15q14 0 27 10q32 24 54 58q70 97 70 211q0 11 -2 35q-5 38 -17 66q-4 12 -8 14q-1 1 -4 1q-7 0 -14 -5q-26 -13 -58 -22zM284 382q-3 -13 -11 -41l19 8q10 4 11 7v3q0 4 -8 12q-5 6 -11 11z
M177 319l9 57l9 55q-16 3 -35 3q-3 0 -9 -0.5t-9 -0.5q-44 -3 -68 -40q-7 -13 -7 -25q0 -15 8 -24q17 -21 45 -23h14q28 0 42 -2h1zM222 -144q-14 -3 -25 -3q-15 0 -33 5q-10 -50 -10 -105v-10q0 -4 -1 -5q-3 -26 -23 -29h-2q-18 0 -29 21q-8 16 -8 37v8q5 70 13 124
q-19 22 -29 44q-17 32 -24 64q-7 31 -12 91q1 7 1 22v13q0 45 11 85q2 6 4 18q3 14 11 31q2 3 2 8q0 8 -8 12q-15 7 -25 18q-28 29 -28 65q0 22 10 43q20 48 65 68q38 16 77 16q24 0 48 -6q7 37 18 75l4 20q8 29 30 50q9 9 21 9q6 0 13 -3q41 -15 41 -52q0 -5 -2 -17
q-10 -50 -24 -103q-4 -16 -6 -25q25 -20 43 -42q7 -9 12 -9h1q5 0 12 10q8 11 13 20q4 8 7 12l1 1q5 7 9 12q0 1 1 1l1 2q6 6 8 7q3 3 6 3q1 0 5 -2q5 -3 7 -8q2 -6 2 -8l-1 -7q-3 -35 -27 -64q-8 -10 -13 -14q-6 -6 -6 -13q0 -4 3 -10q13 -25 19 -57q1 -2 1 -6
q11 -41 11 -90q0 -82 -37 -157q-34 -74 -90 -132q-29 -30 -68 -38z" />
    <glyph glyph-name="ugrave" unicode="&#xf9;" horiz-adv-x="561" 
d="M341 132q-5 -1 -8 -4t-5 -8t-3 -6q-49 -91 -106 -167q-27 -34 -47 -49q-26 -19 -51 -19q-39 0 -66 42q-28 45 -43 126q-10 59 -10 142q0 48 1 72q0 61 10 117q1 5 3.5 14.5t3.5 14.5q5 22 22 34.5t39 12.5q16 0 31 -6q12 -4 21.5 -23t9.5 -36v-5q-2 -16 -6.5 -46.5
t-6.5 -44.5q-1 -16 -6.5 -47.5t-7.5 -48.5q-1 -11 -4.5 -33t-4.5 -32q-5 -75 -5 -92q0 -37 7 -69q0 -2 1.5 -9t2.5 -10t4 -7t8 -6q3 -1 7 -1q8 0 25 17q29 29 75 97q49 72 91 156q10 22 10 38q-1 21 -1 64q0 31 1 47q5 59 9 74q6 21 23.5 34.5t39.5 13.5h2q12 0 25 -10
q27 -22 27 -64v-12q-2 -34 -14 -102q-9 -59 -15 -117q-9 -70 -9 -93q2 -56 6 -110q0 -13 10 -26q8 -11 8 -21q0 -11 -13 -22q-10 -8 -20 -8q-15 0 -26 14q-9 12 -15 34t-24 141q-4 32 -6 49zM134 803h3q47 0 52 -39q4 -25 24 -48q60 -70 112 -110q19 -13 27 -26q7 -10 7 -19
q0 -6 -3 -12q-7 -13 -28 -13q-20 1 -41 17q-67 46 -116 92q-46 44 -61 62q-17 23 -17 44q0 12 4 24q6 17 13 22.5t24 5.5z" />
    <glyph glyph-name="uacute" unicode="&#xfa;" horiz-adv-x="561" 
d="M341 132q-5 -1 -8 -4t-5 -8t-3 -6q-49 -91 -106 -167q-27 -34 -47 -49q-26 -19 -51 -19q-39 0 -66 42q-28 45 -43 126q-10 59 -10 142q0 48 1 72q0 61 10 117q1 5 3.5 14.5t3.5 14.5q5 22 22 34.5t39 12.5q16 0 31 -6q12 -4 21.5 -23t9.5 -36v-5q-2 -16 -6.5 -46.5
t-6.5 -44.5q-1 -16 -6.5 -47.5t-7.5 -48.5q-1 -11 -4.5 -33t-4.5 -32q-5 -75 -5 -92q0 -37 7 -69q0 -2 1.5 -9t2.5 -10t4 -7t8 -6q3 -1 7 -1q8 0 25 17q29 29 75 97q49 72 91 156q10 22 10 38q-1 21 -1 64q0 31 1 47q5 59 9 74q6 21 23.5 34.5t39.5 13.5h2q12 0 25 -10
q27 -22 27 -64v-12q-2 -34 -14 -102q-9 -59 -15 -117q-9 -70 -9 -93q2 -56 6 -110q0 -13 10 -26q8 -11 8 -21q0 -11 -13 -22q-10 -8 -20 -8q-15 0 -26 14q-9 12 -15 34t-24 141q-4 32 -6 49zM309 781q17 0 24 -5.5t13 -22.5q4 -12 4 -24q0 -21 -17 -44q-15 -18 -61 -62
q-49 -46 -116 -92q-21 -16 -41 -17q-21 0 -28 13q-3 6 -3 12q0 9 7 19q8 13 27 26q53 40 112 110q20 23 24 48q5 39 52 39h3z" />
    <glyph glyph-name="ucircumflex" unicode="&#xfb;" horiz-adv-x="561" 
d="M341 132q-5 -1 -8 -4t-5 -8t-3 -6q-49 -91 -106 -167q-27 -34 -47 -49q-26 -19 -51 -19q-39 0 -66 42q-28 45 -43 126q-10 59 -10 142q0 48 1 72q0 61 10 117q1 5 3.5 14.5t3.5 14.5q5 22 22 34.5t39 12.5q16 0 31 -6q12 -4 21.5 -23t9.5 -36v-5q-2 -16 -6.5 -46.5
t-6.5 -44.5q-1 -16 -6.5 -47.5t-7.5 -48.5q-1 -11 -4.5 -33t-4.5 -32q-5 -75 -5 -92q0 -37 7 -69q0 -2 1.5 -9t2.5 -10t4 -7t8 -6q3 -1 7 -1q8 0 25 17q29 29 75 97q49 72 91 156q10 22 10 38q-1 21 -1 64q0 31 1 47q5 59 9 74q6 21 23.5 34.5t39.5 13.5h2q12 0 25 -10
q27 -22 27 -64v-12q-2 -34 -14 -102q-9 -59 -15 -117q-9 -70 -9 -93q2 -56 6 -110q0 -13 10 -26q8 -11 8 -21q0 -11 -13 -22q-10 -8 -20 -8q-15 0 -26 14q-9 12 -15 34t-24 141q-4 32 -6 49zM417 542q-48 4 -100 47q-37 30 -76 95q-8 14 -12 20q-8 11 -14 11q-7 0 -16 -10
q-43 -47 -61 -74q-10 -16 -46 -63q-10 -12 -22 -17q-11 -3 -19 -3q-15 0 -25 10q-12 14 -12 30q0 7 3 16q5 15 15 17q9 3 17 7t16 12t12 11.5t13.5 14.5t11.5 13q12 13 34 39.5t33 39.5q29 32 65 32q27 0 53 -20q14 -10 19 -17q3 -3 34.5 -39t44.5 -57q2 -4 4.5 -7.5
t5.5 -7.5t5 -6q16 -19 34 -19q1 0 3 0.5t4 0.5h6q12 0 19 -5q10 -10 10 -24q0 -3 -2 -11q-7 -15 -22.5 -25.5t-32.5 -10.5h-2z" />
    <glyph glyph-name="udieresis" unicode="&#xfc;" horiz-adv-x="561" 
d="M341 132q-5 -1 -8 -4t-5 -8t-3 -6q-49 -91 -106 -167q-27 -34 -47 -49q-26 -19 -51 -19q-39 0 -66 42q-28 45 -43 126q-10 59 -10 142q0 48 1 72q0 61 10 117q1 5 3.5 14.5t3.5 14.5q5 22 22 34.5t39 12.5q16 0 31 -6q12 -4 21.5 -23t9.5 -36v-5q-2 -16 -6.5 -46.5
t-6.5 -44.5q-1 -16 -6.5 -47.5t-7.5 -48.5q-1 -11 -4.5 -33t-4.5 -32q-5 -75 -5 -92q0 -37 7 -69q0 -2 1.5 -9t2.5 -10t4 -7t8 -6q3 -1 7 -1q8 0 25 17q29 29 75 97q49 72 91 156q10 22 10 38q-1 21 -1 64q0 31 1 47q5 59 9 74q6 21 23.5 34.5t39.5 13.5h2q12 0 25 -10
q27 -22 27 -64v-12q-2 -34 -14 -102q-9 -59 -15 -117q-9 -70 -9 -93q2 -56 6 -110q0 -13 10 -26q8 -11 8 -21q0 -11 -13 -22q-10 -8 -20 -8q-15 0 -26 14q-9 12 -15 34t-24 141q-4 32 -6 49zM105 588q0 21 3 32q6 28 27 32q12 2 18 2q20 0 34 -15q17 -20 17 -50
q0 -45 -29 -66q-12 -9 -26 -9q-28 0 -39 30q-5 14 -5 34v10zM267 588q0 21 3 32q6 28 27 32q12 2 18 2q20 0 34 -15q17 -20 17 -50q0 -45 -29 -66q-12 -9 -26 -9q-28 0 -39 30q-5 14 -5 34v10z" />
    <glyph glyph-name="yacute" unicode="&#xfd;" horiz-adv-x="566" 
d="M368 234q-18 -41 -48 -113q-38 -91 -76 -151q-27 -46 -59 -66q-23 -14 -46 -14q-38 0 -66 33q-32 37 -48 104q-18 69 -23 164v24q0 24 2 66.5t2 55.5q1 14 15 69q4 10 21 25q19 17 52 20q1 0 3.5 0.5t3.5 0.5q19 0 30 -20q2 -4 13 -20q13 -18 13 -37q0 -4 -2 -14
q-10 -47 -13 -52q-3 -6 -4 -18.5t-2 -16.5q-21 -90 -24 -146q0 -7 -1 -19t-1.5 -21.5t-0.5 -18.5q0 -44 11 -81q0 -1 1.5 -6t2 -6.5l2 -6t3 -6t4 -4.5t5 -4t6.5 -2q2 -1 6 -1q11 0 30 19q34 36 72 107q63 121 105 247q6 16 12 50q0 1 0.5 5t1 5.5l1.5 4.5t2 4.5t3 3.5t4.5 3
t5.5 1q5 1 14 1q23 0 33 -18q8 -14 10 -32q2 -19 8.5 -65.5t8.5 -71.5q5 -80 5 -144q-2 -145 -27 -247q-17 -68 -51 -110q-29 -38 -81 -49q-4 -1 -12 -1q-49 0 -69 45q-5 12 -5 20t3 16q6 15 19 15q9 0 16 -6q3 -2 7.5 -7.5t6.5 -7.5q9 -11 18 -11q8 0 17 9q13 13 19 29
q25 58 35 129q14 114 14 194v15q0 22 -2 63.5t-2 54.5q0 1 -0.5 2t-1.5 3.5t-2 5.5zM347 770q17 0 24 -5.5t13 -22.5q4 -12 4 -24q0 -21 -17 -44q-15 -18 -61 -62q-49 -46 -116 -92q-21 -16 -41 -17q-21 0 -28 13q-3 6 -3 12q0 8 7 19q8 13 27 26q52 40 112 110q20 23 24 48
q5 39 52 39h3z" />
    <glyph glyph-name="thorn" unicode="&#xfe;" horiz-adv-x="583" 
d="M146 436q51 17 61 20q33 9 66 9q40 0 79 -15q46 -20 79 -65q31 -48 39 -82q6 -31 6 -62q0 -71 -32 -140q-34 -70 -77 -121q-60 -72 -149 -107q-15 -6 -30 -6q-6 0 -16 2q-18 3 -29 15.5t-11 27.5v4q2 27 23 27q6 0 16 -5q7 -4 15 -4t17 6q33 21 56 53q39 60 59 96
q21 38 37 97q7 25 7 54q0 32 -8 57q-23 79 -105 79h-6q-46 -2 -88 -16q-14 -5 -17 -22q-4 -16 -14 -126q-10 -100 -18 -201q-4 -66 -4 -99q0 -37 4 -68q7 -63 23 -103q6 -16 20 -16q21 -1 21 -22v-5q-2 -14 -13.5 -23.5t-25.5 -9.5q-3 0 -11 2q-21 6 -35 27q-18 27 -27 59
q-29 94 -41 186q-12 94 -13 141q0 18 -0.5 54t-0.5 55q0 27 2 81q3 109 3 110q3 34 5.5 68.5t3 48.5t3 27.5t7.5 22.5q16 32 57 32h5q29 -3 41 -31t16 -112z" />
    <glyph glyph-name="ydieresis" unicode="&#xff;" horiz-adv-x="566" 
d="M368 234q-18 -41 -48 -113q-38 -91 -76 -151q-27 -46 -59 -66q-23 -14 -46 -14q-38 0 -66 33q-32 37 -48 104q-18 69 -23 164v24q0 24 2 66.5t2 55.5q1 14 15 69q4 10 21 25q19 17 52 20q1 0 3.5 0.5t3.5 0.5q19 0 30 -20q2 -4 13 -20q13 -18 13 -37q0 -4 -2 -14
q-10 -47 -13 -52q-3 -6 -4 -18.5t-2 -16.5q-21 -90 -24 -146q0 -7 -1 -19t-1.5 -21.5t-0.5 -18.5q0 -44 11 -81q0 -1 1.5 -6t2 -6.5l2 -6t3 -6t4 -4.5t5 -4t6.5 -2q2 -1 6 -1q11 0 30 19q34 36 72 107q63 121 105 247q6 16 12 50q0 1 0.5 5t1 5.5l1.5 4.5t2 4.5t3 3.5t4.5 3
t5.5 1q5 1 14 1q23 0 33 -18q8 -14 10 -32q2 -19 8.5 -65.5t8.5 -71.5q5 -80 5 -144q-2 -145 -27 -247q-17 -68 -51 -110q-29 -38 -81 -49q-4 -1 -12 -1q-49 0 -69 45q-5 12 -5 20t3 16q6 15 19 15q9 0 16 -6q3 -2 7.5 -7.5t6.5 -7.5q9 -11 18 -11q8 0 17 9q13 13 19 29
q25 58 35 129q14 114 14 194v15q0 22 -2 63.5t-2 54.5q0 1 -0.5 2t-1.5 3.5t-2 5.5zM123 549q0 21 3 32q6 28 27 32q12 2 18 2q20 0 34 -15q17 -20 17 -50q0 -45 -29 -66q-12 -9 -26 -9q-28 0 -39 30q-5 14 -5 34v10zM285 549q0 21 3 32q6 28 27 32q12 2 18 2q20 0 34 -15
q17 -20 17 -50q0 -45 -29 -66q-12 -9 -26 -9q-28 0 -39 30q-5 14 -5 34v10z" />
    <glyph glyph-name="idotless" unicode="&#x131;" horiz-adv-x="236" 
d="M129 328q2 -16 2 -23q0 -13 -3 -41t-3 -42v-30q0 -21 -7 -91q-8 -117 -8 -131q0 -21 1 -31q2 -22 12 -35q7 -8 7 -20q0 -13 -10 -23q-13 -11 -24 -11q-10 0 -21 8q-12 7 -16 19q-12 30 -14 45q-3 27 -16.5 102t-16.5 117q-2 18 -4 103q-3 45 -3 47q0 61 5 105q2 20 17 28
q2 1 5.5 4t4.5 3q23 16 40 16q25 0 50 -54q4 -9 4 -22q0 -6 -1 -18t-1 -18v-7z" />
    <glyph glyph-name="OE" unicode="&#x152;" horiz-adv-x="1113" 
d="M557 347q-21 30 -25 60q-4 21 -4 47q0 39 10 73q-22 78 -78 141q-64 70 -158 73h-2q-117 0 -188 -95q-13 -19 -18 -44q-1 -5 -1 -13q0 -39 36 -60q38 -20 83 -25q30 -2 44 -2q107 0 210 41q10 4 23 6q17 0 17 -14q0 -4 -1 -7q-5 -14 -17 -22q-26 -18 -51 -25
q-94 -31 -198 -31h-15q-13 0 -22 -3q-13 -4 -16 -27q0 -2 -1 -3l-1 -1q-23 -47 -43 -109q-31 -97 -34 -202v-33q0 -71 32 -131q39 -74 124 -75q65 3 113 45q52 45 84 107q52 99 76 197q18 66 21 132zM631 301q-16 3 -29 9q-3 -33 -9 -64q-26 -128 -84 -245
q-46 -102 -143 -164q-62 -35 -118 -35q-24 0 -46 6q-79 20 -131 95q-53 80 -64 178q-5 31 -5 76v36q0 84 23 170q12 66 49 119q3 4 3 8v2q-1 5 -5 8q-18 20 -29 46q-7 21 -7 45q0 37 23 74q61 96 174 120q34 8 62 8q47 0 93 -18q107 -44 159 -146q6 -11 16 -33q29 62 73 112
q25 31 59 54q43 33 98 34h14q21 0 40 -9q57 -31 57 -91q0 -2 -0.5 -6t-0.5 -6q-8 -86 -61 -153q-5 -6 -11 -11q-7 -6 -15 -6q-7 0 -13 6q-4 4 -4 10v3q2 8 5 11q28 39 35 82q2 12 2 18q0 10 -4 26q-3 20 -19 20q-6 0 -14 -3q-18 -7 -33 -22q-60 -53 -96 -123l-8 -16
q-20 -34 -31 -77q-4 -19 -6 -40q0 -2 -0.5 -4.5t-0.5 -3.5q0 -30 35 -35q11 -2 33 -2q21 0 32 2q14 2 19 2q17 1 33 14q40 25 84 26h8q9 0 15 -7q4 -8 4 -12q0 -3 -2 -9q-9 -29 -35 -49q-137 -89 -210 -234q-26 -50 -26 -104q0 -14 4 -42q11 -40 38 -57q26 -19 57 -19h10
q48 0 90 16q68 25 126 71q15 10 17 30v2q0 14 13 18q1 0 3 0.5t3 0.5q11 0 20 -9q8 -9 8 -22q0 -9 -2 -13q-10 -27 -34 -48q-83 -70 -186 -98q-27 -7 -57 -7q-37 0 -73 12q-80 32 -101 116q-9 34 -9 69q0 45 14 84q7 20 8 26q3 13 13 39q31 62 75 114v1q10 13 11 14l1 1
l-1 2v2q-2 0 -5.5 0.5t-5.5 1.5q-9 1 -25 3z" />
    <glyph glyph-name="oe" unicode="&#x153;" horiz-adv-x="877" 
d="M152 31v-11q0 -13 1 -19q2 -38 27 -68q14 -15 29 -15q14 0 27 10q32 24 54 58q70 97 70 211q0 11 -2 35q-5 38 -17 66q-4 12 -8 14q-1 1 -4 1q-7 0 -14 -5q-45 -20 -89 -30q-2 -1 -6 -1q-10 -2 -14 -5q-3 -2 -3 -4v-1q0 -4 1 -6t1 -5v-7q0 -2 -2 -8q-13 -36 -19 -59
q-4 -15 -11 -35q-18 -60 -21 -116zM176 319q59 6 116 30q10 4 11 7v3q0 4 -8 12q-54 63 -134 63q-13 0 -19 -1q-44 -3 -68 -40q-7 -13 -7 -25q0 -15 8 -24q17 -21 45 -23h14q28 0 42 -2zM435 -96q-41 52 -57 117q-33 -67 -88 -127q-29 -30 -55 -35q-26 -6 -38 -6
q-25 0 -49 12q-49 27 -73 78q-17 32 -24 64q-7 31 -12 91q1 7 1 22v13q0 45 11 85q2 6 4 18q3 14 11 31q2 3 2 8q0 8 -8 12q-15 7 -25 18q-28 29 -28 65q0 22 10 43q20 48 65 68q38 16 78 16t78 -16q63 -25 107 -78q7 -9 12 -9h1q5 0 12 10q8 11 13 20q4 8 7 12l1 1
q5 7 9 12q0 1 1 1l1 2q6 6 8 7q3 3 6 3q1 0 5 -2q5 -3 7 -8q2 -6 2 -8l-1 -7q-3 -35 -27 -64q-8 -10 -13 -14q-6 -6 -6 -13q0 -4 3 -10l8 -18q1 3 4 11t5 11q15 43 49 83l1 1q20 24 46 44q44 34 95 38h2q52 0 85 -43q22 -34 26 -70q6 -33 6 -67q0 -37 -8 -79q-2 -11 -8 -22
q-3 -5 -9 -11q-5 -4 -12 -4h-3q-20 2 -27 19q-3 9 -3 17q0 2 0.5 5t0.5 4q1 8 1 23q0 41 -13 77q-1 1 -1 2t-1 2q-11 23 -24 23q-12 0 -25 -16q-66 -85 -91 -184q-1 -3 -1 -7q0 -5 5 -5q2 0 8 2l28 10q16 7 20 8l22 8q7 2 23 8q11 3 19 3q14 0 27 -6q26 -12 26 -36
q0 -4 -2 -14q-5 -15 -12 -18q-10 -2 -11 -2q-8 0 -17 6q-9 7 -17 7q-3 0 -9 -2q-1 -1 -5 -1q-49 -16 -103 -24q-12 -1 -14 -16q-3 -22 -3 -44q0 -52 17 -97q10 -24 28 -40q14 -11 28 -11q16 0 28 4q27 8 48 22l10 6q59 30 103 88q3 5 8 8q3 3 9 5q2 1 5 1q5 0 8 -2
q11 -8 11 -20q-2 -15 -10 -26q-32 -48 -83 -82q-38 -27 -78 -48q-34 -17 -65 -17q-17 0 -30 4q-45 12 -76 50z" />
    <glyph glyph-name="Scaron" unicode="&#x160;" horiz-adv-x="654" 
d="M438 603q0 -2 0.5 -6t0.5 -5q0 -13 -4 -38.5t-4 -39.5q-1 -10 -8 -17t-16 -7h-3q-20 2 -20 26v3q1 11 4 33t4 33v11q0 69 -47 106q-18 12 -38 12q-12 0 -23 -4q-41 -16 -73.5 -64t-32.5 -87q2 -34 20 -57q31 -38 58 -61q69 -58 106 -97q94 -97 129 -184q22 -53 22 -105
q0 -78 -44 -143.5t-111 -98.5q-47 -23 -101 -23q-57 0 -109 27t-88 75q-49 67 -49 145q0 33 9 68q23 87 61 137q17 23 35 26q3 1 9 1q12 0 18 -9q3 -6 3 -11q0 -9 -8 -17q-21 -20 -35 -48.5t-19.5 -48.5t-12.5 -58q-5 -25 -5 -43q0 -46 21 -90q24 -51 70 -79.5t98 -28.5
q71 0 125 51q69 64 69 155v14q-3 50 -33 94q-44 67 -107 114q-21 16 -68 47.5t-71 49.5q-7 6 -21.5 16.5t-25.5 19.5t-20 19q-62 67 -62 138v9q1 47 23 95q20 46 70 89q61 52 131 52q17 0 35 -3q104 -21 133 -135q5 -17 5 -44v-14zM69 1108q46 -4 100 -47q41 -34 75 -96
q11 -17 13 -19q9 -12 15 -12t15 10q46 52 60 75q15 22 47 62q10 13 22 17q9 4 20 4q13 0 24 -11q12 -13 12 -29q0 -8 -3 -17q-6 -14 -15 -17q-6 -2 -12 -4.5t-12 -7.5t-9.5 -7.5t-10.5 -9.5l-8.5 -8.5t-9 -10.5t-8.5 -10q-10 -11 -32 -37.5t-35 -40.5q-29 -32 -65 -32
q-27 0 -53 19q-12 9 -19 17q-6 7 -36 41.5t-43 55.5q-2 3 -4.5 6.5t-5.5 8t-5 6.5q-15 18 -35 18h-14q-9 0 -17 5q-10 8 -10 23q0 3 2 11q7 16 23 26.5t34 10.5z" />
    <glyph glyph-name="scaron" unicode="&#x161;" horiz-adv-x="520" 
d="M352 273q-1 -7 -7.5 -13.5t-14.5 -7.5h-3q-8 0 -16 14q-5 7 -7 24q-10 53 -41 81q-10 9 -16 9q-7 0 -18 -10q-16 -13 -40 -45q-42 -56 -49 -74q-11 -27 -11 -37q0 -17 35 -40q21 -13 98 -39q60 -21 98 -47q47 -33 47 -88q0 -26 -11 -47q-39 -78 -128 -108q-11 -5 -28 -5
h-9q-21 2 -35 18t-14 37v7q2 8 6 15q8 14 18 14t18 -14l4 -9q3 -8 8 -10h4q4 0 22 10q47 33 63 69q5 13 5 21q0 20 -21 33q-16 11 -47 21q-17 5 -51 14.5t-51 14.5q-54 15 -80 34q-73 50 -73 130q0 9 2 27q15 109 112 193q28 26 77 43q1 0 5 1.5t6 1.5q62 -4 86 -26
q27 -23 40 -65q15 -56 17 -123v-24zM20 812q46 -4 100 -47q41 -34 75 -96q11 -17 13 -19q9 -12 15 -12t15 10q46 52 60 75q15 22 47 62q10 13 22 17q9 4 20 4q13 0 24 -11q12 -13 12 -29q0 -8 -3 -17q-6 -14 -15 -17q-6 -2 -12 -4.5t-12 -7.5t-9.5 -7.5t-10.5 -9.5
l-8.5 -8.5t-9 -10.5t-8.5 -10q-10 -11 -32 -37.5t-35 -40.5q-29 -32 -65 -32q-27 0 -53 19q-12 9 -19 17q-6 7 -36 41.5t-43 55.5l-15 21q-15 18 -35 18h-14q-10 0 -17 5q-10 8 -10 23q0 3 2 11q7 16 23 26.5t34 10.5z" />
    <glyph glyph-name="Ydieresis" unicode="&#x178;" horiz-adv-x="698" 
d="M515 454q-4 -9 -11.5 -27t-11.5 -27q-74 -178 -153 -280q-37 -47 -79 -70q-31 -17 -61 -17q-45 0 -84 41q-43 46 -68 121q-9 28 -23 86q-17 70 -20 168q-1 16 -1 49q0 76 13 164q9 60 32 96q13 21 33 21h17q8 0 11 -1q27 -3 37 -26q9 -25 9 -41q0 -9 -1 -14
q-14 -84 -20 -126q-2 -13 -3.5 -28.5t-3 -34t-2.5 -28.5q-4 -41 -4 -94v-29q4 -102 18 -168q7 -31 27 -65q19 -30 48 -30q19 0 35 10q36 19 69 63q48 62 89 145q76 159 105 307q1 5 2 14.5t2.5 17t5.5 13.5q13 19 32 19q9 0 17 -4q10 -5 14 -15q7 -19 7 -34q2 -82 3 -122
q2 -34 2 -102q0 -56 -1 -84q-3 -134 -39 -263q-37 -136 -122 -209q-38 -33 -76 -38q-1 0 -4 -0.5t-5 -0.5q-24 0 -44 15t-25 37q-2 8 -2 14q0 13 9 18q2 1 6 1t14 -6l20 -20q8 -9 18 -9q4 0 12 2q16 6 40 28q51 51 73 115q28 82 38 162q11 74 11 163v122q-1 0 -3 1h-2z
M211 857q0 21 3 32q6 28 27 32q12 2 18 2q20 0 34 -15q17 -20 17 -50q0 -45 -29 -66q-12 -9 -26 -9q-28 0 -39 30q-5 14 -5 34v10zM373 857q0 21 3 32q6 28 27 32q12 2 18 2q20 0 34 -15q17 -20 17 -50q0 -45 -29 -66q-12 -9 -26 -9q-28 0 -39 30q-5 14 -5 34v10z" />
    <glyph glyph-name="zcaron" unicode="&#x17e;" horiz-adv-x="516" 
d="M299 -143q-6 0 -17.5 -0.5t-17.5 -0.5q-67 0 -119 16q-37 11 -65 37q-31 30 -31 76q0 20 8 41q19 43 52 78q2 2 134 140q48 49 71 88q11 21 16 36v2l1 2q0 7 -9 7h-2l-9 -3q-73 -27 -82 -31q-13 -6 -42 -15.5t-44 -16.5q-53 -25 -63 -31q-15 -8 -31 -8q-19 0 -33 15
q-12 12 -12 40q0 13 4 20q25 45 57 61q56 32 85 45q53 25 132 34q8 1 25 1q41 0 71 -17q32 -19 35 -59v-9q0 -41 -35 -94q-39 -57 -145 -167q-60 -64 -86 -100q-13 -18 -17 -31q-3 -9 -3 -14q0 -10 14 -20q23 -16 61 -23q73 -15 116 -15q22 0 43 3h17q29 -3 34 -26
q1 -2 1 -8q0 -21 -19 -32q-17 -12 -37 -15q-4 -1 -58 -6zM37 788q46 -4 100 -47q41 -34 75 -96q11 -17 13 -19q9 -12 15 -12t15 10q46 52 60 75q15 22 47 62q10 13 22 17q9 4 20 4q13 0 24 -11q12 -14 12 -29q0 -8 -3 -17q-6 -14 -15 -17q-6 -2 -12 -4.5t-12 -7.5t-9.5 -7.5
t-10.5 -9.5l-8.5 -8.5t-9 -10.5t-8.5 -10q-10 -11 -32 -37.5t-35 -40.5q-29 -32 -65 -32q-27 0 -53 19q-12 9 -19 17q-6 7 -36 41.5t-43 55.5q-2 3 -4.5 6.5t-5.5 8t-5 6.5q-15 18 -35 18h-14q-9 0 -17 5q-10 8 -10 23q0 3 2 11q7 16 23 26.5t34 10.5z" />
    <glyph glyph-name="gravecomb" unicode="&#x300;" horiz-adv-x="373" 
d="M46 933h3q47 0 52 -39q4 -25 24 -48q60 -70 112 -110q19 -13 27 -26q7 -10 7 -19q0 -6 -3 -12q-7 -13 -28 -13q-20 1 -41 17q-67 46 -116 92q-46 44 -61 62q-17 23 -17 44q0 12 4 24q6 17 13 22.5t24 5.5z" />
    <glyph glyph-name="acutecomb" unicode="&#x301;" horiz-adv-x="373" 
d="M227 933q17 0 24 -5.5t13 -22.5q4 -12 4 -24q0 -21 -17 -44q-15 -18 -61 -62q-49 -46 -116 -92q-21 -16 -41 -17q-21 0 -28 13q-3 6 -3 12q0 9 7 19q8 13 27 26q52 40 112 110q20 23 24 48q5 39 52 39h3z" />
    <glyph glyph-name="circumflexcomb" unicode="&#x302;" horiz-adv-x="567" 
d="M406 676q-48 4 -100 47q-37 30 -76 95q-8 14 -12 20q-8 11 -14 11q-7 0 -16 -10q-43 -47 -61 -74q-10 -16 -46 -63q-10 -12 -22 -17q-11 -3 -19 -3q-15 0 -25 10q-12 14 -12 30q0 7 3 16q5 15 15 17q9 3 17 7t16 12t12 11.5t13.5 14.5t11.5 13q11 13 33 39.5t34 39.5
q29 32 65 32q27 0 53 -20q14 -10 19 -17q3 -3 34.5 -39t44.5 -57l15 -21q16 -19 34 -19q1 0 3 0.5t4 0.5h6q12 0 19 -5q10 -10 10 -24q0 -3 -2 -11q-7 -15 -22.5 -25.5t-32.5 -10.5h-2z" />
    <glyph glyph-name="tildecomb" unicode="&#x303;" horiz-adv-x="597" 
d="M338 724q-30 0 -57 19q-11 8 -32.5 24.5t-31.5 23.5l-21 15q-11 7 -21 7q-12 0 -26 -13q-25 -22 -35 -51q-6 -18 -22.5 -29t-34.5 -11q-5 0 -13 2q-13 3 -25.5 21.5t-12.5 33.5q0 5 1 7l4.5 13.5t5.5 15l6 13.5t7.5 14t9 11t12.5 11q50 32 81 37q14 2 20 2q37 0 72 -27
q30 -23 71 -62q22 -21 47 -21q16 0 34 9q50 28 70 58q6 8 9 11q8 10 18 10q3 0 9 -2q11 -5 11 -20q0 -5 -1 -8q-6 -20 -12 -28q-39 -55 -115 -83q-6 -2 -9 -2q-6 -1 -19 -1z" />
    <glyph glyph-name="macroncomb" unicode="&#x304;" horiz-adv-x="552" 
d="M191 851q112 -4 202 -19q28 -6 39 -15q17 -12 17 -27q0 -3 -2 -9q-7 -16 -26 -16q-6 0 -9 1q-66 9 -131 9q-119 -3 -214 -25q-12 -2 -16 -2q-19 0 -32 14q-14 14 -14 28t13 27q13 15 34 21q43 13 112 13h27z" />
    <glyph glyph-name="dotaccentcomb" unicode="&#x307;" horiz-adv-x="210" 
d="M1 804q0 21 3 32q6 28 27 32q12 2 18 2q20 0 34 -15q17 -20 17 -50q0 -45 -29 -66q-12 -9 -26 -9q-28 0 -39 30q-5 14 -5 34v10z" />
    <glyph glyph-name="dieresiscomb" unicode="&#x308;" horiz-adv-x="372" 
d="M1 804q0 21 3 32q6 28 27 32q12 2 18 2q20 0 34 -15q17 -20 17 -50q0 -45 -29 -66q-12 -9 -26 -9q-28 0 -39 30q-5 14 -5 34v10zM163 804q0 21 3 32q6 28 27 32q12 2 18 2q20 0 34 -15q17 -20 17 -50q0 -45 -29 -66q-12 -9 -26 -9q-28 0 -39 30q-5 14 -5 34v10z" />
    <glyph glyph-name="ringcomb" unicode="&#x30a;" horiz-adv-x="331" 
d="M230 801q-11 -84 -76 -122q-22 -12 -46 -12q-30 0 -55 18t-35 49q-14 44 -14 75q0 9 2 25q5 37 22 64q24 38 57 38q20 0 41 -15q9 -7 34 -15q70 -21 70 -102v-3zM172 804q0 22 -6 32q-10 15 -17 15q-1 0 -3 -1q-29 -7 -37 -17q-20 -24 -20 -57q0 -6 2 -20q5 -25 25 -25
q11 0 23 9q33 24 33 64z" />
    <glyph glyph-name="caroncomb" unicode="&#x30c;" horiz-adv-x="568" 
d="M62 924q46 -4 100 -47q41 -34 75 -96q11 -17 13 -19q9 -12 15 -12t15 10q46 52 60 75q15 22 47 62q10 13 22 17q9 4 20 4q13 0 24 -11q12 -14 12 -29q0 -8 -3 -17q-6 -14 -15 -17q-6 -2 -12 -4.5t-12 -7.5t-9.5 -7.5t-10.5 -9.5l-8.5 -8.5t-9 -10.5t-8.5 -10
q-10 -11 -32 -37.5t-35 -40.5q-29 -32 -65 -32q-27 0 -53 19q-12 9 -19 17q-6 7 -36 41.5t-43 55.5q-2 3 -4.5 6.5t-5.5 8t-5 6.5q-15 18 -35 18h-14q-10 0 -17 5q-10 8 -10 23q0 3 2 11q7 16 23 26.5t34 10.5z" />
    <glyph glyph-name="cedillacomb" unicode="&#x327;" horiz-adv-x="458" 
d="M58 -319q-26 0 -45 21q-10 12 -10 20q0 6 3 12q12 23 28 23h2q2 0 7 -0.5t8 -0.5q24 0 85 13q86 21 122 41q1 1 4 2.5t4 2.5q13 9 13 17q0 7 -8 18q-10 11 -34 25q-13 7 -73 32q-32 14 -50 31q-16 17 -19 40q0 2 -0.5 5t-0.5 4q0 28 31 40q6 2 9 2q12 0 21 -13
q11 -18 11 -33q3 -20 24 -30q7 -3 21 -9.5t21 -10.5q47 -21 80 -50q34 -28 34 -66q0 -35 -28 -63q-31 -31 -71 -44q-77 -29 -156 -29h-33z" />
    <glyph glyph-name="endash" unicode="&#x2013;" horiz-adv-x="494" 
d="M238 230q41 0 113 -10q15 -1 31 -17q9 -9 9 -22q0 -9 -4 -14q-8 -14 -22 -14q-7 0 -10 1q-22 7 -49 7q-16 0 -44.5 -3t-35.5 -4q-80 -10 -171 -39q-9 -3 -16 -3q-16 0 -28 15q-8 13 -8 21q0 10 7 20q16 22 43 33q53 21 95 25q58 5 65 5q3 0 7 -0.5t6 -0.5h12z" />
    <glyph glyph-name="emdash" unicode="&#x2014;" horiz-adv-x="639" 
d="M501 166q-77 0 -172 -5q-31 -2 -88.5 -11t-69.5 -11q-16 -2 -45 -7t-43 -7q-10 0 -24 -10q-11 -6 -20 -6q-12 0 -25 11q-11 9 -11 24q0 9 4 17q10 27 49 42q59 22 142 27q52 3 106 3q22 0 64 -0.5t63 -0.5q11 0 64 -5q4 0 24 -8q18 -9 18 -26v-4q-3 -21 -29 -23h-7z" />
    <glyph glyph-name="quoteleft" unicode="&#x2018;" horiz-adv-x="232" 
d="M0 622q0 36 23 59q9 8 51 58q13 17 25 20t13 3q9 0 13 -7q5 -5 5 -14t-5 -15q-7 -8 -26 -36q-17 -26 -17 -55v-5q0 -16 -10.5 -29t-25.5 -17q-3 -1 -9 -1q-5 0 -11 3q-8 4 -17 17.5t-9 18.5z" />
    <glyph glyph-name="quoteright" unicode="&#x2019;" horiz-adv-x="232" 
d="M132 721q0 -33 -23 -58q-4 -4 -51 -59q-14 -16 -25 -19q-2 0 -6.5 -1.5t-6.5 -1.5q-9 0 -13 7q-5 8 -5 14q0 7 5 14q6 7 14.5 19.5t11.5 17.5q17 29 17 56v4q0 15 10.5 28.5t25.5 17.5q3 1 9 1q5 0 11 -3q8 -4 17 -17.5t9 -19.5z" />
    <glyph glyph-name="quotesinglbase" unicode="&#x201a;" horiz-adv-x="232" 
d="M132 -47q0 -33 -23 -58q-4 -4 -51 -59q-14 -16 -25 -19q-2 0 -6.5 -1.5t-6.5 -1.5q-9 0 -13 7q-5 8 -5 14q0 7 5 14q6 7 14.5 19.5t11.5 17.5q17 29 17 56v4q0 15 10.5 28.5t25.5 17.5q3 1 9 1q5 0 11 -3q8 -4 17 -17.5t9 -19.5z" />
    <glyph glyph-name="quotedblleft" unicode="&#x201c;" horiz-adv-x="345" 
d="M113 622q0 36 23 59q9 8 51 58q13 17 25 20t13 3q9 0 13 -7q5 -5 5 -14t-5 -15q-8 -8 -26 -36q-17 -26 -17 -55v-5q0 -16 -10.5 -29t-25.5 -17q-3 -1 -9 -1q-5 0 -11 3q-8 4 -17 17.5t-9 18.5zM0 622q0 36 23 59q9 8 51 58q13 17 25 20t13 3q9 0 13 -7q5 -5 5 -14t-5 -15
q-7 -8 -26 -36q-17 -26 -17 -55v-5q0 -16 -10.5 -29t-25.5 -17q-3 -1 -9 -1q-5 0 -11 3q-8 4 -17 17.5t-9 18.5z" />
    <glyph glyph-name="quotedblright" unicode="&#x201d;" horiz-adv-x="345" 
d="M132 721q0 -33 -23 -58q-4 -4 -51 -59q-14 -16 -25 -19q-2 0 -6.5 -1.5t-6.5 -1.5q-9 0 -13 7q-5 8 -5 14q0 7 5 14q6 7 14.5 19.5t11.5 17.5q17 29 17 56v4q0 15 10.5 28.5t25.5 17.5q3 1 9 1q5 0 11 -3q8 -4 17 -17.5t9 -19.5zM245 721q0 -33 -23 -58q-4 -4 -51 -59
q-14 -16 -25 -19q-2 0 -6.5 -1.5t-6.5 -1.5q-9 0 -13 7q-5 8 -5 14q0 7 5 14q6 7 14.5 19.5t11.5 17.5q17 29 17 56v4q0 15 10.5 28.5t25.5 17.5q3 1 9 1q5 0 11 -3q8 -4 17 -17.5t9 -19.5z" />
    <glyph glyph-name="quotedblbase" unicode="&#x201e;" horiz-adv-x="345" 
d="M132 -47q0 -33 -23 -58q-4 -4 -51 -59q-14 -16 -25 -19q-2 0 -6.5 -1.5t-6.5 -1.5q-9 0 -13 7q-5 8 -5 14q0 7 5 14q6 7 14.5 19.5t11.5 17.5q17 29 17 56v4q0 15 10.5 28.5t25.5 17.5q3 1 9 1q5 0 11 -3q8 -4 17 -17.5t9 -19.5zM245 -47q0 -33 -23 -58q-4 -4 -51 -59
q-14 -16 -25 -19q-2 0 -6.5 -1.5t-6.5 -1.5q-9 0 -13 7q-5 8 -5 14q0 7 5 14q6 7 14.5 19.5t11.5 17.5q17 29 17 56v4q0 15 10.5 28.5t25.5 17.5q3 1 9 1q5 0 11 -3q8 -4 17 -17.5t9 -19.5z" />
    <glyph glyph-name="dagger" unicode="&#x2020;" horiz-adv-x="561" 
d="M288 306q-6 -61 -6 -152v-58q2 -86 9 -143q2 -16 9 -26q8 -11 8 -21q0 -13 -13 -23q-8 -7 -21 -7q-16 0 -27 12q-15 17 -23 59q-10 48 -17 118q-22 205 -25 246q-3 29 -3 55v17q0 12 -4.5 16.5t-15.5 4.5h-7q-31 -3 -93 -11q-3 0 -8.5 -1t-7.5 -1q-13 1 -24.5 9t-14.5 18
q-1 2 -1 7q0 20 20 33q29 18 66 24q34 6 51 6q7 0 10 1q24 5 26 9q1 2 1 6q0 2 -0.5 7t-0.5 10v24q0 51 5 114q4 38 25 52q18 12 33 12q30 0 50 -40q8 -16 8 -32q0 -15 1.5 -47t1.5 -47q0 -23 -3 -47v-8q0 -11 5 -14.5t20 -4.5q34 -1 84 -12q22 -5 39 -16q14 -9 16 -30
q0 -11 -8.5 -20t-19.5 -9q-6 0 -9 2q-13 7 -28.5 10t-36 3.5t-29.5 1.5q-3 1 -9 1q-3 0 -9 -0.5t-8 -0.5q-11 0 -13 -11q0 -2 -1.5 -10t-1.5 -11q0 -2 0.5 -4t0.5 -3q0 -2 0.5 -5t0.5 -5q0 -8 -2 -22t-2 -21q0 -5 2 -15z" />
    <glyph glyph-name="daggerdbl" unicode="&#x2021;" horiz-adv-x="563" 
d="M283 93q2 -18 3.5 -65.5t4.5 -73.5q4 -19 11 -28q7 -10 7 -20q0 -13 -12 -22q-10 -8 -24 -8q-15 0 -25 11q-13 14 -23 56q-11 60 -20 142q-1 5 -2 13.5t-1 12.5q-2 13 -5 17t-12 4q-1 0 -4.5 -0.5t-5.5 -0.5q-15 -2 -53 -8q-14 -2 -21 -2t-10 1q-30 4 -30 22v4
q0 22 17 32q17 11 35 15q11 2 32 7t32 7q14 3 14 12l-1 2v3q-4 26 -7 74.5t-4 57.5q0 3 0.5 11t0.5 12q0 13 -4 18t-14 5h-6q-50 -4 -100 -12q-1 0 -4 -0.5t-5 -0.5q-14 0 -29 10q-14 8 -14 23q0 8 4 16q9 18 34 27q50 20 94 20q10 1 30 5q12 2 12 16q-1 13 -1 37
q0 19 5 111q2 39 24 54q19 12 34 12q29 0 50 -39q7 -13 7 -32q0 -11 1 -30t1.5 -35t0.5 -30q0 -30 -2 -45q-1 -4 -1 -10q0 -10 5.5 -13.5t19.5 -4.5q33 -1 84 -12q22 -5 39 -16q16 -10 16 -29v-3q0 -11 -8 -19t-18 -8q-7 0 -10 2q-11 6 -24 9t-21.5 3.5l-25.5 1.5t-23 1
q-5 0 -11.5 0.5t-9.5 0.5q-5 0 -8.5 -0.5t-5.5 -2t-3 -2.5t-1.5 -5t-0.5 -7t-0.5 -10t-0.5 -13q-2 -25 -3.5 -74t-3.5 -73v-4q0 -14 18 -14q39 0 72 -10q16 -3 25 -16q7 -9 7 -16q0 -6 -5 -14q-8 -11 -18 -11q-3 0 -9 2q-20 6 -38 6q-10 0 -32 -2q-14 -2 -17 -5.5t-3 -16.5
v-33z" />
    <glyph glyph-name="bullet" unicode="&#x2022;" horiz-adv-x="500" 
d="M237 352q0 -51 -39.5 -93.5t-86.5 -42.5q-49 0 -79 37.5t-30 98.5v3q0 44 30.5 76t73.5 32h3q47 -2 87.5 -33t40.5 -76v-2z" />
    <glyph glyph-name="ellipsis" unicode="&#x2026;" horiz-adv-x="1000" 
d="M119 -63q0 -25 -20 -46.5t-43 -21.5q-25 0 -40 18.5t-15 49.5v2q0 22 15.5 38t36.5 16h2q24 -1 44 -16.5t20 -38.5v-1zM452 -63q0 -25 -20 -46.5t-43 -21.5q-25 0 -40 18.5t-15 49.5v2q0 22 15.5 38t36.5 16h2q24 -1 44 -16.5t20 -38.5v-1zM785 -63q0 -25 -20 -46.5
t-43 -21.5q-25 0 -40 18.5t-15 49.5v2q0 22 15.5 38t36.5 16h2q24 -1 44 -16.5t20 -38.5v-1z" />
    <glyph glyph-name="perthousand" unicode="&#x2030;" horiz-adv-x="825" 
d="M489 188q1 2 3.5 6t4 6t3.5 5.5t4 5.5l4.5 4.5l4.5 4.5t5 3.5t6 2.5q10 5 13 5h1q6 -2 9 -2q5 0 27 12q20 12 43 12q25 0 46 -14t31 -37q17 -43 17 -82q0 -66 -43 -133q-27 -42 -79 -42q-12 0 -18 1q-52 8 -77 62q-1 3 -3 8t-4.5 9.5t-5.5 8.5q-2 -2 -12 -22
q-22 -41 -58 -59q-16 -8 -39 -8q-63 0 -92 61q-20 41 -20 90q0 39 11 80q10 36 39 51q2 0 5 2t5 2h1q8 -2 11 -2q6 0 31 15q17 9 37 9q25 0 46.5 -12.5t31.5 -33.5q1 -2 2.5 -6t3 -7t5.5 -6zM656 116q0 20 -7 44q-7 25 -24 36q-7 5 -16 5q-13 0 -17 -18q-7 -32 -17 -53
q-10 -22 -14 -78v-4q0 -14 9 -30t24 -16q10 0 17 5q14 8 24 26q18 33 21 83zM440 114q0 5 -1 15t-1 15q-3 29 -20 47q-10 10 -21 10q-5 0 -7 -1q-4 -1 -6.5 -3t-3.5 -4.5t-2 -6.5t-2 -6q-5 -26 -7 -29q-10 -18 -18 -56q-5 -22 -5 -39q0 -18 5 -31q9 -23 28 -23q12 0 25 10
q11 9 17 22q19 40 19 80zM239 529q0 -57 -25 -106q-19 -41 -53 -58q-20 -10 -43 -10q-29 0 -55 17.5t-40 48.5q-17 41 -17 87q0 39 10 76q10 39 40 53q6 4 10 4h1q8 -2 10 -2q5 0 10.5 2.5t12.5 7.5t9 6q16 9 36 9q25 0 46.5 -13t31.5 -35q17 -34 17 -67q0 -13 -1 -20z
M185 524q0 31 -6 50q-7 19 -19 30q-10 8 -18 8q-15 0 -20 -20q-1 -2 -2.5 -14t-5.5 -18q-12 -21 -19 -58q-4 -22 -4 -35q0 -18 7 -35q9 -20 26 -20q10 0 20 7q12 7 22 24q19 38 19 81zM51 -62q-16 0 -16 17l1 2v3q4 10 14 30q19 35 57 103.5t57 102.5q36 66 105.5 185
t87.5 150q32 56 47 84q8 14 13 20q8 8 18 8q6 0 12 -4q10 -8 10 -18q0 -3 -2 -9q-5 -15 -12 -26q-50 -83 -150 -251q-10 -17 -113 -196q-62 -110 -94 -166q-10 -16 -16 -23q-7 -10 -19 -12z" />
    <glyph glyph-name="guilsinglleft" unicode="&#x2039;" horiz-adv-x="539" 
d="M159 119q10 -11 28 -17q104 -43 150 -46h13q22 0 35 7q10 5 17 5q9 0 15 -8q5 -7 5 -14q0 -8 -8 -19q-12 -16 -39 -21q-19 -4 -43 -4q-36 0 -81 10q-81 15 -160 76q-31 23 -53 30q-15 3 -26 16q-9 10 -9 22q0 7 2 10q9 18 28 18h5q19 -4 27 -10q8 -5 19 -5q5 0 17 2
q29 9 75 32q22 11 43.5 24.5t51 34t40.5 27.5q7 5 24 18.5t27 19.5q15 10 29 10q12 0 22 -7q19 -13 19 -36q0 -18 -13 -32q-6 -7 -44 -35q-88 -60 -150 -83q-5 -2 -66 -25z" />
    <glyph glyph-name="guilsinglright" unicode="&#x203a;" horiz-adv-x="539" 
d="M280 221q-7 8 -28 17q-101 41 -150 46h-13q-22 0 -35 -8q-10 -5 -16 -5q-10 0 -16 9q-4 5 -4 13q0 9 7 19q12 16 39 21q20 4 44 4q33 0 80 -9q80 -16 160 -76q28 -22 53 -30q14 -4 26 -16q9 -11 9 -23q0 -7 -2 -10q-9 -17 -28 -17h-5q-15 2 -27 9q-9 6 -20 6q-7 0 -16 -3
q-29 -9 -75 -32q-33 -17 -135 -86q-8 -5 -24.5 -18.5t-26.5 -19.5q-18 -10 -29 -10t-22 8q-19 13 -19 35q0 18 13 32q10 12 44 35q82 58 150 84q42 16 66 25z" />
    <glyph glyph-name="fraction" unicode="&#x2044;" horiz-adv-x="348" 
d="M1 -103q6 80 20 171q37 224 58 329q7 34 17 97.5t14 87.5q4 21 29 126q8 29 30 50q8 8 20 8q7 0 14 -3q22 -9 31.5 -20.5t9.5 -30.5q0 -5 -2 -17q-6 -35 -24 -103q-25 -98 -49 -177q-5 -17 -46 -194q-6 -25 -40 -200q-20 -107 -20 -144v-17q-3 -27 -23 -29h-2
q-19 0 -29 20q-8 21 -8 40v6z" />
    <glyph glyph-name="fraction" unicode="&#x2215;" horiz-adv-x="348" 
d="M1 -103q6 80 20 171q37 224 58 329q7 34 17 97.5t14 87.5q4 21 29 126q8 29 30 50q8 8 20 8q7 0 14 -3q22 -9 31.5 -20.5t9.5 -30.5q0 -5 -2 -17q-6 -35 -24 -103q-25 -98 -49 -177q-5 -17 -46 -194q-6 -25 -40 -200q-20 -107 -20 -144v-17q-3 -27 -23 -29h-2
q-19 0 -29 20q-8 21 -8 40v6z" />
    <glyph glyph-name="frenchfrancsign" unicode="&#x20a3;" horiz-adv-x="378" 
d="M127 302q0 -14 1.5 -18t8.5 -4t13 1q45 5 53 5h6q21 -2 33 -11q9 -7 9 -18q0 -2 -2 -10q-4 -11 -16 -11q-5 0 -8 1q-7 2 -20 2q-17 0 -60 -13q-15 -4 -15 -12q0 -6 1 -10q3 -13 12 -13q3 0 11 2q42 8 63 8h7q17 0 32 -6q10 -5 15 -12q4 -5 4 -13q0 -5 -3 -11
q-6 -9 -15 -9q-1 0 -3 0.5t-3 0.5q-12 3 -23 3q-12 0 -24 -2.5t-29.5 -8t-23.5 -7.5q-13 -4 -13 -18v-4q7 -70 12 -143v-14q0 -45 -15 -102q-10 -38 -43 -49q-5 -2 -14 -2q-26 0 -38 23q-5 8 -5 16q0 19 20 21q14 2 16 19q1 6 1 17q0 16 -6 48q-11 63 -12 105q0 5 -2 17
q-2 13 -5 15.5t-17 3.5q-23 2 -27 19q-1 2 -1 7q0 17 15 23q26 11 26 40q0 12 -1 19q-5 45 -5 81q0 64 15 129q14 58 49 98q25 28 63 28q46 0 71 -39q30 -45 39 -119q0 -4 0.5 -15.5t1.5 -17.5v-3q0 -10 -6.5 -19t-14.5 -11h-4q-9 0 -18.5 7t-11.5 17q-1 6 -2 13t-2 15.5
t-2 13.5q-5 34 -17 58q-2 3 -4 8t-4 7q-8 10 -15 10t-15 -11q-9 -11 -20 -52q0 -1 -3 -14q-1 -10 -5.5 -35.5t-4.5 -39.5v-4z" />
    <glyph glyph-name="lirasign" unicode="&#x20a4;" horiz-adv-x="553" 
d="M189 -92q-44 0 -115 26q-7 3 -22 9.5t-23 9.5q-21 9 -21 23q0 11 14 21q32 24 35 74q2 44 2 67q0 55 -5 95l-6 75q0 21 -17 23q-21 5 -21 28q0 13 9 23q8 8 13 11q11 6 11 21v5q-1 10 -1 29q0 67 27 137q33 80 97 99q20 5 36 5q39 0 66.5 -25t36.5 -69q1 -3 1 -8
q0 -15 -12 -20q-2 -1 -7 -1q-11 0 -23 14q-4 7 -14 19q-15 17 -31 17q-15 0 -32 -15q-25 -25 -35 -70q-5 -20 -11 -65q0 -2 -0.5 -5t-0.5 -4q0 -9 7 -9q1 0 11 2q33 6 62 15q13 3 26 3q4 0 11 -0.5t10 -0.5q20 -2 29 -13t9 -20q0 -2 -2 -8q-7 -13 -24 -13q-6 1 -18 1
q-13 0 -19 -2q-26 -5 -94 -31q-12 -5 -12 -17v-3q2 -25 2.5 -72t1.5 -62q1 -19 7 -19q3 0 14 3q72 17 90 18h7q15 0 25 -5q15 -6 15 -21q0 -4 -2 -10q-4 -14 -17 -14q-6 0 -10 1t-13 1q-10 0 -20.5 -2.5t-23 -6.5t-19.5 -6q-64 -15 -65 -75q0 -39 -36 -96q-5 -8 -5 -11
q0 -5 12 -9q48 -17 95 -17q13 0 20 1q51 3 92 20q47 19 78 51q9 9 9 18q0 5 -1 8q-3 7 -3 14q0 10 10 16q5 4 15 4q14 0 22 -8q15 -15 15 -36q0 -6 -1 -10q-8 -43 -39 -65q-62 -43 -138 -58q-36 -6 -55 -6q-2 0 -8 0.5t-8 0.5h-13z" />
    <glyph glyph-name="euro" unicode="&#x20ac;" horiz-adv-x="544" 
d="M169 426q9 1 32.5 5t36.5 5q19 0 28 -3q8 -2 14 -9.5t6 -14.5v-2q-2 -17 -23 -17h-6q-21 0 -102 -19q-13 -4 -16 -13q-5 -16 -15.5 -45.5t-17.5 -54.5t-10 -49q2 -1 6 -1q5 0 17 5q60 24 115 35q14 3 42 3q17 -2 24 -10q6 -6 6 -14q0 -12 -14 -17q-6 -2 -11 -2
q-18 0 -39.5 -5t-33.5 -8.5t-39.5 -14t-34.5 -12.5q-6 -3 -17.5 -8t-17.5 -7q-13 -6 -14 -22v-15q0 -51 17 -92q21 -56 84 -61h19q79 0 148 35q24 12 42 33q18 18 30 23q6 2 8 2q10 0 10 -14v-3q0 -23 -22 -45q-30 -31 -74 -50q-81 -33 -152 -33q-12 0 -36 2q-63 6 -102 57
q-40 51 -50 127q-6 36 -6 72q0 16 1 25q6 92 35 186q26 85 62 150q37 70 66 100q30 32 48 44q23 16 51 16q7 0 19 -2q30 -4 44 -38q19 -45 22 -106q0 -22 -16 -26h-4q-16 0 -22 19q-12 34 -22 49q-7 10 -12 10q-4 0 -10 -8q-57 -74 -94 -162z" />
    <glyph glyph-name="numerosign" unicode="&#x2116;" horiz-adv-x="1242" 
d="M169 -45q4 33 12.5 99t12.5 99q28 222 75 347q44 118 76 172q43 70 82 97q27 18 52 18q33 0 57 -26q27 -30 37 -60q14 -37 25 -100q19 -125 19 -275q0 -33 -2 -101q-1 -15 -2.5 -98.5t-5.5 -127.5l-3 -134q0 -13 -3 -18q-7 -19 -29 -22h-2q-11 0 -24 17q-7 9 -7 27
q-1 35 -3.5 107.5t-3.5 109.5q-3 140 -4 167q-2 36 -4 115t-5 120q-10 133 -33 197q-10 28 -22 28q-9 0 -28 -16q-33 -29 -66 -94q-84 -159 -112 -331q-20 -130 -27 -196q-4 -33 -9.5 -92.5t-7.5 -78.5q-4 -45 -12 -67q-12 -30 -37 -30q-17 0 -34 17q-12 14 -17 22
q-21 43 -39 106q-20 72 -27 117q-3 18 -12 71.5t-13 83.5q-2 22 -6.5 67t-7.5 69q-6 41 -6 84q0 19 1 29v5q0 5 -1 15.5t-1 16.5t2 16t5 61q4 43 23 103q14 47 53 54q5 0 15.5 4t16.5 4q7 0 13 -3q14 -6 21 -17q16 -26 16 -56q0 -7 -2 -21q-4 -25 -8 -70.5t-7 -64.5
q-3 -22 -4.5 -45.5t-1.5 -54.5t-1 -46v-23q0 -15 0.5 -45.5t0.5 -46.5q0 -51 6 -155q6 -96 19 -150zM751 318q0 5 0.5 33.5t3 48t8.5 38.5q0 1 4.5 20.5t10.5 28.5q3 5 3 8q0 7 -9 12q-14 6 -25 18q-28 29 -28 65q0 18 10 43q20 48 65 68q34 15 75 15t81 -15q67 -26 107 -78
q8 -10 13 -10q4 0 12 11q4 6 11 17.5t9 14.5q9 12 10 13q10 12 16 12q3 0 5 -1q8 -4 8 -18v-5q-1 -31 -27 -64q-8 -10 -13 -14q-6 -6 -6 -13q0 -4 3 -10q10 -21 20 -63q12 -45 12 -89q0 -79 -38 -158q-41 -81 -90 -132q-38 -41 -92 -41q-26 0 -50 12q-43 20 -73 78
q-17 32 -24 62.5t-12 92.5zM864 251q0 -21 1 -30q6 -47 27 -68q16 -16 29 -16q11 0 27 11q22 15 54 58q70 104 70 208q0 25 -2 38q-4 33 -17 66q-6 15 -12 15q-4 0 -14 -5q-36 -18 -89 -30q-19 -6 -20 -6q-3 -2 -3 -6q0 -1 1 -5t1 -6v-2q0 -8 -2 -12q-7 -17 -16.5 -49.5
t-13.5 -44.5q-15 -46 -21 -116zM888 539q64 7 116 30q11 5 11 9q0 3 -8 13q-55 63 -136 63q-2 0 -8 -0.5t-9 -0.5q-44 -3 -68 -40q-7 -11 -7 -25t8 -24q21 -23 45 -23h15q11 0 41 -2zM985 -5q41 0 113 -10q15 -1 31 -17q9 -9 9 -22q0 -9 -4 -14q-8 -14 -22 -14q-7 0 -10 1
q-22 7 -49 7q-16 0 -44.5 -3t-35.5 -4q-80 -10 -171 -39q-9 -3 -16 -3q-16 0 -28 15q-8 13 -8 21q0 10 7 20q16 22 43 33q53 21 95 25q57 5 65 5q3 0 7 -0.5t6 -0.5h12z" />
    <glyph glyph-name="trademark" unicode="&#x2122;" horiz-adv-x="662" 
d="M486 642q-12 -11 -29 -43q-15 -32 -29 -46q-13 -13 -29 -13q-18 0 -33 16q-7 8 -16.5 26t-10.5 20q-8 -2 -19 -16q-12 -14 -18 -22q-16 -19 -33 -19q-26 0 -36 36q-9 36 -11 82q0 7 -2 21l-3 21q-3 9 -4 11q-4 9 -10 9h-2q-3 -1 -6 -11q-14 -76 -14 -163v-18q3 -25 4 -30
q1 -3 1 -9q0 -20 -17 -26q-2 -1 -8 -1q-19 0 -29 18q-16 31 -18 80q-1 24 -2.5 71t-2.5 70q0 8 -0.5 11.5t-2.5 6.5t-4.5 4t-7.5 1q-1 0 -5 -0.5t-6 -0.5q-18 -2 -28 -2t-20 3q-28 10 -28 39q0 11 6 20q4 8 15 10q4 0 13 1t13 1q6 0 9 -1q26 -6 66 -6h33q26 0 47 -4
q53 -10 68 -64q10 -40 10 -84v-25q6 5 17.5 15t16.5 16q17 15 30 15q19 0 31 -24q2 -5 5.5 -15t5.5 -14q5 -14 11 -16q4 2 16 22q7 13 21.5 40t25 48t18.5 42q4 11 14 19t18 8h3q11 -1 21 -11.5t14 -22.5q5 -17 5 -41q0 -13 -2 -37q-8 -120 -8 -135q0 -38 4 -67v-7
q-2 -24 -18 -27h-3l-2 -1q-17 0 -28 16q-10 16 -11 33q-6 40 -6 99v71z" />
    <glyph glyph-name="minus" unicode="&#x2212;" horiz-adv-x="494" 
d="M238 230q41 0 113 -10q15 -1 31 -17q9 -9 9 -22q0 -9 -4 -14q-8 -14 -22 -14q-7 0 -10 1q-22 7 -49 7q-16 0 -44.5 -3t-35.5 -4q-80 -10 -171 -39q-9 -3 -16 -3q-16 0 -28 15q-8 13 -8 21q0 10 7 20q16 22 43 33q53 21 95 25q58 5 65 5q3 0 7 -0.5t6 -0.5h12z" />
    <glyph glyph-name="almostequalto" unicode="&#x2248;" horiz-adv-x="597" 
d="M338 3q-30 0 -57 19q-11 8 -32.5 24.5t-31.5 23.5q-2 2 -6 5t-7.5 5.5t-7.5 4.5q-11 7 -21 7q-12 0 -26 -13q-25 -22 -35 -51q-6 -18 -22.5 -29t-34.5 -11q-5 0 -13 2q-13 3 -25.5 21.5t-12.5 33.5q0 5 1 7l4.5 13.5t5.5 15l6 13.5t7.5 14t9 11t12.5 11q50 32 81 37
q14 2 20 2q37 0 72 -27q30 -23 71 -62q22 -21 47 -21q16 0 34 9q50 28 70 58q6 8 9 11q8 10 18 10q3 0 9 -2q11 -5 11 -20q0 -5 -1 -8q-6 -20 -12 -28q-39 -55 -115 -83q-6 -2 -9 -2q-6 -1 -19 -1zM338 191q-30 0 -57 19q-11 8 -32.5 24.5t-31.5 23.5q-2 2 -6 5t-7.5 5.5
t-7.5 4.5q-11 7 -21 7q-12 0 -26 -13q-25 -22 -35 -51q-6 -18 -22.5 -29t-34.5 -11q-5 0 -13 2q-13 3 -25.5 21.5t-12.5 33.5q0 5 1 7l4.5 13.5t5.5 15l6 13.5t7.5 14t9 11t12.5 11q50 32 81 37q14 2 20 2q37 0 72 -27q30 -23 71 -62q22 -21 47 -21q16 0 34 9q50 28 70 58
q6 8 9 11q8 10 18 10q3 0 9 -2q11 -5 11 -20q0 -5 -1 -8q-6 -20 -12 -28q-39 -55 -115 -83q-6 -2 -9 -2q-6 -1 -19 -1z" />
    <glyph glyph-name="lessthanorequalto" unicode="&#x2264;" horiz-adv-x="539" 
d="M361 136q18 0 39 -8q23 -8 23 -29q0 -5 -1 -7q-5 -24 -26 -24q-4 0 -7 1q-15 3 -28 3q-11 0 -86 -13l-116 -34l-81 -24q-13 -5 -24 -5h-4q-29 2 -35 22q-3 9 -3 17q0 16 11 27q25 26 54 36q60 21 86 24l101 14h97zM159 324q10 -11 28 -17q104 -43 150 -46h13q22 0 35 7
q10 5 17 5q9 0 15 -8q5 -7 5 -14q0 -8 -8 -19q-12 -16 -39 -21q-19 -4 -43 -4q-36 0 -81 10q-81 15 -160 76q-31 23 -53 30q-15 3 -26 16q-9 11 -9 22q0 7 2 10q9 18 28 18h5q19 -4 27 -10q8 -5 19 -5q5 0 17 2q29 9 75 32q22 11 43.5 24.5t51 34t40.5 27.5q7 5 24 18.5
t27 19.5q15 10 29 10q12 0 22 -7q19 -13 19 -36q0 -18 -13 -32q-6 -7 -44 -35q-88 -60 -150 -83q-5 -2 -66 -25z" />
    <glyph glyph-name="greaterthanorequalto" unicode="&#x2265;" horiz-adv-x="539" 
d="M365 136q18 0 39 -8q23 -8 23 -29q0 -5 -1 -7q-5 -24 -26 -24q-4 0 -7 1q-15 3 -28 3q-11 0 -86 -13l-116 -34l-81 -24q-13 -5 -24 -5h-4q-29 2 -35 22q-3 9 -3 17q0 16 11 27q25 26 54 36q60 21 86 24l101 14h97zM280 426q-7 8 -28 17q-101 41 -150 46h-13q-22 0 -35 -8
q-10 -5 -16 -5q-10 0 -16 9q-5 7 -5 13q0 8 8 19q12 16 39 21q20 4 44 4q33 0 80 -9q80 -16 160 -76q28 -22 53 -30q14 -4 26 -16q9 -11 9 -23q0 -7 -2 -10q-9 -17 -28 -17h-5q-15 2 -27 9q-9 6 -20 6q-7 0 -16 -3q-29 -9 -75 -32q-33 -17 -135 -86q-8 -5 -24.5 -18.5
t-26.5 -19.5q-18 -10 -29 -10t-22 8q-19 13 -19 35q0 18 13 32q10 12 44 35q82 58 150 84q42 16 66 25z" />
    <glyph glyph-name="fi" unicode="&#xfb01;" horiz-adv-x="678" 
d="M217 579q-20 -58 -27 -109q-1 -8 -4 -24t-4 -25q0 -1 -0.5 -3t-0.5 -3q0 -11 16 -11q4 0 13.5 -0.5t14.5 -0.5t14 0.5t14 0.5q17 0 49 -6q20 -3 32 -19q6 -7 6 -17q0 -9 -4 -16q-7 -11 -19 -11q-5 0 -7 1q-27 5 -46 5q-23 0 -67 -6q-18 -2 -25.5 -10t-8.5 -26
q-10 -121 -12 -179v-8q0 -18 7 -81q7 -67 18 -111q8 -31 22 -43q9 -7 9 -18q0 -19 -18 -27q-7 -3 -15 -3q-19 0 -30 13q-16 17 -24 40q-19 55 -37 139q-3 14 -8.5 44t-8.5 44q-16 78 -16 133v16q0 13 -4 37q-1 11 -13 11q-15 2 -19 7q-10 9 -10 21q0 15 12 24q8 5 19 10
q15 8 16 27q3 55 12 112q11 70 34 134q18 47 63 77q13 8 35 8q29 0 46 -11q15 -10 27 -27t16.5 -27t15.5 -35q15 -37 21 -136v-4q0 -13 -7 -20q-9 -9 -20 -9q-15 0 -23 16q-12 24 -26 64q-8 19 -28 42zM571 328q2 -16 2 -23q0 -13 -3 -41t-3 -42v-30q0 -21 -7 -91
q-8 -117 -8 -131q0 -21 1 -31q2 -22 12 -35q7 -8 7 -20q0 -13 -10 -23q-13 -11 -24 -11q-10 0 -21 8q-12 7 -16 19q-12 30 -14 45q-3 27 -16.5 102t-16.5 117q-2 18 -4 103q-3 45 -3 47q0 61 5 105q2 20 17 28q2 1 5.5 4t4.5 3q23 16 40 16q25 0 50 -54q4 -9 4 -22
q0 -6 -1 -18t-1 -18v-7zM525 593q34 0 40 -27q2 -5 2 -14q0 -23 -19 -32q-40 -21 -55 -42q-6 -7 -17 -7t-16 4q-16 8 -16 28v4q5 21 17 36q14 18 28 34t31 16h5z" />
    <glyph glyph-name="fl" unicode="&#xfb02;" horiz-adv-x="831" 
d="M217 579q-20 -58 -27 -109q-1 -8 -4 -24t-4 -25q0 -1 -0.5 -3t-0.5 -3q0 -11 16 -11q4 0 13.5 -0.5t14.5 -0.5t14 0.5t14 0.5q17 0 49 -6q20 -3 32 -19q6 -7 6 -17q0 -9 -4 -16q-7 -11 -19 -11q-5 0 -7 1q-27 5 -46 5q-23 0 -67 -6q-18 -2 -25.5 -10t-8.5 -26
q-10 -121 -12 -179v-8q0 -18 7 -81q7 -67 18 -111q8 -31 22 -43q9 -7 9 -18q0 -19 -18 -27q-7 -3 -15 -3q-19 0 -30 13q-16 17 -24 40q-19 55 -37 139q-3 14 -8.5 44t-8.5 44q-16 78 -16 133v16q0 13 -4 37q-1 11 -13 11q-15 2 -19 7q-10 9 -10 21q0 15 12 24q8 5 19 10
q15 8 16 27q3 55 12 112q11 70 34 134q18 47 63 77q13 8 35 8q29 0 46 -11q15 -10 27 -27t16.5 -27t15.5 -35q15 -37 21 -136v-4q0 -13 -7 -20q-9 -9 -20 -9q-15 0 -23 16q-12 24 -26 64q-8 19 -28 42zM714 502q0 -155 -61 -288q-36 -80 -81 -123q-9 -7 -9 -18
q0 -1 0.5 -3.5t0.5 -3.5q14 -78 22 -99q1 -3 3.5 -8.5t4.5 -8.5q3 -9 13 -9q1 0 2 0.5t2 0.5q18 6 33 12q23 10 41 10q12 0 23 -4q22 -8 22 -30v-2q0 -9 -6 -16t-13 -7q-3 0 -5 1q-9 3 -16 3q-20 0 -45 -23q-76 -67 -81 -73q-4 -4 -14 -12q-11 -8 -19 -8q-10 0 -22 9t-12 24
q0 8 3 15q14 30 36 49q7 6 7 11t-4 9q-30 41 -51 121q-32 116 -41 189q-4 32 -4 71q0 20 2 62q3 60 26 160q20 78 64 143q15 23 54 40q12 5 22 5q23 0 43.5 -15t29.5 -37q30 -82 30 -142v-5zM619 584q-59 -162 -59 -355q0 -40 1 -60q23 30 41 69q49 111 49 208q0 56 -16 110
q-4 17 -16 28z" />
    </font>
</defs>
</svg>
