<svg xmlns="http://www.w3.org/2000/svg" viewBox="0 0 70 82">
  <g id="Assets">
    <g id="Quill">
      <path class="logo" d="M.02.45C.33.06.84-.03,1.31,0c.05.05.15.16.2.21.44-.18.86.28,1.28.41.45-.19.83.4,1.29.18.22.1.45.2.68.28.32-.09.62.05.89.22.27-.18.56.01.83.1.21.1.44.03.66.1.28.1.54.24.81.34.51-.08.93.33,1.39.48.53-.1.94.48,1.43.65,1.27.37,2.11,1.52,3.33,1.99,1.38,1.05,2.75,2.1,4.12,3.15.05,0,.14,0,.18,0,1.68,1.26,3.3,2.6,4.92,3.93.21.18.51.22.71.41,2.08,1.77,4.11,3.59,6.07,5.48.2.19.27.48.48.68,1,1,1.97,2.03,2.93,3.07.14.14.26.3.27.5.58.72,1.21,1.4,1.8,2.12.11.11.18.25.16.41.48.62.96,1.24,1.45,1.85,0,.65.89.99.9,1.65.33.56.95,1.02,1.05,1.68.32.47.67.91.96,1.4,0,.05-.02.15-.03.19.32.44.59.92.94,1.34-.03.03-.1.1-.13.13.27.41.57.81.81,1.24,0,.05-.02.15-.03.2.18.28.37.55.56.83-.1.52.46.87.66,1.31-.11.59.69.95.61,1.52.18.44.68.83.63,1.32.17.41.61.76.57,1.22.18.44.68.83.62,1.32.18.4.64.75.56,1.22.17.41.6.76.56,1.22.2.34.39.68.58,1.02-.11.55.62.9.52,1.44.18.35.38.68.57,1.02-.1.58.67.96.59,1.52.17.3.47.56.46.92.27.45.56.88.87,1.3-.11.59.73.93.64,1.52.21.43.64.8.65,1.31.14.32.31.62.47.93-.12.42.34.72.26,1.14.18.49.33,1.05.12,1.56-.3.58-.86.97-1.19,1.53,0,.05,0,.15,0,.2-.45.63-.85,1.29-1.18,1.99-.09.14-.04.29,0,.43-.12.28-.24.55-.37.82.05.06.14.18.19.25-.05.08-.14.25-.19.34,0,.25-.04.49-.12.72.24.38-.17.8.13,1.17-.17.29.05.57.07.87-.06.52.19,1.02.1,1.55.08.26.18.51.29.75-.11.34.12.65.24.95-.18.42.34.73.2,1.15.14.41.45.78.4,1.23.08.29.36.54.26.87.11.28.24.56.38.83-.11.4.2.73.37,1.06-.04.06-.12.19-.15.26.05.06.15.17.2.23.08.18.17.36.26.54-.09.29.05.55.17.8.06.73.5,1.4.45,2.15.15.22.14.47.15.72.07.26.18.53.13.81.16.56.19,1.16.26,1.74.13.28.26.55.4.82-.02.13-.04.26-.05.4.32.38.09.87-.04,1.28.05.06.09.12.14.17-.35.37-.64,1.04-1.22,1-.27.07-.55.1-.83.13-.09-.07-.27-.21-.36-.28.08-.4-.41-.69-.23-1.11-.1-.48.25-.89.37-1.34-.12-.43.17-.84.21-1.27-.18-.23-.11-.47.02-.7-.06-.16-.23-.32-.14-.51.11-.3-.05-.59-.17-.86.04-.06.12-.19.16-.25-.16-.24-.35-.5-.22-.8-.15-.29-.27-.6-.26-.93-.12-.21-.19-.44-.12-.69-.13-.28-.26-.55-.39-.82.17-.47-.42-.8-.28-1.26-.12-.28-.26-.56-.39-.83.16-.47-.43-.79-.3-1.26-.14-.29-.33-.59-.28-.92-.13-.39-.51-.71-.42-1.15-.15-.32-.31-.62-.47-.93.11-.46-.41-.77-.36-1.23-.16-.41-.52-.76-.53-1.22-.17-.46-.64-.81-.61-1.33-.24-.41-.53-.79-.76-1.2-.23-.72-.41-1.46-.89-2.07.18-.48-.48-.77-.34-1.24-.19-.4-.59-.75-.55-1.23-.22-.51-.66-.92-.74-1.48-.07-.33-.36-.55-.42-.88-.06-.5-.52-.84-.59-1.34-.1-.51-.63-.85-.61-1.39-.19-.41-.59-.74-.57-1.22-.23-.42-.48-.82-.76-1.22.06-.51-.44-.88-.65-1.32.09-.59-.7-.95-.62-1.52-.18-.28-.37-.55-.56-.83.05-.52-.46-.88-.67-1.32.13-.62-.8-1-.7-1.61-.29-.43-.58-.87-.88-1.29.1-.64-.79-1-.72-1.61-.33-.46-.65-.94-.98-1.4.05-.66-.83-1.04-.83-1.69-.31-.48-.67-.92-.97-1.41,0-.05.03-.14.04-.19-.34-.46-.69-.92-1.01-1.4.01-.05.03-.14.04-.18-.39-.53-.79-1.06-1.17-1.6,0-.05.03-.14.04-.18-.37-.49-.75-.99-1.11-1.49,0-.05.02-.14.03-.18-.13-.18-.25-.35-.39-.52-.38-.41-.66-.89-1.02-1.32.03-.02.1-.07.14-.09-.31-.38-.61-.76-.9-1.15.03-.21-.12-.36-.23-.52-.39-.5-.78-1.01-1.2-1.49.04-.02.11-.07.14-.09-.51-.61-.98-1.25-1.51-1.84.03-.03.08-.08.11-.11-.65-.78-1.27-1.58-1.94-2.34.04-.02.11-.06.15-.08-.7-.75-1.3-1.59-2.02-2.32.04-.02.11-.06.15-.09-.75-.84-1.49-1.7-2.24-2.55-.03-.29-.27-.49-.45-.7-.83-.89-1.63-1.82-2.49-2.69.04-.02.11-.06.15-.09-1.48-1.51-2.9-3.07-4.44-4.52.04-.02.12-.06.16-.08-1.56-1.51-3.12-3.02-4.71-4.49-.5-.44-.94-.96-1.52-1.3.46.46.96.9,1.41,1.37-.03.03-.1.1-.13.13,1.16,1.17,2.24,2.42,3.37,3.61l-.15.06c.73.8,1.47,1.61,2.18,2.43.67,1.15,1.67,2.05,2.51,3.06l-.16.06c.64.71,1.25,1.45,1.87,2.19,0,.05,0,.14-.01.19.63.77,1.25,1.53,1.9,2.28-.04.02-.11.07-.15.09.56.63,1.07,1.32,1.63,1.95-.03.03-.1.08-.13.11.59.75,1.29,1.43,1.69,2.3.25.37.54.7.82,1.05-.04.02-.11.07-.15.09.53.69,1.17,1.31,1.51,2.12.3.48.69.89,1.01,1.35.02.15.03.31.14.42.38.51.77,1.02,1.16,1.52-.04.02-.11.06-.15.08.42.51.8,1.05,1.2,1.58.13.02.31.07.24.25-.15.6.77.89.67,1.46.36.5.74.99,1.08,1.51-.01.05-.03.14-.04.18.36.5.72,1,1.08,1.49,0,.05-.03.15-.04.2.32.47.63.95.99,1.39-.06.67.87,1.06.8,1.7.35.45.65.93.99,1.39-.09.63.78.97.74,1.6.14.35.62.64.52,1.04.25.46.73.86.77,1.4.28.44.56.87.86,1.3-.11.61.72.95.63,1.53.24.46.72.86.74,1.41.19.4.62.73.58,1.21.27.44.55.88.85,1.3-.11.48.39.83.56,1.24-.08.58.7.94.6,1.52.18.45.68.82.63,1.32.19.34.39.67.59,1.01-.1.48.38.82.56,1.22-.15.4.43.66.28,1.06.18.4.61.76.55,1.23.15.41.59.77.52,1.22.15.32.32.62.5.92-.16.47.48.75.35,1.23.19.33-.25.58-.46.76-.06-.02-.17-.07-.23-.1-.05.05-.14.14-.19.19-.21,0-.42,0-.63,0-.29.06-.58.04-.86-.05-.33.09-.65-.07-.95-.18-.41.11-.78-.25-1.18-.32-.5-.02-.93-.31-1.37-.52-.34.17-.62-.23-.96-.21-.55.03-.94-.64-1.5-.47-.46-.24-.93-.47-1.39-.71-.51.04-.91-.38-1.36-.56-.05.01-.14.04-.19.05-.62-.27-1.16-.73-1.84-.84-.5-.13-.88-.7-1.42-.62-.5-.28-.96-.62-1.46-.89-.05.01-.15.03-.2.04-2.08-1.31-4.06-2.85-5.52-4.85-.07-.1-.1-.22-.07-.35-.6-.84-.84-1.85-1.03-2.85.04-.06.13-.17.17-.23-.04-.15-.36-.35-.1-.46.64,0,1.15.46,1.71.7.45-.13.86.29,1.29.4.32-.14.65.25.96-.03-.02-.15-.05-.29-.08-.44-2.09-1.19-3.82-2.92-5.33-4.77,0-.05,0-.17-.01-.22-.33-.5-.74-.95-1.08-1.45.01-.05.03-.15.04-.2-.15-.21-.31-.42-.46-.63l-.12-.17c-.12-.2-.24-.4-.35-.6.03-.35-.25-.62-.41-.9-.09-.12-.15-.25-.06-.4-.21-.4-.51-.77-.57-1.23-.1-.4-.53-.73-.43-1.15-.19-.34-.39-.67-.58-1,.17-.47-.44-.77-.33-1.24-.21-.4-.54-.76-.54-1.24-.09-.39-.53-.72-.43-1.13-.2-.34-.38-.68-.57-1.02.18-.37-.34-.61-.21-.97-.19-.44-.69-.82-.62-1.32-.3-.49-.62-.96-1-1.4,0-.05,0-.14,0-.19-.5-.83-1.48-1.43-1.55-2.46.24-.27.58-.39.9-.52.21.07.41.15.62.23.05-.05.16-.15.22-.19.18.05.36.11.53.16.22-.2.77-.34.59-.72-.29-.46-.7-.83-1.03-1.26,0-.05,0-.14,0-.19-.5-.64-1.03-1.27-1.57-1.88.03-.03.09-.08.12-.11-.49-.58-.96-1.19-1.41-1.8,0-.04,0-.13,0-.18-.22-.41-.73-.73-.74-1.21-.34-.5-.74-.97-1.05-1.5,0-.05,0-.14,0-.19-.32-.47-.67-.92-.96-1.41,0-.05.02-.14.02-.19-.31-.42-.58-.86-.88-1.29.14-.6-.73-.94-.63-1.53-.24-.44-.6-.83-.68-1.34-.08-.43-.61-.74-.5-1.2-.19-.34-.39-.68-.58-1.01.07-.47-.37-.82-.54-1.23.16-.47-.41-.77-.33-1.24-.13-.36-.39-.67-.43-1.06,0-.37-.34-.64-.27-1.03-.13-.23-.24-.48-.21-.76-.1-.29-.22-.57-.37-.85.16-.43-.32-.76-.2-1.16-.15-.29-.3-.59-.26-.93-.09-.3-.21-.6-.38-.87.03-.06.1-.19.14-.25-.35-.34-.17-.84-.39-1.23-.18-.31.11-.65-.04-.98M24.99,53.61c.27.08.53.18.8.27.33-.23.71.14,1.06.18.24-.09.49-.05.74-.06.04.03.12.09.16.12.1-.03.3-.09.4-.11-.1,0-.21.02-.31.03-.05-.05-.16-.15-.21-.2-.33.21-.68-.11-.99-.22-.04.02-.13.06-.17.08-.42-.17-.81-.39-1.21-.6-.09.17-.18.35-.28.52Z"/>
    </g>
  </g>
</svg>