<?xml version="1.0" encoding="UTF-8"?>
<svg id="Layer_2" data-name="Layer 2" xmlns="http://www.w3.org/2000/svg" viewBox="0 0 124.01 101.5">
  <defs>
    <style>
      .cls-1 {
        stroke-width: .75px;
      }

      .cls-1, .cls-2 {
        fill: #fff;
        stroke: #8a1010;
        stroke-miterlimit: 10;
      }
    </style>
  </defs>
  <g id="Brand_Mark" data-name="Brand Mark">
    <g id="Logo_Dark" data-name="Logo Dark">
      <g id="Quill">
        <path class="cls-2" d="M54.62.95c.31-.39.82-.48,1.29-.44.05.05.15.16.2.21.44-.18.86.28,1.28.41.45-.19.83.4,1.29.18.22.1.45.2.68.28.32-.09.62.05.89.22.27-.18.56.01.83.1.21.1.44.03.66.1.28.1.54.24.81.34.51-.08.93.33,1.39.48.53-.1.94.48,1.43.65,1.27.37,2.11,1.52,3.33,1.99,1.38,1.05,2.75,2.1,4.12,3.15.05,0,.14,0,.18,0,1.68,1.26,3.3,2.6,4.92,3.93.21.18.51.22.71.41,2.08,1.77,4.11,3.59,6.07,5.48.2.19.27.48.48.68,1,1,1.97,2.03,2.93,3.07.14.14.26.3.27.5.58.72,1.21,1.4,1.8,2.12.11.11.18.25.16.41.48.62.96,1.24,1.45,1.85,0,.65.89.99.9,1.65.33.56.95,1.02,1.05,1.68.32.47.67.91.96,1.4,0,.05-.02.15-.03.19.32.44.59.92.94,1.34-.03.03-.1.1-.13.13.27.41.57.81.81,1.24,0,.05-.02.15-.03.2.18.28.37.55.56.83-.1.52.46.87.66,1.31-.11.59.69.95.61,1.52.18.44.68.83.63,1.32.17.41.61.76.57,1.22.18.44.68.83.62,1.32.18.4.64.75.56,1.22.17.41.6.76.56,1.22.2.34.39.68.58,1.02-.11.55.62.9.52,1.44.18.35.38.68.57,1.02-.1.58.67.96.59,1.52.17.3.47.56.46.92.27.45.56.88.87,1.3-.11.59.73.93.64,1.52.21.43.64.8.65,1.31.14.32.31.62.47.93-.12.42.34.72.26,1.14.18.49.33,1.05.12,1.56-.3.58-.86.97-1.19,1.53,0,.05,0,.15,0,.2-.45.63-.85,1.29-1.18,1.99-.09.14-.04.29,0,.43-.12.28-.24.55-.37.82.05.06.14.18.19.25-.05.08-.14.25-.19.34,0,.25-.04.49-.12.72.24.38-.17.8.13,1.17-.17.29.05.57.07.87-.06.52.19,1.02.1,1.55.08.26.18.51.29.75-.11.34.12.65.24.95-.18.42.34.73.2,1.15.14.41.45.78.4,1.23.08.29.36.54.26.87.11.28.24.56.38.83-.11.4.2.73.37,1.06-.04.06-.12.19-.15.26.05.06.15.17.2.23.08.18.17.36.26.54-.09.29.05.55.17.8.06.73.5,1.4.45,2.15.15.22.14.47.15.72.07.26.18.53.13.81.16.56.19,1.16.26,1.74.13.28.26.55.4.82-.02.13-.04.26-.05.4.32.38.09.87-.04,1.28.05.06.09.12.14.17-.35.37-.64,1.04-1.22,1-.27.07-.55.1-.83.13-.09-.07-.27-.21-.36-.28.08-.4-.41-.69-.23-1.11-.1-.48.25-.89.37-1.34-.12-.43.17-.84.21-1.27-.18-.23-.11-.47.02-.7-.06-.16-.23-.32-.14-.51.11-.3-.05-.59-.17-.86.04-.06.12-.19.16-.25-.16-.24-.35-.5-.22-.8-.15-.29-.27-.6-.26-.93-.12-.21-.19-.44-.12-.69-.13-.28-.26-.55-.39-.82.17-.47-.42-.8-.28-1.26-.12-.28-.26-.56-.39-.83.16-.47-.43-.79-.3-1.26-.14-.29-.33-.59-.28-.92-.13-.39-.51-.71-.42-1.15-.15-.32-.31-.62-.47-.93.11-.46-.41-.77-.36-1.23-.16-.41-.52-.76-.53-1.22-.17-.46-.64-.81-.61-1.33-.24-.41-.53-.79-.76-1.2-.23-.72-.41-1.46-.89-2.07.18-.48-.48-.77-.34-1.24-.19-.4-.59-.75-.55-1.23-.22-.51-.66-.92-.74-1.48-.07-.33-.36-.55-.42-.88-.06-.5-.52-.84-.59-1.34-.1-.51-.63-.85-.61-1.39-.19-.41-.59-.74-.57-1.22-.23-.42-.48-.82-.76-1.22.06-.51-.44-.88-.65-1.32.09-.59-.7-.95-.62-1.52-.18-.28-.37-.55-.56-.83.05-.52-.46-.88-.67-1.32.13-.62-.8-1-.7-1.61-.29-.43-.58-.87-.88-1.29.1-.64-.79-1-.72-1.61-.33-.46-.65-.94-.98-1.4.05-.66-.83-1.04-.83-1.69-.31-.48-.67-.92-.97-1.41,0-.05.03-.14.04-.19-.34-.46-.69-.92-1.01-1.4.01-.05.03-.14.04-.18-.39-.53-.79-1.06-1.17-1.6,0-.05.03-.14.04-.18-.37-.49-.75-.99-1.11-1.49,0-.05.02-.14.03-.18-.13-.18-.25-.35-.39-.52-.38-.41-.66-.89-1.02-1.32.03-.02.1-.07.14-.09-.31-.38-.61-.76-.9-1.15.03-.21-.12-.36-.23-.52-.39-.5-.78-1.01-1.2-1.49.04-.02.11-.07.14-.09-.51-.61-.98-1.25-1.51-1.84.03-.03.08-.08.11-.11-.65-.78-1.27-1.58-1.94-2.34.04-.02.11-.06.15-.08-.7-.75-1.3-1.59-2.02-2.32.04-.02.11-.06.15-.09-.75-.84-1.49-1.7-2.24-2.55-.03-.29-.27-.49-.45-.7-.83-.89-1.63-1.82-2.49-2.69.04-.02.11-.06.15-.09-1.48-1.51-2.9-3.07-4.44-4.52.04-.02.12-.06.16-.08-1.56-1.51-3.12-3.02-4.71-4.49-.5-.44-.94-.96-1.52-1.3.46.46.96.9,1.41,1.37-.03.03-.1.1-.13.13,1.16,1.17,2.24,2.42,3.37,3.61l-.15.06c.73.8,1.47,1.61,2.18,2.43.67,1.15,1.67,2.05,2.51,3.06l-.16.06c.64.71,1.25,1.45,1.87,2.19,0,.05,0,.14-.01.19.63.77,1.25,1.53,1.9,2.28-.04.02-.11.07-.15.09.56.63,1.07,1.32,1.63,1.95-.03.03-.1.08-.13.11.59.75,1.29,1.43,1.69,2.3.25.37.54.7.82,1.05-.04.02-.11.07-.15.09.53.69,1.17,1.31,1.51,2.12.3.48.69.89,1.01,1.35.02.15.03.31.14.42.38.51.77,1.02,1.16,1.52-.04.02-.11.06-.15.08.42.51.8,1.05,1.2,1.58.13.02.31.07.24.25-.15.6.77.89.67,1.46.36.5.74.99,1.08,1.51-.01.05-.03.14-.04.18.36.5.72,1,1.08,1.49,0,.05-.03.15-.04.2.32.47.63.95.99,1.39-.06.67.87,1.06.8,1.7.35.45.65.93.99,1.39-.09.63.78.97.74,1.6.14.35.62.64.52,1.04.25.46.73.86.77,1.4.28.44.56.87.86,1.3-.11.61.72.95.63,1.53.24.46.72.86.74,1.41.19.4.62.73.58,1.21.27.44.55.88.85,1.3-.11.48.39.83.56,1.24-.08.58.7.94.6,1.52.18.45.68.82.63,1.32.19.34.39.67.59,1.01-.1.48.38.82.56,1.22-.15.4.43.66.28,1.06.18.4.61.76.55,1.23.15.41.59.77.52,1.22.15.32.32.62.5.92-.16.47.48.75.35,1.23.19.33-.25.58-.46.76-.06-.02-.17-.07-.23-.1-.05.05-.14.14-.19.19-.21,0-.42,0-.63,0-.29.06-.58.04-.86-.05-.33.09-.65-.07-.95-.18-.41.11-.78-.25-1.18-.32-.5-.02-.93-.31-1.37-.52-.34.17-.62-.23-.96-.21-.55.03-.94-.64-1.5-.47-.46-.24-.93-.47-1.39-.71-.51.04-.91-.38-1.36-.56-.05.01-.14.04-.19.05-.62-.27-1.16-.73-1.84-.84-.5-.13-.88-.7-1.42-.62-.5-.28-.96-.62-1.46-.89-.05.01-.15.03-.2.04-2.08-1.31-4.06-2.85-5.52-4.85-.07-.1-.1-.22-.07-.35-.6-.84-.84-1.85-1.03-2.85.04-.06.13-.17.17-.23-.04-.15-.36-.35-.1-.46.64,0,1.15.46,1.71.7.45-.13.86.29,1.29.4.32-.14.65.25.96-.03-.02-.15-.05-.29-.08-.44-2.09-1.19-3.82-2.92-5.33-4.77,0-.05,0-.17-.01-.22-.33-.5-.74-.95-1.08-1.45.01-.05.03-.15.04-.2-.15-.21-.31-.42-.46-.63l-.12-.17c-.12-.2-.24-.4-.35-.6.03-.35-.25-.62-.41-.9-.09-.12-.15-.25-.06-.4-.21-.4-.51-.77-.57-1.23-.1-.4-.53-.73-.43-1.15-.19-.34-.39-.67-.58-1,.17-.47-.44-.77-.33-1.24-.21-.4-.54-.76-.54-1.24-.09-.39-.53-.72-.43-1.13-.2-.34-.38-.68-.57-1.02.18-.37-.34-.61-.21-.97-.19-.44-.69-.82-.62-1.32-.3-.49-.62-.96-1-1.4,0-.05,0-.14,0-.19-.5-.83-1.48-1.43-1.55-2.46.24-.27.58-.39.9-.52.21.07.41.15.62.23.05-.05.16-.15.22-.19.18.05.36.11.53.16.22-.2.77-.34.59-.72-.29-.46-.7-.83-1.03-1.26,0-.05,0-.14,0-.19-.5-.64-1.03-1.27-1.57-1.88.03-.03.09-.08.12-.11-.49-.58-.96-1.19-1.41-1.8,0-.04,0-.13,0-.18-.22-.41-.73-.73-.74-1.21-.34-.5-.74-.97-1.05-1.5,0-.05,0-.14,0-.19-.32-.47-.67-.92-.96-1.41,0-.05.02-.14.02-.19-.31-.42-.58-.86-.88-1.29.14-.6-.73-.94-.63-1.53-.24-.44-.6-.83-.68-1.34-.08-.43-.61-.74-.5-1.2-.19-.34-.39-.68-.58-1.01.07-.47-.37-.82-.54-1.23.16-.47-.41-.77-.33-1.24-.13-.36-.39-.67-.43-1.06,0-.37-.34-.64-.27-1.03-.13-.23-.24-.48-.21-.76-.1-.29-.22-.57-.37-.85.16-.43-.32-.76-.2-1.16-.15-.29-.3-.59-.26-.93-.09-.3-.21-.6-.38-.87.03-.06.1-.19.14-.25-.35-.34-.17-.84-.39-1.23-.18-.31.11-.65-.04-.98M79.58,54.11c.27.08.53.18.8.27.33-.23.71.14,1.06.18.24-.09.49-.05.74-.06.04.03.12.09.16.12.1-.03.3-.09.4-.11-.1,0-.21.02-.31.03-.05-.05-.16-.15-.21-.2-.33.21-.68-.11-.99-.22-.04.02-.13.06-.17.08-.42-.17-.81-.39-1.21-.6-.09.17-.18.35-.28.52Z"/>
      </g>
      <g>
        <path class="cls-1" d="M22.25,76.83c.37-.37.73-.77,1.08-1.18s.7-.83,1.05-1.24.74-.79,1.17-1.12.9-.61,1.42-.81,1.13-.31,1.82-.31h.92c-.26,1.21-.55,2.33-.87,3.35s-.68,1.99-1.07,2.9-.81,1.78-1.26,2.61-.93,1.66-1.44,2.49-1.04,1.67-1.61,2.52-1.16,1.76-1.77,2.72c-.35.51-.67,1.08-.96,1.7s-.56,1.25-.79,1.88-.43,1.25-.6,1.86-.29,1.16-.38,1.65c0,.18,0,.35.01.53s.04.38.09.61c.49.01.97-.06,1.42-.23s.88-.39,1.28-.65.78-.55,1.12-.85.66-.59.95-.85.54-.47.76-.64.4-.24.55-.22l1,.13c-.02.06-.13.22-.32.48s-.46.58-.79.94-.74.76-1.21,1.18-.99.82-1.56,1.2-1.18.71-1.84,1-1.34.48-2.06.56c-.16.02-.33.05-.53.08s-.4.04-.61.03-.42-.05-.62-.13-.39-.21-.55-.41-.29-.46-.39-.79-.15-.77-.15-1.29c0-.29.04-.63.12-1.03s.23-.85.46-1.38c.42-1.16.9-2.27,1.44-3.31s1.11-2.06,1.7-3.05c.6-.99,1.21-1.97,1.83-2.93s1.24-1.95,1.83-2.95,1.16-2.04,1.7-3.11,1.01-2.2,1.43-3.4c-.75.56-1.51,1.19-2.26,1.9s-1.49,1.47-2.2,2.27-1.39,1.63-2.03,2.48-1.22,1.7-1.73,2.53c-.26.39-.57.9-.92,1.53s-.75,1.34-1.17,2.12c-.42.78-.86,1.6-1.33,2.47s-.92,1.73-1.39,2.57-.92,1.66-1.36,2.43-.85,1.45-1.22,2.04-.71,1.06-1.01,1.41-.53.52-.7.52c-.26,0-.45-.09-.57-.26s-.2-.4-.24-.68-.06-.59-.05-.93.01-.69.01-1.04c0-.03,0-.1.02-.2s.02-.21.04-.33.04-.24.07-.37.07-.23.11-.32.09-.15.15-.19.12-.02.19.04c.11,0,.19-.02.26-.07s.12-.1.17-.16.1-.11.15-.16.12-.07.21-.07c.89-1.43,1.76-2.92,2.6-4.46s1.65-3.13,2.44-4.75,1.54-3.26,2.26-4.92,1.41-3.32,2.07-4.98c-1.12.87-2.16,1.84-3.1,2.9s-1.83,2.19-2.66,3.37-1.62,2.41-2.37,3.68-1.49,2.55-2.23,3.83-1.48,2.56-2.23,3.83-1.55,2.5-2.39,3.68c-.03.34-.09.65-.18.92s-.21.53-.36.76-.31.44-.49.63-.38.37-.58.54c-.28-.04-.51-.12-.68-.25s-.3-.28-.4-.47-.17-.41-.21-.65-.08-.5-.1-.76-.04-.54-.07-.82-.06-.56-.12-.83c.56-.42,1.1-.94,1.62-1.55s1.03-1.29,1.53-2.03.97-1.51,1.43-2.32.9-1.62,1.33-2.44c.42-.81.83-1.6,1.21-2.37s.75-1.48,1.1-2.13c.32-.61.61-1.17.86-1.68s.47-1.01.67-1.48.37-.95.53-1.42.3-.97.44-1.5.28-1.11.41-1.73.28-1.32.43-2.1c-.65.42-1.29.89-1.93,1.4s-1.27,1.05-1.89,1.62-1.25,1.16-1.87,1.77-1.24,1.22-1.85,1.84-1.23,1.23-1.84,1.83-1.22,1.18-1.83,1.73v-.58c0-.28-.02-.55-.06-.78s-.08-.47-.12-.69-.08-.45-.12-.67-.06-.46-.06-.72c0-.12.02-.2.06-.26s.1-.11.17-.14.16-.05.26-.05.21,0,.32,0h.34c.55-.48,1.12-.93,1.72-1.36s1.2-.84,1.81-1.25l1.82-1.22c.61-.41,1.19-.83,1.77-1.26s1.12-.89,1.63-1.37,1-.99,1.44-1.55c.22-.12.47-.2.75-.26s.56-.09.84-.09c.35,0,.66.03.94.1s.54.18.77.35c0,.49-.04.94-.13,1.35s-.19.79-.33,1.14-.28.69-.45,1.01-.32.64-.47.97-.29.67-.41,1.02-.21.74-.27,1.16c.4-.21.78-.5,1.14-.87s.72-.77,1.08-1.2.73-.87,1.11-1.32.79-.85,1.23-1.21.93-.66,1.45-.89c.52-.23,1.11-.35,1.76-.35.14,0,.29,0,.45,0s.31.01.45.05.25.1.34.2c.09.1.13.25.13.45,0,.45-.05.86-.16,1.22s-.23.71-.36,1.05-.26.68-.39,1.02-.2.73-.23,1.16c.45-.24.87-.55,1.24-.92Z"/>
        <path class="cls-1" d="M36.7,93.71c.06,0,.12.02.18.05s.12.07.17.14.08.15.08.26c0,.13-.04.3-.13.53s-.2.46-.34.72-.29.51-.47.77-.35.48-.52.68c-.3.34-.61.64-.95.9s-.68.48-1.03.66-.69.32-1.04.41-.67.14-.98.14c-.41,0-.74-.04-.99-.11s-.45-.17-.59-.29-.24-.27-.29-.44-.07-.34-.06-.53.04-.39.09-.59.1-.41.15-.61c-.06.13-.16.28-.3.47s-.32.38-.53.58-.45.4-.71.6-.55.38-.86.54-.63.29-.97.39-.69.15-1.05.15c-.14,0-.28,0-.43,0s-.3-.02-.46-.06-.3-.1-.43-.19-.26-.23-.36-.41-.19-.41-.25-.7-.09-.64-.09-1.07.08-.94.23-1.47.37-1.08.64-1.63.59-1.12.96-1.67.77-1.08,1.19-1.56.87-.93,1.34-1.33.93-.71,1.4-.95l2.97,1.22c.06-.13.14-.26.22-.39s.19-.24.29-.35.22-.18.35-.25.25-.1.39-.1c.17,0,.32.03.46.08s.26.12.37.21.21.19.29.31.17.24.25.37c-.23.58-.45,1.14-.66,1.69s-.42,1.08-.62,1.62-.41,1.09-.61,1.66-.41,1.15-.63,1.76c-.06.18-.09.33-.09.47,0,.17.05.3.14.4s.24.15.43.15c.37,0,.74-.11,1.13-.32s.76-.48,1.11-.8.66-.67.93-1.05.47-.72.6-1.04c0,0,.04,0,.1.01ZM26.39,96.92c.11.03.2.04.27.04.47,0,.89-.09,1.26-.26s.72-.42,1.03-.74.6-.69.85-1.12.51-.9.75-1.4.48-1.04.72-1.6.48-1.13.74-1.71c-.02-.04-.07-.08-.15-.12s-.17-.08-.27-.11-.2-.06-.3-.08-.18-.04-.24-.04c-.19,0-.36,0-.5.04s-.28.08-.41.14-.25.15-.38.24-.25.21-.4.35c-.42.4-.8.81-1.14,1.24s-.65.89-.92,1.39-.5,1.05-.7,1.65-.36,1.26-.49,2c.07.03.17.05.27.08Z"/>
        <path class="cls-1" d="M46.84,93.62c.11.05.18.12.22.19s.04.15.02.23-.04.15-.07.21c-.26.64-.59,1.26-.99,1.84s-.86,1.1-1.4,1.55-1.15.8-1.83,1.07-1.44.4-2.28.4c-.29,0-.54-.05-.75-.14s-.38-.23-.51-.4-.23-.38-.29-.61-.09-.5-.09-.78c0-.43.05-.89.15-1.4s.25-1.02.45-1.53.44-1.01.74-1.5.63-.92,1.02-1.3c-.09-.17-.22-.3-.39-.38s-.33-.17-.51-.25-.35-.19-.51-.31-.29-.31-.38-.56c-.03.2-.1.43-.19.69s-.2.53-.33.81-.26.57-.41.85-.3.57-.45.84-.3.52-.43.76-.25.43-.36.6c-.05.09-.11.16-.16.22s-.12.09-.21.09c-.07,0-.15-.02-.24-.06s-.21-.12-.38-.26l.08-.18c.05-.12.12-.27.2-.47s.17-.41.27-.64.2-.48.29-.72.18-.47.26-.68.15-.39.19-.53c.04-.14.07-.31.1-.52s.05-.43.06-.67.02-.47.03-.7.01-.45.01-.64c0-.1,0-.21-.01-.32s-.01-.21-.02-.31c0-.11-.01-.21-.02-.31.18-.05.4-.1.69-.14s.63-.06,1.04-.06c.47,0,.84.05,1.11.14s.46.22.6.38.23.34.27.55.08.42.12.64.09.44.16.67.2.43.39.62c.05-.04.14-.08.26-.12s.26-.08.42-.12.33-.07.51-.09.37-.03.55-.03c.2,0,.39.02.57.05s.35.08.49.15.26.17.35.28.13.27.13.44c0,.1-.01.2-.04.3s-.06.19-.1.28-.08.17-.12.24-.07.12-.09.16c-.02,0-.05-.01-.09-.04s-.08-.05-.13-.08-.09-.06-.13-.08-.07-.04-.1-.05c-.2.18-.41.4-.63.67s-.45.56-.68.87-.45.64-.66.97-.4.67-.56,1-.29.63-.39.93-.15.55-.15.78c0,.12.03.23.09.32s.17.14.32.14c.2,0,.43-.05.69-.14s.52-.23.8-.4.56-.38.85-.62.55-.51.81-.81.49-.62.7-.96.39-.7.52-1.07c.24.01.42.05.53.1Z"/>
        <path class="cls-1" d="M58.72,93.71c.06,0,.12.02.18.05s.12.07.17.14.08.15.08.26c0,.13-.04.3-.13.53s-.2.46-.34.72-.29.51-.47.77-.35.48-.52.68c-.3.34-.61.64-.95.9s-.68.48-1.03.66-.69.32-1.04.41-.67.14-.98.14c-.41,0-.74-.04-.99-.11s-.45-.17-.59-.29-.24-.27-.29-.44-.07-.34-.06-.53.04-.39.09-.59.1-.41.15-.61c-.06.13-.16.28-.3.47s-.32.38-.53.58-.45.4-.71.6-.55.38-.86.54-.63.29-.97.39-.69.15-1.05.15c-.14,0-.28,0-.43,0s-.3-.02-.46-.06-.3-.1-.43-.19-.26-.23-.36-.41-.19-.41-.25-.7-.09-.64-.09-1.07.08-.94.23-1.47.37-1.08.64-1.63.59-1.12.96-1.67.77-1.08,1.19-1.56.87-.93,1.34-1.33.93-.71,1.4-.95l2.97,1.22c.06-.13.14-.26.22-.39s.19-.24.29-.35.22-.18.35-.25.25-.1.39-.1c.17,0,.32.03.46.08s.26.12.37.21.21.19.29.31.17.24.25.37c-.23.58-.45,1.14-.66,1.69s-.42,1.08-.62,1.62-.41,1.09-.61,1.66-.41,1.15-.63,1.76c-.06.18-.09.33-.09.47,0,.17.05.3.14.4s.24.15.43.15c.37,0,.74-.11,1.13-.32s.76-.48,1.11-.8.66-.67.93-1.05.47-.72.6-1.04c0,0,.04,0,.1.01ZM48.41,96.92c.11.03.2.04.27.04.47,0,.89-.09,1.26-.26s.72-.42,1.03-.74.6-.69.85-1.12.51-.9.75-1.4.48-1.04.72-1.6.48-1.13.74-1.71c-.02-.04-.07-.08-.15-.12s-.17-.08-.27-.11-.2-.06-.3-.08-.18-.04-.24-.04c-.19,0-.36,0-.5.04s-.28.08-.41.14-.25.15-.38.24-.25.21-.4.35c-.42.4-.8.81-1.14,1.24s-.65.89-.92,1.39-.5,1.05-.7,1.65-.36,1.26-.49,2c.07.03.17.05.27.08Z"/>
        <path class="cls-1" d="M99.49,78.73c-.98,1.24-2.07,2.41-3.28,3.49s-2.5,2.07-3.89,2.96-2.82,1.65-4.31,2.27c-.59.18-1.15.4-1.7.68-.54.28-1.09.65-1.65,1.11-.09.03-.18.05-.24.06s-.13.01-.18.01h-.16s-.07,0-.11,0-.08.01-.12.03c-.19.5-.4,1.01-.64,1.54s-.49,1.05-.74,1.58-.49,1.07-.73,1.61-.45,1.08-.63,1.62c-.17.37-.34.75-.52,1.16s-.38.82-.59,1.22-.45.79-.71,1.16-.53.69-.84.97-.65.5-1.02.67-.78.25-1.22.25c-.2,0-.41-.03-.66-.1s-.49-.17-.74-.29c-.49-.16-.93-.38-1.33-.67s-.75-.61-1.06-1c-.51-.76-.91-1.47-1.19-2.13s-.45-1.29-.5-1.89c-.02-.23-.01-.43.03-.6s.09-.35.17-.52c.05-.37.12-.71.22-1.02s.19-.63.28-.94c.56-1.64,1.34-3.32,2.37-5.05,1.02-1.73,2.28-3.44,3.77-5.14.42-.51.86-1.01,1.31-1.48s.91-.93,1.38-1.38c.42-.39.88-.74,1.38-1.06s.99-.59,1.46-.83c.37-.18.7-.35,1.02-.49s.6-.3.86-.48.5-.4.72-.66.4-.59.56-1c.03,0,.05,0,.08,0s.04,0,.06,0c.11,0,.2-.01.28-.04s.15-.06.21-.09.1-.06.14-.09.07-.04.09-.04c.04-.1.12-.21.22-.33s.26-.25.45-.38c.08-.3.15-.57.21-.82s.13-.47.21-.64.18-.32.3-.42.29-.15.5-.15c.25.02.48.06.68.13.18.05.34.13.49.24s.23.25.25.42c.01.18-.01.35-.08.53s-.14.36-.24.54-.19.37-.3.56-.19.39-.26.6c.52-.07,1.11-.2,1.75-.39s1.33-.38,2.06-.57,1.48-.36,2.27-.51c.79-.15,1.57-.22,2.37-.22.45.07.87.15,1.26.22s.76.18,1.1.31.63.33.9.58.49.59.69,1.03c-.66,1.32-1.48,2.6-2.46,3.84ZM79.87,94.17c.46-.95.92-2.06,1.39-3.32s.98-2.66,1.52-4.2c.54-1.54,1.18-3.22,1.91-5.02.02-.07.04-.17.07-.31s.05-.29.07-.45l.06-.47c.02-.16.04-.28.06-.39,0-.01-.01-.03-.02-.06s-.02-.04-.05-.05c-.24.1-.5.24-.77.4s-.54.34-.81.52-.53.36-.78.54-.48.33-.68.46c-.26.22-.53.44-.81.68s-.56.49-.84.77c-.24.2-.47.42-.69.67s-.43.51-.65.79-.44.57-.68.87-.49.61-.77.92c-.41.56-.8,1.14-1.18,1.73-.38.59-.74,1.18-1.06,1.76s-.61,1.15-.86,1.71-.43,1.08-.55,1.58c.01.2.06.43.13.71s.13.58.16.93c-.14.36-.25.68-.35.95s-.15.49-.17.66c.05.22.14.45.29.69s.33.45.55.64.48.35.78.48.61.2.95.21c.23,0,.46-.08.7-.24s.46-.35.67-.57.39-.45.55-.68.28-.42.35-.57c.56-.62,1.06-1.41,1.52-2.37ZM86.86,84.97c.24,0,.48-.01.72-.03s.47-.05.71-.1c.83-.15,1.65-.39,2.44-.72s1.56-.73,2.28-1.2,1.4-1,2.04-1.59,1.21-1.22,1.73-1.89.97-1.38,1.35-2.11.68-1.48.9-2.24c-.22-.01-.44-.03-.66-.04s-.45-.02-.68-.02c-.6,0-1.22.03-1.84.08s-1.24.13-1.85.23-1.21.23-1.78.38-1.12.32-1.62.52-.96.42-1.38.66-.76.51-1.04.8c-.22.29-.43.58-.61.87s-.34.59-.46.88c-.2.46-.38.93-.54,1.42s-.31.98-.45,1.47-.27.99-.39,1.49-.24.98-.36,1.46c.51,0,1-.11,1.48-.32Z"/>
        <path class="cls-1" d="M101.9,93.71c.06,0,.12.02.18.05s.12.07.17.14.08.15.08.26c0,.13-.04.3-.13.53s-.2.46-.34.72-.29.51-.47.77-.35.48-.52.68c-.3.34-.61.64-.95.9s-.68.48-1.03.66-.69.32-1.04.41-.67.14-.98.14c-.41,0-.74-.04-.99-.11s-.45-.17-.59-.29-.24-.27-.29-.44-.07-.34-.06-.53.04-.39.09-.59.1-.41.15-.61c-.06.13-.16.28-.3.47s-.32.38-.53.58-.45.4-.71.6-.55.38-.86.54-.63.29-.97.39-.69.15-1.05.15c-.14,0-.28,0-.43,0s-.3-.02-.46-.06-.3-.1-.43-.19-.26-.23-.36-.41-.19-.41-.25-.7-.09-.64-.09-1.07.08-.94.23-1.47.37-1.08.64-1.63.59-1.12.96-1.67.77-1.08,1.19-1.56.87-.93,1.34-1.33.93-.71,1.4-.95l2.97,1.22c.06-.13.14-.26.22-.39s.19-.24.29-.35.22-.18.35-.25.25-.1.39-.1c.17,0,.32.03.46.08s.26.12.37.21.21.19.29.31.17.24.25.37c-.23.58-.45,1.14-.66,1.69s-.42,1.08-.62,1.62-.41,1.09-.61,1.66-.41,1.15-.63,1.76c-.06.18-.09.33-.09.47,0,.17.05.3.14.4s.24.15.43.15c.37,0,.74-.11,1.13-.32s.76-.48,1.11-.8.66-.67.93-1.05.47-.72.6-1.04c0,0,.04,0,.1.01ZM91.59,96.92c.11.03.2.04.27.04.47,0,.89-.09,1.26-.26s.72-.42,1.03-.74.6-.69.85-1.12.51-.9.75-1.4.48-1.04.72-1.6.48-1.13.74-1.71c-.02-.04-.07-.08-.15-.12s-.17-.08-.27-.11-.2-.06-.3-.08-.18-.04-.24-.04c-.19,0-.36,0-.5.04s-.28.08-.41.14-.25.15-.38.24-.25.21-.4.35c-.42.4-.8.81-1.14,1.24s-.65.89-.92,1.39-.5,1.05-.7,1.65-.36,1.26-.49,2c.07.03.17.05.27.08Z"/>
        <path class="cls-1" d="M108.49,93.05s.07,0,.12.02.1.1.16.22c.12.25.19.43.21.54s-.01.21-.09.31c-1.79,3.24-3.59,4.84-5.4,4.78h.03s-.02-.01-.02-.01c-.21-.03-.43-.1-.66-.23s-.44-.29-.62-.47-.32-.4-.42-.63-.1-.47-.03-.71l.68-2.38-.76.86-.32.34c-.14.14-.25.22-.33.26s-.15.06-.21.05-.1-.04-.13-.09l-.1-.14c-.03-.07-.03-.14-.02-.23s.04-.17.07-.25.07-.16.12-.24.09-.14.13-.19c.47-.64.9-1.28,1.26-1.9s.72-1.22,1.06-1.78.68-1.1,1.01-1.59.71-.94,1.11-1.34c.25.02.48.05.69.08.18.03.34.08.49.14s.24.13.26.23c0,.05-.02.17-.08.38s-.14.46-.24.76-.22.65-.36,1.03-.28.78-.42,1.18-.29.81-.44,1.21-.28.78-.41,1.12-.23.65-.32.9-.15.45-.18.57c-.04.15-.06.28-.05.39s.03.2.07.27.09.12.16.16.14.05.21.04c1.14,0,2.36-1.18,3.64-3.53.03-.06.06-.1.1-.12ZM105.93,84.75h0s0,0,0,0Z"/>
        <path class="cls-1" d="M123.45,93.76c.05.05.1.11.14.2s.05.2.02.35c-.03.14-.09.32-.18.53s-.2.44-.34.67-.28.47-.43.7-.31.43-.46.6c-.33.38-.67.71-1.01.98s-.67.5-1,.67-.65.28-.95.34-.59.06-.86,0c-.13-.03-.28-.07-.45-.12s-.34-.13-.5-.24-.3-.24-.42-.41-.19-.38-.21-.63c-.04-.45-.03-.87.02-1.26s.13-.73.22-1.04.2-.57.31-.79.2-.39.28-.5c.18-.32.37-.65.58-.99l.64-1c.21-.33.41-.67.6-1s.34-.67.46-1.01c-.37.13-.74.32-1.1.57s-.72.53-1.08.83-.72.62-1.08.94-.72.62-1.09.89c-.48.35-.9.76-1.25,1.24s-.69.97-1,1.5-.62,1.06-.92,1.59-.63,1.04-.99,1.52c-.22-.01-.42-.06-.6-.13s-.34-.16-.48-.25-.28-.2-.42-.31-.27-.22-.41-.32v-1.69c.37-.47.74-.91,1.13-1.32s.74-.84,1.07-1.29.61-.93.83-1.46.37-1.13.42-1.82c-.14.05-.28.11-.41.17s-.26.12-.39.2c-.32.35-.63.7-.92,1.05-.13.15-.26.3-.4.46s-.27.32-.4.47-.25.31-.37.46-.22.29-.3.42c-.18.26-.37.5-.57.74s-.39.45-.57.63c-.21.22-.42.42-.62.6-.17.06-.31.08-.42.05-.05-.01-.09-.04-.12-.07s-.06-.08-.07-.14-.01-.14,0-.24.05-.22.11-.37c.07-.19.2-.43.37-.72s.37-.59.6-.91.47-.65.72-.99.49-.66.72-.95.43-.56.61-.8.31-.41.39-.52c.06-.08.13-.16.2-.23h0s.07-.07.07-.07c.2-.2.42-.36.66-.49s.43-.23.58-.29c.43-.18.86-.3,1.29-.36s.85-.05,1.24.02c.04.07.08.22.13.44s.08.46.11.74.03.57.02.87-.06.58-.14.83c.3-.11.58-.23.81-.37s.45-.28.65-.42.38-.3.55-.46.34-.32.52-.47.37-.31.57-.47.43-.3.69-.45c.22-.12.49-.24.8-.36s.63-.21.96-.27.65-.09.95-.09.57.07.79.2c-.16.69-.36,1.35-.61,1.97s-.52,1.23-.81,1.82-.58,1.17-.88,1.74-.57,1.16-.82,1.75c-.06.15-.12.31-.17.47s-.1.33-.13.49-.06.31-.08.45-.03.26-.03.37c0,0,.04,0,.1.02s.17,0,.31-.05.35-.13.6-.25.58-.32.97-.57c.41-.26.75-.55,1.05-.86s.53-.6.73-.87c.22-.32.41-.63.56-.94.09.02.18.06.24.11Z"/>
      </g>
    </g>
  </g>
</svg>