<?xml version="1.0" encoding="UTF-8"?>
<svg id="Layer_2" data-name="Layer 2" xmlns="http://www.w3.org/2000/svg" viewBox="0 0 105.61 65.91">
  <defs>
    <style>
      .cls-1 {
        stroke-width: 0px;
      }

      .cls-1, .cls-2 {
        fill: #fff;
      }

      .cls-2 {
        stroke: #fff;
        stroke-miterlimit: 10;
      }
    </style>
  </defs>
  <g id="Brand_Mark" data-name="Brand Mark">
    <g id="Logo_Dark" data-name="Logo Dark">
      <g id="Quill">
        <path class="cls-1" d="M.05,4.04c.23-.25.58-.3.89-.26.03.04.1.11.13.15.31-.11.57.22.85.32.32-.11.54.3.86.16.15.08.29.15.45.21.22-.05.42.06.6.18.2-.12.38.03.56.1.14.07.3.04.44.09.18.08.35.18.54.25.35-.04.61.26.92.37.37-.05.61.36.94.49.84.29,1.35,1.1,2.15,1.46.88.76,1.76,1.51,2.64,2.28.03,0,.09,0,.12,0,1.08.91,2.1,1.88,3.14,2.83.14.13.33.17.46.3,1.32,1.27,2.61,2.57,3.84,3.92.13.14.16.34.29.47.63.71,1.23,1.44,1.83,2.18.08.1.16.21.16.35.36.51.75.99,1.11,1.5.07.08.11.18.09.29.3.44.59.87.89,1.3-.04.44.55.7.53,1.15.2.39.59.73.63,1.18.19.33.41.64.58.98,0,.03-.02.1-.03.13.19.31.36.64.57.94-.02.02-.07.06-.09.08.16.29.34.57.49.87,0,.03-.02.1-.03.13.11.19.22.39.34.58-.09.35.27.61.38.91-.11.39.42.67.33,1.05.1.31.42.58.36.92.1.28.38.54.32.85.1.31.42.59.35.92.1.28.39.53.32.85.09.28.37.54.31.85.12.24.23.47.34.71-.1.37.37.63.28.99.11.24.22.48.34.71-.1.39.41.68.32,1.05.1.21.29.4.27.64.16.31.34.61.52.91-.11.4.45.66.35,1.05.12.3.39.57.37.91.08.22.18.43.27.65-.1.28.2.5.12.78.1.34.17.72,0,1.06-.23.38-.63.63-.88,1,0,.03,0,.1,0,.14-.34.41-.64.84-.9,1.31-.06.09-.04.2-.02.29-.09.18-.19.37-.29.55.03.04.09.13.11.17-.04.06-.11.17-.15.22,0,.17-.05.33-.12.49.14.26-.16.54.03.8-.13.19,0,.39,0,.59-.07.35.08.7-.01,1.05.04.18.1.35.16.52-.09.23.05.45.12.65-.15.28.2.51.08.79.08.28.27.54.21.85.04.2.22.38.13.6.06.2.14.39.22.58-.09.27.1.5.2.73-.03.04-.09.13-.12.17.03.04.09.12.12.16.05.13.1.25.15.37-.08.19,0,.38.07.55,0,.5.27.97.2,1.47.09.15.07.32.07.49.04.18.09.36.05.55.08.39.07.79.09,1.19.07.19.15.38.23.57-.02.09-.04.18-.06.27.2.27.02.59-.09.87.03.04.06.08.09.12-.25.24-.49.68-.88.64-.19.04-.38.05-.57.06-.06-.05-.17-.15-.23-.2.08-.27-.24-.48-.1-.76-.04-.33.21-.6.32-.9-.06-.29.16-.57.2-.86-.11-.16-.05-.32.05-.47-.03-.11-.14-.23-.07-.35.09-.2,0-.4-.07-.59.03-.04.09-.12.12-.16-.09-.17-.21-.35-.11-.55-.09-.2-.15-.42-.13-.64-.07-.15-.1-.31-.05-.47-.07-.19-.15-.38-.22-.57.14-.31-.24-.55-.13-.87-.07-.2-.14-.39-.22-.58.13-.31-.25-.55-.14-.87-.08-.2-.2-.41-.14-.64-.07-.27-.31-.5-.22-.79-.08-.22-.18-.43-.27-.65.1-.31-.24-.54-.18-.85-.09-.29-.32-.53-.3-.85-.09-.32-.39-.57-.35-.92-.14-.29-.32-.55-.46-.84-.12-.5-.2-1.01-.5-1.44.15-.32-.28-.54-.17-.85-.11-.28-.36-.53-.31-.85-.12-.35-.4-.65-.42-1.03-.03-.22-.22-.39-.24-.61-.02-.34-.31-.59-.33-.93-.04-.35-.38-.6-.34-.96-.11-.29-.36-.52-.33-.85-.13-.29-.29-.58-.45-.85.06-.35-.26-.61-.37-.92.09-.4-.43-.67-.34-1.05-.11-.2-.22-.39-.34-.58.06-.35-.27-.61-.39-.92.12-.41-.49-.7-.39-1.12-.18-.3-.35-.61-.53-.91.1-.43-.49-.7-.4-1.12-.2-.32-.39-.66-.59-.98.06-.44-.51-.73-.48-1.17-.19-.34-.41-.65-.59-.99,0-.03.03-.09.04-.13-.2-.33-.42-.65-.61-.98,0-.03.03-.09.04-.12-.24-.37-.48-.74-.71-1.12,0-.03.03-.09.03-.12-.23-.35-.46-.69-.68-1.05,0-.03.02-.09.03-.12-.08-.12-.15-.25-.24-.37-.23-.29-.4-.63-.62-.93.02-.01.07-.04.1-.06-.19-.27-.38-.54-.55-.81.03-.14-.06-.25-.13-.36-.24-.35-.48-.71-.74-1.05.03-.01.08-.04.1-.06-.31-.43-.6-.88-.93-1.3.02-.02.06-.05.08-.07-.4-.55-.78-1.11-1.2-1.65.03-.01.08-.04.11-.05-.43-.53-.8-1.12-1.25-1.64.03-.01.08-.04.1-.05-.47-.6-.92-1.2-1.39-1.8,0-.2-.16-.34-.27-.49-.52-.63-1.01-1.29-1.55-1.91.03-.01.08-.04.11-.05-.93-1.07-1.81-2.18-2.78-3.21.03-.01.09-.04.11-.05-.98-1.07-1.96-2.15-2.97-3.2-.32-.32-.59-.68-.97-.93.29.33.6.64.88.98-.02.02-.07.06-.1.08.73.83,1.4,1.71,2.1,2.56l-.11.04c.46.57.91,1.14,1.35,1.72.39.8,1.03,1.44,1.54,2.16l-.11.03c.4.51.78,1.03,1.16,1.55,0,.03-.01.09-.02.13.39.54.77,1.08,1.17,1.61-.03.01-.08.04-.1.06.35.45.66.93,1.01,1.38-.02.02-.07.05-.1.07.36.53.8,1.01,1.03,1.62.15.26.33.5.5.74-.03.01-.08.04-.1.05.33.48.73.93.92,1.49.18.33.42.63.62.95,0,.1,0,.21.07.29.23.36.47.72.71,1.07-.03.01-.08.04-.11.05.26.36.49.74.73,1.11.09.02.21.06.15.18-.13.4.48.63.38,1.01.22.35.45.7.66,1.06,0,.03-.03.09-.04.12.22.35.44.7.66,1.05,0,.03-.03.1-.04.13.2.33.38.66.6.98-.08.45.54.75.45,1.18.21.32.39.65.6.97-.1.43.48.69.42,1.11.08.25.39.45.3.72.15.32.45.61.45.97.17.31.34.61.51.91-.11.41.44.67.35,1.06.14.32.45.61.43.98.11.28.38.52.33.84.16.31.33.61.51.91-.1.32.22.58.32.86-.09.39.43.66.33,1.05.1.31.42.58.36.92.11.24.23.47.35.7-.09.32.22.57.32.85-.12.27.26.47.14.73.1.28.37.53.31.85.08.29.36.54.29.85.08.22.19.43.29.64-.13.32.29.53.18.84.11.23-.2.38-.35.5-.04-.02-.11-.06-.15-.07-.03.03-.1.09-.14.12-.14,0-.28-.01-.43-.02-.2.03-.4,0-.58-.07-.23.05-.44-.07-.64-.15-.29.06-.51-.2-.79-.25-.34-.03-.61-.24-.9-.4-.24.11-.41-.18-.64-.18-.38,0-.61-.47-.99-.37-.3-.18-.6-.35-.91-.53-.34,0-.6-.29-.89-.43-.03,0-.1.02-.13.03-.41-.2-.75-.53-1.21-.63-.33-.1-.56-.51-.93-.46-.32-.2-.62-.45-.95-.65-.03,0-.1.02-.14.02-1.34-.96-2.61-2.07-3.5-3.47-.05-.07-.06-.15-.03-.24-.36-.59-.48-1.28-.56-1.97.03-.04.1-.11.13-.15-.02-.1-.23-.25-.05-.32.44.02.76.35,1.13.53.31-.07.57.23.85.31.22-.08.43.19.65.01,0-.1-.02-.2-.03-.3-1.36-.88-2.44-2.11-3.37-3.41,0-.04,0-.11,0-.15-.2-.35-.46-.67-.66-1.02,0-.03.03-.1.04-.13-.09-.15-.19-.3-.28-.45l-.07-.12c-.07-.14-.14-.28-.21-.42.04-.24-.14-.43-.23-.62-.06-.08-.09-.18-.02-.27-.12-.28-.3-.54-.32-.85-.05-.27-.32-.51-.23-.79-.11-.24-.23-.47-.34-.7.14-.31-.26-.54-.16-.86-.12-.28-.33-.54-.3-.86-.04-.27-.32-.51-.24-.78-.12-.24-.22-.48-.34-.71.14-.24-.2-.43-.1-.66-.11-.3-.43-.58-.36-.92-.18-.34-.37-.67-.61-.98,0-.03.01-.1.01-.13-.3-.58-.93-1.02-.92-1.72.18-.18.41-.25.64-.32.14.05.27.11.41.18.04-.03.12-.09.16-.12.12.04.24.08.35.13.16-.13.54-.21.44-.47-.17-.32-.43-.59-.64-.89,0-.03,0-.1,0-.13-.31-.45-.63-.9-.97-1.33.02-.02.07-.05.09-.07-.3-.41-.59-.84-.86-1.27,0-.03,0-.09.01-.12-.13-.29-.46-.52-.44-.85-.21-.35-.45-.68-.64-1.05,0-.03,0-.1,0-.13-.19-.33-.41-.64-.58-.99,0-.03.02-.1.02-.13-.19-.3-.35-.61-.53-.91.12-.4-.45-.66-.35-1.06-.14-.31-.37-.58-.39-.93-.04-.3-.38-.53-.28-.83-.11-.24-.23-.47-.34-.71.07-.31-.21-.57-.3-.85.13-.31-.24-.54-.16-.85-.07-.25-.23-.47-.24-.73.02-.25-.2-.45-.13-.71-.08-.16-.14-.33-.11-.52-.05-.2-.12-.4-.21-.59.13-.28-.18-.52-.08-.8-.09-.2-.17-.41-.13-.64-.05-.21-.11-.42-.22-.6.03-.04.08-.12.11-.17-.22-.25-.07-.57-.2-.85-.1-.22.11-.44.02-.66M14.28,40.96c.18.06.35.14.53.21.23-.15.47.12.71.16.16-.05.34-.02.5-.01.03.02.08.06.11.08.07-.02.21-.05.28-.06-.07,0-.14,0-.21,0-.03-.04-.1-.11-.13-.14-.23.13-.46-.1-.66-.18-.03.01-.09.03-.12.05-.27-.13-.53-.29-.79-.45-.07.11-.14.23-.21.34Z"/>
      </g>
      <g>
        <path class="cls-1" d="M72.88,6.92c.33-.33.65-.68.96-1.05s.62-.74.93-1.1.66-.7,1.04-1,.8-.54,1.26-.72,1-.27,1.61-.27h.82c-.23,1.07-.49,2.07-.77,2.97s-.6,1.76-.95,2.57-.71,1.58-1.12,2.32-.83,1.47-1.28,2.21-.93,1.48-1.43,2.24-1.03,1.56-1.57,2.41c-.31.46-.59.96-.85,1.51s-.5,1.1-.7,1.67-.38,1.11-.53,1.65-.26,1.03-.34,1.46c0,.16,0,.31,0,.47s.03.34.08.54c.44.01.86-.06,1.26-.21s.78-.34,1.14-.58.69-.49,1-.76.59-.52.84-.75.48-.42.68-.57.36-.21.49-.19l.88.12c-.02.05-.11.2-.28.43s-.41.51-.7.84-.65.68-1.07,1.05-.88.73-1.38,1.06-1.05.63-1.63.89-1.19.42-1.83.5c-.14.02-.3.04-.47.07s-.36.04-.54.03-.37-.05-.55-.12-.34-.19-.49-.36-.26-.41-.35-.7-.13-.68-.13-1.15c0-.26.04-.56.11-.91s.21-.76.41-1.22c.37-1.03.8-2.01,1.27-2.94s.98-1.83,1.51-2.7c.53-.88,1.07-1.74,1.63-2.6s1.1-1.73,1.63-2.62,1.03-1.81,1.5-2.76.9-1.95,1.27-3.02c-.67.49-1.34,1.06-2.01,1.69s-1.32,1.31-1.95,2.02-1.23,1.45-1.8,2.2-1.08,1.5-1.54,2.24c-.23.34-.5.8-.82,1.36s-.66,1.19-1.04,1.88c-.38.69-.77,1.42-1.18,2.19s-.82,1.53-1.23,2.28-.81,1.47-1.2,2.15-.75,1.29-1.09,1.81-.63.94-.9,1.25-.47.46-.62.46c-.23,0-.4-.08-.5-.23s-.18-.35-.22-.6-.05-.52-.05-.83,0-.61,0-.92c0-.03,0-.09.01-.18s.02-.19.04-.29.04-.21.06-.32.06-.21.1-.29.08-.14.13-.17.11-.02.17.04c.1,0,.17-.02.23-.06s.11-.09.15-.14.09-.1.14-.14.11-.06.18-.06c.79-1.27,1.56-2.59,2.31-3.96s1.47-2.78,2.16-4.21,1.36-2.89,2-4.36,1.25-2.95,1.83-4.42c-1,.77-1.91,1.63-2.75,2.58s-1.62,1.94-2.36,2.99-1.44,2.13-2.1,3.26-1.33,2.26-1.98,3.4-1.31,2.27-1.98,3.4-1.37,2.21-2.12,3.26c-.02.3-.08.57-.16.82s-.19.47-.32.67-.27.39-.44.56-.33.33-.51.48c-.25-.04-.45-.11-.6-.22s-.27-.25-.36-.42-.15-.36-.19-.58-.07-.44-.09-.68-.04-.48-.06-.73-.06-.49-.1-.73c.49-.37.97-.83,1.44-1.38s.92-1.15,1.36-1.8.86-1.34,1.27-2.06.8-1.44,1.18-2.16c.38-.72.73-1.42,1.08-2.1s.67-1.31.97-1.89c.29-.54.54-1.04.77-1.49s.42-.89.59-1.31.33-.84.47-1.26.27-.86.39-1.33.24-.98.36-1.54.25-1.17.38-1.86c-.58.37-1.15.79-1.71,1.24s-1.12.93-1.68,1.44-1.11,1.03-1.66,1.57-1.1,1.08-1.64,1.63-1.09,1.09-1.63,1.62-1.09,1.04-1.63,1.53v-.51c0-.25-.02-.48-.05-.69s-.07-.41-.1-.61-.07-.4-.1-.59-.05-.41-.05-.64c0-.1.02-.18.05-.23s.09-.09.15-.12.14-.04.23-.05.19,0,.29,0h.3c.49-.43,1-.83,1.53-1.21s1.07-.75,1.6-1.11l1.61-1.08c.54-.36,1.06-.73,1.57-1.12s.99-.79,1.45-1.21.88-.88,1.27-1.37c.2-.1.42-.18.67-.23s.5-.08.75-.08c.31,0,.59.03.84.09s.48.16.68.31c0,.44-.04.84-.11,1.2s-.17.7-.29,1.01-.25.61-.4.9-.28.57-.41.86-.25.59-.36.91-.19.66-.24,1.03c.35-.19.69-.44,1.01-.77s.64-.68.96-1.07.65-.77.98-1.17.7-.75,1.09-1.08.82-.58,1.28-.79c.46-.2.98-.31,1.56-.31.13,0,.26,0,.4,0s.27.01.4.04.22.09.3.18c.08.09.12.22.12.4,0,.4-.05.76-.14,1.09s-.2.63-.32.93-.23.6-.34.91-.18.65-.2,1.03c.4-.22.77-.49,1.1-.82Z"/>
        <path class="cls-1" d="M85.7,21.88c.05,0,.11.02.16.05s.11.06.15.12.07.13.07.23c0,.11-.04.27-.12.47s-.18.41-.3.63-.26.45-.41.68-.31.43-.46.6c-.26.3-.54.57-.84.8s-.6.43-.91.59-.62.28-.92.36-.59.13-.87.13c-.36,0-.65-.03-.88-.09s-.4-.15-.53-.26-.21-.24-.26-.39-.06-.3-.05-.47.03-.34.08-.53.09-.36.14-.54c-.05.11-.14.25-.27.41s-.28.33-.47.51-.4.36-.63.54-.49.34-.76.48-.56.26-.86.35-.61.14-.93.14c-.12,0-.25,0-.38,0s-.27-.02-.41-.05-.26-.09-.38-.17-.23-.2-.32-.36-.17-.37-.22-.62-.08-.57-.08-.95.07-.83.21-1.3.33-.95.57-1.45.52-.99.85-1.48.68-.95,1.06-1.39.77-.82,1.18-1.18.82-.63,1.24-.84l2.63,1.08c.05-.11.12-.23.2-.34s.17-.22.26-.31.2-.16.31-.22.22-.09.34-.09c.15,0,.29.02.41.07s.23.11.32.18.18.17.26.27.15.21.23.33c-.2.52-.4,1.01-.59,1.5s-.37.96-.55,1.44-.36.97-.54,1.47-.37,1.02-.56,1.56c-.05.16-.08.29-.08.41,0,.15.04.27.12.36s.21.13.38.13c.32,0,.66-.09,1-.28s.67-.43.98-.71.58-.59.82-.93.42-.64.53-.92c0,0,.03,0,.09,0ZM76.55,24.73c.1.02.18.04.24.04.41,0,.79-.08,1.12-.23s.64-.37.91-.65.53-.61.76-.99.45-.8.66-1.24.42-.92.63-1.42.43-1,.66-1.51c-.02-.04-.06-.07-.14-.11s-.15-.07-.24-.09-.18-.05-.27-.07-.16-.03-.21-.03c-.17,0-.32,0-.45.03s-.25.07-.36.13-.23.13-.33.22-.23.19-.35.31c-.37.35-.71.72-1.01,1.1s-.57.79-.82,1.23-.45.93-.62,1.46-.32,1.12-.43,1.77c.07.02.15.05.24.07Z"/>
        <path class="cls-1" d="M94.69,21.8c.1.05.16.1.19.17s.04.13.02.2-.04.14-.06.19c-.23.57-.53,1.12-.88,1.63s-.77.98-1.24,1.37-1.02.71-1.62.95-1.28.35-2.02.35c-.26,0-.48-.04-.66-.13s-.33-.2-.45-.36-.2-.33-.26-.54-.08-.44-.08-.69c0-.38.05-.79.14-1.24s.22-.9.4-1.36.39-.9.65-1.33.56-.82.91-1.16c-.08-.15-.2-.26-.34-.34s-.29-.15-.45-.23-.31-.17-.45-.28-.26-.28-.33-.5c-.03.18-.09.38-.17.61s-.18.47-.29.72-.23.5-.36.76-.27.5-.4.74-.26.46-.38.67-.23.39-.32.54c-.05.08-.09.14-.14.19s-.11.08-.18.08c-.07,0-.14-.02-.21-.05s-.19-.11-.34-.23l.07-.16c.05-.11.1-.24.18-.41s.15-.36.24-.57.18-.42.26-.63.16-.41.23-.6.13-.35.17-.47c.04-.12.07-.27.09-.46s.04-.38.05-.59.02-.41.03-.62,0-.4,0-.57c0-.09,0-.18,0-.28s-.01-.19-.02-.27c0-.1-.01-.19-.02-.28.16-.05.36-.09.61-.13s.56-.05.92-.05c.42,0,.75.04.98.13s.41.2.53.34.2.3.24.49.08.38.11.57.08.39.14.59.17.38.34.55c.05-.04.13-.07.23-.11s.23-.07.37-.1.29-.06.45-.08.33-.03.49-.03c.17,0,.34.01.51.04s.31.07.44.14.23.15.31.25.12.24.12.39c0,.09-.01.18-.04.27s-.05.17-.09.25-.07.15-.11.21-.06.11-.08.14c-.02,0-.05-.01-.08-.03s-.07-.05-.11-.07-.08-.05-.11-.07-.07-.03-.09-.04c-.17.16-.36.35-.56.59s-.4.49-.6.77-.4.56-.59.86-.36.59-.5.88-.26.56-.35.82-.13.49-.13.69c0,.11.03.2.08.28s.15.12.29.12c.18,0,.38-.04.61-.13s.46-.2.71-.36.5-.34.75-.55.49-.46.72-.72.43-.55.62-.85.34-.62.46-.95c.22.01.37.04.47.09Z"/>
        <path class="cls-1" d="M105.22,21.88c.05,0,.11.02.16.05s.11.06.15.12.07.13.07.23c0,.11-.04.27-.12.47s-.18.41-.3.63-.26.45-.41.68-.31.43-.46.6c-.26.3-.54.57-.84.8s-.6.43-.91.59-.62.28-.92.36-.59.13-.87.13c-.36,0-.65-.03-.88-.09s-.4-.15-.53-.26-.21-.24-.26-.39-.06-.3-.05-.47.03-.34.08-.53.09-.36.14-.54c-.05.11-.14.25-.27.41s-.28.33-.47.51-.4.36-.63.54-.49.34-.76.48-.56.26-.86.35-.61.14-.93.14c-.12,0-.25,0-.38,0s-.27-.02-.41-.05-.26-.09-.38-.17-.23-.2-.32-.36-.17-.37-.22-.62-.08-.57-.08-.95.07-.83.21-1.3.33-.95.57-1.45.52-.99.85-1.48.68-.95,1.06-1.39.77-.82,1.18-1.18.82-.63,1.24-.84l2.63,1.08c.05-.11.12-.23.2-.34s.17-.22.26-.31.2-.16.31-.22.22-.09.34-.09c.15,0,.29.02.41.07s.23.11.32.18.18.17.26.27.15.21.23.33c-.2.52-.4,1.01-.59,1.5s-.37.96-.55,1.44-.36.97-.54,1.47-.37,1.02-.56,1.56c-.05.16-.08.29-.08.41,0,.15.04.27.12.36s.21.13.38.13c.32,0,.66-.09,1-.28s.67-.43.98-.71.58-.59.82-.93.42-.64.53-.92c0,0,.03,0,.09,0ZM96.08,24.73c.1.02.18.04.24.04.41,0,.79-.08,1.12-.23s.64-.37.91-.65.53-.61.76-.99.45-.8.66-1.24.42-.92.63-1.42.43-1,.66-1.51c-.02-.04-.06-.07-.14-.11s-.15-.07-.24-.09-.18-.05-.27-.07-.16-.03-.21-.03c-.17,0-.32,0-.45.03s-.25.07-.36.13-.23.13-.33.22-.23.19-.35.31c-.37.35-.71.72-1.01,1.1s-.57.79-.82,1.23-.45.93-.62,1.46-.32,1.12-.43,1.77c.07.02.15.05.24.07Z"/>
        <path class="cls-1" d="M78.74,38.06c-.87,1.1-1.84,2.13-2.9,3.09s-2.22,1.84-3.45,2.63-2.5,1.46-3.82,2.01c-.52.16-1.02.36-1.5.6-.48.25-.97.57-1.46.98-.08.03-.16.05-.22.05s-.11,0-.16,0h-.14s-.06,0-.09,0-.07.01-.1.02c-.17.44-.36.9-.57,1.36s-.43.93-.65,1.4-.44.95-.65,1.43-.4.96-.56,1.44c-.15.32-.3.67-.46,1.03s-.33.72-.53,1.08-.4.7-.63,1.03-.47.62-.75.86-.57.45-.9.59-.69.22-1.09.22c-.17,0-.37-.03-.58-.09s-.43-.15-.65-.26c-.43-.14-.83-.34-1.18-.59s-.67-.54-.94-.89c-.46-.67-.81-1.3-1.06-1.89s-.4-1.15-.45-1.68c-.02-.2-.01-.38.02-.54s.08-.31.15-.46c.04-.32.11-.63.19-.91s.17-.56.25-.83c.49-1.45,1.19-2.95,2.1-4.48.91-1.53,2.02-3.05,3.34-4.56.37-.46.76-.89,1.16-1.31s.81-.82,1.22-1.22c.37-.35.78-.66,1.22-.94s.88-.52,1.3-.74c.32-.16.62-.31.9-.43s.53-.27.77-.43.45-.35.63-.58.36-.52.5-.88c.02,0,.05,0,.07,0s.04,0,.05,0c.1,0,.18-.01.25-.04s.13-.05.18-.08.09-.06.13-.08.06-.04.08-.04c.04-.09.1-.19.2-.29s.23-.22.4-.34c.07-.26.13-.51.18-.73s.11-.41.18-.57.16-.28.27-.37.26-.13.44-.13c.22.02.42.06.6.12.16.05.3.12.43.21s.21.22.23.37c.01.16-.01.31-.07.47s-.13.32-.21.48-.17.33-.27.5-.17.35-.23.53c.46-.07.98-.18,1.55-.35s1.18-.33,1.83-.5,1.32-.32,2.01-.45c.7-.13,1.4-.2,2.1-.2.4.07.77.13,1.12.19s.68.16.97.28.56.3.8.52.44.53.61.91c-.59,1.17-1.32,2.31-2.18,3.41ZM61.34,51.75c.41-.85.82-1.83,1.23-2.95s.87-2.36,1.35-3.73c.48-1.37,1.04-2.85,1.69-4.45.02-.06.04-.15.06-.28s.04-.26.06-.4l.05-.41c.02-.14.04-.25.05-.34,0-.01-.01-.03-.02-.05s-.02-.03-.05-.04c-.22.09-.44.21-.68.36s-.48.3-.72.46-.47.32-.69.48-.42.29-.6.41c-.23.19-.47.39-.72.6s-.5.44-.75.68c-.22.17-.42.37-.61.59s-.38.45-.58.7-.39.5-.6.77-.43.54-.68.82c-.36.5-.71,1.01-1.05,1.54-.34.53-.65,1.05-.94,1.56s-.54,1.02-.76,1.52-.38.96-.49,1.4c.01.17.05.38.12.63s.11.52.14.82c-.12.32-.22.6-.31.84s-.14.44-.15.58c.04.2.13.4.26.61s.29.4.49.57.43.31.69.43.54.18.84.19c.2,0,.41-.07.62-.21s.41-.31.59-.5.35-.39.49-.6.24-.37.31-.5c.49-.55.94-1.25,1.35-2.1ZM67.53,43.59c.22,0,.43,0,.63-.03s.42-.05.63-.09c.74-.13,1.46-.34,2.17-.63s1.38-.65,2.02-1.06,1.25-.89,1.81-1.41,1.08-1.08,1.54-1.68.86-1.22,1.2-1.87.6-1.31.8-1.99c-.19-.01-.39-.02-.59-.03s-.4-.01-.6-.01c-.53,0-1.08.02-1.63.07s-1.1.11-1.64.2-1.07.2-1.58.33-.99.29-1.44.46-.85.37-1.22.59-.67.45-.92.71c-.2.26-.38.52-.54.77s-.3.52-.41.78c-.17.41-.33.83-.48,1.26s-.28.87-.4,1.31-.24.88-.35,1.32-.21.87-.32,1.29c.45,0,.89-.1,1.31-.29Z"/>
        <path class="cls-1" d="M80.87,51.34c.05,0,.11.02.16.05s.11.06.15.12.07.13.07.23c0,.11-.04.27-.12.47s-.18.41-.3.63-.26.45-.41.68-.31.43-.46.6c-.26.3-.54.57-.84.8s-.6.43-.91.59-.62.28-.92.36-.59.13-.87.13c-.36,0-.65-.03-.88-.09s-.4-.15-.53-.26-.21-.24-.26-.39-.06-.3-.05-.47.03-.34.08-.53.09-.36.14-.54c-.05.11-.14.25-.27.41s-.28.33-.47.51-.4.36-.63.54-.49.34-.76.48-.56.26-.86.35-.61.14-.93.14c-.12,0-.25,0-.38,0s-.27-.02-.41-.05-.26-.09-.38-.17-.23-.2-.32-.36-.17-.37-.22-.62-.08-.57-.08-.95.07-.83.21-1.3.33-.95.57-1.45.52-.99.85-1.48.68-.95,1.06-1.39.77-.82,1.18-1.18.82-.63,1.24-.84l2.63,1.08c.05-.11.12-.23.2-.34s.17-.22.26-.31.2-.16.31-.22.22-.09.34-.09c.15,0,.29.02.41.07s.23.11.32.18.18.17.26.27.15.21.23.33c-.2.52-.4,1.01-.59,1.5s-.37.96-.55,1.44-.36.97-.54,1.47-.37,1.02-.56,1.56c-.05.16-.08.29-.08.41,0,.15.04.27.12.36s.21.13.38.13c.32,0,.66-.09,1-.28s.67-.43.98-.71.58-.59.82-.93.42-.64.53-.92c0,0,.03,0,.09,0ZM71.73,54.19c.1.02.18.04.24.04.41,0,.79-.08,1.12-.23s.64-.37.91-.65.53-.61.76-.99.45-.8.66-1.24.42-.92.63-1.42.43-1,.66-1.51c-.02-.04-.06-.07-.14-.11s-.15-.07-.24-.09-.18-.05-.27-.07-.16-.03-.21-.03c-.17,0-.32,0-.45.03s-.25.07-.36.13-.23.13-.33.22-.23.19-.35.31c-.37.35-.71.72-1.01,1.1s-.57.79-.82,1.23-.45.93-.62,1.46-.32,1.12-.43,1.77c.07.02.15.05.24.07Z"/>
        <path class="cls-1" d="M101.54,50.4s.09.1.13.18.04.18.02.31c-.02.13-.08.28-.16.47s-.18.39-.3.59-.24.41-.38.62-.27.38-.41.53c-.29.34-.59.63-.89.87s-.6.44-.89.59-.57.25-.85.3-.53.05-.76,0c-.11-.02-.25-.06-.4-.11s-.3-.12-.44-.21-.26-.21-.37-.36-.17-.33-.18-.56c-.04-.4-.03-.77.02-1.12s.11-.65.2-.92.18-.5.27-.7.18-.34.25-.45c.16-.29.33-.58.52-.87l.57-.88c.19-.29.37-.59.53-.89s.3-.6.41-.9c-.33.11-.66.28-.98.5s-.64.47-.96.74-.64.55-.95.83-.64.55-.96.79c-.43.31-.8.68-1.11,1.1s-.61.86-.89,1.33-.55.94-.82,1.41-.56.93-.88,1.35c-.2-.01-.38-.05-.53-.11s-.3-.14-.43-.23-.25-.18-.37-.28-.24-.19-.36-.28v-1.5c.32-.41.66-.8,1-1.17s.66-.75.95-1.14.54-.83.74-1.29.33-1,.37-1.62c-.13.05-.25.1-.36.15s-.23.11-.34.18c-.28.31-.56.62-.82.93-.11.13-.23.27-.35.41s-.24.28-.35.42-.22.27-.32.41-.19.26-.27.37c-.16.23-.32.45-.5.66s-.35.4-.5.56c-.19.19-.37.37-.55.53-.15.05-.27.07-.37.05-.04-.01-.08-.03-.11-.06s-.05-.07-.06-.13-.01-.13,0-.22.05-.2.09-.32c.07-.17.18-.38.33-.63s.33-.53.53-.81.41-.58.63-.88.43-.58.63-.85.38-.5.54-.71.27-.36.35-.46c.05-.07.11-.14.18-.21h0s.06-.06.06-.06c.18-.17.37-.32.58-.43s.38-.2.52-.26c.38-.16.76-.27,1.15-.32s.75-.05,1.1.01c.04.07.08.2.12.39s.08.41.1.66.03.5.02.77-.05.52-.13.74c.27-.1.51-.2.72-.32s.4-.24.58-.37.34-.26.49-.41.3-.28.46-.42.33-.28.51-.41.38-.27.61-.4c.2-.11.44-.21.71-.32s.56-.19.85-.24.57-.08.85-.08.51.07.7.18c-.14.61-.32,1.19-.54,1.75s-.46,1.09-.72,1.61-.52,1.04-.78,1.54-.51,1.03-.73,1.55c-.05.13-.11.27-.15.42s-.09.29-.12.43-.05.27-.07.4-.03.23-.03.32c0,0,.04,0,.09.01s.15,0,.28-.05.31-.11.54-.23.51-.28.86-.51c.36-.23.67-.49.93-.77s.47-.53.65-.77c.2-.28.36-.56.5-.84.08.02.16.05.22.1Z"/>
      </g>
      <line class="cls-2" x1="42.86" y1="0" x2="43.83" y2="65.9"/>
    </g>
    <path class="cls-1" d="M88.21,49.46s.07,0,.11.01.09.09.15.2c.11.23.18.4.19.5s-.01.2-.08.29c-1.65,2.99-3.3,4.45-4.97,4.4h.03s-.02,0-.02,0c-.19-.02-.4-.1-.61-.22s-.4-.26-.57-.43-.3-.36-.38-.58-.1-.43-.03-.65l.63-2.19-.7.79-.3.31c-.12.12-.23.21-.3.24s-.14.05-.19.04-.09-.04-.12-.08l-.09-.13c-.02-.06-.03-.13-.02-.21s.03-.16.07-.23.07-.15.11-.22.08-.13.12-.18c.44-.59.82-1.17,1.16-1.75s.67-1.12.98-1.64.62-1.01.93-1.46.65-.87,1.02-1.23c.23.02.44.04.64.07.16.03.31.07.45.13s.22.12.24.21c0,.04-.02.16-.07.35s-.13.42-.22.7-.2.6-.33.95-.25.72-.39,1.09-.27.75-.4,1.12-.26.72-.37,1.03-.21.6-.29.83-.14.41-.17.52c-.04.14-.05.26-.05.36s.03.18.07.25.09.11.15.14.13.04.2.04c1.05,0,2.17-1.08,3.35-3.25.02-.06.06-.09.09-.11ZM88.07,42.63c-.15.15-.33.27-.55.35s-.43.12-.66.13-.43-.04-.6-.13-.31-.23-.39-.42-.09-.43,0-.73h0s0-.01,0-.02h0s0,0,0,0c.15-.43.33-.74.54-.93s.43-.28.66-.25.46.16.68.41.42.59.58,1.04c-.02.22-.11.4-.27.56ZM85.86,41.82h0s0,0,0,0Z"/>
  </g>
</svg>