<?xml version="1.0" encoding="UTF-8"?>
<svg id="Layer_2" data-name="Layer 2" xmlns="http://www.w3.org/2000/svg" viewBox="0 0 118 96.4">
  <defs>
    <style>
      .cls-1 {
        fill: none;
        stroke: #000;
        stroke-miterlimit: 10;
        stroke-width: .25px;
      }
    </style>
  </defs>
  <g id="Assets">
    <g id="Logo_Dark" data-name="Logo Dark">
      <g id="Quill">
        <path class="cls-1" d="M51.93.55c.29-.37.78-.45,1.23-.42.05.05.15.15.2.2.42-.17.82.27,1.22.39.43-.18.79.38,1.23.17.21.1.43.19.65.27.31-.08.6.05.85.21.26-.18.53.01.79.1.2.09.42.03.63.09.26.09.51.23.78.32.48-.08.89.32,1.33.46.51-.09.9.46,1.36.62,1.21.35,2.01,1.46,3.18,1.9,1.32,1,2.63,2,3.94,3.01.04,0,.13,0,.17,0,1.61,1.2,3.15,2.49,4.7,3.76.21.17.48.21.68.39,1.99,1.69,3.93,3.43,5.8,5.24.19.19.26.46.46.65.96.95,1.88,1.94,2.8,2.93.13.13.25.28.26.48.55.69,1.16,1.34,1.72,2.02.11.11.17.24.15.39.46.59.92,1.18,1.39,1.77,0,.62.85.95.86,1.58.32.54.91.98,1.01,1.61.3.45.64.87.91,1.34,0,.05-.02.14-.03.19.3.42.57.87.9,1.28-.03.03-.09.09-.12.12.26.39.54.78.78,1.19,0,.05-.02.14-.03.19.18.27.35.53.53.79-.1.49.44.84.63,1.25-.11.56.66.91.58,1.46.18.42.65.79.6,1.26.17.39.58.73.54,1.17.17.42.65.79.59,1.27.18.38.61.72.53,1.17.16.39.58.73.53,1.16.19.32.37.65.55.98-.1.52.59.86.5,1.37.17.33.36.65.55.98-.1.56.64.92.56,1.46.16.28.45.53.44.88.26.43.54.84.83,1.24-.11.57.7.89.61,1.45.2.41.61.77.62,1.25.13.3.29.6.45.89-.12.4.33.69.24,1.09.17.47.32,1,.12,1.49-.28.55-.82.93-1.14,1.46,0,.05,0,.14,0,.19-.43.6-.81,1.23-1.12,1.9-.08.13-.04.28,0,.41-.11.27-.23.53-.36.79.05.06.13.18.18.24-.05.08-.14.24-.18.32,0,.24-.04.47-.12.69.23.36-.16.76.12,1.12-.16.28.04.55.06.83-.05.5.18.98.09,1.48.08.24.17.48.27.72-.1.33.11.62.23.91-.18.4.33.7.19,1.1.14.39.43.74.38,1.18.08.28.34.51.25.83.11.27.23.54.37.79-.1.38.19.7.35,1.01-.04.06-.11.19-.15.25.05.05.14.16.19.22.08.17.16.34.25.51-.09.27.05.53.16.77.06.7.48,1.34.43,2.05.14.21.13.45.15.69.07.25.17.5.13.77.16.54.18,1.1.25,1.66.12.26.25.52.39.78-.02.13-.04.25-.05.38.31.36.09.83-.04,1.22.04.06.09.11.14.17-.33.35-.61.99-1.16.96-.26.06-.52.1-.79.13-.09-.07-.26-.2-.34-.27.08-.38-.39-.66-.22-1.06-.09-.46.24-.85.35-1.28-.11-.41.17-.81.2-1.22-.17-.22-.1-.45.02-.67-.06-.16-.22-.31-.13-.49.11-.29-.05-.56-.17-.82.04-.06.12-.18.16-.24-.15-.23-.33-.48-.21-.77-.14-.28-.26-.57-.25-.89-.11-.2-.18-.42-.12-.66-.12-.26-.25-.53-.37-.79.16-.45-.4-.76-.27-1.21-.11-.27-.24-.53-.37-.79.15-.45-.41-.75-.29-1.21-.13-.28-.32-.56-.27-.88-.12-.37-.49-.68-.4-1.1-.14-.3-.29-.6-.45-.89.11-.44-.39-.74-.35-1.18-.16-.4-.5-.72-.51-1.17-.16-.44-.61-.78-.59-1.27-.23-.39-.51-.75-.73-1.15-.22-.69-.39-1.4-.85-1.98.17-.45-.45-.73-.33-1.19-.18-.39-.57-.72-.53-1.17-.21-.49-.63-.88-.7-1.41-.07-.31-.35-.53-.4-.84-.06-.48-.5-.8-.56-1.28-.09-.49-.6-.81-.58-1.33-.18-.39-.56-.71-.55-1.17-.22-.4-.46-.79-.72-1.16.05-.49-.42-.84-.62-1.26.09-.56-.67-.91-.59-1.45-.17-.27-.35-.53-.53-.79.05-.5-.44-.84-.64-1.26.12-.59-.76-.95-.67-1.54-.28-.41-.55-.83-.84-1.24.09-.61-.76-.95-.68-1.54-.32-.44-.62-.89-.94-1.33.04-.63-.79-.99-.79-1.61-.3-.46-.64-.88-.93-1.35,0-.04.03-.13.04-.18-.32-.44-.66-.88-.96-1.33,0-.04.03-.13.04-.18-.38-.51-.76-1.01-1.12-1.53,0-.04.03-.13.04-.18-.36-.47-.72-.94-1.06-1.43,0-.04.02-.13.03-.18-.12-.17-.24-.34-.37-.5-.36-.39-.63-.85-.97-1.26.03-.02.1-.06.13-.09-.29-.36-.58-.73-.86-1.1.03-.2-.12-.35-.22-.5-.37-.48-.74-.97-1.15-1.42.03-.02.1-.07.14-.09-.49-.58-.94-1.19-1.44-1.76.03-.03.08-.08.11-.11-.62-.74-1.21-1.51-1.86-2.23.04-.02.11-.06.14-.07-.67-.72-1.24-1.52-1.93-2.22.03-.02.1-.06.14-.08-.72-.81-1.42-1.62-2.14-2.43-.03-.28-.26-.46-.43-.67-.8-.85-1.56-1.74-2.38-2.57.04-.02.11-.06.14-.08-1.41-1.44-2.77-2.93-4.24-4.32.04-.02.12-.06.15-.08-1.49-1.44-2.98-2.88-4.5-4.29-.48-.42-.9-.92-1.46-1.24.44.44.91.86,1.34,1.31-.03.03-.1.09-.13.13,1.11,1.12,2.14,2.31,3.22,3.45l-.15.06c.7.77,1.4,1.54,2.08,2.32.64,1.1,1.59,1.95,2.39,2.93l-.16.05c.61.68,1.2,1.39,1.79,2.1,0,.04,0,.13-.01.18.6.73,1.2,1.47,1.82,2.18-.03.02-.1.07-.14.09.54.6,1.02,1.26,1.56,1.86-.03.03-.1.08-.13.1.56.71,1.23,1.36,1.61,2.2.23.35.52.67.79,1-.03.02-.11.06-.14.08.51.66,1.12,1.26,1.45,2.03.29.46.66.85.97,1.29.02.14.03.29.13.4.37.49.73.97,1.11,1.45-.04.02-.11.06-.14.08.4.49.76,1.01,1.15,1.51.13.02.3.07.23.24-.14.57.74.85.64,1.4.35.48.7.95,1.04,1.44,0,.04-.03.13-.04.17.35.47.69.95,1.03,1.43,0,.05-.03.14-.04.19.31.45.6.91.94,1.33-.06.64.83,1.01.76,1.62.33.43.62.89.94,1.33-.09.6.74.93.71,1.53.13.34.59.61.5.99.24.44.7.82.73,1.33.27.42.54.83.82,1.24-.11.58.68.9.61,1.46.23.44.69.82.71,1.34.18.39.59.7.56,1.16.26.42.52.84.81,1.25-.1.46.37.79.54,1.18-.08.55.67.9.58,1.46.17.43.65.78.6,1.26.18.32.38.64.56.96-.1.46.37.78.53,1.17-.14.39.41.63.27,1.02.17.39.58.72.53,1.18.14.4.56.73.5,1.17.14.3.31.59.48.88-.15.45.46.72.34,1.17.19.32-.24.55-.44.72-.05-.02-.16-.07-.22-.09-.05.05-.14.14-.18.18-.2,0-.4,0-.6,0-.28.06-.56.04-.83-.05-.32.08-.62-.06-.91-.17-.39.11-.74-.24-1.13-.3-.48-.02-.89-.3-1.3-.49-.32.17-.59-.22-.92-.2-.53.03-.9-.61-1.43-.45-.44-.23-.89-.45-1.33-.68-.48.04-.87-.37-1.3-.54-.05.01-.14.03-.18.05-.59-.25-1.11-.69-1.76-.8-.47-.12-.84-.67-1.36-.59-.48-.26-.92-.59-1.4-.85-.05,0-.14.03-.19.04-1.99-1.25-3.88-2.73-5.28-4.63-.07-.1-.09-.21-.07-.33-.57-.81-.81-1.77-.99-2.72.04-.06.12-.16.16-.22-.04-.14-.35-.34-.1-.44.61,0,1.1.44,1.64.66.43-.12.82.28,1.23.38.31-.13.62.24.92-.03-.02-.14-.05-.28-.08-.42-2-1.14-3.65-2.79-5.09-4.56,0-.05,0-.16-.01-.21-.32-.48-.71-.91-1.03-1.39.01-.05.03-.14.04-.19-.14-.21-.29-.4-.44-.61l-.11-.16c-.12-.19-.23-.38-.34-.58.03-.34-.24-.59-.39-.86-.09-.12-.14-.24-.06-.38-.2-.38-.48-.74-.54-1.18-.09-.38-.5-.7-.41-1.1-.18-.32-.37-.64-.56-.96.16-.45-.42-.74-.32-1.19-.2-.38-.52-.73-.51-1.18-.09-.38-.5-.69-.41-1.08-.19-.32-.36-.65-.55-.98.17-.35-.33-.58-.2-.92-.18-.42-.66-.79-.6-1.27-.28-.47-.59-.92-.95-1.33,0-.05,0-.13,0-.18-.47-.79-1.41-1.36-1.48-2.35.23-.26.55-.37.86-.5.2.07.4.14.59.22.05-.05.16-.14.21-.18.17.05.34.1.51.16.21-.19.73-.33.56-.69-.27-.44-.67-.8-.99-1.21,0-.05,0-.14,0-.18-.48-.61-.98-1.21-1.5-1.79.03-.03.09-.08.12-.11-.47-.56-.92-1.13-1.34-1.72,0-.04,0-.13,0-.17-.21-.39-.69-.7-.71-1.16-.33-.48-.71-.93-1-1.43,0-.05,0-.14,0-.18-.3-.45-.64-.88-.92-1.34,0-.04.02-.14.02-.18-.29-.4-.56-.83-.84-1.24.13-.57-.7-.89-.6-1.46-.23-.42-.57-.79-.65-1.28-.08-.41-.59-.71-.48-1.15-.18-.32-.37-.65-.55-.97.07-.45-.35-.79-.51-1.17.15-.45-.39-.74-.31-1.18-.12-.34-.38-.64-.41-1.01,0-.36-.33-.62-.26-.99-.13-.22-.23-.46-.2-.72-.1-.28-.21-.55-.35-.81.16-.41-.31-.72-.19-1.11-.14-.28-.29-.57-.25-.89-.09-.29-.2-.58-.37-.83.03-.06.1-.18.13-.24-.33-.33-.16-.8-.37-1.18-.17-.3.11-.62-.04-.93M75.79,51.35c.25.08.51.17.76.25.31-.22.68.14,1.01.17.22-.09.47-.05.71-.06.04.03.12.08.16.11.1-.03.29-.08.38-.11-.1,0-.2.02-.3.03-.05-.05-.15-.14-.2-.19-.32.2-.65-.11-.95-.21-.04.02-.12.05-.16.07-.4-.16-.77-.37-1.15-.57-.09.17-.17.33-.26.49Z"/>
      </g>
      <g>
        <path class="cls-1" d="M21,73.06c.36-.36.7-.73,1.03-1.13s.67-.79,1-1.19.71-.75,1.12-1.07.86-.58,1.36-.78,1.08-.3,1.74-.3h.88c-.25,1.16-.52,2.23-.83,3.2s-.65,1.9-1.02,2.77-.77,1.7-1.2,2.5-.89,1.59-1.38,2.38-1,1.59-1.54,2.41-1.1,1.68-1.69,2.6c-.33.49-.64,1.03-.92,1.63s-.53,1.19-.76,1.8-.41,1.2-.57,1.78-.28,1.11-.36,1.57c0,.17,0,.34,0,.51s.04.37.09.59c.47.01.93-.06,1.36-.22s.84-.37,1.23-.62.74-.52,1.07-.82.63-.56.91-.81.52-.45.73-.61.39-.23.53-.21l.95.13c-.02.06-.12.21-.31.46s-.44.55-.76.9-.71.73-1.15,1.13-.95.78-1.49,1.15-1.13.68-1.76.96-1.28.45-1.97.54c-.15.02-.32.04-.51.07s-.39.04-.59.03-.4-.05-.59-.13-.37-.2-.52-.39-.28-.44-.37-.76-.14-.73-.14-1.24c0-.28.04-.61.12-.98s.22-.82.44-1.31c.4-1.11.86-2.17,1.37-3.16s1.06-1.97,1.63-2.91c.57-.94,1.15-1.88,1.75-2.8s1.18-1.86,1.75-2.82,1.11-1.95,1.62-2.97.97-2.11,1.37-3.25c-.72.53-1.44,1.14-2.16,1.82s-1.43,1.41-2.11,2.17-1.32,1.56-1.94,2.37-1.16,1.62-1.65,2.42c-.25.37-.54.86-.88,1.47s-.72,1.28-1.12,2.03c-.4.74-.83,1.53-1.27,2.36s-.88,1.65-1.32,2.46-.87,1.58-1.3,2.32-.81,1.39-1.17,1.95-.68,1.01-.97,1.34-.51.5-.67.5c-.25,0-.43-.08-.54-.25s-.19-.38-.23-.65-.05-.56-.05-.89,0-.66,0-.99c0-.03,0-.1.01-.19s.02-.2.04-.32.04-.23.07-.35.06-.22.11-.31.09-.15.14-.18.11-.02.18.04c.1,0,.19-.02.25-.07s.12-.1.16-.15.1-.11.15-.15.11-.07.2-.07c.85-1.36,1.68-2.79,2.48-4.26s1.58-2.99,2.33-4.54,1.47-3.11,2.16-4.7,1.35-3.17,1.97-4.76c-1.07.83-2.06,1.76-2.96,2.78s-1.75,2.09-2.54,3.22-1.55,2.3-2.27,3.51-1.43,2.43-2.13,3.66-1.41,2.45-2.13,3.66-1.48,2.39-2.28,3.52c-.03.32-.08.62-.17.88s-.21.51-.34.72-.3.42-.47.6-.36.36-.55.52c-.27-.04-.49-.12-.65-.24s-.29-.27-.38-.45-.16-.39-.2-.62-.07-.48-.09-.73-.04-.51-.06-.78-.06-.53-.11-.79c.53-.4,1.05-.9,1.55-1.48s.99-1.23,1.46-1.94.93-1.44,1.37-2.22.86-1.55,1.27-2.33c.4-.78.79-1.53,1.16-2.27s.72-1.41,1.05-2.03c.31-.58.59-1.12.82-1.61s.45-.96.64-1.42.36-.91.5-1.36.29-.93.42-1.44.26-1.06.39-1.65.27-1.26.41-2.01c-.62.4-1.24.85-1.84,1.33s-1.21,1-1.81,1.55-1.19,1.11-1.79,1.69-1.18,1.17-1.77,1.76-1.17,1.17-1.76,1.75-1.17,1.13-1.75,1.65v-.55c0-.27-.02-.52-.05-.75s-.07-.45-.11-.66-.08-.43-.11-.64-.05-.44-.05-.69c0-.11.02-.19.06-.25s.09-.1.16-.13.15-.05.25-.05.2,0,.31,0h.32c.52-.46,1.07-.89,1.64-1.3s1.15-.81,1.73-1.19l1.74-1.16c.58-.39,1.14-.79,1.69-1.2s1.07-.85,1.56-1.31.95-.95,1.37-1.48c.21-.11.45-.19.72-.25s.53-.08.81-.08c.33,0,.63.03.9.1s.52.17.74.33c0,.47-.04.9-.12,1.29s-.19.75-.32,1.09-.27.66-.43.97-.3.62-.45.93-.27.64-.39.98-.21.71-.26,1.11c.38-.2.75-.48,1.09-.83s.69-.74,1.03-1.15.7-.83,1.06-1.26.76-.81,1.18-1.16.88-.63,1.38-.85c.5-.22,1.06-.33,1.68-.33.14,0,.28,0,.43,0s.29.01.43.04.24.1.33.19c.08.09.13.24.13.43,0,.43-.05.82-.16,1.17s-.22.68-.34,1-.25.65-.37.98-.19.7-.22,1.11c.43-.23.83-.53,1.18-.88Z"/>
        <path class="cls-1" d="M34.81,89.19c.05,0,.11.02.17.05s.12.07.16.13.07.14.07.25c0,.12-.04.29-.13.5s-.19.44-.32.68-.28.49-.45.73-.33.46-.49.65c-.28.32-.59.61-.91.86s-.65.46-.98.63-.66.3-.99.39-.64.14-.94.14c-.39,0-.7-.03-.95-.1s-.43-.16-.57-.28-.23-.26-.28-.42-.07-.33-.06-.51.04-.37.08-.57.09-.39.15-.59c-.06.12-.16.27-.29.45s-.3.36-.5.55-.43.39-.68.58-.53.36-.82.51-.6.28-.93.37-.66.15-1,.15c-.13,0-.27,0-.41,0s-.29-.02-.44-.06-.28-.1-.41-.18-.24-.22-.34-.39-.18-.39-.24-.67-.09-.62-.09-1.02.07-.89.22-1.4.35-1.03.61-1.56.56-1.07.92-1.6.73-1.03,1.14-1.49.83-.89,1.28-1.27.89-.68,1.33-.91l2.83,1.16c.06-.12.13-.25.21-.37s.18-.23.28-.33.21-.18.33-.24.24-.09.37-.09c.16,0,.31.02.44.07s.25.11.35.2.2.18.28.3.16.23.24.35c-.22.56-.43,1.09-.63,1.61s-.4,1.04-.6,1.55-.39,1.04-.59,1.58-.39,1.1-.6,1.68c-.06.17-.09.32-.09.45,0,.16.04.29.13.38s.22.14.41.14c.35,0,.71-.1,1.08-.31s.72-.46,1.06-.77.63-.64.89-1,.45-.69.57-.99c0,0,.04,0,.09,0ZM24.96,92.25c.1.03.19.04.26.04.45,0,.85-.08,1.21-.25s.69-.4.98-.7.57-.66.82-1.07.48-.86.71-1.34.46-.99.68-1.53.46-1.08.71-1.63c-.02-.04-.07-.08-.15-.12s-.16-.07-.26-.1-.19-.06-.29-.08-.17-.03-.23-.03c-.18,0-.34,0-.48.03s-.27.07-.39.14-.24.14-.36.23-.24.21-.38.33c-.4.38-.76.78-1.09,1.18s-.62.85-.88,1.33-.48,1-.67,1.58-.34,1.21-.47,1.91c.07.03.16.05.26.08Z"/>
        <path class="cls-1" d="M44.5,89.1c.11.05.18.11.21.18s.04.14.02.22-.04.15-.07.2c-.25.61-.57,1.2-.95,1.76s-.82,1.05-1.34,1.48-1.1.77-1.75,1.02-1.38.38-2.18.38c-.28,0-.52-.05-.71-.14s-.36-.22-.49-.38-.22-.36-.28-.59-.09-.48-.09-.75c0-.41.05-.85.15-1.34s.24-.97.43-1.47.42-.97.7-1.43.61-.88.98-1.25c-.09-.16-.21-.28-.37-.36s-.32-.16-.49-.24-.33-.18-.49-.3-.27-.3-.36-.54c-.03.19-.09.41-.18.66s-.2.5-.32.77-.25.54-.39.82-.29.54-.43.8-.28.5-.41.72-.24.42-.34.58c-.05.08-.1.15-.15.21s-.11.08-.2.08c-.07,0-.15-.02-.23-.05s-.2-.12-.36-.25l.07-.17c.05-.11.11-.26.19-.45s.16-.39.26-.62.19-.45.28-.68.17-.45.25-.65.14-.37.18-.51c.04-.13.07-.29.1-.49s.05-.41.06-.64.02-.45.03-.67,0-.43,0-.62c0-.1,0-.2,0-.31s-.01-.21-.02-.3c0-.1-.01-.2-.02-.3.17-.05.39-.1.65-.14s.6-.06.99-.06c.45,0,.81.05,1.06.14s.44.21.57.36.22.33.26.53.08.41.12.62.09.42.15.64.19.41.37.59c.05-.04.14-.08.25-.12s.25-.08.4-.11.31-.06.49-.08.35-.03.53-.03c.19,0,.37.01.55.04s.33.08.47.15.25.16.33.27.13.25.13.42c0,.1-.01.19-.04.29s-.06.18-.1.27-.08.16-.12.23-.07.12-.09.15c-.02,0-.05-.01-.09-.03s-.08-.05-.12-.08-.08-.06-.12-.08-.07-.04-.1-.04c-.19.17-.39.38-.61.64s-.43.53-.65.83-.43.61-.63.93-.38.64-.54.95-.28.61-.37.89-.14.53-.14.74c0,.12.03.22.09.31s.16.13.31.13c.19,0,.41-.05.65-.14s.5-.22.77-.38.54-.36.81-.6.53-.49.77-.78.47-.59.67-.92.37-.67.5-1.02c.23.01.4.05.51.1Z"/>
        <path class="cls-1" d="M55.85,89.19c.05,0,.11.02.17.05s.12.07.16.13.07.14.07.25c0,.12-.04.29-.13.5s-.19.44-.32.68-.28.49-.45.73-.33.46-.49.65c-.28.32-.59.61-.91.86s-.65.46-.98.63-.66.3-.99.39-.64.14-.94.14c-.39,0-.7-.03-.95-.1s-.43-.16-.57-.28-.23-.26-.28-.42-.07-.33-.06-.51.04-.37.08-.57.09-.39.15-.59c-.06.12-.16.27-.29.45s-.3.36-.5.55-.43.39-.68.58-.53.36-.82.51-.6.28-.93.37-.66.15-1,.15c-.13,0-.27,0-.41,0s-.29-.02-.44-.06-.28-.1-.41-.18-.24-.22-.34-.39-.18-.39-.24-.67-.09-.62-.09-1.02.07-.89.22-1.4.35-1.03.61-1.56.56-1.07.92-1.6.73-1.03,1.14-1.49.83-.89,1.28-1.27.89-.68,1.33-.91l2.83,1.16c.06-.12.13-.25.21-.37s.18-.23.28-.33.21-.18.33-.24.24-.09.37-.09c.16,0,.31.02.44.07s.25.11.35.2.2.18.28.3.16.23.24.35c-.22.56-.43,1.09-.63,1.61s-.4,1.04-.6,1.55-.39,1.04-.59,1.58-.39,1.1-.6,1.68c-.06.17-.09.32-.09.45,0,.16.04.29.13.38s.22.14.41.14c.35,0,.71-.1,1.08-.31s.72-.46,1.06-.77.63-.64.89-1,.45-.69.57-.99c0,0,.04,0,.09,0ZM46,92.25c.1.03.19.04.26.04.45,0,.85-.08,1.21-.25s.69-.4.98-.7.57-.66.82-1.07.48-.86.71-1.34.46-.99.68-1.53.46-1.08.71-1.63c-.02-.04-.07-.08-.15-.12s-.16-.07-.26-.1-.19-.06-.29-.08-.17-.03-.23-.03c-.18,0-.34,0-.48.03s-.27.07-.39.14-.24.14-.36.23-.24.21-.38.33c-.4.38-.76.78-1.09,1.18s-.62.85-.88,1.33-.48,1-.67,1.58-.34,1.21-.47,1.91c.07.03.16.05.26.08Z"/>
        <path class="cls-1" d="M94.81,74.87c-.93,1.19-1.98,2.3-3.13,3.33s-2.39,1.98-3.72,2.83-2.7,1.57-4.11,2.17c-.56.17-1.1.38-1.62.65-.52.27-1.04.62-1.57,1.06-.09.03-.17.05-.23.06s-.12,0-.17,0h-.16s-.07,0-.1,0-.07.01-.11.02c-.18.48-.39.97-.62,1.47s-.46,1.01-.7,1.51-.47,1.02-.7,1.54-.43,1.04-.6,1.55c-.16.35-.33.72-.5,1.11s-.36.78-.57,1.16-.43.75-.67,1.11-.51.66-.81.93-.62.48-.97.64-.74.24-1.17.24c-.19,0-.4-.03-.63-.1s-.46-.16-.7-.28c-.47-.16-.89-.37-1.27-.64s-.72-.59-1.01-.96c-.49-.72-.87-1.4-1.14-2.03s-.43-1.23-.48-1.81c-.02-.22-.01-.41.02-.58s.09-.33.16-.5c.05-.35.11-.67.21-.98s.18-.6.27-.9c.53-1.57,1.28-3.17,2.26-4.82.98-1.65,2.18-3.29,3.6-4.91.4-.49.82-.96,1.25-1.41s.87-.89,1.32-1.31c.4-.38.84-.71,1.32-1.01s.94-.56,1.4-.8c.35-.17.67-.33.97-.47s.57-.29.82-.46.48-.38.68-.63.38-.56.54-.95c.03,0,.05,0,.07,0s.04,0,.05,0c.1,0,.19-.01.27-.04s.14-.06.2-.09.1-.06.14-.09.06-.04.08-.04c.04-.1.11-.2.21-.32s.25-.23.43-.36c.08-.28.14-.55.2-.79s.12-.44.2-.62.17-.3.29-.4.27-.14.48-.14c.24.02.46.06.65.13.17.05.32.13.47.23s.22.23.24.4c.01.17-.01.34-.07.51s-.14.34-.23.52-.19.35-.29.53-.18.37-.25.57c.5-.07,1.06-.2,1.67-.37s1.27-.36,1.97-.54,1.42-.35,2.17-.49c.75-.14,1.5-.21,2.26-.21.43.07.83.14,1.21.21s.73.17,1.05.3.61.32.86.56.47.57.66.98c-.63,1.26-1.42,2.49-2.35,3.67ZM76.06,89.63c.44-.91.88-1.97,1.33-3.17s.93-2.54,1.45-4.02c.52-1.47,1.13-3.07,1.82-4.79.02-.06.04-.16.06-.3s.04-.28.06-.43l.06-.45c.02-.15.04-.27.06-.37,0-.01-.01-.03-.02-.05s-.02-.04-.05-.04c-.23.1-.48.22-.74.38s-.52.33-.77.5-.5.35-.74.51-.46.31-.65.44c-.25.21-.51.42-.78.65s-.53.47-.81.74c-.23.19-.45.4-.66.64s-.41.49-.62.75-.42.54-.65.83-.47.59-.73.88c-.39.54-.76,1.09-1.13,1.65-.37.57-.7,1.13-1.01,1.68s-.58,1.1-.82,1.64-.41,1.04-.53,1.51c.01.19.06.41.13.67s.12.56.16.89c-.13.34-.24.65-.33.91s-.15.47-.16.63c.05.21.14.43.28.66s.32.43.53.62.46.34.74.46.58.19.91.2c.22,0,.44-.08.67-.23s.44-.33.64-.54.37-.43.52-.65.26-.4.33-.54c.53-.6,1.01-1.35,1.45-2.26ZM82.73,80.83c.23,0,.46,0,.68-.03s.45-.05.67-.1c.8-.14,1.57-.37,2.33-.68s1.49-.7,2.18-1.15,1.34-.96,1.95-1.52,1.16-1.17,1.65-1.81.93-1.32,1.29-2.02.65-1.42.86-2.14c-.21-.01-.42-.02-.63-.03s-.43-.01-.65-.01c-.58,0-1.16.02-1.76.07s-1.19.12-1.77.22-1.15.22-1.7.36-1.07.31-1.55.49-.92.4-1.31.63-.72.49-.99.77c-.21.28-.41.56-.58.83s-.32.56-.44.84c-.19.44-.36.89-.51,1.36s-.3.93-.43,1.41-.26.95-.37,1.42-.23.94-.34,1.39c.49,0,.96-.1,1.42-.31Z"/>
        <path class="cls-1" d="M97.11,89.19c.06,0,.11.02.17.05s.12.07.16.13.07.14.07.25c0,.12-.04.29-.13.5s-.19.44-.32.68-.28.49-.45.73-.33.46-.49.65c-.28.32-.59.61-.91.86s-.65.46-.98.63-.66.3-.99.39-.64.14-.94.14c-.39,0-.7-.03-.95-.1s-.43-.16-.57-.28-.23-.26-.28-.42-.07-.33-.06-.51.04-.37.08-.57.09-.39.15-.59c-.06.12-.16.27-.29.45s-.3.36-.5.55-.43.39-.68.58-.53.36-.82.51-.6.28-.93.37-.66.15-1,.15c-.13,0-.27,0-.41,0s-.29-.02-.44-.06-.28-.1-.41-.18-.24-.22-.34-.39-.18-.39-.24-.67-.09-.62-.09-1.02.07-.89.22-1.4.35-1.03.61-1.56.56-1.07.92-1.6.73-1.03,1.14-1.49.83-.89,1.28-1.27.89-.68,1.33-.91l2.83,1.16c.06-.12.13-.25.21-.37s.18-.23.28-.33.21-.18.33-.24.24-.09.37-.09c.16,0,.31.02.44.07s.25.11.35.2.2.18.28.3.16.23.24.35c-.22.56-.43,1.09-.63,1.61s-.4,1.04-.6,1.55-.39,1.04-.59,1.58-.39,1.1-.6,1.68c-.06.17-.09.32-.09.45,0,.16.04.29.13.38s.22.14.41.14c.35,0,.71-.1,1.08-.31s.72-.46,1.06-.77.63-.64.89-1,.45-.69.57-.99c0,0,.04,0,.09,0ZM87.26,92.25c.1.03.19.04.26.04.45,0,.85-.08,1.21-.25s.69-.4.98-.7.57-.66.82-1.07.48-.86.71-1.34.46-.99.68-1.53.46-1.08.71-1.63c-.02-.04-.07-.08-.15-.12s-.16-.07-.26-.1-.19-.06-.29-.08-.17-.03-.23-.03c-.18,0-.34,0-.48.03s-.27.07-.39.14-.24.14-.36.23-.24.21-.38.33c-.4.38-.76.78-1.09,1.18s-.62.85-.88,1.33-.48,1-.67,1.58-.34,1.21-.47,1.91c.07.03.16.05.26.08Z"/>
        <path class="cls-1" d="M103.4,88.56s.07,0,.12.01.1.09.16.21c.12.24.18.41.2.52s-.01.21-.08.3c-1.71,3.1-3.43,4.62-5.16,4.57h.03s-.02,0-.02,0c-.2-.03-.41-.1-.63-.22s-.42-.27-.59-.45-.31-.38-.4-.6-.1-.45-.03-.67l.65-2.27-.73.82-.31.32c-.13.13-.23.21-.32.25s-.15.05-.2.04-.09-.04-.13-.08l-.1-.14c-.03-.06-.03-.14-.02-.22s.04-.16.07-.24.07-.16.12-.23.09-.13.13-.18c.45-.61.86-1.22,1.21-1.81s.69-1.16,1.01-1.7.65-1.05.97-1.52.67-.9,1.06-1.28c.24.02.46.05.66.08.17.03.33.08.47.13s.23.13.25.22c0,.05-.02.16-.07.36s-.13.44-.23.73-.21.62-.34.98-.26.74-.4,1.13-.28.77-.42,1.16-.27.74-.39,1.07-.22.62-.31.86-.14.43-.17.54c-.04.14-.06.27-.05.37s.03.19.07.26.09.12.16.15.13.05.2.04c1.09,0,2.25-1.13,3.47-3.38.03-.06.06-.1.1-.12ZM100.96,80.63h0s0,0,0,0Z"/>
        <path class="cls-1" d="M117.7,89.24c.05.05.1.11.14.19s.05.19.02.33c-.03.14-.08.31-.17.51s-.19.42-.32.64-.26.44-.41.66-.29.41-.44.57c-.32.36-.64.67-.96.94s-.64.47-.96.64-.62.27-.91.33-.57.06-.82,0c-.12-.03-.27-.06-.43-.12s-.32-.13-.48-.23-.28-.23-.4-.39-.18-.36-.2-.61c-.04-.43-.03-.83.02-1.2s.12-.7.21-.99.19-.54.3-.75.2-.37.27-.48c.17-.31.35-.62.56-.94l.61-.95c.2-.32.39-.64.57-.96s.33-.64.44-.97c-.36.12-.71.3-1.05.54s-.69.5-1.03.8-.69.59-1.03.9-.69.59-1.04.85c-.46.34-.86.73-1.2,1.18s-.66.93-.96,1.43-.59,1.01-.88,1.52-.6,1-.95,1.45c-.21-.01-.4-.05-.57-.12s-.32-.15-.46-.24-.27-.19-.4-.3-.26-.21-.39-.31v-1.61c.35-.45.71-.87,1.08-1.26s.71-.81,1.02-1.23.58-.89.8-1.39.35-1.08.4-1.74c-.14.05-.27.11-.39.16s-.25.12-.37.19c-.3.34-.6.67-.88,1-.12.14-.25.29-.38.44s-.26.3-.38.45-.24.29-.35.44-.21.27-.29.4c-.17.25-.35.48-.54.71s-.38.43-.54.6c-.2.21-.4.4-.59.57-.16.06-.29.07-.4.05-.05-.01-.08-.04-.12-.07s-.06-.08-.07-.14-.01-.14,0-.23.05-.21.1-.35c.07-.18.19-.41.35-.68s.36-.57.57-.87.44-.62.68-.95.47-.63.68-.91.41-.54.58-.76.3-.39.37-.5c.06-.08.12-.15.19-.22h0s.07-.07.07-.07c.19-.19.4-.34.63-.47s.41-.22.56-.28c.41-.17.82-.29,1.24-.34s.81-.05,1.19.01c.04.07.08.21.13.42s.08.44.11.71.03.54.02.83-.06.56-.14.8c.29-.1.55-.22.78-.35s.43-.26.62-.4.36-.28.52-.44.33-.3.5-.45.35-.3.55-.45.41-.29.66-.43c.21-.12.47-.23.77-.34s.6-.2.92-.26.62-.09.91-.08.55.07.75.19c-.15.66-.34,1.29-.58,1.88s-.5,1.17-.77,1.74-.56,1.12-.84,1.66-.55,1.1-.78,1.67c-.06.14-.11.29-.16.45s-.09.31-.13.47-.06.3-.08.43-.03.25-.03.35c0,0,.04,0,.1.01s.16,0,.3-.05.33-.12.58-.24.55-.3.93-.55c.39-.25.72-.53,1-.82s.51-.58.7-.83c.21-.3.39-.6.53-.9.09.02.17.06.23.11Z"/>
      </g>
    </g>
  </g>
</svg>